<svg xmlns="http://www.w3.org/2000/svg" viewBox="0 0 311.818 242.373">
  <path fill="#FFF" d="M204.54 91.856c-1.606 26.818-24.657 47.258-51.48 45.65-26.825-1.607-47.268-24.653-45.66-51.47 1.607-26.826 24.656-47.263 51.48-45.656 26.507 1.59 46.782 24.108 45.706 50.52"/>
  <path d="M155.78 135.08l.843-.012.044 4.51-.843.008-.044-4.505m-2.34 4.46l.186-4.5.844.03-.185 4.5-.844-.03m4.5-4.5l.84-.05.28 4.5-.84.06-.27-4.5m-6.84 4.35l.36-4.49.84.07-.36 4.5-.83-.06m9.02-4.5l.84-.09.44 4.48-.84.09-.44-4.48m-11.38 4.23l.58-4.47.84.11-.58 4.48-.84-.11m13.53-4.48l.84-.12.67 4.46-.83.12-.67-4.46m-15.87 4.11l.81-4.43.83.14-.8 4.44-.83-.15m18-4.46l.83-.16.89 4.42-.82.17-.89-4.42m-20.3 3.98l.97-4.4.83.18-.97 4.4-.82-.18m22.42-4.43l.82-.21 1.11 4.37-.82.21-1.11-4.36m-24.72 3.82l1.19-4.35.82.22-1.19 4.35-.82-.22m26.84-4.39l.81-.24 1.27 4.33-.81.24-1.26-4.33M139.59 137l1.41-4.283.8.27-1.41 4.28-.8-.26m31.17-4.34l.795-.27 1.48 4.26-.792.27-1.476-4.26m-33.406 3.52l1.62-4.21.79.303-1.62 4.2-.79-.3m35.43-4.26l.78-.32 1.69 4.18-.78.32-1.69-4.19m-37.6 3.37l1.78-4.15.78.333-1.77 4.144-.77-.33m39.59-4.2l.77-.36 1.89 4.1-.76.358-1.89-4.09m-41.74 3.18l1.98-4.05.76.368-1.98 4.052-.76-.37m43.69-4.11l.75-.394 2.09 4-.75.39-2.08-3.99m-45.79 3l2.17-3.97.74.41-2.18 3.95-.74-.4m47.7-4.02l.73-.42 2.27 3.89-.73.42-2.27-3.89m-49.74 2.8l2.36-3.84.72.43-2.36 3.84-.71-.44m51.6-3.92l.71-.46 2.45 3.79-.71.46-2.46-3.78m-53.58 2.61l2.55-3.72.69.48-2.54 3.72-.7-.47m55.4-3.82l.69-.49 2.59 3.7-.69.49-2.59-3.69M125 129.2l2.72-3.59.67.51-2.72 3.59-.67-.51m59.06-3.7l.67-.51 2.77 3.56-.66.52-2.767-3.57m-60.91 2.24l2.85-3.49.65.53-2.85 3.49-.65-.534m62.59-3.59l.64-.55 2.93 3.43-.64.55-2.93-3.42m-64.38 2.02l3.01-3.35.63.56-3.01 3.35-.627-.565m65.99-3.44l.61-.58 3.1 3.28-.617.58-3.09-3.28m-67.71 1.8l3.17-3.2.6.59-3.17 3.21-.6-.59m69.26-3.3l.59-.61 3.24 3.13-.59.61-3.24-3.13m-70.89 1.57l3.32-3.05.56.62-3.32 3.05-.57-.62m72.37-3.16l.56-.63 3.39 2.98-.56.64-3.4-2.97m-73.91 1.35l3.45-2.89.55.64-3.46 2.89-.55-.64m75.32-3l.52-.66 3.52 2.81-.53.66-3.53-2.81m-76.79 1.13l3.6-2.72.51.67-3.59 2.72-.51-.67m78.12-2.82l.49-.69 3.66 2.63-.5.69-3.68-2.63m-79.49.89l3.72-2.54.47.7-3.72 2.55-.48-.7m80.75-2.68l.47-.7 3.75 2.51-.46.71-3.75-2.5m-82.04.68l3.84-2.37.44.72-3.83 2.37-.44-.71m83.19-2.49l.43-.72 3.86 2.31-.44.73-3.87-2.32m-84.38.47l3.92-2.22.42.73-3.92 2.23-.42-.74m85.45-2.33l.39-.75 3.98 2.12-.4.75-3.98-2.13m-86.55.23l4.02-2.04.38.76-4.03 2.04-.38-.75m87.54-2.15l.36-.76 4.07 1.93-.37.76-4.08-1.92m-88.53-.01l4.12-1.84.34.77-4.12 1.84-.34-.77m89.42-1.95l.33-.78 4.16 1.72-.33.79-4.16-1.72m-90.31-.25l4.2-1.64.3.79-4.2 1.63-.31-.78m91.12-1.75l.28-.8 4.25 1.52-.28.8-4.25-1.52m-91.91-.5l4.27-1.43.27.8-4.28 1.42-.27-.8m92.616-1.57l.26-.81 4.3 1.36-.26.8-4.31-1.36m-93.29-.71l4.34-1.21.22.81-4.34 1.21-.23-.81m93.91-1.35l.21-.82 4.37 1.14-.21.82-4.36-1.14m-94.55-1l4.39-.99.19.82-4.4 1-.185-.823m95-1.14l.17-.83 4.415.92-.176.82-4.416-.92m-95.47-1.16l4.43-.84.16.82-4.44.83-.16-.83m95.88-.96l.12-.84 4.45.69-.13.83-4.46-.7m-96.23-1.4l4.46-.61.11.84-4.46.6-.11-.83m96.55-.69l.1-.84 4.48.53-.1.84-4.48-.53m-96.79-1.68l4.49-.39.07.84-4.48.39-.07-.85m97.01-.3l.05-.84 4.5.3-.05.84-4.5-.3m-97.15-2.05l4.51-.21.04.84-4.51.22-.04-.85m97.24.01l.03-.84 4.51.16-.03.84-4.51-.156m-97.27-1.55v-.85l4.51.01v.85l-4.51-.01m97.3-1.36l4.5-.07.01.84-4.51.07-.01-.84m-97.26-1.02l.04-.84 4.5.24-.05.84-4.5-.24m97.16-1.14l4.49-.29.05.84-4.5.297-.06-.84m-97-1.21l.08-.84 4.49.41-.08.85-4.49-.42m96.81-.96l4.48-.46.09.84-4.49.46-.08-.84m-96.55-1.4l.12-.835 4.46.64-.12.83-4.46-.64m96.24-.73l4.46-.69.13.83-4.46.68-.13-.83m-95.84-1.61l.16-.82 4.43.86-.17.82-4.43-.86m95.47-.49l4.42-.9.17.83-4.41.91L201 79m-94.99-1.82l.2-.82 4.39 1.03-.19.82-4.392-1.03m94.5-.29l4.37-1.116.21.82-4.37 1.12-.2-.818m-93.9-2.02l.24-.81 4.33 1.24-.23.81-4.33-1.25m93.3-.056l4.31-1.33.25.8-4.31 1.33-.24-.81m-92.61-2.22l.28-.8 4.27 1.46-.27.8-4.26-1.46m91.91.15l4.25-1.49.28.8-4.25 1.487-.27-.8m-91.11-2.39l.31-.786 4.19 1.67-.31.79-4.19-1.67m90.315.38l4.18-1.69.31.78-4.18 1.69-.32-.78m-89.41-2.58l.35-.77 4.1 1.88-.35.77-4.1-1.87m88.53.61l4.094-1.89.35.77-4.09 1.89-.35-.76m-87.52-2.73l.38-.76 4.03 2.02-.385.76-4.025-2.02m86.54.81l4-2.08.39.75-4 2.08-.39-.75m-85.44-2.9l.42-.74 3.93 2.22-.42.73-3.93-2.22m84.38 1.02l3.89-2.27.43.73-3.89 2.27-.43-.73m-83.17-3.07l.45-.71 3.81 2.41-.456.71-3.81-2.4m82.01 1.25l3.79-2.45.46.71-3.78 2.46-.46-.71m-80.73-3.23l.49-.69 3.69 2.59-.49.69-3.69-2.59m79.49 1.46l3.66-2.63.49.69-3.66 2.63-.48-.69M115.12 58l.52-.66 3.57 2.766-.52.668L115.12 58m76.78 1.674l3.533-2.8.527.66-3.53 2.8-.522-.66m-75.3-3.535l.55-.64 3.42 2.93-.55.64-3.422-2.94m73.907 1.88l3.4-2.96.554.63-3.394 2.96-.56-.63m-72.35-3.69l.58-.62 3.28 3.09-.58.62-3.28-3.09m70.88 2.09l3.26-3.12.58.61-3.26 3.11-.58-.61m-69.25-3.78l.6-.59 3.17 3.2-.6.59-3.165-3.21m67.71 2.26l3.11-3.27.61.58-3.1 3.27-.615-.58M121.53 51l.62-.56 3.01 3.35-.63.563-3.01-3.358m64.38 2.457l2.946-3.417.64.55-2.945 3.412-.64-.55m-62.6-4.006l.65-.53 2.86 3.49-.65.54-2.85-3.49m60.89 2.62l2.83-3.51.66.53-2.82 3.52-.65-.52M125.2 48l.68-.5 2.68 3.63-.676.5-2.68-3.62m57.28 2.802l2.65-3.646.685.497-2.66 3.65-.68-.5m-55.36-4.19l.7-.47 2.5 3.75-.7.47-2.5-3.75m53.56 2.98l2.48-3.77.71.467-2.48 3.765-.71-.46m-51.56-4.27l.72-.43 2.32 3.865-.72.43-2.31-3.86m49.71 3.15l2.29-3.88.72.43-2.29 3.88-.73-.43m-47.67-4.35l.74-.394 2.13 3.973-.74.4-2.13-3.98m45.76 3.31l2.1-3.99.75.39-2.11 3.99-.75-.4M133.26 43l.765-.36 1.93 4.07-.767.37-1.93-4.08m41.72 3.475l1.91-4.082.76.356-1.91 4.08-.76-.36M135.4 42l.77-.33 1.79 4.14-.78.336-1.78-4.142m37.59 3.61l1.71-4.17.78.32-1.707 4.17-.78-.32m-35.4-4.514l.79-.297 1.58 4.222-.78.294-1.586-4.22m33.377 3.75l1.5-4.25.8.28-1.5 4.25-.8-.28m-31.14-4.55l.805-.26 1.37 4.29-.81.25-1.38-4.3m29.07 3.89l1.29-4.32.8.24-1.29 4.32-.81-.24m-26.8-4.58l.81-.22 1.16 4.35-.82.21-1.17-4.36m24.69 4.01l1.12-4.37.82.21-1.13 4.36-.82-.21M144.38 39l.83-.177.94 4.404-.82.18-.94-4.407m20.28 4.128l.91-4.41.826.17-.91 4.415-.83-.17m-17.972-4.59l.83-.15.78 4.44-.83.15-.78-4.44m15.85 4.226l.69-4.46.83.13-.697 4.46-.83-.14m-13.5-4.59l.838-.1.556 4.47-.84.1-.55-4.47m11.33 4.31l.52-4.48.84.09-.52 4.48-.83-.1m-8.96-4.57l.84-.06.33 4.49-.84.06-.33-4.5m6.82 4.4l.3-4.49.85.05-.3 4.5-.84-.05m-4.41-4.53l.84-.02.1 4.51-.84.01-.1-4.51m2.28 4.47l.07-4.51.85.01-.07 4.5-.85-.02m65.02 160.15c.54.63 1.99 2.18 5.02 2.18 3.38 0 5.54-2.01 5.54-4.68 0-2.11-1.81-3.58-2.96-4.07v-.07c1.11-.51 2.52-1.96 2.52-3.84 0-2.74-2.27-4.48-5.11-4.48-2.67 0-4.53 2.16-4.53 2.16-.17.17-.19.47 0 .64l.91.81c.22.19.49.15.64-.05.49-.54 1.38-1.37 2.85-1.37 1.45 0 2.79 1.03 2.79 2.67 0 1.44-1.15 2.62-3.45 2.62H224c-.345 0-.49.14-.49.51v1.05c0 .34.194.51.464.51h1.37c2.62 0 3.87 1.4 3.87 2.87 0 1.64-1.47 2.64-3.06 2.64-1.81 0-3.185-1.32-3.33-1.52-.19-.22-.41-.25-.66-.05l-.95.89c-.17.15-.17.42-.024.59m-7.34-.02c-2.67 0-3.578-2.79-3.38-4.85.143-.43 1.42-1.85 3.35-1.85 1.81 0 3.26 1.49 3.26 3.33s-1.42 3.38-3.23 3.38m-5.75-4.65c0 3.77 1.86 6.85 5.77 6.85 2.96 0 5.46-2.53 5.46-5.61 0-3.38-2.52-5.31-5.12-5.31-1.64 0-3.06.78-3.25.9.805-3.01 4.7-5.04 5.824-5.41.46-.15.56-.42.44-.71l-.42-1.01c-.1-.27-.32-.39-.61-.29-2.25.85-8.1 3.74-8.1 10.57m-11.29 2.2c0-1.29 1.13-2.64 3.11-2.94 1.98.3 3.11 1.64 3.11 2.94 0 1.65-1.39 2.67-3.13 2.67-1.61 0-3.082-1.05-3.082-2.67m3.11-5.29c-1.91-.29-2.74-1.29-2.74-2.62 0-1.49 1.2-2.56 2.67-2.56 1.62 0 2.82 1.07 2.82 2.57 0 1.3-.86 2.35-2.74 2.62m-5.658 5.24c0 2.67 2.18 4.7 5.6 4.7 3.55 0 5.7-2.03 5.7-4.7 0-2.11-1.84-3.57-2.96-4.09v-.1c1.05-.54 2.52-1.88 2.52-3.77 0-2.69-2.23-4.48-5.24-4.48-2.94 0-5.19 1.79-5.19 4.48 0 1.91 1.463 3.26 2.52 3.8v.07c-.91.41-2.96 1.96-2.96 4.08m-11.76 4.46h8.5c.27 0 .47-.2.47-.44v-1.05c0-.27-.196-.47-.47-.47h-2.69V188.1c0-.24-.19-.46-.44-.46h-1.2l-3.65 3.31c-.1.1-.15.297-.075.49l.3.86c.07.22.32.27.54.17l2.12-1.075v10.95h-3.43c-.27 0-.46.2-.46.47v1.06c0 .25.19.44.46.44m-22.3-8.54c0-3.47 2.87-6.39 6.34-6.39 3.5 0 6.37 2.92 6.37 6.39 0 3.51-2.87 6.35-6.37 6.35-3.48 0-6.35-2.84-6.35-6.34m-2.45 0c0 4.9 3.89 8.79 8.79 8.79s8.81-3.89 8.81-8.79-3.91-8.84-8.81-8.84-8.79 3.94-8.79 8.84m-17.73 8.08c0 .25.22.47.47.47H142c.27 0 .463-.23.463-.47V192h.025l10.62 12.63h.64c.246 0 .467-.197.467-.44V187.7c0-.244-.22-.464-.46-.464h-1.566c-.27 0-.46.22-.46.46v11.586h-.03l-10.63-12.29h-.61c-.24 0-.46.195-.46.44v16.47zm-13.54-5.36l2.99-6.71h.12l3.02 6.71h-6.13zm-4.55 5.83h1.54c.3 0 .49-.2.57-.37.48-1.13 1-2.23 1.49-3.36h8l1.52 3.36c.09.22.26.37.56.37h1.54c.37 0 .56-.32.42-.64l-7.47-16.48c-.07-.15-.29-.27-.41-.27h-.25c-.12 0-.34.12-.42.27l-7.52 16.48c-.14.31.05.63.42.63m-11.55-.47c0 .244.19.47.46.47h8.72c.27 0 .46-.23.46-.47v-1.35c0-.245-.2-.465-.46-.465h-6.64v-14.4c0-.245-.22-.465-.47-.465h-1.62c-.27 0-.46.22-.46.467v16.21zm-7.3 0c0 .244.22.47.46.47h1.61c.24 0 .47-.23.47-.47v-16.2c0-.245-.22-.465-.46-.465h-1.62c-.24 0-.46.22-.46.465v16.21zm-22.45-.096c-.05.34.12.56.46.56h1.58c.2 0 .42-.17.44-.35l1.76-10.94h.1l4.43 11.26c.05.15.22.27.41.27h.44c.22 0 .37-.12.41-.27l4.4-11.26h.08l1.81 10.9c.05.17.24.34.46.34H99c.34 0 .513-.22.44-.56l-3.01-16.45c-.05-.2-.248-.37-.44-.37h-.396c-.177 0-.37.12-.42.27l-5.09 12.51h-.1l-5.12-12.51c-.05-.15-.27-.27-.42-.27h-.4c-.2 0-.4.17-.44.36l-3.04 16.45zM248.7 163.4c0-4.41 3.604-8.083 8.01-8.083s8.045 3.675 8.045 8.083c0 4.406-3.64 8.005-8.045 8.005s-8.01-3.6-8.01-8.007m-4.55 0c0 6.996 5.56 12.554 12.556 12.554s12.59-5.56 12.59-12.555-5.595-12.628-12.59-12.628c-6.996 0-12.558 5.63-12.558 12.62m-24.38 0c0 6.99 5.634 12.55 12.628 12.55 3.11 0 6.12-1.08 8.496-3.39.246-.25.314-.71.037-.95l-2.17-2.24c-.21-.21-.6-.25-.88 0-1.47 1.18-3.26 1.99-5.35 1.99-4.48 0-7.84-3.71-7.84-8.08 0-4.41 3.32-8.15 7.8-8.15 1.96 0 3.91.77 5.39 2.06.28.28.62.28.87 0l2.13-2.21c.28-.28.28-.7-.03-.98-2.38-2.14-4.94-3.26-8.47-3.26-7 0-12.63 5.63-12.63 12.63m-9.16 11.54c0 .35.31.66.66.66h3.25c.35 0 .66-.32.66-.67v-23.15c0-.35-.31-.67-.67-.67h-3.25c-.35 0-.67.32-.67.67v23.16zm-26.69 0c0 .35.32.66.66.66h3.18c.38 0 .67-.32.67-.67v-15.04h.03l14.62 16.05h.84c.35 0 .66-.28.66-.63v-23.53c0-.35-.32-.67-.67-.67h-3.22c-.39 0-.66.31-.66.66v14.45H200l-14.55-15.46h-.878c-.35 0-.667.28-.667.63v23.54zm-25.77-11.55c0 6.99 5.63 12.55 12.62 12.55 3.11 0 6.12-1.08 8.49-3.39.24-.25.31-.71.03-.95l-2.17-2.24c-.21-.21-.6-.25-.88 0-1.47 1.18-3.25 1.99-5.35 1.99-4.48 0-7.83-3.71-7.83-8.09 0-4.41 3.32-8.15 7.8-8.15 1.96 0 3.92.77 5.39 2.06.28.28.63.28.87 0l2.13-2.21c.28-.28.28-.7-.04-.98-2.38-2.13-4.93-3.26-8.46-3.26-7 0-12.63 5.63-12.63 12.63M139 174.89c0 .35.28.664.67.664h14.234c.39 0 .67-.316.67-.665v-2.87c0-.35-.28-.67-.67-.67h-10.35v-6.12h8.64c.35 0 .665-.29.665-.67v-2.9c0-.35-.31-.67-.67-.67h-8.64v-5.72h10.35c.38 0 .66-.32.66-.67v-2.87c0-.35-.28-.67-.67-.67h-14.23c-.39 0-.67.31-.67.66v23.16zm-14.58 0c0 .35.32.664.665.664h3.25c.35 0 .666-.316.666-.665v-19.6h5.35c.39 0 .67-.31.67-.66v-2.87c0-.35-.28-.67-.67-.67h-15.28c-.38 0-.67.31-.67.67v2.86c0 .35.28.66.67.66h5.35v19.62zm-15 0c0 .35.315.664.664.664h3.25c.35 0 .66-.316.66-.665v-23.15c0-.35-.316-.66-.665-.66h-3.25c-.35 0-.67.32-.67.67v23.15zm-18.71 0c0 .35.28.664.664.664h12.8c.38 0 .66-.316.66-.665v-2.87c0-.35-.28-.67-.67-.67h-8.92v-19.6c0-.35-.31-.67-.66-.67h-3.22c-.384 0-.663.32-.663.67v23.15zm-24.27-11.5c0-4.408 3.602-8.082 8.01-8.082s8.043 3.674 8.043 8.082c0 4.407-3.637 8.006-8.044 8.006s-8.01-3.6-8.01-8.006m-4.55 0c0 6.996 5.56 12.554 12.55 12.554s12.59-5.558 12.59-12.554-5.6-12.628-12.59-12.628-12.56 5.632-12.56 12.628m-14.83-.946v-7.03h4.05c1.96 0 3.6 1.47 3.6 3.394 0 2.063-1.64 3.637-3.6 3.637h-4.06zm-4.55 12.488c0 .35.28.663.66.663h3.22c.35 0 .66-.314.66-.663v-8.22h4.37c4.27 0 7.8-3.532 7.8-7.87 0-4.23-3.53-7.73-7.84-7.73h-8.22c-.38 0-.67.315-.67.666v23.154zm137.52-65.916v-.004l-.01-.002m-10.8-27.39l-1.99.415c-.13.027-.21.153-.19.283.02.128.15.212.28.185l.68-.14.18.206c.05.05.11.08.18.08.06 0 .11-.02.16-.07.1-.09.1-.24.02-.34l-.01-.01.77-.16c.13-.03.21-.16.19-.29s-.16-.21-.29-.19z"/>
  <path d="M194.568 111.04c-.76-.11-1.8-2.672-1.76-5.1 0-.65.068-1.29.215-1.873.568-2.355 2.217-8.06 2.217-14.848 0-1.46-.074-2.97-.252-4.5-.523-4.51-1.125-7.81-2.092-10.22l-.006-.01c.473-.65.908-1.45.922-2.22 0-1.49-1.244-3.76-3.766-3.77-.225 0-.457.02-.695.06l-1.55.48c-1.3-.96-2.52-1.06-3.38-1.06h-.52c-.24 0-.42-.02-.5-.05-.02-.01-.54-.23-1.23-.23-.16 0-.34.01-.53.04l-.03-.01c-.71-.14-1.43-.19-2.13-.19s-1.4.05-2.08.14c-.11-.19-.54-.84-1.5-1.56v-.32c-.02-.81-.79-2.08-.79-2.11-1.97-3.27-4.99-4.5-5.38-4.65.1-.4.18-1.15.19-1.51v-.15l-.11-.02h.11c-.01-.09.17-.47.26-.85.01-.05.01-.06.01-.11-.02-.57-.63-1.66-.96-2.4-.39-.78-1.34-.91-1.65-.94-.87-.82-2.13-.91-2.75-.91-.24 0-.39.01-.39.02-.05.02-1.62.36-2.02.64-.18.15-.59.56-.98.99-.48-.27-.96-.37-1.41-.37-1.1.01-1.94.59-2.03.65.01-.02-.84.09-1.33.15-.6.07-1.08.35-2.31 1.81-.6.7-.77 1.4-.77 1.96 0 .53.16.92.23 1.07-.54.16-.99.53-1.26.76-.44.44-.46 1.44-.47 1.81l-.19.02c-.97.08-1.87.62-1.88.63.01.06-.68.12-.85.68.01.08.03.11.04.14.09.2.44.61 1.1.61h.03c.51.04.74-.13.81-.25l.02-.03c.23.27 1.58 1.53 1.59 1.55.06.03.56.37 1.24.37.31 0 .67-.08 1.01-.3.55-.42 1.24-.3 1.5-.92.25-.04.83-.17 1.18-.35.15-.08.32-.19.47-.38l.02-.02c.04-.06.69-.74.79-.68v.02c.5 1.24.66 2.3.66 3.17 0 1.73-.64 2.65-.62 2.66-.08.12-.47 1.02-.73 1.62-.15-.3-.36-.46-.49-.53-.08-.29-.28-.48-.41-.58v-.02c-.04-.83-.92-.9-.76-.94-.19-.53-.89-.79-.91-.82-.3-.51-1.15-.59-1.17-.6-.01-.01-.05-.01-.1-.01-.4.01-1.19.32-1.44.42-.07-.02-.18-.03-.33-.03-.19 0-.44.02-.71.13-.06-.01-.15-.02-.26-.02-.43-.01-1.24.16-1.69 1.1-.01-.02-.59.38-.89.95-.02.04-.91 2.67-1.05 3.66-.14 1.02-.06.75-.14.98-.04.24-1.36 1.4-1.39 2.38 0 .16.04.32.14.47-.79.57-3.17 2.67-3.17 7.1 0 .44.02.9.07 1.39-1.01-.41-2.07-.7-2.35-.77-.17-.23-.44-.3-.56-.36-.19-.07-1.02-.45-1.12-.59-.31-.33-.88-.48-1.23-.51h.01c-.25-.22-.89-1.48-1.19-2.49-.35-1.14-.62-2.55-.62-4.01 0-.05 0-.09.01-.15l-.12-.05h.11c0-1.64-1.06-3.67-1.37-4.41-.02-.05-.04-.09-.05-.13l1.48-.75c-.02.14-.03.3-.03.46.01.24.03.5.17.74-.01-.03.77 2.18 3.2 2.38.23.02 2.29.09 2.3.09.03 0 .06 0 .08-.02.48.27 1.09.6 1.79.61.39 0 .79-.11 1.19-.38.01 0 .63-.33.63-1.23 0-.09-.01-.2-.02-.31.18-.13.48-.41.5-.85 0-.13-.04-.29-.12-.43l-.18-.29.8-.13c.04-.05.65-.12.74-.69 0-.04 0-.08-.02-.14l-.18-.16c-.01 0-1.06-.19-1.26-.21-.11 0-1.31-.19-1.31-.19l-.5.06-.52-.14-.01-.01c-.2-.6-1.25-1.35-1.58-1.6.17-.09.29-.18.39-.35.08-.33.08-.9.08-1.18 0-.09.01-.13.01-.13 0-.04-.01-.07-.02-.1.42-.65.49-1.39.5-1.82l1.06.58c.03 0 .81.46 1.32.47h.03c.51-.03.64-.48.62-.61 0-.02.18-.19.17-.2.21-.09.34-.25.42-.35.14-.01.4-.03.6-.14.1-.07.2-.17.28-.25.09.06.22.12.38.13.28 0 .48-.25.55-.59.14-.76.87-2.45 1.01-2.82.07-.2.14-.31.18-.37.17.06.35.1.53.11.05 0 .1-.01.15-.01.78-.07.94-.65.93-.79 0-.05.16-.57.16-1.11.01-.58-.19-1.32-.94-1.6-.17-.34-.81-1.45-2-1.48-.07 0-.15 0-.23.02-.34-.24-1.63-1.07-3.08-1.08-.18 0-.36.01-.54.05.02-.01-.76-.15-1.62-.15-.94.01-2.14.14-2.36 1.09-.54.09-2.19.35-2.41 1.28-.1.02-.21.05-.29.09-.26.16-.75.55-.78 1.16-.92-.38-1.77-.45-2.18-.46h-.12c-.093 0-.153 0-.164.01 0-.01-1.26-.15-2.58-.15-.71 0-1.43.04-2.01.17-1.56.35-3.56.72-4.41 1.24-.85.55-1.61 2.05-2.193 2.37-.64.38-1.74.8-2.06 2.09-.04.16-.08.35-.12.56-.27.07-2.01.67-3.65 3.64 0 0-1.1 1.3-1.45 1.62-.23.21-.26.51-.27.82.014.6.18 1.28.51 1.61.1.08.34.37.65.69-.14.19-.3.52-.3.99 0 .49.17 1.12.66 1.93-.51.35-1.64 1.5-2.035 4.78 0 .03-.21 4.11-.72 5.68-.96 2.06-3.135 4.27-3.135 4.27-.02.02-.29.31-.3.77 0 .27.12.6.44.89l1.61 1.11c.05.03.1.04.15.04.01.1.04.16.05.18.21.4.74.44 1.352.66.56.16 1.07.28 1.3.31.11.08.24.14.395.14.96.05 1.39 0 1.74.41.192.22.42.44.68.58.05.02.322.08.73.11-.657.41-1.327 1.03-1.44 1.79-.04.39-.21 1.11-.21 1.83 0 1.01.42 2.15 2.02 2.15h.02l.16-.03c.002 0 .88-.48 1.39-.92.06.43.24 1.48.73 2.09l.08.09c-.03.14-.11.56-.11 1.14 0 .91.2 2.21 1.16 3.22-.14.15-.4.48-.43.93-.03.5-.04 1.39-.41 2.2-.384.84-1.14 2.62-1.16 3.3 0 0-.003.07.027.15.05.27.33.81.61 1.35.14.27.28.52.38.71.06.1.09.18.12.24.02.03.03.05.03.06h.01c.13.31.29.44.51.58.13.04.45.08.65.08v-.02l.07-.05v.07l.02.01v-.01c.07 0 .244.02.38.02.044 0 .08 0 .135-.01.14-.07.51-.02.63-.48.01-.09 0-.18.01-.22h-.01c.25-.19.54-.51.61-.91.01-.09-.06-.27-.23-.3l-.68-.23c-.27-.08-.37-.09-.38-.15-.09-.19-.13-.29-.13-.34 0-.03 0-.04.01-.06.05-.16.3-.38.46-.48.12-.11 2.11-1.44 2.39-1.49h.02v-.01c.42.1 1.11.28 1.32.5.36.34 3.14 2.68 3.84 3.01.59.26 3.04 1.77 4.37 1.91 1.2.13 3.36.59 4.27.84.48.14 1.23.3 1.998.3.74-.01 1.53-.16 2.04-.73.81-.95 1.28-1.04 1.37-1.82.024-.33.14-1.06.14-1.8 0-.58-.07-1.17-.33-1.62-.53-.89-1.03-1.52-1.03-1.52-.02-.03-.05-.04-.07-.06l.01-.03c.03-.21.05-.4.05-.57 0-.98-.52-1.65-.57-1.8-.05-.12-.31-.92-.61-1.86-.17-.53-.35-1.11-.52-1.66.14-.13.68-.61 1.28-1.21.21.2 3.83 4.1 5.38 4.45.03.02.07.03.12.03.01-.01 1.64-.06 3.18-.57 1.186-.41 2.01-1.14 2.82-1.12.25 0 .5.05.79.21l.05.09c.09.16.22.32.37.45l.18 3.03v.06c0 .14.01.71.48.88l-.43 3.05-7.51 1.76c-.06 0-.11.02-.15.06l-.03.03c-.04.05-.06.12-.05.185v1.89l.16.23 7.41 2.5h.14l13.557-3.99c.1-.03.17-.12.17-.23v-1.93c0-.11-.09-.2-.19-.22l-7.79-1.6-1.21.28-.84-5.62.03-.035c.32-.45.69-1.14.69-2.03 0-.26-.03-.52-.09-.79-.27-1.1-.36-1.72-.36-2.12 0-.33.05-.52.13-.76.05-.23 2.59-3.3 4.28-6.39l.01-.01c-.02 1.09-.035 2.84-.035 3.64 0 .21 0 .34.01.43.007.12.026.4.026.73 0 .57-.08 1.31-.29 1.6-.44.62-.89 1.6-.9 2.193 0 .013-.01.073.01.15.02.14.03.4.03.642 0 .3-.03.59-.053.66-.08.23-.54 1.64-.54 1.64-.01.04-.024.13-.024.27-.013.36.15 1.23 1.126 1.36.47.06 1.02.1 1.54.1.69 0 1.33-.06 1.74-.25.55-.29 1.02-.76 1.04-1.3 0-.09-.02-.17-.05-.25-.22-.49-.67-.74-.9-1.07-.23-.28-.51-.84-.494-1.16 0-.06.01-.09.01-.1.01-.03.17-.54.19-.88.01-.02 0-.03 0-.03v-.01h-.01l.01-.03c0-.09-.01-.26-.01-.46-.01-.39.06-.92.16-1.03.26-.376 2.11-3.19 2.11-3.19.03-.04.93-1.406 1.23-5.26v-.02c1-.09 1.71-.106 2.07-.11l-.05.22-.91 1.94c0-.01-1.53 2.94-1.8 3.66-.17.43-.82 1.69-.82 3.47 0 .87.15 1.87.58 2.98l.51 1.84c.82 2.68 1.27 3.12 2.34 3.27h.06c-.1.37-.21.7-.27.83-.1.22-.32.63-.45 1.09-.05.21-.093.43-.093.66 0 .05-.01.12.01.2.07.64.07 1.41.82 1.55.1.02.2.02.3.02.41 0 .84-.08 1.01-.11.18.06.73.25 1.09.27.17.02.36.03.56.03.214 0 .44-.02.644-.14.24-.15.75-.33 1.04-.54.24-.2.92-.71.98-1.35v-.04c-.05-.65-1.13-2.07-1.14-2.117.02.04.01 0-.01-.09.99.19 3.95.3 7.02.45.99.05 1.1.03 1.986.06.147 0 .31.01.49.01 2.317 0 6.56-.47 6.57-.47.11-.01.2-.1.217-.22.01-.12-.07-.22-.18-.25zm-11.162-42.533c.016-.012.027-.028.037-.044.143.023.29.023.457.027.164 0 .334-.01.518-.01.842 0 1.953.086 3.19 1.033l.216.037 1.637-.51c.19-.025.4-.045.59-.045 2.19.003 3.29 2.02 3.29 3.288.03 1.306-1.96 3.218-1.96 3.228l-2.07 1.7c-.52.92-2.45 1.99-3.25 2.49-4.69-1.28-6.01-3.23-6.01-5.13-.01-2.66 2.71-5.44 3.38-6.05zm-1.236-.3c.3 0 .568.053.758.103-.883.854-3.357 3.464-3.375 6.25-.004 2.102 1.49 4.187 5.928 5.476-.52.27-1.06.383-1.6.383-.29 0-.58-.04-.87-.1-3.11-.63-6.11-4.53-6.13-4.55-.03-.46-.12-.84-.25-1.16.05-.04.09-.1.09-.17-.01-.05 1.55-4.86 4.35-5.95.39-.23.77-.3 1.12-.3zm-2.69-.145c.413 0 .827.02 1.24.06-2.6 1.208-4.017 4.78-4.388 5.94-.66-.973-1.752-1.197-2.406-1.176-.36 0-.605.05-.617.053-.02 0-.02.01-.03.02-.24-.07-.49-.04-.6-.08-.11 0-1.26-.46-1.65-.49-.06 0-.36-.09-.65-.21-.41-.16-.87-.37-.94-.42-.17-.1-.29-.09-.46-.09h-.2c.28-.31.9-.91 1.72-1.27.26-.12 4.53-2.35 8.95-2.35zm-6.12 11.252c-.13-.023-.253.07-.272.198h-.004c0 .003-.2 1.224-.49 2.166-.133.306-.213.505-.213.507-.13.248-.29.49-.43.703-.89 1.26-1.63 1.47-2.06 1.474-.2-.002-.35-.048-.43-.08l.28-.164c.12-.067.15-.217.08-.33-.07-.115-.21-.15-.33-.08l-.48.29c-.02.015-.05.038-.07.06-.24-.1-.49-.195-.49-.195l-.25.046-.48.45h-.06c-.34.08-.77-.97-.9-1.34-.23-.44-.6-.6-.83-.62-.07-.01-.53-.09-.59-.1 0-.03-1.17-.96-1.28-1.09-.53-.65-.65-1.56-.66-1.56-.07-.45-.1-.86-.1-1.23 0-.11 0-.22.01-.33.1-2.08 1.06-2.96 1.05-2.97l.84-.73c.01-.01.62-.58.74-.66.08-.07.88-.37 1.22-.57.08-.07.42-.12.72-.11.16 0 .31.01.44.01h.07c.02 0 .03-.01.04-.01.27 0 1.45.25 1.49.29.1.03 1.11.62 1.12.64 0 0 .07.16.06.34 0 .09-.01.19-.04.28-.11.33-.89 1.75-1.22 2.08-.15.14-.22.33-.22.5.01.41.34.65.37.7 0 0 .02.04.01.12 0 .07-.01.14-.02.17 0 .06-.3.27-.43.61-.05.15-.06.33-.06.54 0 .28.03.6.15.86.08.2.3.26.44.26.38-.01.91-.3 1.02-.34.04 0 .08 0 .12-.02.33-.05.89-.16 1.13-.59.11-.07.43-.03.71-.21.26-.21.61-.82.71-.91.16-.19.34-.52.41-.56.14-.16.21-.34.22-.55 0-.08-.01-.17-.06-.26.03-.03.08-.07.13-.12.16-.15.19-.33.19-.49 0-.17-.03-.32-.08-.46-.1-.27-.55-.92-.56-1-.01-.04.15-.31.22-.52l-.14-.08h.15v-.02c-.1-.38-.4-.47-.58-.57.03-.07.08-.19.13-.33.01-.1.02-.11.02-.11-.01-.01-.01-.01-.02-.03.07-.01.12-.01.2-.01.88.03 2.36.24 2.48 2.57.01.2.02.39.02.52v.22c-.01 0-.62 2.1-2.07 2.6-.2.08-.67.37-.77.42l-.05.08.03-.19c.02-.14-.07-.26-.2-.28zm-2.43 5.222c-.447.696-.924 1.41-1.168 1.686-.256.288-.785.55-1.22.715-.38.145-.683.217-.688.217l-4.652.56-.297.037c-.145-.49-.52-1.81-.705-2.63-.018-.07-.027-.14-.027-.22-.033-.87 1.035-2.27 1.18-2.34.256-.2.422-.58.51-.81.418.37 1.24 1 1.248 1.01.12.05.6.14.76.15.02 0 .33.11.43.35.16.25.39 1.54 1.33 1.62.09 0 .16-.01.22-.02l.12-.06.43-.4c.24.1.69.28.78.32.06.03.32.16.71.15.29 0 .65-.07 1.05-.3zm-8.22-7.92c0-.026-.005-.05-.015-.072-.02-.096-.03-.18-.03-.244 0-.068.007-.068 0-.07.44-.325.364-.89.622-1.268.115-.187.244-.304.473-.354 1.107-.3.807-1.263 1.23-1.246.644-.203 1.286-.653 1.41-.68h.025v-.003h.02c.377-.02 1.18-.38 1.373-.41.104-.02.39-.07.686-.09.186-.03.367-.04.51-.04.06-.01.105 0 .13 0 .038 0 .052.01.062 0 .158.1.588.3 1.02.47.317.12.583.22.79.24.21 0 1.334.46 1.643.49.1 0 .29.01.45.05.06.01.11.03.15.04v.01c-.04.06-.15.2-.16.43-.02.09.07.26.18.31.07.03.2.1.3.17.05.03.09.07.11.09v.02c-.02-.02-.21.24-.23.54 0 .01 0 .08.02.14.08.26.52.86.56 1.02.03.08.05.2.05.29 0 .09-.03.14-.03.14-.1.11-.28.15-.33.46 0 .08.05.19.11.25-.01-.01-.02.01-.02.01.01.05-.05.17-.08.19-.17.17-.32.48-.43.59-.16.18-.54.78-.65.85-.01.1-.61-.08-.89.43l-.06.04c-.16.11-.56.22-.67.24-.02-.01-.03-.01-.04-.01h-.02c-.02 0-.03 0-.05.01-.32.07-.76.34-.98.33v.03c-.07-.17-.11-.44-.11-.68 0-.17.02-.34.04-.37.03-.14.29-.32.43-.61.04-.12.05-.24.05-.35-.01-.16-.02-.3-.13-.44-.09-.09-.26-.29-.25-.39 0-.05.01-.08.08-.15.44-.48 1.16-1.83 1.33-2.27.06-.16.08-.32.08-.45-.01-.3-.08-.51-.19-.66-.2-.19-1.07-.66-1.27-.76-.24-.1-1.31-.33-1.71-.34h-.09c-.1 0-.26-.01-.44-.01-.33 0-.69 0-.98.18-.27.16-1.01.43-1.24.58-.19.14-.78.69-.78.69l-.85.72c-.04.03-.99.96-1.18 2.93-.04-.05-.07-.12-.06-.19v-.06c.04-.11.04-.19.04-.25 0-.21-.05-.43-.09-.61zm11.974-12.625c.01 0 .723 1.3.732 1.85-.518-.34-1.11-.68-1.758-.94-.127-.05-.264.01-.312.14-.05.13.008.26.133.31.74.3 1.41.71 1.98 1.11.79.57 1.22 1.09 1.41 1.36-3.09.51-5.68 1.74-6.37 2.08-2.17-1.56-2.42-3.08-2.42-3.75 0-.19.02-.3.03-.35.08-.08.18-.18.27-.3.2-.28.23-.62.23-.94 0-.36-.06-.74-.07-.82v-.01c-.01-.05.09-.33.29-.48.4-.4.32-1.19.36-1.36-.03-.02.18-.2.39-.4.09-.14.1-.25.1-.38 0-.39-.18-.99-.19-1.16-.01-.03-.01-.05-.01-.08 0-.09.02-.18.04-.29.43.17 3.27 1.36 5.12 4.44zM161.56 54.4c.034-.02.07-.052.09-.093.01-.012.013-.023.02-.035.384-.437.862-.907.995-1.01.113-.12 1.74-.534 1.803-.554.017 0 .136-.01.315-.01.588-.002 1.783.115 2.473.835l.163.07s1.11.09 1.33.665c.33.717.94 1.93.92 2.2 0 0-.01.015-.01.065-.05.25-.25.56-.26.894 0 0 0 .053.01.112-.01-.01-.01.02-.01.05 0 .32-.11 1.25-.19 1.46-.02.04-.03.07-.05.12-.08.22-.15.43-.15.67 0 .03 0 .09.01.15.03.24.19.81.18 1.09 0 .07-.02.08-.01.09-.1.14-.42.26-.49.65.01.16-.08 1-.18 1.01-.31.24-.44.56-.47.8 0 .01-.01.03-.01.05 0 .16.06.48.06.83 0 .27-.05.54-.14.65-.08.1-.16.19-.23.25-.1 0-.3 0-.46.14l-.26.18-.1.14s-.06.26-.14.52l-.08.25c-.13-.17-.28-.41-.35-.53l.48-1.67.23-2.23.01-.11 1.68-2.69c.04-.13.04-.15.04-.18-.03-.37-.15-1.17-.47-1.52-.18-.13-.8-.9-.76-.96-.04-.28-.24-1.09-.24-1.09-.02-.09-.08-.15-.16-.18s-.17-.01-.23.04c0 0-1.28 1.04-1.51 1.16-.01.01-.13.03-.27.03-.36 0-.84-.09-1.06-.1.03.01 0 0-.04 0-.33.02-.89.13-1.14.57-.13.26-.63 1.16-.75 1.32-.2.33-.31 1.18-.33 1.69 0 .15-.07.29-.18.46-.1.15-.23.3-.31.51-.04.11-.06.22-.06.33.01.3.11.55.15.9.02.09.02.22.02.36 0 .43-.07.95-.11 1.12 0 0-.02 0-.06.02-.07.02-.18.03-.23.03h-.01c-.01 0-.02-.01-.06.01-.1.01-.2.05-.29.09l.07-.35v-.07c-.02-.37-.45-1.23-.53-1.52-.09-.25-.41-2.6-.42-3.14v-.04c0-.42.54-1.91.6-2.23.02-.21.42-1.38.67-1.79.07-.12.23-.33.41-.54zm4.43 6.113c.006.003.13.076.324.165l-.033.15c-.02.13.06.255.19.286.13.03.26-.05.29-.18l.02-.084c.17.052.36.096.56.12l-.65 1.043v.006c-.01 0-.02.01-.04.02-1.19.89-2.65.94-2.89.94h-.07c-.77-.16-1.41-2.18-1.41-2.18l-.01-.04c.07-.15.13-.31.13-.5-.01-.38.19-1.38.25-1.41.15-.23.64-1.09.79-1.39.01-.11.52-.32.71-.31.16 0 .69.1 1.1.1.18 0 .34-.01.5-.09.23-.14.9-.67 1.28-.98.06.25.13.55.14.67.1.43.68 1.01.93 1.25.07 0 .33.96.31 1.15v.02l-.74 1.2c-.01 0-.02-.01-.03-.01-.65-.01-1.33-.42-1.33-.41-.11-.07-.26-.03-.33.08-.06.11-.03.26.09.33zm-9.98 3.496c.037.26-.518.22-1.354.73-.248.16-.5.21-.742.21-.256 0-.487-.07-.658-.14-.167-.07-.272-.13-.28-.13h-.003c-.014-.02-1.477-1.41-1.502-1.47-.08-.12-.22-.21-.36-.21-.16 0-.31.08-.4.21-.03.03-.05.06-.06.07v-.01c-.05.01-.17.01-.39.01h-.02c-.33 0-.51-.14-.6-.26.17-.11.54-.27.54-.27.03-.02.89-.52 1.71-.58l.41-.04c.23-.02.42-.04.58-.04.32 0 .56.05.93.27l.83.49.03.01.28.48c.07.11.21.15.33.08.12-.07.15-.22.09-.33s-.2-.34-.36-.61c-.09-.16-.17-.32-.17-.33-.02-.05-.03-.09-.03-.12 0-.04 0-.06.04-.11.01-.02.04-.02.04-.02.03-.01.07.01.1.02s.06.03.07.02c.01 0 .25.3.55.53.33.3.1-.19.41.97.04.14.05.26.05.36v.14zm1.713-.85c-.092.13-.225.22-.342.28-.2.1-.62.21-.89.27-.01-.1-.02-.21-.05-.33-.19-1.02-.33-1.07-.57-1.23-.29-.22-.44-.43-.55-.53-.11-.08-.24-.14-.47-.15-.13 0-.31.05-.42.21-.1.12-.14.27-.14.39v.05l-.25-.16c-.42-.26-.79-.35-1.17-.34-.11 0-.23.01-.35.02.02-.4.12-1.29.31-1.41.27-.24.79-.63 1.25-.71.07-.02.14-.03.19-.03.11 0 .19.02.28.05.72.27 2.72 1.24 3.15 2.28.14.32.19.57.19.77 0 .22-.06.38-.14.52zm1.593 5.75c.02-.03.71-1.08.71-2.93 0-.83-.14-1.8-.522-2.91 0-.02-.002-.04-.008-.06l-.715-2.76c-.03-.13-.16-.21-.29-.18-.12.03-.2.17-.17.29l.51 1.94c-.17.03-.33.12-.47.22-.01-.26-.08-.54-.22-.86-.61-1.33-2.66-2.23-3.4-2.54-.15-.07-.31-.09-.47-.09h-.02c0-.03-.01-.06-.03-.09v-.01s-.19-.35-.19-.89c0-.46.13-1.03.66-1.65 1.25-1.47 1.57-1.59 2.02-1.65l1.43-.19c.11-.05.9-.61 1.87-.61.35 0 .72.07 1.09.26-.14.17-.26.32-.33.46-.29.53-.67 1.62-.72 1.95-.03.21-.59 1.7-.61 2.3v.01c.01.61.32 2.9.44 3.3.1.32.54 1.31.51 1.38v.02c-.03.13-.14.8-.14.81-.02.09.02.18.1.23.07.05.17.05.26.01 0 0 .12-.08.26-.15.06-.04.14-.07.19-.1.04-.02.04-.01.04-.02h.05c.15-.02.59.03.76-.42.05-.23.12-.75.12-1.23 0-.15-.01-.29-.02-.42-.06-.4-.15-.67-.15-.84 0-.06.01-.1.03-.15.01-.04.03-.07.06-.12.22.62.75 1.87 1.73 2.17h.1c.27 0 1.59-.04 2.84-.81l-.18 1.76-.5 1.73.03.18c.05.03.39.76.77.96l.02-.01v.01l.03.01c.01.01.02.01.04.01h.02c.03-.01.07-.02.12-.05.31-.17.24-.41.37-.67.06-.19.11-.37.13-.48l.19-.14c.01 0 .01 0 .01-.01v.17c0 .78.32 2.41 2.41 3.99-1.07.58-1.73 1.45-1.75 1.46-.04.05-.05.11-.05.16-.22.03-.4.06-.48.07-.29.06-1.15.41-1.29.39h-.02c-.46.04-.94.52-1.57.69-.91.42-.49 1.18-1.19 1.24-.38.08-.64.32-.79.58-.27.51-.38 1.12-.43 1.09-.18.08-.24.27-.26.42l-2.72-1.31c-.01-.08-.02-.15-.02-.22 0-.05.01-.09.02-.12.04-.12.05-.22.05-.3 0-.3-.12-.53-.23-.7.04-.06.07-.13.08-.22v-.03c-.07-.39-.39-.61-.59-.75 0-.03.01-.08.01-.13 0-.1-.01-.24-.08-.38-.11-.17-.24-.84-.24-.84-.01-.04-.02-.14-.05-.25.06-.14.87-2.02.91-2.07zm-4.984-1.67c.045 0 .803.15.97.47.114.08.762.47.75.6.315.59.795.4.746.82 0 .03 0 .07-.004.11l.11.22c.007 0 .348.27.33.43l.165.21s.32.08.44.59c.01.05.13.55.12.58.01.04.12.67.29.99.02.04.03.1.03.16s-.01.12-.01.19c0 .05 0 .19.15.28.01 0 .14.1.26.21.05.05.1.1.14.15-.06.02-.06.04-.08.05-.1.09-.1.24 0 .34 0 0 .28.3.27.59 0 .05-.01.1-.02.14-.04.09-.05.19-.05.28 0 .28.08.5.08.66-.01.14-.02.23-.24.41-.03.02-.44.42-.78.55-.2.07-.41.09-.54.09h-.04l-.17-.31c-.21-.32-.59-.38-.62-1.42v-.11c.34-.16.7-.34.98-.57.16-.17.17-.35.18-.51 0-.41-.2-.98-.24-1.11 0-.03 0-.06-.01-.09-.03-.33-.23-1.57-.23-1.69 0-.02-.02-.04-.03-.06.03-.07.05-.12.05-.14l-.09-.25c-.01-.01-.31-.22-.69-.47.01-.03.03-.05.02-.09-.03-.17-.15-.53-.5-.85-.32-.27-.77-.56-.85-.62l-.65-.56c-.4-.13-.69-.17-.94-.18.27-.09.54-.17.65-.17zm1.64 17.92c.012-.01 1.024.63 1.094.97.06.16.112.4.112.63-.014.38-.113.68-.553.84.022-.01-.235.02-.52.05-.176.02-.364.03-.5.04-.048-.17-.158-.39-.437-.5-.11-.03-.227-.06-.353-.06-.186 0-.402.05-.596.2-.22.15-1.12.71-1.3.76-.23.12-.65.04-.9.44-.04.08-.15.36-1.03.84l-3.16.71c-.62-1.09-2.32-3.46-2.47-3.67-.01-.01-.01-.02-.02-.03-.08-.1-.18-.19-.29-.28 0-.01 0-.02-.01-.03 0 0-.11-.44-.11-.88-.01-.4.1-.71.24-.75.06-.04.1-.07.15-.13.12-.11.34-.31.49-.49.19-.24.74-.78.82-.74.42-.07.74-.37.97-.62.2-.24.71-.87 1.4-.87.07 0 .12 0 .19.02.97.14 3.24.29 3.31.4.34.23 1.51 1.11 1.93 1.19.1.01.25 0 .46.04.34.06.7.2.85.62.08.11.27.26.26.5 0 .1-.03.24-.16.43-.04.05-.05.12-.03.18.01.06.06.12.12.15zm-2.64 6.25c-.088.12-.18.25-.19.24-.08.01-.16.04-.23.07-.014-.04-.04-.08-.074-.11l-.328-.26c-.102-.09-.255-.07-.335.03-.084.1-.067.25.034.33l.29.23c-.04.02-.06.03-.08.03-.39.13-.41.35-.66.41-.12.03-.25.04-.39.04-.68.01-1.59-.42-1.81-.7-.34-.39-.67-1.07-.67-1.07-.06-.13-.2-.18-.32-.11-.12.05-.17.2-.11.32v-.01l.11.21c-.04.01-.07.01-.1.03l-.25.21c-.06-.26-.13-.53-.2-.8l3.11-.71c.96-.5 1.21-.88 1.3-1.08.1-.06.4-.12.6-.18.33-.12 1.15-.64 1.44-.84.11-.09.19-.11.31-.11.07 0 .14.01.23.03.02-.01.1.23.13.3-.16.77-.71 1.08-.7 1.1l-.12.2s-.02 1.22-.06 1.7c0 .06-.05.1-.27.11-.15 0-.28-.03-.29-.03-.04-.01-.15-.05-.26-.1-.07-.03-.14-.07-.17-.1l-.01-.01c-.02-.11-.12-.19-.23-.19 0-.01-.24.06-.24.23v.01c.08.31.3.44.48.51zm-.446-16.49c-.057-.22-.127-.43-.203-.62.582.16 1.77.41 3.494.42-.013 1.14.7 1.59.685 1.61h.004c-.514 1.48-1.996 1.78-3.165 1.79-.53 0-.95-.06-1.16-.1.32-.7.42-1.56.45-1.58.02-.21.03-.38.03-.57 0-.29-.02-.6-.12-.97zM156 69.38c-.146-.08-.293-.16-.42-.216-.135-.068-.122-.084-.128-.084-.014-.018.038-.082.09-.142.094.067.185.137.265.207.08.068.142.152.193.234zm-2.49-1.485c.255 0 .543.026.885.112-.016.016.468.443.578.532l.17.11c-.08.1-.155.23-.17.42-.007.22.17.43.422.52.427.18 1.135.65 1.448.86-.08.12-.253.32-.634.51-.12.06-.17.2-.11.32.04.08.13.13.22.13.03 0 .07-.01.1-.03.21-.11.37-.22.49-.33l.07.51c-.04 0-.07.01-.1.04-.36.25-1.12.42-1.12.42-.13.03-.22.15-.19.28.03.12.16.21.29.18l-.01-.01c.01 0 .69-.14 1.18-.44.02.16.03.27.03.29v.05c.04.24.23.74.23 1.08 0 .12-.03.13-.02.14-.27.21-.71.42-1.05.59h-.01c-2.31 0-3.62-.45-3.81-.51-.15-.46-.21-.9-.21-1.16l-.01-.03c.01-.09.01-.1.01-.12 0-.48-.25-1.04-.52-1.41-.25-.32-.51-.58-.51-1.02 0-.07 0-.11.01-.15.05-.61.7-1.6.8-1.59.27-.11.67-.37 1.46-.38zm-5.234 6.242c.104-.287.043-.134.17-1.093.115-.865 1.014-3.532 1.014-3.535.21-.42.795-.82.795-.83.44-.84.997-.92 1.344-.93.14 0 .22.03.23.02l.15-.02c.05-.03.11-.05.16-.06-.13.05-.21.1-.27.12-.5.24-.96 1.16-1.11 1.94-.02.07-.02.16-.02.24 0 .65.4 1.04.61 1.31.2.26.43.81.42 1.11v.05c-.02.02-.01.06-.01.09 0 .45.13 1.16.43 1.84.08.18.15.4.21.62.08.33.11.59.11.84 0 .17-.01.33-.03.51.01 0-.42 1.92-.78 1.99-.08.03-.34.07-.65.07-.5 0-1.14-.07-1.66-.18-.27-.06-.5-.12-.66-.19-.16-.05-.19-.11-.21-.11-.22-.55-.56-.68-1.48-1.34-.14-.11-.17-.18-.17-.32-.03-.6 1.14-1.73 1.36-2.2zm-1.332 3.012c.86.61 1.05.69 1.176 1.03.385.62 1.877.71 2.97.77.342 0 .62-.03.833-.11.14-.08.258-.21.364-.36h.004c.02 0 .62.13 1.42.13h.04c.28 0 .59-.03.91-.08l.1 4.22c-.11-.01-.2-.01-.23-.01-.02.03-1.44-.9-1.67-1.1-.5-.31-2.53-.32-3.51-.49-.1-.02-.2-.03-.28-.03-.98 0-1.57.82-1.76 1.02-.18.21-.49.44-.67.46-.5.09-.89.68-1.13.9-.13.15-.35.35-.46.45l-.08.07c-.42.2-.46.73-.47 1.16 0 .2.02.39.04.56-.16-.09-.34-.18-.52-.26-.07-.58-.1-1.11-.1-1.61 0-4.46 2.49-6.37 3.06-6.77zm-5.792 7.88c.647.18 2.602.76 3.485 1.38l.05.03c.123.08.22.18.283.26l.018.02c.244.34 2.406 3.42 2.573 3.89-1.41-1.47-3.98-2.44-3.99-2.47-.12-.05-.26.01-.31.14-.05.12.01.26.14.31.02 0 3.94 1.61 4.5 3.31l.12.51c.01.01.23.85.22.91v.01c-.05.89-.5 3.58-2.47 4.09.3-.64.53-1.36.53-2.2 0-1.14-.43-2.47-1.65-4-.08-.11-.23-.12-.34-.04-.1.08-.12.23-.03.34 1.17 1.47 1.54 2.68 1.54 3.69 0 .9-.3 1.66-.65 2.33-.5.81-1.85 1.87-3.66 2.14h-.15c-.66 0-1.13-.2-1.44-.39-.3-.19-.45-.39-.46-.39-.03-.04-.07-.07-.11-.08.3-.61.65-1.38.75-1.9.46-.08 1.66-.32 1.81-1.26.01-.17.04-.38.04-.63 0-.92-.62-2.03-4.17-3.37.4-.33 1.29-.89 2.85-.9.02 0 .99-.05 1.77-.05.13 0 .24-.11.24-.24 0-.14-.11-.24-.24-.24-.79-.01-1.77.04-1.78.04-2.29 0-3.35 1.17-3.44 1.28-.18.13-1.54 1.09-2.26 2.58-.34.71-.69 1.55-.96 2.51-1.1-.72-3.42-3.09-4.45-4.19l-.53-.58c-.09-.1-.24-.11-.34-.02-.1.09-.1.25-.01.35l.34.36c-.3.15-.84.44-1.37.78-.12-.07-.45-.26-.8-.54-.2-.17-.22-.27-.23-.68 0-.2.02-.44.02-.75 0-.17 0-.36-.01-.57v-.05c-.09-.98 2.04-1.57 2.6-1.6.64-.08 3.01-.67 3.02-.67l1.06-.45c.01 0 .02.02.03.02.03 0 .05 0 .07-.01.06-.02.11-.06.14-.11l.93-.39.07.06c.22.17.49.52.77.74.23.18.51.2.74.2.15 0 .28-.01.38-.01.4-.06.83-.41.85-.41.36-.24.25-.65.28-.88.02-.22.13-.86.17-1.01.03-.13.19-.56.25-.69.11-.11.45-.22.62-.31.14-.1.3-.22.31-.22.03.01.11.05.19.09.1.05.19.1.19.1.07.03.32.09.7.09.26 0 .57-.03.9-.13.17-.07.32-.14.41-.27zm-3.242 19.73c.2.03 1.184.64 1.207.68.093.06.674.66.67.66.107.26.34.4.35.42.23.1.68.44.692.44.01.02 1 1.25 1.11 1.38.03.03.06.09.07.12h-.03l-1.32-.85-1.08-.41c-.11-.05-.24 0-.3.1s-.03.23.06.3c.38.29.88 1.24.88 1.25 0 0 .33.78.49 1.17.02.06.03.11.03.14 0 .04 0 .04-.15.11-.05-.03-.22-.18-.22-.18l-.56-.95-1.13-1.51-.03-.03c-.1-.1-.25-.1-.34 0-.07.07-.09.17-.05.26l.22.67.25.61.28.97s.19.69.26.88h.02-.02v.01c-.01 0-.02.02-.06.05-.07-.02-.22-.08-.22-.08l-1-2.22-.01-.01-.02-.03-.01-.01-.01-.01-.01-.01-.02-.02-.02-.01h-.01c-.04-.03-.1-.05-.15-.05-.12 0-.22.09-.23.2v.02c-.01.02-.02.25-.04.53.01.01-.08.12-.26.21-.16.1-.37.18-.39.18-.15.02-.4.1-.59.33-.01-.02-.02-.04-.02-.07-.01-.07.04-.17.04-.18 0-.01.03-.01.03-.01.13-.09.36-.22.49-.35.07-.11.09-.19.09-.27-.01-.28-.15-.61-.21-.75-.18-.32-.83-.67-.88-.74-.1-.09-.85-.72-.85-.72-.51-.39-.81-1.71-.93-3.27.01-.04 0-.09-.01-.13-.08-.99-.11-2.07-.14-3.08-.02-.14-.02-.26-.02-.39 0-1.14.16-2.16.39-3.06.26-1.03.63-1.92.99-2.68.58-1.23 1.7-2.11 2.03-2.35 3.77 1.4 4.1 2.37 4.1 3.01 0 .19-.04.39-.05.59.07.5-1.58.84-1.58.84-.12.01-.2.11-.21.22-.01.35-.52 1.51-.86 2.18l-.29.56-.72 1.45c-.01.03-.99 2.31-1.07 2.88-.03.03-.01.08-.01.08.1.76 1.01.73 1.25.83zm-15.45-16.99h.173c-.005-.95-.682-4.52-.685-6.93-.004-2.25 1.312-3.7 1.43-3.85.586.03 1.17.04 1.735.04 2.64 0 4.864-.28 5.483-.36.244.86.54 1.5.805 1.97 0 .01-.02.02-.02.04 0 .01-.04.37-.04.99 0 .78.07 1.98.37 3.41.44 2.08 1 3.99 1.2 4.64l-.93.4c.03-.02-2.37.58-2.92.64-.6.09-2.93.47-3.02 2.07 0 0 0 .05.01.11.01.16.01.34.01.51 0 .29-.01.53-.01.75-.01.41.06.79.41 1.05.25.19.49.35.66.46-.31.21-.58.43-.78.66-.54.62-1 1.31-1.21 1.97-.41-.28-1.43-.96-1.8-1.02-.08-.01-.52-.08-.98-.14 0-.03 0-.06-.01-.08-.32-.79-.41-1.55-.41-2.22 0-.87.17-1.58.26-2.03.28-1.26.49-2.53.5-3.09l-.18-.03zm11.585-.51l-.708.3c-.212-.69-.755-2.54-1.175-4.55-.295-1.4-.357-2.57-.357-3.32 0-.14.004-.26.008-.36.1.15.178.26.21.33.256.5 1.6 2.31 1.61 2.33.01.03.855 2.32.83 2.37l.004.01c.04-.01-.48.74-.612 1.58-.026.12-.032.25-.032.36 0 .37.096.69.222.93zm10.045-16.39c.05.09.12.23.145.31-.132.06-.48.2-.65.19-.048 0-.085-.01-.085-.02l-.258-.13c-.12-.06-.264-.02-.324.1-.06.11-.016.26.104.32l.262.13c.104.05.197.06.3.06.393-.01.8-.2.99-.33.11-.09.152-.21.15-.3-.01-.14-.053-.27-.105-.39l.11-.02c-.01 0 1.11.18 1.29.19.06 0 .54.09.87.14h-.01c-.11.06-.23.1-.23.1l-1.12.19c-.08.01-.15.06-.18.14-.04.07-.03.15.01.23l.36.58c.04.07.05.12.05.18.03.23-.41.53-.4.54l-.12.25c.03.14.04.26.04.37-.01.66-.4.8-.39.81-.35.23-.65.31-.95.31-.61 0-1.22-.35-1.73-.64-.19-.11-.37-.21-.55-.28-.4-.18-.43-.38-.44-.81 0-.19.01-.4.01-.62l-.01-.02v-.14c-.01-.62.26-1.18.43-1.39.06-.13.74-.41.96-.5l.72.19.71.19zm-1.03-.78l-.348-.09h-.14c-.024.02-.926.29-1.252.68-.23.3-.526.92-.526 1.67 0 .05.005.08.005.08-.02 0-.01.04-.01.06 0 .2-.01.41-.01.61-.02.37.07.82.45 1.1-.6-.03-1.3-.05-1.41-.06-2.1-.15-2.8-2.11-2.81-2.11-.09-.15-.12-.33-.12-.53 0-.32.07-.64.1-.73l1.24-.63c-.03.01 2.16-.75 3.38-1.29l.04-.03c.02.04.04.07.08.1.01 0 .91.67 1.31 1.12zm-.976-3.31c-.105.13-.23.24-.38.34l-1.228.82c-.114.07-.145.22-.07.33.073.11.225.14.335.06l1.23-.82.16-.12c-.01.25-.02.57-.05.72-.08.06-.33.19-.63.32-1.18.52-3.37 1.28-3.37 1.28l-1.49.75-1.61.8c.92-.96 1.27-2.63 1.52-3.35.24-.7.62-.75 1.2-1.04.36-.18.83-.62 1.28-1.23.06.04.13.06.21.05l3.45-.89c.01.05.01.12.01.22 0 .42-.08 1.19-.52 1.72zm6.99-5.65c-.13.35-.854 2.03-1.03 2.88-.056.21-.07.2-.07.21-.018.01-.078-.03-.13-.08-.046-.04-.092-.08-.092-.07-.08-.09-.2-.11-.297-.05h-.006c-.02.01-.04.02-.06.04h-.01c-.02.02-.25.28-.34.34-.02.02-.23.05-.37.06l-.4-.43c-.1-.1-.25-.11-.34-.02-.1.09-.11.24-.02.34l.33.36c-.04.03-.07.07-.1.09v.02c-.27.11-.46.29-.54.63-.05.16.06.09-.16.16-.01-.01-.01-.01-.02 0h-.01c-.23.02-1.09-.42-1.09-.42l-1.4-.76-.2-.11-.18-.02-3.33.86c.24-.4.46-.85.61-1.33.12-.42.19-.86.19-1.3 0-.25-.02-.49-.06-.74.07.09.11.17.13.23.11.27.38.3.56.3.25 0 .54-.06.76-.06.11 0 .2.02.23.04.18.1.38.11.61.11.61 0 1.39-.17 1.39-.17.83-.04 1.39-.63 1.63-.77.29-.2.79-.6.87-.63h.01l.02.01h.1c.22.01.46-.1.74-.37.23-.25.3-.57.32-.82l.63.47c.67.42.9.45 1.22.56-.05.09-.12.22-.18.38zm-10.86-3.36c0-.01.08-.02.16-.04.1-.03.19-.04.19-.04.123-.03.206-.15.187-.28 0-.04 0-.06-.01-.08v-.02c.01-.14.46-.47 1.04-.63.58-.19 1.16-.28 1.16-.28.11-.02.2-.12.21-.23 0-.57.9-.82 1.92-.81.84 0 1.61.14 1.61.14.24-.03.4-.04.56-.04.73-.01 1.45.25 1.99.51s.9.53.9.52l.19.05c.09-.01.17-.02.25-.02.99-.03 1.61 1.29 1.61 1.29l.15.13c.56.16.69.63.7 1.17 0 .48-.13.9-.15 1.03-.07.19.09.24-.52.39h-.08c-.14 0-.34-.05-.54-.15-.61-.27-.62-.13-1.39-.62l-.98-.74c-.07-.06-.17-.07-.26-.02s-.13.13-.12.23c0 0 .01.06.01.16.01.22-.06.64-.2.76-.27.24-.3.22-.4.23h-.12c-.45.05-.84.54-1.13.69-.36.21-.79.67-1.45.7-.04.01-.8.17-1.34.16-.19 0-.35-.03-.38-.05-.15-.08-.31-.1-.47-.1-.28 0-.58.05-.76.05-.05 0-.1 0-.11-.01-.11-.29-.38-.63-.83-.92-.03-.08-.06-.15-.1-.22-.28-.57-.7-1.11-1.29-1.56-.21-.17-.43-.31-.65-.43 0-.02-.01-.04-.01-.06-.03-.07-.04-.12-.04-.17-.01-.29.38-.68.55-.76zm-3.188.79c.037-.01.07-.02.102-.04.483.02 1.347.13 2.197.56.258.13.51.28.753.46.526.41.9.89 1.146 1.39.255.53.374 1.09.374 1.63 0 .39-.06.78-.177 1.15-.17.55-.45 1.08-.75 1.51-.44.64-.95 1.11-1.2 1.23-.48.23-1.14.41-1.44 1.31-.26.81-.69 2.6-1.45 3.26.02-.05-.18.12-.16.37 0 .07.01.16.04.28.03.11.08.25.16.44.33.75 1.35 2.76 1.34 4.21.01 0-.01.03.02.12-.01-.04-.02.01-.02.07 0 1.52.28 2.96.65 4.14.46 1.25.94 2.63 1.6 2.83.22 0 .81.21.91.35.31.32 1.07.62 1.3.72.08.01.23.11.32.17l-.12.05c-.26.08-.52.11-.74.11-.32 0-.51-.06-.51-.06.02.02-.28-.2-.58-.23 0 0-.01 0-.05.01-.01.01-.02 0-.05.01-.24.07-.37.24-.44.26-.03.04-.46.14-.73.4-.02.02-.05.05-.07.08v.02l-.01.02c-.03.04-.04.08-.04.13-.07.18-.18.48-.22.63-.06.2-.16.81-.19 1.1.01.28-.06.48-.05.49-.03.03-.51.34-.63.34-.1 0-.22.01-.34.01-.19 0-.37-.04-.43-.1-.21-.17-.49-.52-.77-.74-.03-.03-.07-.08-.11-.13-.15-.19-.29-.49-.29-.9 0-.1 0-.19.02-.28.12-.79.56-1.28.62-1.66v-.02c-.02-.37-.88-2.56-.89-2.6-.03-.06-1.4-1.92-1.6-2.33-.21-.4-.92-1.17-1.44-3.11-.17-.66-.32-1.45-.41-2.4-.01-.05-.15-.45-.15-1.24 0-.11 0-.21.01-.3.01-.23.03-.47.06-.73.2-1.52.14-3.5.16-3.84 0-.07.02-.25.05-.49.09-.72.3-1.99.61-2.82.42-1.11 2.1-3.92 2.1-3.92.07-.11.03-.26-.08-.33-.04-.03-.08-.04-.12-.04-.08 0-.16.04-.21.12-.01.01-1.68 2.79-2.13 3.99-.32.83-.51 1.96-.62 2.71-.01 0-.02 0-.03.01v-.01c-.14.05-.28.08-.43.08-.87.03-1.94-1.02-2.92-2.27-.34-.44-.48-.82-.48-1.21-.01-.84.71-1.81 1.84-3.04 1.33-1.5 5.81-2.02 6.77-2.07zm-13.618 9.23c.02-.29.167-1.96.377-3.17.048-.28.098-.53.147-.73.255-1.03 1.123-1.38 1.846-1.79.79-.49 1.53-1.98 2.204-2.38.68-.43 2.704-.84 4.27-1.18.506-.12 1.21-.16 1.902-.16h.46c-1.675.29-3.723.85-4.71 1.91-1.132 1.24-1.957 2.25-1.968 3.36-.004.51.19 1.01.58 1.5 1.014 1.25 2.076 2.43 3.297 2.45.137 0 .27-.02.407-.05l-.023.23c-.022.4.043 2.33-.15 3.81-.025.19-.043.37-.054.54-.017 0-.028.01-.043.02l-.136.09-.02-.01-.005-.01-2.17-.72c-.35-.1-2.4-.95-2.95-1-.34-.01-1.46-.44-1.89-.74-.38-.2-1.34-1.69-1.39-1.98v-.03zm-4.593 3.88c-.13-.09-.366-.78-.354-1.26 0-.26.07-.45.11-.46.44-.39 1.53-1.7 1.54-1.71 1.35-2.42 2.65-3.15 3.16-3.37-.17 1.14-.29 2.48-.32 2.83v.06c.06.6 1.01 1.97 1.6 2.41.55.35 1.6.77 2.13.81.33.01 2.46.86 2.84.97l1.85.61c-.54.39-1.39.99-2.3 1.58-.35.23-.67.31-.98.32-.91.01-1.76-.82-2.36-1.27-.31-.22-.69-.29-1.1-.29-.89 0-1.98.31-2.98.45-.07.01-.14.01-.22.01-.63 0-1.22-.39-1.68-.82l-.03-.05c-.02-.03-.05-.05-.08-.07-.35-.34-.6-.66-.77-.82zm.51 2.04c0-.32.092-.53.174-.66.48.42 1.12.83 1.89.84.09 0 .18-.01.28-.02 1.03-.16 2.13-.46 2.91-.45.36 0 .64.06.82.2.55.38 1.45 1.34 2.64 1.35.4 0 .82-.12 1.25-.4 1.1-.73 2.13-1.46 2.62-1.82l.04-.03c0 .82.16 1.27.16 1.28.06.8.19 1.53.34 2.17-.68.09-2.83.35-5.36.35-.61 0-1.25-.02-1.89-.05-.99-.06-2-.17-2.96-.35-.53-.1-1.05-.22-1.53-.37l-.04-.02c-.24-.07-.47-.15-.69-.23-.54-.84-.69-1.43-.69-1.83zm-3.662 19.08l-.03-.03-1.586-1.1c-.217-.2-.254-.37-.26-.52-.007-.24.177-.43.17-.44.003 0 2.202-2.23 3.232-4.43.55-1.73.75-5.79.75-5.81.24-2.02.77-3.16 1.21-3.79.32-.46.59-.62.7-.69.12.05.25.1.38.14-.5.56-1.75 2.27-1.83 4.9l-.55 6.97v.07c0 .06-.04.42-.4 1.36 0-.01-.57 1.25-.91 1.99-.24.52-.26.55-.31.64-.1.18-.5.63-.61.72zm2.364 1.04c-.242-.05-.632-.15-.985-.25-.29-.09-.578-.18-.785-.27-.104-.05-.19-.09-.238-.12l-.02.02c-.02-.04-.02-.07-.02-.07.18-.17.53-.57.7-.85.06-.11.09-.17.33-.68.34-.74.91-2 .91-2 .38-.99.43-1.37.43-1.55 0-.05 0-.07-.01-.09l.55-6.94c.07-2.88 1.64-4.55 1.84-4.77.33.09.66.17 1 .25-.63.58-1.97 2.18-1.97 5.05 0 .01-.01.06 0 .11.01 1.44.11 3.14.11 4.79 0 2.22-.19 4.36-.96 5.74-.11.18-.22.36-.33.53 0 .01-.49.52-.58 1.06zm3.17 1.21c-.106-.06-.313-.25-.486-.46-.54-.61-1.19-.52-2.07-.57-.14-.04-.11-.02-.14-.07-.02-.22.49-.88.49-.88.14-.2.26-.39.37-.59.85-1.54 1.02-3.73 1.02-5.98 0-1.67-.09-3.37-.11-4.83v-.08c0-3.51 2.09-4.9 2.08-4.92l.02-.02c.8.15 1.61.24 2.43.3-.44.58-1.31 1.96-1.31 3.88 0 2.47.69 6.11.69 6.93 0 0-.01.06.02.12-.03.38-.23 1.67-.5 2.91-.09.43-.27 1.19-.27 2.12 0 .67.09 1.43.39 2.23-.24-.03-.46-.04-.66-.04h-.01c-.02-.01-.03-.01-.05 0-.05 0-.11 0-.18.02h-.02c-.19.01-.37.02-.54.02-.64 0-1.12-.11-1.12-.11zm2.397 4.83c-.023.03-.07.08-.13.13-.354.32-1.108.77-1.324.89h-.012c-1.317-.03-1.502-.73-1.54-1.68 0-.66.16-1.34.21-1.79.017-.76 1.558-1.72 2.082-1.84l.21-.02h.04c.277 0 .708.05 1.106.1.468.06.88.13 1.022.14.017-.02.465.25.898.52.38.24.748.48.817.52-.002.03-.006.06-.006.09 0 0-.01.03-.01.08.012.53.28.96.553 1.27-.515-.03-.985-.02-1.143-.03h-.055c-.575.06-2.263 1.05-2.718 1.57zm.566.32c-.005-.06-.033-.11-.076-.15.438-.4 1.987-1.25 2.212-1.26h.023v-.01c.35.02 1.09.01 1.74.07.47.03.9.17.89.21.28.32.42 1.62.75 1.99.19.16 1.68 1.37 1.68 1.38.1.08.25.07.33-.04.08-.11.07-.26-.04-.34 0 0-1.5-1.22-1.68-1.37-.06.03-.33-1.43-.69-1.92-.25-.27-.63-.33-1.08-.38l-.02-.02c-.26-.19-.82-.77-.81-1.32l.01-.05c0-.09.01-.17.03-.26.12-.6.6-1.36 1.18-2.03.2-.24.57-.52.97-.78.64-.42 1.35-.78 1.61-.92 1.14 1.2 3.39 3.51 4.52 4.19.01 0 .01 0 .01.01-.21.88-.35 1.87-.35 2.95 0 .12 0 .26.01.41.04.99.06 2.05.14 3.05-.76.65-1.89.84-3.18.84-.92 0-1.9-.09-2.87-.15-2.1-.12-3.87-1.26-4.54-1.93-.07-.07-.12-.13-.16-.18-.48-.57-.65-2.03-.66-2.03zm22.787 11.25c.182.24.508.7.844 1.27.19.31.27.83.26 1.37 0 .69-.1 1.39-.13 1.76-.02.46-.34.51-1.25 1.55-.35.41-.99.56-1.68.56s-1.42-.15-1.87-.28c-.94-.26-3.09-.72-4.34-.85-1.11-.1-3.59-1.58-4.22-1.87-.51-.22-3.41-2.64-3.7-2.93-.44-.39-1.24-.54-1.58-.61.02-.01 0-.01-.02-.01s-.05 0-.05-.01c-.62.06-2.47 1.45-2.69 1.57-.18.14-.49.35-.62.69-.04.07-.05.17-.05.24.01.23.11.38.17.52.18.38.56.36.65.42.14.05.37.13.56.19-.03.05-.07.1-.12.16-.05.07-.11.14-.15.18-.03.04-.04.04-.03.05-.3.2-.23.43-.23.55-.04.03-.18.07-.24.09h-.04c-.1 0-.27-.02-.39-.02-.06 0-.08.01-.08.01h.01c-.09 0-.47-.06-.49-.06l.01-.01c-.05-.04-.11-.11-.16-.16-.02-.03-.04-.06-.05-.07-.11-.33-1.09-2.01-1.13-2.36l-.07-.03.07.01c-.01-.42.75-2.32 1.12-3.11.42-.93.42-1.89.45-2.37.01-.27.21-.52.31-.63 1.87 1.61 3.53 3.46 5.8 4.55 2.27 1.08 7.18 3.03 7.73 3.22.11.03.31.11.57.21.96.38 2.78 1.2 2.97 1.41.1.09.25.09.34-.01.09-.1.09-.25 0-.33-.26-.24-1.05-.62-1.86-.98h.21c3.96.04 4.37-2.01 5.12-3.6.06-.12.11-.23.15-.34zm-1.412-4.66c.31.95.56 1.73.617 1.88.128.33.532.81.54 1.64 0 .14-.016.3-.046.48-.016.06-.033.14-.053.21-.054.18-.127.37-.225.58-.864 1.71-.914 3.29-4.69 3.33-.158 0-.325-.01-.496-.01l-1.043-.1h-.06c-.22-.09-.39-.15-.49-.19-.51-.17-5.46-2.14-7.68-3.2-2.19-1.04-3.83-2.89-5.76-4.54-.04-.03-.08-.06-.11-.1-.98-.9-1.18-2.14-1.18-3.03 0-.3.02-.56.05-.74.88.73 2.55 1.68 4.55 1.8.96.05 1.95.14 2.9.14 1.2 0 2.35-.15 3.23-.75.14 1.41.39 2.62 1.06 3.2l.84.7c.08.07.25.18.44.31.09.06.18.13.24.19.06.05.06.07.07.07.05.09.16.44.17.55-.07.05-.38.19-.54.39-.05.08-.1.22-.11.42-.01.15.06.4.29.52-.01 0 .06.05.2.05.13 0 .26-.07.35-.19.09-.1.24-.16.34-.18.17-.08.69-.2.93-.59l.79 1.67c.13.11.32.22.56.23.07 0 .15-.02.21-.05.1-.09.29-.2.3-.48 0-.06-.01-.12-.03-.18-.05-.14-.25-.84-.25-.84l-.24-.81.17.23.57.96c.05.04.23.34.62.38.06 0 .11-.02.14-.03.15-.05.47-.2.47-.57 0-.1-.02-.2-.06-.31-.17-.41-.51-1.2-.51-1.2-.01-.02-.17-.34-.4-.69l.17.07 1.36.88.15.03c.02-.02.25.01.47-.22.06-.1.07-.19.07-.25-.01-.22-.11-.36-.21-.48-.09-.1-1.14-1.4-1.15-1.4-.05-.05-.49-.38-.78-.51 0-.01-.16-.17-.15-.18-.14-.29-.67-.73-.8-.86-.18-.16-1-.68-1.42-.8-.34-.04-.87-.24-.89-.35v-.02h-.01c.13-.57 1.05-2.76 1.05-2.76l.71-1.44.21-.42c.19.21.91.88 2.22.89.1.21 1.03 2.15 1.11 2.77.07.51.64 2.34 1.12 3.82zm-.22-2.32c-.224-.74-.395-1.36-.423-1.56-.104-.69-.827-2.23-1.076-2.75 1.717-.34 3.003-1.3 3.63-2.18h.014c.876-.13 1.496-.57 1.966-1.12-.124.71-.284 1.54-.736 2.74-.004 0-.372.99-.797 1.86-.208.8-1.97 2.45-2.577 3.01zm1.76-1.04c.57-.61 1.104-1.28 1.266-1.79.15-.3.28-.6.4-.88.03 1.43.17 3.57.23 4.52-1.01-.96-1.84-1.82-1.89-1.86zm11.79 1.44c-.01.23-.034.52-.034.82 0 .16.01.33.04.5-.21-.07-.41-.1-.61-.1-1.08.02-1.89.8-2.97 1.15-1.03.34-2.13.47-2.68.51.39-1.03 1.49-4.09 1.76-6.59 0-.01.16-1.55.31-3.67.01-.14-.09-.25-.22-.26-.13-.01-.24.09-.25.22v-.01c-.14 2.12-.3 3.65-.3 3.66-.27 2.55-1.47 5.79-1.79 6.62-.56-.19-1.62-1.05-2.61-1.96v-.04c0-.01-.27-3.82-.27-5.54 0-.35.01-.62.04-.7 0-.01-.01-.02-.01-.03.62-1.74.66-2.8.88-3.63.01-.02-.01-.04-.01-.06.43-.95.56-1.95.59-2.43v-.02c-.01-.27-.23-1.01-.23-1.03.01.01-.04-.18-.1-.44l.43-.37c.01 0 .01-.01.01-.01.12.2.25.41.41.59.4.44 1.32.85 2.18.86.18 0 .35-.03.52-.07.44-.16.61-.45.62-.4.33-.09.57-.35.69-.35.34-.1.53-.4.62-.58.07 0 .14.01.22.01.24.01.71-.08.75-.56.03-.4.05-1.28.05-1.6.2-.16.61-.54.78-1.22.39-.03 1.1-.11 1.11-.11.72-.23.94-.82.93-1.31 0-.3-.07-.58-.13-.79-.19-.49-.8-.91-1.12-1.11.08-.17.12-.33.12-.48-.01-.5-.35-.75-.37-.77-.12-.46-.56-.69-.93-.79l-.1-4.4c.82-.22 1.61-.69 2.06-1.63l.09.06c.01 0 .1.01.22.01.17 0 .43-.02.71-.13.49-.2.9-.64.92-.65.25-.18.37-.42.4-.65l2.73 1.31c.04.17.07.32.07.43 0 .05 0 .08-.01.1-.03.06-.03.15-.03.21.02.49.4.73.41.75.03.02.06.04.1.04v.12c0 .39.02.81.1 1.29 0 .01.1.84.62 1.59-.01.01-.02.02-.02.04 0 .01-.28.72-.41.78-.32.25-1.35 1.54-1.38 2.73 0 .1 0 .22.04.34.23 1.05.76 2.84.76 2.85.03.11.14.18.26.17l.19-.02c-.13.35-.4 1.04-.5 1.11-.15.13-.96.66-1.64 2.55-.14-.07-.35-.14-.62-.14-.36 0-.81.14-1.25.56-.61.56-.8.73-.84.77l-.04.03V93l-.02.02c-.23-.55-.32-1.04-.32-1.47-.03-2.31 2.62-3.4 2.62-3.41.12-.05.19-.19.13-.31-.04-.12-.18-.18-.3-.13-.01 0-.83.32-1.59 1.03-.04-.57-.11-1.54-.12-2.3.05-.136.45-1.38.99-2.68.53-1.37 1.32-2.82 1.67-2.91.12-.05.19-.19.14-.31-.05-.13-.19-.19-.31-.14-.78.38-1.63 2.32-2.22 3.88.22-1.11.55-2.64.85-4.03.03-.13-.05-.254-.18-.285-.13-.03-.26.054-.29.18-.52 2.335-1.08 4.99-1.12 5.58-.01.135-.01.29-.01.46 0 1.09.14 2.85.15 3.02-.49.59-.87 1.36-.88 2.35 0 .543.12 1.15.41 1.813.02.034.04.06.06.085-.37.5-.38.52-.46.74-.09.27-.4 1.55-.41 1.87v.03c0 .08-.01.22-.03.34l-.03.14v.01c-.02.03-.35.22-.5.3-.15-.22-.46-.7-.84-.83-.08-.02-.19-.04-.3-.04-.12 0-.45.05-.47.372 0 .04.01.09.02.13-.12.03-.35.08-.42.43.02.23.15.35.35.54l.72.62c.02.01.65.58 1.18.71.11.02.25.04.4.04.26 0 .56-.05.82-.21-.04.13-.06.227-.07.23-.17.298-.39.94-.4 1.327 0 .06 0 .15.07.25 0-.063.05.49.61.57.21 0 .37-.13.51-.32l.1-.13c-.21.664-.4 1.22-.52 1.48-.45 1.02-1.12 1.84-1.14 2.7zm2.49-9.46c-.126-.04-.26.04-.294.17-.02.13-.33.48-.37 1.1-.01.31-.29.31-.35.31-.11-.03-.16-.16-.17-.45 0-.24.05-.49.07-.64.02-.14-.08-.25-.21-.27-.13-.02-.25.08-.26.21v-.01c-.01.11-.07.4-.07.69-.01.24.05.58.28.77-.01.09-.04.36-.09.65-.03.02-.06.05-.09.08-.19.3-.54.42-.87.42-.11 0-.21-.01-.29-.03-.29-.05-.96-.6-.97-.6l-.72-.63c-.06-.06-.11-.1-.14-.14.11-.03.33-.07.42-.41 0-.02 0-.05-.01-.09.05 0 .11.02.15.03.05-.03.63.69.65.76.13.11.13.1.23.12.35-.04.73-.37.86-.44.26-.29.22-.62.25-.87l.01-.02v-.01h.01c-.01-.12.32-1.56.39-1.7.08-.23 0-.09.69-1.03.05-.03.18-.16.86-.78.38-.35.69-.43.93-.44.21 0 .37.07.46.13-.32.97-.6 2.26-.81 3.96 0 .01-.38 1.36-.81 2.78-.01.02-.03.04-.04.06l-.48.78-.45.62c-.1.13-.13.11-.13.13-.01 0-.05-.03-.1-.13-.06-.09-.08-.19-.09-.19l-.07-.04h.06c-.02-.19.23-.92.33-1.06.13-.22.19-.6.26-1.01.06-.31.1-.61.12-.77.22-.03.69-.17.74-.76.03-.49.25-.67.36-1.01.04-.13-.03-.26-.16-.3zm-2.093 24.98l-6.83-2.3v-1.42l6.83 2.24v1.47zm13.66-3.8l-13.186 3.88.004-1.54 13.182-3.75v1.42zm-8.514-.52c.12-.03.197-.15.18-.26l-.307-2.05 1.15-.27 6.73 1.4-12.65 3.6-6.42-2.11 6.53-1.53-.39 2.08c-.02.12.06.24.17.27.13.03.25-.03.29-.15l.91-2.44 2.83-.66.72 1.96c.04.12.17.18.28.15zm-3.617-1.99l1.38-3.48 1.07 2.92-2.45.56zm2.95-.67h-.03l-1.31-3.57c-.03-.09-.12-.16-.22-.16s-.19.06-.22.15l-1.72 4.37h-.03l.44-3.09v-.03c.12-.2.29-.57.38-.97.12-.56.54-2.02.93-2.64.23-.36.62-.51.87-.58l.06.62.89 5.87zm3.9-18.08c-1.69 3.1-4.12 5.95-4.31 6.46-.09.26-.16.53-.15.91 0 .47.1 1.11.36 2.22.06.23.08.47.08.68 0 .52-.14.96-.33 1.31l-.03-.32c-.01-.14-.12-.23-.26-.22-.02 0-.93.06-1.45.85-.46.74-.86 2.18-.99 2.79-.07.3-.2.6-.29.78-.09-.08-.13-.27-.13-.4l.01-.06-.19-3.17-.09-.18c-.15-.11-.25-.24-.33-.37l-.03-.05c0-.05-.02-.1-.05-.13-.08-.23-.11-.49-.11-.77 0-.27.02-.55.03-.81-.01-.6.61-1.44 1.11-2.51.23-.51.63-1.77 1.01-3.03.45-1.49.85-2.94.85-2.94.23-1.83.54-3.14.86-4.1.71-2.05 1.41-2.44 1.6-2.63.37-.36.69-1.5.71-1.52v-.01l4.47-.54c.03-.01.28-.07.61-.18l-1.38 2.94-.02.12c.01.1.02.21.02.32 0 1-.41 2.25-1.02 3.52-.15.33-.32.65-.5.97zm4.71 3.59s-1.85 2.83-2.09 3.17c-.24.35-.24.88-.25 1.31 0 .21.01.39.02.48.01.18-.16.76-.16.76-.03.09-.03.18-.03.26.01.53.33 1.1.6 1.45.33.41.73.67.84.96.01.01.02.04.02.07.02.19-.32.65-.77.87-.25.13-.87.2-1.53.2-.5 0-1.03-.03-1.48-.09-.64-.09-.68-.57-.7-.88 0-.1.01-.15.01-.15-.01.03.46-1.4.54-1.6.06-.21.08-.49.08-.82 0-.27-.01-.53-.04-.75-.01-.05 0-.05 0-.05-.01-.36.42-1.39.81-1.93.33-.49.37-1.26.38-1.87 0-.34-.02-.63-.02-.76v-.4c0-1.08.04-3.89.04-4.46 1.93-.43 3.63-.66 4.95-.79-.3 3.74-1.17 4.95-1.15 4.97zm1.67 8.85l-.5-1.86c-.42-1.08-.56-2.02-.56-2.83.01-1.68.6-2.82.78-3.3.25-.65 1.79-3.62 1.79-3.63l.93-1.99.15-.61c.03-.13.07-.29.12-.49.26-1.06.59-2.91.63-3.64 0-.05.01-.1.01-.14 0-.81-.32-2.25-.58-2.91-.13-.32-.17-.6-.17-.86 0-.23.04-.45.07-.68.06-.45.65-2.65.77-3.29l2.93-.15c.03-.01.99-.12 1.67-.53.11-.07.15-.22.08-.33-.07-.11-.22-.15-.32-.08-.55.34-1.47.46-1.47.46l-4.34.22c-.13 0-.24.12-.23.25.01.12.11.23.25.23l.94-.05c-.15.71-.68 2.71-.75 3.2-.03.23-.07.47-.07.74 0 .31.05.66.2 1.04.23.56.56 2.04.55 2.73v.12c-.04.64-.37 2.52-.61 3.54l-.08.36c-.32 0-1.2.01-2.46.13h-.04c-1.29.12-2.98.34-4.91.75.53-1.18.9-2.34.9-3.36 0-.11-.01-.2-.01-.3l1.47-3.16.01-.03c.02-.05.03-.1.02-.15.35-.17.72-.39.98-.68.61-.69 2.23-3.37 2.24-3.38l.03-.06c.14-.21.29-.45.43-.71 0-.01.03-.06.06-.14.01-.02.04-.01.04-.03.05-.12.09-.25.13-.39.21-.48.52-1.18.84-1.8.05.03.53-.27.63-.3 1.78-.68 2.35-2.97 2.37-2.99.01-.04.01-.1.01-.18.9 1.05 3.15 3.45 5.67 4.15-2.24 2.72-3.92 5.63-5.2 8.43-.08-.92-.1-1.68-.1-2.18 0-.45.02-.7.02-.7.01-.13-.09-.25-.22-.25-.13-.01-.24.09-.25.22s-.02.26-.02.72c0 .65.03 1.7.19 2.98 0 .02.01.03.02.04-3.14 7.27-3.54 13.59-3.54 13.61 0 .03.01.06.02.09-.01.07-.05.13-.05.21 0 .65.54 1.29 2 1.72.02.01.04.01.06.01.02 0 .03-.03.05-.04-.11.54-.23 1.01-.35 1.3-.56 1.33-.96 2.36-.97 2.97v.03c0 .18-.06.52-.14.87-.03-.02-.06-.03-.1-.04-.89-.17-1.06-.21-1.96-2.94zm1.88-4.03c0-.01.71-1.04.82-1.11.31-.25.82-.65 1.43-1.14-.08.73-.28 2.4-.54 3.75-.02-.02-.03-.04-.05-.05-1.4-.44-1.69-.94-1.69-1.31 0-.05.03-.1.04-.15zm5.25 9.88c0 .02 0 .03.01.04v.01c.01.24-.58.85-.78.98-.17.14-.7.33-1.01.52-.07.04-.21.07-.39.07-.17 0-.35-.02-.54-.03-.29-.01-1.01-.27-1.01-.27l-.14-.01s-.53.11-.97.11c-.09 0-.17 0-.24-.01-.26.01-.35-.4-.41-1.15-.01-.06-.01-.09-.01-.14 0-.18.03-.36.08-.54.11-.4.31-.78.42-1.02.19-.42.55-1.73.56-2.34v-.01l-.21-.01h.21v-.01c-.01-.43.37-1.48.93-2.79.59-1.42 1.02-5.88 1.03-5.9 0-.03 0-.07-.01-.09 2.31-1.87 5.63-4.62 6.51-5.84.12-.17.25-.32.4-.45.01.05.01.1.01.15.01 5.26-5.1 12.43-5.62 13.44-.17.34-.22.74-.22 1.16 0 .63.12 1.28.22 1.71.07.29.12.48.13.49.05.07 1.03 1.54 1.08 1.88zm8.83-2.13c-.17 0-.33-.01-.48-.01-.89-.03-.99-.02-1.98-.07-.48-.02-.97-.04-1.44-.07-.01-.01-.03-.02-.05-.02-1.53-.34-3.61-2.65-3.61-2.65-.09-.1-.24-.11-.34-.02-.1.08-.1.23-.02.33.06.05 1.29 1.45 2.67 2.28-.72-.04-1.4-.08-1.99-.12-.67-.05-1.23-.09-1.64-.13-.2-.02-.37-.04-.48-.06l-.13-.03c-.03-.03-.06-.04-.1-.05-.08-.4-.16-.91-.16-1.38 0-.38.05-.72.17-.94.29-.61 2.6-3.89 4.18-7.62.86.96 1.73 1.91 2.52 2.77-.02.04-.05.07-.04.12.11 4.93 2.35 6.87 3.69 7.59-.25.01-.5.01-.73.01zm1.89-.07c-.02-.01-.04-.02-.06-.02 0-.02-3.95-.71-4.28-7.15 1.37 1.46 2.39 2.52 2.39 2.52.05.05.11.07.18.07.06 0 .12-.02.17-.07.1-.09.1-.24.01-.34 0-.01-2.84-2.96-5.43-5.87-.02-.03-.05-.03-.08-.04.75-1.87 1.3-3.82 1.3-5.59 0-.18 0-.35-.01-.5.82-.5 1.82-.59 2.42-.59.32 0 .52.02.52.02.13.02.25-.07.27-.2.02-.13-.07-.25-.2-.27-.01 0-.23-.03-.58-.03-.68 0-1.86.1-2.84.77-.3.21-.59.48-.83.81-.79 1.12-4.29 4.03-6.58 5.87-.76.61-1.4 1.12-1.76 1.4-.06.05-.13.13-.21.22-.03.02-.09.09-.19.19.37-3.15 2.07-13.46 9.07-21.84.26.04.52.07.79.07.12 0 .23-.01.35-.02l-1.75 6.87c-.03.12.05.26.18.29.13.03.26-.05.29-.17l1.8-7.06.01-.01c.49-.1.98-.31 1.45-.63.64-.45 2.81-1.53 3.48-2.67l2.03-1.64c.01-.02.41-.39.87-.94.88 2.31 1.46 5.51 1.96 9.84.18 1.51.25 3 .25 4.44 0 5.32-1.01 9.93-1.73 12.82-.12-2.82-.57-7.63-.57-10.98 0-1.05.05-1.96.17-2.59.2-1.15.27-2.27.27-3.24 0-1.94-.27-3.33-.27-3.34-.03-.13-.15-.21-.28-.19-.13.02-.22.15-.19.28 0 .02.26 1.36.26 3.25 0 .95-.07 2.04-.26 3.15-.12.69-.17 1.61-.17 2.68 0 3.87.6 9.65.6 12.07 0 .34-.01.6-.03.79v.03c-.15.63-.22 1.3-.22 1.98.03 2.1.58 4.25 1.5 5.16-.88.09-2.49.24-3.98.33z"/>
  <path d="M152.822 70.507c.073 0 .148-.036.196-.1 0-.01.213-.263.434-.48.006.013.01.024.02.033l.09.137c.076.106.226.137.336.062.106-.08.137-.23.063-.34l-.09-.14c-.01-.02-.02-.04-.04-.05.03-.01.06-.02.08-.01h.03c.1.08.26.07.34-.03.08-.11.07-.26-.03-.34-.09-.08-.22-.12-.32-.12-.68.06-1.22.96-1.26.96-.08.11-.05.26.06.34.04.03.09.04.14.04zm.158 19.113c-.103.087-.115.238-.028.338.05.055.116.083.184.083.054 0 .108-.01.153-.05l.2-.17c.19.07.34.11.35.12.12.04.26-.04.29-.17.03-.12-.04-.26-.17-.29h-.01c-.01.01-.81-.26-.87-.44-.07-.11-.22-.15-.33-.08-.12.07-.15.21-.09.33.08.13.2.24.34.32l-.04.04zm-6.425-28.182c-.074.106-.044.258.066.33l.39.26-.11.17c-.07.11-.04.263.07.335.11.077.26.044.33-.065l.12-.175.44.29c.04.025.09.04.13.04.08 0 .16-.04.2-.11.08-.105.05-.257-.06-.33l-1.21-.812c-.1-.07-.25-.04-.33.07zm18.113-.066c-.14-.007-.223-.027-.264-.04-.01-.017-.02-.033-.037-.047-.094-.094-.242-.094-.338 0-.01.023-.06.016-.08.173.02.254.25.368.68.395h.01c.12 0 .23-.096.24-.22.01-.134-.09-.25-.22-.26zm-1.152-1.674c-.018.133.072.252.203.274 0 .002.02.002.02.002.12 0 .23-.087.24-.207l.01-.11c.18.043.37.073.57.077.13.003.24-.1.24-.233 0-.13-.1-.23-.23-.24-.65 0-1.33-.41-1.33-.4-.12-.07-.26-.03-.33.08-.07.12-.03.27.08.34.01 0 .21.13.53.25l-.03.19zm.046 2.592v-.002h-.003"/>
  <path d="M164.486 62.157c-.357-.016-.607-.244-.617-.237-.11-.083-.25-.07-.34.032-.09.098-.07.25.03.336.02.02.36.313.9.35.12 0 .24-.1.24-.227.01-.13-.09-.24-.23-.25zm20.717 11.18c.062 0 .123-.023.17-.07l1.918-1.917c.1-.092.1-.244 0-.338-.09-.094-.24-.094-.33 0l-1.92 1.915c-.09.096-.09.247 0 .34.05.047.11.07.17.07z"/>
</svg>
