<svg xmlns="http://www.w3.org/2000/svg" viewBox="0 0 311.818 242.373">
  <path d="M180.037 109.015v-.004h-.004m-10.806-27.39l-1.99.42c-.13.03-.21.16-.184.29.027.13.152.21.283.19l.682-.14.186.21c.045.05.11.08.176.08.06 0 .115-.02.164-.06.098-.09.104-.24.018-.34h-.004l.768-.16c.13-.02.215-.15.188-.28s-.155-.2-.287-.18z"/>
  <path d="M194.566 111.038c-.758-.11-1.797-2.67-1.758-5.1 0-.65.066-1.29.213-1.872.57-2.355 2.22-8.06 2.22-14.848 0-1.457-.07-2.964-.25-4.498-.52-4.505-1.12-7.808-2.09-10.213v-.012c.48-.65.91-1.45.92-2.213 0-1.488-1.24-3.752-3.76-3.767-.22 0-.45.023-.69.06l-1.55.48c-1.3-.963-2.53-1.058-3.38-1.054-.19 0-.37.01-.52.01-.24.01-.42-.02-.5-.05-.02 0-.54-.23-1.23-.23-.16 0-.34.02-.53.05h-.03c-.71-.13-1.42-.18-2.13-.18-.7 0-1.4.06-2.08.15-.11-.18-.54-.84-1.5-1.56v-.32c-.02-.8-.79-2.08-.79-2.1-1.97-3.26-4.99-4.49-5.38-4.64.1-.39.18-1.14.18-1.51 0-.05 0-.1-.01-.15l-.11-.01h.11c-.01-.09.17-.47.26-.85.01-.04.01-.06.01-.1-.02-.57-.64-1.66-.96-2.4-.39-.78-1.34-.9-1.65-.93-.87-.82-2.13-.91-2.75-.92-.24 0-.39.02-.4.02-.06.02-1.63.36-2.02.65-.18.15-.6.56-.99.99-.48-.27-.97-.37-1.41-.37-1.1.01-1.94.59-2.03.65.01-.02-.84.09-1.33.15-.6.08-1.09.35-2.32 1.82-.6.7-.77 1.41-.77 1.96 0 .54.16.92.23 1.07-.53.17-.99.54-1.25.77-.43.45-.46 1.45-.47 1.81l-.19.02c-.97.08-1.86.62-1.88.63.01.06-.68.12-.85.67 0 .09.03.12.04.15.09.2.43.61 1.1.61h.03c.51.04.74-.12.81-.25l.03-.03c.22.27 1.58 1.54 1.59 1.56.06.04.55.37 1.23.37.32.01.67-.07 1.01-.29.55-.41 1.25-.3 1.51-.91.24-.05.82-.17 1.18-.36.15-.07.33-.19.48-.38l.02-.02v-.01c.03-.05.68-.74.79-.67v.03c.49 1.24.66 2.3.66 3.17 0 1.73-.64 2.66-.63 2.67-.08.13-.47 1.03-.73 1.62-.15-.29-.36-.45-.5-.53-.07-.29-.28-.47-.41-.57v-.02c-.05-.84-.92-.9-.76-.94-.19-.54-.89-.79-.9-.82-.3-.51-1.15-.59-1.17-.6-.01-.01-.06-.01-.1-.01-.41.01-1.2.32-1.44.42-.08-.02-.19-.04-.34-.04-.19 0-.44.03-.71.13-.06-.01-.15-.02-.26-.02-.43-.01-1.24.17-1.69 1.1-.01-.02-.59.38-.88.95-.02.04-.91 2.68-1.05 3.66-.14 1.02-.06.75-.15.99-.04.24-1.36 1.4-1.38 2.38 0 .16.04.33.14.47-.79.57-3.17 2.67-3.17 7.1 0 .44.02.9.07 1.39-1.01-.4-2.07-.69-2.35-.77-.17-.22-.43-.29-.56-.36-.19-.07-1.01-.45-1.12-.6-.31-.33-.87-.48-1.23-.51h.01c-.25-.22-.89-1.48-1.19-2.49-.35-1.14-.62-2.55-.62-4.01 0-.04 0-.09.01-.14l-.11-.04h.11c0-1.64-1.07-3.67-1.37-4.41-.02-.05-.04-.09-.05-.13l1.48-.74c-.02.14-.04.29-.04.46.01.24.03.5.17.74-.01-.03.77 2.18 3.2 2.38l2.29.09c.03 0 .06 0 .09-.01.49.27 1.09.61 1.8.61.38 0 .79-.11 1.19-.38.01 0 .63-.33.63-1.23 0-.1 0-.2-.02-.31.18-.14.48-.41.5-.85 0-.13-.04-.29-.12-.43l-.17-.28.81-.13c.04-.05.65-.12.74-.69 0-.04 0-.08-.02-.14l-.18-.16c-.01 0-1.06-.19-1.26-.21-.1 0-1.31-.19-1.31-.19l-.5.06-.52-.14v-.01c-.2-.6-1.25-1.35-1.58-1.6.17-.08.3-.17.4-.35.08-.32.08-.89.08-1.18v-.13c0-.03 0-.07-.02-.1.43-.64.5-1.38.5-1.81l1.06.58c.03 0 .81.46 1.32.47h.036c.5-.03.63-.47.61-.61 0-.01.18-.18.17-.2.21-.08.34-.24.41-.34.15-.01.4-.03.6-.14.1-.07.2-.17.28-.25.09.06.22.12.38.13.27 0 .48-.25.54-.59.15-.76.87-2.45 1.01-2.82.07-.19.14-.31.184-.37.17.06.35.1.53.11.04 0 .09 0 .15-.01.78-.07.94-.65.93-.79 0-.05.16-.57.16-1.11.01-.58-.19-1.32-.94-1.6-.18-.34-.81-1.45-2-1.48-.08 0-.16 0-.24.02-.34-.24-1.64-1.07-3.09-1.08-.185 0-.366.01-.546.05.02-.01-.76-.15-1.614-.15-.95.01-2.15.14-2.37 1.09-.54.09-2.183.35-2.41 1.28-.1.02-.21.05-.29.09-.26.15-.75.54-.784 1.15-.91-.38-1.77-.45-2.18-.46-.04-.01-.08-.01-.11-.01-.1 0-.16 0-.17.01 0-.01-1.27-.15-2.58-.15-.71 0-1.44.04-2.01.17-1.57.35-3.56.72-4.42 1.24-.85.55-1.61 2.05-2.2 2.37-.64.38-1.74.8-2.06 2.09-.04.16-.08.35-.12.56-.27.07-2 .67-3.64 3.64 0 0-1.1 1.31-1.45 1.62-.23.21-.26.52-.27.83.01.6.18 1.28.51 1.61.1.08.34.38.65.7-.14.19-.3.52-.3.99 0 .49.16 1.13.66 1.94-.51.35-1.64 1.5-2.04 4.78 0 .02-.21 4.11-.72 5.67-.96 2.06-3.14 4.27-3.14 4.278-.02.03-.3.32-.3.77 0 .27.12.6.44.89l1.61 1.118c.046.03.1.04.15.04.01.1.04.16.046.18.21.4.74.44 1.36.66.57.16 1.08.29 1.31.32.107.085.245.14.395.14.96.05 1.39 0 1.74.4.2.22.425.446.687.58.05.02.32.08.73.12-.65.406-1.33 1.03-1.44 1.787-.05.39-.22 1.11-.22 1.83 0 1.01.426 2.15 2.02 2.16l.02-.01.16-.03c.01 0 .88-.48 1.4-.92.06.43.24 1.48.73 2.1.02.03.04.054.07.08-.03.14-.11.57-.11 1.14 0 .91.196 2.21 1.16 3.22-.14.15-.4.48-.43.93-.03.5-.04 1.39-.41 2.2-.39.85-1.143 2.62-1.16 3.3 0 0-.01.06.02.14.046.265.33.804.606 1.345.14.27.27.52.38.71.06.1.09.18.12.24.02.03.03.05.03.062l.01-.007c.13.31.29.44.51.58.13.04.45.08.65.08v-.02l.07-.05v.07l.02.01c.07 0 .25.02.38.02.05 0 .08 0 .14-.003.136-.07.506-.02.63-.47 0-.09 0-.18.01-.22l-.01-.01c.24-.19.53-.51.61-.91.01-.09-.06-.27-.24-.3l-.68-.23c-.27-.08-.37-.09-.38-.15-.09-.19-.14-.29-.13-.34 0-.04 0-.05.01-.06.05-.17.29-.38.46-.49.11-.11 2.1-1.44 2.39-1.49h.02V112c.42.093 1.104.28 1.31.5.37.34 3.14 2.68 3.84 3.01.59.253 3.04 1.764 4.38 1.91 1.2.13 3.365.59 4.27.84.48.134 1.23.3 1.996.3.74-.007 1.53-.16 2.04-.73.82-.96 1.28-1.04 1.37-1.82.028-.338.14-1.07.14-1.808 0-.58-.064-1.17-.323-1.62-.53-.89-1.03-1.52-1.03-1.52-.02-.03-.045-.05-.07-.06v-.03c.04-.21.055-.4.055-.57.01-.98-.52-1.65-.56-1.8-.05-.12-.31-.92-.61-1.86-.17-.53-.36-1.11-.52-1.66.14-.13.68-.61 1.27-1.21.22.2 3.83 4.1 5.39 4.45.035.02.08.03.12.03.01-.01 1.643-.06 3.184-.57 1.182-.41 2.01-1.138 2.814-1.12.25 0 .5.06.79.21.02.032.03.064.05.1.09.16.217.31.37.444l.18 3.03v.06c0 .14.01.71.48.88l-.424 3.05-7.51 1.76c-.05 0-.1.02-.14.06l-.03.03c-.04.05-.06.12-.05.185l-.006 1.88.16.23 7.41 2.5.14.01 13.55-3.98c.1-.03.17-.12.17-.23v-1.92c0-.12-.08-.21-.19-.23l-7.78-1.6-1.21.28-.84-5.62.03-.04c.33-.45.7-1.14.7-2.04 0-.26-.03-.52-.1-.8-.26-1.1-.35-1.71-.35-2.12 0-.32.05-.51.13-.76.05-.22 2.59-3.29 4.28-6.38-.01 1.08-.03 2.83-.03 3.64 0 .21 0 .34.01.44 0 .12.02.39.02.72.01.57-.072 1.31-.29 1.6-.43.62-.88 1.6-.89 2.2 0 .01-.01.07.01.15.02.13.03.39.03.64 0 .29-.025.59-.05.65-.083.23-.54 1.63-.54 1.64-.01.04-.025.13-.025.27-.02.36.15 1.23 1.12 1.35.48.06 1.02.1 1.55.1.697 0 1.33-.06 1.74-.25.55-.3 1.01-.76 1.04-1.3 0-.09-.01-.18-.05-.26-.22-.49-.66-.73-.9-1.06-.23-.28-.5-.84-.49-1.16 0-.06 0-.09.01-.1 0-.03.17-.54.18-.88.01-.02.01-.03 0-.03.01 0 .01-.01.01-.01h-.01l.016-.03c0-.09-.01-.26-.01-.46-.01-.39.06-.92.16-1.03.26-.37 2.1-3.19 2.1-3.19.02-.04.93-1.4 1.23-5.26V94c.99-.09 1.71-.106 2.06-.11l-.05.22-.91 1.94c0-.01-1.52 2.94-1.8 3.66-.17.44-.81 1.69-.81 3.47 0 .87.15 1.87.58 2.98l.5 1.84c.83 2.68 1.27 3.12 2.34 3.276h.06c-.1.37-.2.7-.26.83-.1.22-.32.62-.45 1.09-.05.21-.096.43-.096.66 0 .05 0 .11.01.2.07.64.06 1.41.82 1.55.09.02.2.02.3.02.41 0 .84-.08 1.01-.11.18.06.72.25 1.09.27.17.01.36.03.56.03.21 0 .43-.03.64-.14.24-.16.75-.34 1.04-.55.24-.21.91-.71.97-1.35.01-.02.01-.03.01-.04-.05-.65-1.13-2.08-1.14-2.12.02.04.01.003-.01-.09.99.2 3.95.303 7.01.46.99.04 1.1.03 1.99.06.14 0 .31.005.49.005 2.32 0 6.57-.46 6.57-.46.12-.02.21-.11.22-.22 0-.12-.07-.23-.19-.26zm-11.162-42.532c.016-.012.027-.028.037-.044.15.023.3.023.46.027.17 0 .34-.01.52-.01.84 0 1.96.08 3.19 1.03l.22.04 1.64-.51c.19-.03.4-.05.59-.05 2.19 0 3.29 2.02 3.29 3.29.03 1.3-1.96 3.22-1.96 3.23l-2.08 1.69c-.51.92-2.45 1.99-3.25 2.49-4.69-1.28-6-3.24-6.01-5.14-.02-2.67 2.71-5.45 3.38-6.06zm-1.236-.3c.3 0 .568.053.758.103-.883.85-3.357 3.46-3.375 6.24 0 2.1 1.49 4.19 5.93 5.47-.52.27-1.06.38-1.6.38-.29 0-.58-.04-.87-.1-3.11-.63-6.11-4.53-6.13-4.55-.03-.46-.12-.84-.25-1.16.05-.04.09-.1.09-.17-.01-.05 1.56-4.86 4.35-5.95.39-.23.77-.3 1.12-.3zm-2.69-.145c.413 0 .827.02 1.24.07-2.6 1.21-4.017 4.78-4.388 5.94-.66-.97-1.75-1.2-2.406-1.17-.36 0-.604.05-.617.06-.012 0-.016.02-.027.02-.236-.06-.484-.03-.594-.08-.104.01-1.26-.45-1.645-.49-.05.01-.35-.09-.64-.2-.4-.15-.86-.37-.93-.42-.16-.09-.29-.08-.45-.09-.06 0-.12 0-.19.01.28-.3.9-.91 1.72-1.27.26-.11 4.53-2.34 8.95-2.34zm-6.12 11.26c-.13-.02-.253.07-.272.2h-.004c0 .01-.2 1.23-.49 2.17-.133.31-.21.51-.21.51-.14.25-.294.49-.44.71-.89 1.26-1.628 1.47-2.065 1.47-.207 0-.354-.05-.436-.08l.28-.16c.12-.07.15-.21.08-.33s-.21-.15-.33-.08l-.48.29c-.02.02-.05.04-.07.06-.24-.1-.49-.19-.49-.19l-.25.05-.48.46-.06.01c-.34.08-.76-.97-.89-1.34-.23-.44-.6-.6-.84-.62-.06 0-.53-.09-.58-.1-.01-.03-1.18-.95-1.28-1.09-.54-.65-.66-1.55-.66-1.55-.07-.45-.1-.85-.1-1.22 0-.11.01-.22.02-.33.09-2.07 1.06-2.95 1.05-2.96l.84-.73c.01 0 .62-.57.74-.65.08-.07.88-.37 1.22-.57.09-.07.43-.12.72-.11.16 0 .31.01.44.01h.11c.27 0 1.44.26 1.48.29.1.03 1.11.63 1.12.64 0 0 .07.17.07.34 0 .1-.01.19-.05.29-.11.33-.89 1.76-1.22 2.09-.15.14-.22.33-.22.5.02.41.35.66.37.7.01 0 .02.04.01.12 0 .07-.01.14-.02.17 0 .07-.3.28-.43.62-.05.15-.06.32-.06.53.01.29.04.6.15.87.08.2.3.27.44.26.38-.01.9-.3 1.02-.34.04 0 .08 0 .11-.01.33-.05.89-.16 1.13-.59.11-.06.44-.03.72-.21.27-.21.61-.81.71-.9.16-.19.34-.52.41-.57.14-.15.21-.33.22-.54 0-.08-.01-.17-.06-.25.03-.03.08-.06.13-.11.16-.15.19-.33.19-.49 0-.16-.04-.32-.08-.45-.11-.27-.55-.92-.56-1-.01-.04.15-.31.22-.52l-.14-.08h.15v-.03c-.1-.37-.39-.47-.58-.57.03-.07.09-.19.13-.33.01-.09.02-.11.02-.11l-.02-.02c.07 0 .12-.01.2-.01.88.03 2.36.25 2.48 2.57.01.21.01.39.01.52v.23c-.01 0-.62 2.1-2.07 2.6-.2.08-.67.37-.77.42-.02.03-.03.06-.05.09l.04-.19c.02-.13-.07-.26-.2-.28zm-2.43 5.23c-.445.7-.924 1.41-1.168 1.69-.256.29-.785.56-1.217.72-.38.15-.686.22-.69.22l-4.653.56-.297.04c-.145-.49-.52-1.81-.705-2.63-.018-.07-.027-.14-.027-.22-.03-.87 1.04-2.28 1.18-2.34.26-.2.43-.58.51-.82.42.37 1.24 1 1.25 1.01.12.05.6.14.76.15.02 0 .33.11.43.35.16.25.39 1.53 1.33 1.61.09 0 .16-.01.22-.02l.12-.06.43-.4c.24.09.69.28.78.32.06.03.32.16.71.15.29 0 .65-.07 1.05-.3zm-8.22-7.92c0-.02-.005-.04-.015-.07-.02-.09-.03-.18-.03-.24.003-.07.007-.07.003-.07.438-.32.36-.89.62-1.27.114-.18.243-.3.472-.35 1.107-.3.807-1.26 1.23-1.24.644-.2 1.286-.65 1.41-.68h.025v-.01l.02.01c.377-.01 1.18-.37 1.373-.4.104-.01.39-.06.686-.09.186-.02.367-.04.51-.04.06 0 .105 0 .133.01.035 0 .05.01.06 0 .157.11.587.3 1.02.48.316.12.582.22.79.24.21.01 1.333.46 1.642.49.104.01.297.02.453.06.06.01.115.03.148.04v.01c-.035.06-.145.2-.158.43-.018.09.074.27.184.31.07.04.203.1.305.17.05.04.09.07.11.09v.02c-.02-.02-.21.24-.23.54 0 .02 0 .09.02.15.08.26.51.86.56 1.02.03.08.05.19.05.28 0 .1-.03.14-.03.14-.1.11-.28.16-.33.47 0 .09.05.2.11.25-.01-.01-.02.01-.02.01 0 .06-.05.18-.08.2-.17.16-.33.48-.43.59-.16.18-.54.78-.65.84-.01.1-.61-.08-.89.43l-.06.04c-.15.11-.56.22-.67.24-.02-.01-.03-.01-.04-.01l-.02.01c-.02 0-.03 0-.05.01-.32.07-.76.34-.98.33v.02c-.07-.17-.11-.44-.11-.67 0-.17.02-.34.04-.37.03-.13.28-.31.43-.6.04-.12.06-.23.06-.35-.01-.16-.02-.29-.13-.43-.09-.09-.26-.29-.25-.39 0-.05 0-.08.07-.15.44-.48 1.16-1.82 1.33-2.26.06-.16.08-.31.08-.45-.01-.3-.08-.51-.19-.66-.2-.19-1.07-.66-1.27-.76-.24-.1-1.31-.32-1.71-.33h-.09c-.1 0-.26-.01-.44-.01-.33.01-.69 0-.98.18-.27.17-1.01.43-1.24.59-.2.14-.78.69-.78.7l-.85.72c-.04.04-.99.97-1.18 2.94-.04-.06-.07-.13-.06-.19v-.06c.03-.11.04-.19.04-.25-.01-.21-.06-.43-.09-.61zM174.68 64c.01 0 .723 1.3.732 1.843-.518-.345-1.11-.68-1.758-.94-.127-.05-.264.01-.312.133-.05.125.008.26.133.31.742.3 1.416.706 1.982 1.11.796.57 1.22 1.09 1.413 1.36-3.084.51-5.672 1.74-6.365 2.077-2.166-1.56-2.412-3.08-2.42-3.758 0-.19.023-.304.033-.347.09-.08.183-.18.272-.3.2-.28.232-.622.236-.94 0-.365-.06-.74-.066-.822l.006-.01c-.006-.055.094-.336.293-.48.4-.4.32-1.192.35-1.36-.03-.02.18-.197.39-.397.09-.14.1-.26.1-.38 0-.4-.17-.99-.19-1.16-.01-.03-.01-.05-.01-.09 0-.08.01-.18.04-.28.43.16 3.27 1.36 5.11 4.43zm-13.125-9.6c.037-.02.07-.053.092-.093.007-.013.013-.023.017-.036.387-.43.865-.9 1-1.01.11-.12 1.738-.53 1.8-.55.02 0 .138-.01.317-.01.59 0 1.79.12 2.48.84l.17.07c.01 0 1.11.09 1.34.66.34.72.94 1.93.92 2.2v.06c-.04.25-.24.57-.26.9 0 0 0 .06.02.11v.06c.01.32-.11 1.26-.18 1.46-.02.04-.03.07-.04.12-.08.22-.15.43-.15.67 0 .04 0 .09.01.15.03.24.19.81.19 1.1.01.07-.01.09-.01.09-.09.15-.41.27-.48.66.02.17-.08 1-.18 1.02-.3.24-.44.56-.47.8v.06c0 .16.06.48.06.83.01.28-.05.54-.14.66-.08.11-.16.19-.23.25-.1 0-.29.01-.46.15l-.26.18-.09.14s-.06.27-.14.53c-.02.09-.05.17-.08.25-.12-.16-.27-.4-.35-.52l.48-1.67.23-2.23.01-.1 1.68-2.69c.04-.13.04-.16.04-.18-.03-.38-.15-1.18-.47-1.52-.17-.12-.79-.9-.76-.96-.04-.28-.23-1.08-.23-1.09-.02-.08-.08-.14-.15-.17s-.16-.01-.23.04c0 0-1.28 1.04-1.51 1.16 0 .01-.12.03-.26.03-.36 0-.84-.09-1.05-.1.02.01 0 0-.04 0-.34.02-.89.13-1.14.57-.13.26-.63 1.16-.75 1.32-.2.33-.31 1.18-.33 1.69 0 .15-.07.29-.18.46-.1.15-.23.3-.31.5-.04.1-.06.21-.06.32.01.3.11.56.15.91.02.1.02.23.02.36 0 .43-.07.95-.11 1.12l-.06.02c-.06.03-.17.03-.23.03 0 .01 0 0 0 0s-.02-.01-.06 0c-.09.02-.2.05-.29.1l.07-.35c.01-.05.01-.07.01-.07-.02-.37-.46-1.22-.53-1.52-.09-.25-.41-2.59-.42-3.13l.01-.03c-.01-.42.54-1.91.6-2.23.02-.2.42-1.37.67-1.79.07-.13.23-.33.41-.54zm4.43 6.112c.01.003.13.076.327.166l-.033.15c-.03.13.05.255.18.286.13.03.25-.05.28-.18l.02-.084c.17.052.35.096.55.12l-.66 1.044h-.01l-.04.023c-1.19.893-2.66.942-2.89.938-.04 0-.07.006-.08.006-.78-.16-1.41-2.18-1.41-2.18l-.02-.04c.07-.14.13-.31.13-.5-.02-.38.18-1.37.24-1.41.15-.22.63-1.09.78-1.39.01-.11.52-.32.7-.3.16.01.68.1 1.1.1.17 0 .34-.01.5-.08.23-.14.89-.66 1.28-.97.06.25.12.56.14.68.1.44.68 1.01.92 1.25.06 0 .33.96.3 1.16v.03l-.75 1.2h-.04c-.66-.01-1.33-.41-1.34-.4-.11-.07-.26-.03-.33.09s-.03.26.09.33zm-9.977 3.496c.038.263-.518.226-1.354.73-.247.165-.5.218-.742.218-.256 0-.487-.07-.658-.133-.167-.07-.272-.14-.28-.14h-.003c-.01-.015-1.47-1.41-1.5-1.467-.08-.12-.22-.206-.36-.203-.16 0-.31.082-.4.21-.03.033-.05.063-.06.072v-.005c-.05.01-.17.012-.39.015h-.02c-.33-.004-.51-.143-.6-.257.17-.104.54-.27.54-.27.03-.017.89-.515 1.71-.576.15-.014.29-.03.41-.04.23-.02.42-.04.58-.04.31 0 .56.05.92.27l.83.494.03.017c.14.24.28.478.28.48.07.115.21.15.33.084.11-.07.15-.22.08-.333s-.2-.333-.36-.607c-.09-.16-.17-.32-.17-.327-.02-.053-.03-.09-.03-.117.01-.04.01-.06.05-.108.01-.018.04-.02.04-.02.03-.01.07.005.1.02.03.012.06.03.07.02.01 0 .25.292.55.53.33.3.1-.188.41.965.04.143.05.262.05.36v.144zm1.713-.843c-.09.13-.22.23-.34.29-.2.11-.62.21-.89.27-.01-.1-.02-.205-.05-.325-.19-1.016-.33-1.065-.57-1.233-.29-.22-.44-.43-.55-.525-.11-.08-.24-.136-.47-.148-.13 0-.31.053-.42.213-.1.12-.13.275-.13.395v.05l-.25-.154c-.42-.26-.79-.342-1.17-.34-.11 0-.23.01-.35.02.03-.394.12-1.287.32-1.403.27-.24.79-.627 1.25-.707.07-.015.14-.024.19-.024.11 0 .19.017.28.054.71.278 2.72 1.243 3.15 2.284.14.32.19.576.19.778 0 .22-.06.38-.14.52zm1.6 5.76c.02-.027.71-1.077.71-2.93 0-.825-.14-1.8-.52-2.906 0-.02 0-.04-.01-.06l-.71-2.77c-.03-.13-.16-.21-.29-.18-.12.03-.2.17-.17.29l.51 1.94c-.17.03-.33.11-.48.22-.01-.26-.08-.55-.22-.87-.61-1.33-2.66-2.22-3.4-2.54-.15-.07-.32-.09-.47-.09h-.02c0-.03-.01-.06-.03-.09s-.19-.35-.19-.89c.01-.46.13-1.03.66-1.66 1.25-1.47 1.57-1.59 2.02-1.65.52-.06 1.44-.19 1.44-.19.11-.05.9-.61 1.87-.61.34 0 .71.07 1.09.26-.14.16-.26.32-.34.45-.29.53-.67 1.61-.72 1.95-.02.21-.59 1.69-.61 2.3h.01v.01c.01.6.32 2.9.44 3.3.11.32.54 1.31.52 1.38v.02c-.03.14-.14.81-.14.81-.02.09.02.18.1.23.08.05.18.05.26.01 0 0 .13-.08.26-.15.07-.04.14-.08.2-.1.04-.03.04-.01.04-.03h.05c.15-.02.58.04.76-.42.05-.23.12-.75.12-1.23 0-.15 0-.29-.02-.42-.06-.41-.15-.67-.15-.84 0-.06.01-.1.03-.16.01-.04.03-.07.06-.12.22.62.75 1.88 1.73 2.18h.1c.27 0 1.59-.03 2.84-.81l-.18 1.76-.5 1.73.03.19c.05.03.39.76.77.96h.02v.01s.01.01.03.01c.01.01.02.01.04.01h.01c.03-.01.07-.02.12-.05.31-.16.24-.41.37-.66.06-.19.11-.37.13-.48l.19-.14c.01 0 .01-.01.01-.01v.16c0 .78.31 2.41 2.41 4-1.07.57-1.74 1.44-1.75 1.45-.04.05-.06.11-.05.16-.22.03-.41.06-.49.07-.29.07-1.15.41-1.29.4h-.02c-.46.04-.94.52-1.57.69-.91.42-.48 1.18-1.19 1.24-.37.08-.63.32-.78.58-.27.51-.37 1.12-.43 1.09-.18.08-.25.27-.26.42l-2.72-1.31c-.01-.08-.02-.15-.02-.22 0-.05.01-.09.02-.12.04-.13.05-.23.05-.31-.01-.3-.12-.54-.23-.7.04-.06.07-.13.08-.22v-.03c-.08-.39-.4-.61-.59-.75v-.13c0-.1-.01-.24-.08-.38-.1-.17-.24-.84-.24-.84 0-.04-.02-.14-.05-.25.06-.15.88-2.03.92-2.07zm-4.98-1.663c.05.004.81.155.97.475.12.083.77.468.75.598.32.6.8.4.75.82v.11l.11.227c.01 0 .35.267.33.434l.17.218s.32.084.45.59c.01.05.13.555.13.582.02.04.13.673.29.99.02.037.03.1.03.162v.192c0 .052 0 .19.15.278.01 0 .15.106.26.216.06.048.11.103.14.15-.06.02-.06.045-.07.05-.09.093-.09.243 0 .337.01.01.28.31.27.59 0 .05 0 .1-.02.15-.03.09-.04.2-.04.29 0 .28.08.51.08.66-.01.14-.02.23-.24.41-.02.02-.43.43-.77.56-.2.08-.4.1-.54.1h-.04l-.17-.3c-.2-.31-.59-.37-.62-1.42v-.11c.35-.16.7-.34.98-.56.17-.16.18-.34.18-.5 0-.41-.2-.98-.23-1.1.01-.03 0-.06-.01-.08-.03-.32-.23-1.57-.23-1.69 0-.02-.02-.04-.03-.06.03-.07.05-.12.05-.13l-.09-.25s-.31-.22-.69-.46c.01-.03.03-.06.03-.09-.02-.17-.14-.53-.49-.85-.32-.27-.77-.55-.85-.62l-.65-.56c-.39-.12-.68-.16-.94-.18.27-.09.54-.17.66-.17zm1.64 17.92c.01-.004 1.03.634 1.1.97.06.166.11.407.11.634-.01.384-.11.685-.55.84.03-.006-.23.024-.52.05-.17.02-.36.038-.5.05-.04-.165-.15-.383-.43-.496-.11-.03-.23-.053-.35-.053-.18 0-.4.05-.59.2-.22.156-1.12.71-1.3.763-.23.115-.65.042-.89.442-.04.08-.15.357-1.03.833l-3.16.71c-.62-1.088-2.32-3.456-2.47-3.673l-.01-.025c-.08-.098-.18-.19-.29-.28v-.03s-.1-.44-.1-.88c0-.396.1-.71.25-.753.06-.04.1-.07.16-.126.12-.11.34-.31.49-.485.19-.236.75-.784.83-.745.42-.067.74-.37.97-.62.21-.237.72-.87 1.4-.865.07 0 .13.002.19.017.98.144 3.25.29 3.32.41.34.233 1.51 1.11 1.93 1.187.09.004.25 0 .45.035.35.063.71.21.85.622.08.114.27.262.26.5 0 .1-.03.242-.15.43-.04.054-.05.12-.03.184.01.062.06.115.11.15zm-2.64 6.25c-.09.125-.18.25-.19.244-.08.016-.16.043-.23.073-.01-.04-.04-.08-.07-.11l-.32-.27c-.1-.09-.25-.07-.33.03-.08.1-.06.25.04.34l.29.23c-.03.02-.06.03-.08.03-.39.13-.4.35-.66.41-.11.03-.24.04-.38.04-.68.01-1.59-.42-1.81-.7-.34-.39-.66-1.08-.67-1.08-.05-.12-.2-.17-.32-.11-.11.06-.16.2-.11.32l.11.21c-.03.01-.06 0-.09.03l-.24.2c-.06-.26-.12-.53-.19-.8l3.11-.71c.96-.5 1.22-.88 1.3-1.09.1-.06.4-.12.61-.18.33-.12 1.16-.64 1.44-.84.12-.08.2-.1.32-.1.07 0 .15.01.23.03.02 0 .11.23.13.3-.16.78-.71 1.09-.7 1.1l-.11.21s-.02 1.22-.05 1.69c0 .06-.05.09-.27.11-.14 0-.28-.03-.29-.03-.04-.01-.15-.05-.26-.11-.07-.03-.13-.07-.16-.09l-.01-.01c-.02-.11-.12-.19-.23-.19 0-.01-.24.06-.24.23.08.31.3.44.49.51zm-.44-16.49c-.05-.22-.12-.43-.2-.62.59.16 1.77.412 3.5.42-.01 1.143.7 1.59.69 1.614l.01.007c-.51 1.48-1.99 1.788-3.16 1.794-.53 0-.96-.066-1.17-.1.31-.7.42-1.56.45-1.58.02-.204.03-.38.03-.57 0-.287-.03-.595-.12-.967zm3.11-5.56c-.14-.08-.29-.16-.42-.215-.13-.068-.12-.083-.12-.083-.01-.018.04-.082.09-.143.1.06.19.13.27.2.08.07.15.15.2.24zm-2.49-1.484c.26 0 .55.026.89.112-.01.016.47.443.58.532.04.026.1.07.18.117-.08.1-.15.23-.17.42-.01.23.17.43.42.53.43.18 1.14.65 1.45.86-.08.12-.25.31-.63.51-.12.06-.17.2-.1.32.05.08.13.13.22.13.04 0 .07-.01.11-.03.21-.11.37-.22.5-.33l.08.51c-.03 0-.07.01-.1.04-.36.25-1.11.42-1.11.42-.12.03-.21.16-.18.29.03.12.16.21.29.18v-.01c.02-.01.69-.15 1.19-.44.02.16.04.27.04.29v.02l.01.03c.04.24.23.74.23 1.09 0 .12-.02.13-.01.14-.27.21-.71.42-1.05.59h-.01c-2.31 0-3.61-.45-3.8-.51-.14-.46-.21-.9-.21-1.16v-.03c.01-.08.01-.1.01-.12-.01-.48-.26-1.05-.52-1.41-.26-.33-.52-.59-.52-1.03 0-.07 0-.11.01-.15.05-.61.7-1.6.8-1.59.28-.11.67-.37 1.47-.38zm-5.23 6.242c.11-.287.05-.134.17-1.093.12-.865 1.02-3.532 1.02-3.535.21-.418.8-.815.8-.822.44-.838 1-.916 1.35-.93.15 0 .23.028.23.024l.16-.016c.06-.023.11-.044.16-.06-.12.054-.21.1-.26.118-.49.242-.96 1.167-1.11 1.94-.02.076-.02.166-.02.24 0 .65.41 1.04.62 1.315.21.25.43.81.42 1.11v.05c-.01.02 0 .07 0 .09.01.45.13 1.17.44 1.85.08.19.15.4.21.63.08.33.11.6.11.85 0 .17-.01.34-.03.52.01 0-.41 1.92-.77 1.99-.08.04-.33.07-.64.07-.49 0-1.13-.06-1.66-.17-.26-.05-.49-.12-.65-.18-.16-.05-.19-.1-.2-.1v.01c-.22-.55-.56-.68-1.48-1.35-.14-.1-.16-.18-.17-.31-.04-.61 1.14-1.73 1.35-2.21zm-1.33 3.012c.86.61 1.05.7 1.18 1.032.39.62 1.88.712 2.97.77.35 0 .62-.024.84-.108.15-.078.26-.208.37-.356 0 .002 0 .003.01.003s.61.14 1.42.14h.04c.28 0 .59-.02.91-.07l.1 4.22c-.11-.006-.2-.006-.23-.01-.02.03-1.44-.896-1.66-1.09-.5-.308-2.53-.318-3.51-.49-.1-.02-.2-.028-.28-.028-.98.005-1.57.826-1.76 1.025-.19.213-.49.446-.67.46-.5.09-.89.678-1.13.9-.13.15-.34.35-.46.456l-.08.077c-.41.2-.46.73-.47 1.156 0 .2.02.39.04.55-.16-.09-.34-.18-.53-.26-.07-.58-.1-1.11-.1-1.61 0-4.46 2.49-6.37 3.06-6.77zm-5.79 7.888c.65.18 2.6.763 3.49 1.386l.05.036c.12.087.22.178.28.258.01.007.01.013.02.02.25.344 2.41 3.425 2.58 3.892-1.42-1.47-3.99-2.44-4-2.466-.12-.048-.26.013-.31.137-.05.13.01.26.14.31.02 0 3.94 1.61 4.5 3.318l.12.52c.01.02.23.85.22.91v.01c-.05.9-.5 3.59-2.47 4.09.3-.63.53-1.35.53-2.19 0-1.13-.43-2.46-1.65-3.99-.08-.1-.23-.12-.34-.03-.1.08-.12.24-.03.34 1.17 1.47 1.54 2.68 1.54 3.7 0 .9-.3 1.67-.65 2.34-.51.81-1.86 1.88-3.67 2.15h-.15c-.65 0-1.13-.19-1.44-.38-.3-.19-.45-.39-.46-.39-.03-.04-.07-.06-.12-.08.29-.61.65-1.38.74-1.89.47-.08 1.67-.32 1.81-1.25.01-.16.05-.37.05-.62 0-.91-.62-2.02-4.17-3.36.4-.33 1.29-.89 2.85-.89.02 0 .99-.05 1.77-.05.13 0 .24-.1.24-.23s-.11-.24-.24-.24c-.79 0-1.77.04-1.78.04-2.29 0-3.35 1.17-3.44 1.28-.18.13-1.54 1.09-2.26 2.59-.34.72-.69 1.55-.96 2.51-1.11-.72-3.42-3.08-4.45-4.18l-.54-.58c-.09-.1-.24-.1-.34-.01-.1.09-.1.24-.01.34v-.01l.34.36c-.3.16-.85.45-1.37.78-.13-.06-.45-.25-.8-.54-.2-.16-.22-.26-.23-.67 0-.19.02-.44.02-.75 0-.16-.01-.35-.02-.56v-.05c-.09-.98 2.04-1.57 2.6-1.59.65-.07 3.01-.67 3.02-.67l1.06-.45c.02 0 .02.02.03.02.03 0 .05 0 .07-.01.06-.02.11-.06.14-.11l.93-.4c.02.02.05.04.07.06.21.17.49.52.77.75.23.17.51.19.74.2.15 0 .28-.01.38-.02.4-.06.82-.41.85-.41.36-.24.25-.64.28-.87.02-.21.13-.85.17-1 .03-.12.19-.56.25-.68.11-.11.45-.22.62-.31.14-.1.3-.22.31-.21.03.01.11.05.19.09.1.04.19.09.19.09.07.03.32.1.7.1.25 0 .57-.03.9-.14.17-.07.32-.14.41-.26zm-3.24 19.728c.2.03 1.18.643 1.21.686.1.063.68.658.67.665.11.25.34.4.35.42.23.1.68.44.7.44.01.01 1.01 1.25 1.12 1.38.03.03.06.09.07.12h-.02l-1.32-.85-1.07-.41c-.11-.05-.23 0-.29.1-.05.1-.03.23.07.31.38.28.88 1.24.89 1.24 0 0 .33.78.49 1.17.02.06.03.11.03.14 0 .05 0 .04-.15.11-.05-.03-.22-.18-.22-.18l-.56-.95-1.13-1.51-.02-.03c-.1-.1-.25-.1-.34 0-.07.07-.09.17-.05.26l.22.66.25.61.28.97s.2.68.27.88h.02-.02l-.06.04c-.06-.02-.22-.08-.22-.08l-1.01-2.23v-.02l-.02-.02-.01-.01v-.01H138l-.013-.01v-.01l-.018-.01h-.01c-.04-.04-.1-.06-.15-.05-.12-.01-.22.08-.23.2 0 .01 0 .01-.01.02l-.03.53c0 .01-.08.12-.26.21-.17.1-.37.18-.4.18-.15.02-.4.1-.59.33-.01-.02-.01-.04-.02-.07-.01-.07.04-.17.04-.18 0-.01.02-.01.02-.01.12-.09.35-.21.48-.35.08-.12.09-.2.09-.27-.01-.29-.15-.61-.2-.75-.18-.33-.83-.67-.88-.74-.1-.09-.85-.72-.85-.72-.51-.39-.81-1.71-.93-3.27 0-.04 0-.09-.01-.13-.09-.99-.12-2.07-.15-3.08-.01-.14-.01-.26-.01-.39 0-1.13.16-2.15.39-3.06.26-1.03.63-1.92.99-2.68.58-1.23 1.7-2.11 2.03-2.35 3.77 1.4 4.1 2.37 4.1 3.01 0 .2-.04.39-.05.6.07.5-1.58.84-1.58.84-.12.02-.2.11-.21.22-.01.35-.52 1.51-.85 2.18-.17.33-.29.56-.29.57l-.71 1.45c-.01.03-.99 2.3-1.08 2.87-.03.03-.01.08-.01.08.1.76 1.01.73 1.25.83zm-15.45-16.99h.18c0-.95-.68-4.52-.68-6.93 0-2.25 1.31-3.696 1.43-3.844.59.03 1.17.04 1.74.04 2.65 0 4.87-.276 5.49-.362.25.867.54 1.503.81 1.98 0 .015-.02.026-.02.043 0 .01-.04.37-.04.998 0 .79.06 1.98.37 3.42.44 2.08 1 4 1.2 4.64l-.94.4c.03-.01-2.37.59-2.92.65-.6.09-2.94.475-3.03 2.07 0 0 0 .05.01.11.01.16.01.34.01.506 0 .29-.01.53-.01.75-.01.41.06.78.41 1.05.25.19.48.35.65.46-.3.21-.58.43-.78.66-.53.62-.99 1.31-1.21 1.97-.41-.28-1.42-.97-1.79-1.02-.09-.01-.52-.08-.98-.14 0-.03-.01-.06-.02-.09-.32-.79-.42-1.55-.42-2.22 0-.87.17-1.58.26-2.03.27-1.27.48-2.54.5-3.1l-.17-.03zm11.59-.513l-.71.305c-.21-.692-.75-2.542-1.17-4.544-.29-1.4-.35-2.567-.35-3.323 0-.13.01-.25.01-.36.11.16.18.27.22.33.25.51 1.6 2.32 1.61 2.34.01.03.86 2.32.83 2.37l.01.01c.04-.007-.48.74-.61 1.583-.02.12-.03.25-.03.366 0 .376.1.69.22.934zm10.04-16.39c.05.088.12.23.15.31-.13.067-.48.204-.65.197-.04 0-.08-.01-.08-.016l-.26-.13c-.12-.063-.26-.017-.32.104-.06.116-.02.26.1.324l.26.133c.11.05.2.065.3.065.4-.01.8-.2.99-.322.11-.093.16-.21.15-.305-.01-.137-.05-.27-.1-.382l.11-.01c-.01.01 1.11.18 1.29.198.06.01.54.09.87.15l-.01.01c-.11.07-.23.11-.23.11l-1.12.19c-.08.02-.14.07-.18.14-.03.08-.02.16.02.23l.36.58c.05.07.06.13.06.18.03.23-.4.54-.4.54l-.11.26c.03.14.04.26.04.37 0 .66-.39.8-.39.82-.35.24-.65.31-.95.31-.6.01-1.22-.35-1.72-.64-.19-.1-.37-.2-.55-.28-.39-.17-.42-.37-.43-.81 0-.19.01-.4.01-.61v-.01c.01-.12 0-.14 0-.14 0-.62.27-1.18.44-1.38.06-.12.75-.41.96-.5l.72.19.71.19zm-1.03-.773l-.35-.09-.14.006c-.02.023-.92.293-1.25.685-.23.3-.52.92-.52 1.68 0 .05.01.08.01.09-.02 0 0 .046 0 .066 0 .2-.01.41-.01.61-.01.37.07.82.45 1.1-.59-.03-1.29-.06-1.4-.07-2.09-.15-2.79-2.11-2.8-2.11-.08-.15-.12-.33-.11-.53 0-.31.08-.64.1-.73l1.25-.63c-.02.01 2.16-.75 3.38-1.29l.04-.02c.02.03.05.07.08.09.01 0 .91.67 1.31 1.12zm-.97-3.31c-.1.13-.23.244-.38.338l-1.23.818c-.11.073-.14.22-.07.334.08.11.23.14.34.066l1.23-.815c.06-.03.11-.07.16-.11-.01.258-.02.57-.06.726-.08.06-.33.19-.63.32-1.18.52-3.37 1.28-3.37 1.28l-1.49.75-1.61.81c.92-.96 1.27-2.63 1.52-3.36.24-.7.62-.75 1.2-1.04.36-.18.82-.62 1.27-1.23.06.04.14.06.22.04v-.01l3.45-.89c.01.05.01.12.01.22 0 .42-.08 1.19-.53 1.72zm6.99-5.643c-.13.35-.85 2.03-1.03 2.88-.05.22-.07.21-.07.22-.01.01-.07-.03-.13-.08-.04-.04-.09-.08-.09-.07-.08-.09-.2-.11-.29-.05-.02.01-.03.03-.05.04-.01.01-.25.28-.34.33-.01.02-.23.04-.36.06l-.4-.43c-.09-.1-.24-.11-.34-.02-.1.09-.11.24-.01.34l.33.36c-.03.03-.06.07-.09.09v.02c-.27.11-.46.29-.54.63-.04.16.07.09-.15.16 0-.01-.01-.01-.01 0h-.01c-.23.02-1.08-.42-1.09-.42l-1.4-.76-.2-.11-.17-.02-3.33.86c.25-.4.46-.85.61-1.33.13-.42.2-.85.2-1.3 0-.25-.02-.5-.06-.75.07.09.11.17.13.22.11.27.38.3.56.3.26 0 .55-.06.77-.05.11 0 .2.02.24.04.18.09.38.1.61.11.61 0 1.39-.17 1.4-.17.83-.03 1.38-.63 1.63-.76.29-.2.79-.6.87-.62h.14c.22.01.46-.09.74-.37.23-.25.31-.56.33-.82l.62.47c.67.43.9.45 1.22.56-.06.09-.12.22-.18.38zm-10.86-3.36c0-.01.08-.03.16-.04l.19-.04c.12-.03.21-.15.19-.27-.01-.04-.01-.06-.01-.09v-.02h-.01c.01-.15.46-.47 1.03-.63.58-.19 1.16-.28 1.16-.28.11-.02.2-.12.21-.23 0-.57.9-.82 1.92-.81.83 0 1.61.14 1.61.14.24-.03.4-.04.55-.04.73-.01 1.45.25 1.99.52.54.26.9.52.9.52l.19.04c.09-.02.18-.03.25-.03.99-.03 1.61 1.29 1.62 1.29l.15.13c.56.16.69.63.7 1.17-.01.48-.13.9-.15 1.03-.08.19.09.24-.52.39h-.08c-.14 0-.34-.06-.54-.15-.61-.27-.62-.13-1.4-.62l-.98-.74c-.07-.06-.17-.07-.26-.02-.08.04-.13.13-.12.23v.16c.01.23-.05.65-.19.76-.28.25-.3.23-.41.24-.01 0-.04-.01-.09-.01h-.02c-.45.05-.84.54-1.13.69-.36.21-.79.67-1.45.7-.04 0-.81.16-1.34.16-.19 0-.36-.03-.38-.05-.15-.08-.31-.1-.47-.1-.29 0-.58.05-.77.05-.05 0-.1-.01-.11-.02-.11-.29-.38-.63-.82-.92l-.09-.22c-.27-.57-.7-1.11-1.28-1.56-.21-.17-.43-.31-.65-.43 0-.02-.01-.03-.01-.05-.02-.06-.03-.12-.03-.16-.01-.3.38-.68.55-.76zm-3.19.79c.04-.01.07-.02.11-.04.48.02 1.35.13 2.2.56.26.13.51.28.76.47.53.41.9.88 1.15 1.39.26.52.38 1.08.38 1.63 0 .39-.06.78-.18 1.15-.17.55-.45 1.08-.75 1.51-.44.64-.95 1.11-1.21 1.23-.48.23-1.15.41-1.44 1.31-.26.81-.69 2.6-1.46 3.26.02-.05-.17.12-.16.37 0 .07.01.16.05.28.03.1.08.25.16.44.33.75 1.35 2.76 1.34 4.21.01 0-.01.03.02.11-.01-.04-.01.01-.01.07 0 1.52.28 2.96.65 4.15.46 1.25.94 2.63 1.6 2.83.23 0 .81.2.92.35.31.32 1.07.62 1.3.73.08.01.23.11.32.17l-.12.05c-.26.09-.52.11-.74.11-.32 0-.51-.06-.51-.06.02.02-.28-.21-.58-.23 0 0-.01 0-.05.01-.01 0-.02 0-.05.01-.24.06-.37.24-.44.26-.03.04-.47.14-.73.4-.03.02-.05.05-.07.08l-.01.01v.01l-.01.02c-.03.04-.04.08-.04.13-.07.18-.18.48-.22.63-.05.2-.16.81-.18 1.1.01.28-.05.48-.05.49-.03.03-.51.34-.63.33-.1 0-.22.01-.34.01-.19 0-.37-.04-.44-.1-.21-.17-.48-.52-.76-.74-.03-.02-.08-.07-.12-.12-.14-.19-.28-.49-.28-.9 0-.1 0-.2.02-.28.12-.78.56-1.28.62-1.66v-.02c-.02-.37-.89-2.56-.89-2.6-.03-.06-1.4-1.93-1.6-2.33-.21-.4-.92-1.17-1.44-3.11-.17-.66-.32-1.45-.4-2.39-.01-.06-.15-.45-.15-1.25 0-.1 0-.2.01-.3.01-.22.03-.46.07-.72.2-1.52.14-3.5.16-3.84l.05-.49c.09-.72.3-1.99.62-2.82.42-1.11 2.1-3.92 2.1-3.92.07-.11.03-.26-.08-.33-.04-.02-.08-.04-.13-.04-.08 0-.16.04-.21.12-.01.01-1.68 2.8-2.14 4-.32.83-.51 1.96-.62 2.71-.01 0-.02.01-.03.01-.14.05-.28.08-.42.08-.87.02-1.94-1.02-2.92-2.27-.34-.44-.48-.82-.48-1.21-.01-.84.71-1.81 1.84-3.04 1.33-1.5 5.81-2.01 6.77-2.06zm-13.62 9.22c.02-.29.17-1.96.38-3.17.05-.28.1-.53.15-.73.26-1.03 1.13-1.38 1.85-1.79.79-.49 1.53-1.99 2.21-2.38.68-.43 2.71-.84 4.27-1.18.51-.12 1.21-.16 1.91-.16h.46c-1.67.3-3.72.85-4.71 1.91-1.13 1.25-1.96 2.25-1.97 3.36 0 .5.19 1.01.59 1.5 1.01 1.25 2.08 2.43 3.3 2.45.14 0 .28-.02.41-.05l-.02.23c-.02.4.04 2.32-.15 3.8-.02.19-.04.37-.05.54l-.04.02-.13.09c-.01 0-.01-.01-.02-.01l-2.16-.72c-.35-.1-2.4-.95-2.95-1-.33-.01-1.45-.44-1.89-.74-.37-.2-1.34-1.69-1.38-1.98.01-.01.01-.02.01-.03zm-4.59 3.88c-.13-.09-.36-.78-.35-1.26 0-.26.07-.45.1-.46.44-.39 1.53-1.7 1.53-1.71 1.35-2.42 2.65-3.15 3.16-3.37-.17 1.14-.29 2.48-.32 2.83-.01.03-.01.06-.01.06.06.6 1.01 1.97 1.6 2.42.55.35 1.6.77 2.13.81.33.01 2.46.86 2.84.97l1.85.61c-.54.39-1.39.99-2.3 1.58-.35.23-.67.31-.98.32-.91.01-1.76-.82-2.36-1.26-.31-.22-.69-.29-1.1-.29-.9 0-1.99.31-2.98.45-.07.01-.14.01-.22.01-.63 0-1.22-.39-1.69-.82l-.03-.05c-.02-.03-.05-.05-.08-.07-.35-.34-.6-.66-.77-.82zm.51 2.04c0-.32.1-.53.18-.66.49.42 1.13.83 1.9.84.09 0 .18-.01.28-.02 1.04-.16 2.14-.46 2.92-.45.36 0 .65.06.83.2.55.38 1.46 1.34 2.65 1.35.4 0 .83-.12 1.25-.4 1.1-.73 2.13-1.46 2.63-1.81l.04-.03c.01.82.16 1.27.17 1.29.07.8.19 1.53.34 2.17-.67.09-2.82.35-5.36.35-.61 0-1.25-.02-1.88-.05-.99-.06-2-.17-2.96-.35-.53-.1-1.04-.22-1.53-.37l-.04-.02c-.24-.07-.47-.15-.69-.23-.54-.83-.68-1.42-.68-1.82zm-3.67 19.08l-.02-.03-1.59-1.1c-.22-.2-.26-.37-.26-.52-.01-.25.17-.44.17-.45 0-.01 2.2-2.24 3.23-4.43.55-1.73.75-5.8.75-5.81.25-2.02.77-3.16 1.21-3.79.33-.46.59-.63.71-.69.13.04.25.09.38.13-.49.56-1.75 2.27-1.82 4.9l-.55 6.97.01.07c0 .06-.03.41-.39 1.36 0-.01-.56 1.25-.9 1.98-.24.52-.26.55-.31.64-.1.18-.5.63-.61.72zm2.37 1.04c-.25-.05-.64-.15-.99-.25-.29-.09-.58-.18-.78-.27-.1-.04-.19-.09-.24-.12l-.02.02-.02-.07c.18-.17.54-.57.7-.85.06-.1.1-.16.33-.68.34-.73.91-2 .91-2 .38-.98.43-1.36.43-1.54v-.09l.55-6.93c.07-2.88 1.65-4.55 1.85-4.77.33.09.67.18 1.01.25-.62.59-1.96 2.18-1.96 5.05v.12c.01 1.45.11 3.14.11 4.79 0 2.22-.19 4.36-.96 5.75-.1.18-.21.36-.33.53.01.01-.49.52-.58 1.06zm3.17 1.21c-.11-.06-.32-.25-.49-.46-.55-.61-1.2-.52-2.07-.57-.14-.05-.11-.02-.14-.07-.03-.22.49-.88.49-.88.14-.2.26-.39.37-.59.84-1.54 1.02-3.73 1.02-5.98 0-1.67-.1-3.37-.11-4.83v-.08c0-3.52 2.09-4.9 2.07-4.92.01 0 .02-.01.02-.02.8.14 1.61.24 2.43.29-.45.58-1.31 1.96-1.32 3.87 0 2.46.69 6.1.69 6.93 0 0-.01.06.02.12-.03.37-.23 1.66-.51 2.91-.09.43-.27 1.19-.27 2.12 0 .67.09 1.43.39 2.23-.24-.03-.46-.05-.65-.05h-.06c-.05 0-.11.01-.18.02l-.01.01c-.19.02-.38.02-.55.02-.64 0-1.12-.11-1.12-.11zm2.39 4.83c-.02.03-.07.08-.13.13-.35.32-1.11.76-1.32.89h-.01c-1.31-.03-1.5-.73-1.54-1.68 0-.66.16-1.34.21-1.79.02-.76 1.56-1.72 2.09-1.84l.21-.02h.04c.28 0 .71.05 1.11.1.47.06.88.13 1.02.14.02-.02.47.25.9.52.38.24.75.48.82.52v.09s-.01.03-.01.08c.02.52.28.96.56 1.27-.51-.03-.98-.02-1.14-.03l-.05-.01c-.57.05-2.26 1.04-2.71 1.57zm.57.32c0-.06-.03-.12-.07-.15.44-.4 1.99-1.25 2.21-1.26h.03v-.01c.35.02 1.1.01 1.75.07.47.03.9.17.9.22.28.32.42 1.62.75 1.99.19.16 1.69 1.37 1.69 1.38.1.08.25.07.34-.04.09-.11.07-.26-.03-.34 0 0-1.5-1.22-1.68-1.37-.06.03-.32-1.43-.68-1.92-.24-.27-.62-.33-1.07-.38l-.02-.02c-.26-.19-.81-.77-.8-1.32l.01-.05c0-.08.01-.17.03-.26.12-.6.59-1.35 1.18-2.03.2-.23.57-.51.97-.77.64-.42 1.35-.78 1.61-.91 1.14 1.2 3.39 3.51 4.52 4.18.01 0 .01 0 .01.01-.21.88-.35 1.87-.35 2.95 0 .12 0 .26.01.41.03.98.06 2.04.14 3.04-.77.65-1.89.84-3.19.84-.92 0-1.9-.09-2.87-.15-2.1-.12-3.86-1.26-4.54-1.93-.07-.07-.12-.13-.16-.18-.48-.56-.65-2.03-.66-2.03zm22.79 11.25c.18.24.51.7.85 1.27.19.31.27.83.26 1.38 0 .69-.1 1.39-.14 1.76-.02.46-.34.51-1.26 1.55-.36.41-.99.56-1.68.56s-1.42-.15-1.86-.28c-.94-.26-3.09-.72-4.35-.86-1.12-.1-3.6-1.58-4.23-1.87-.51-.22-3.41-2.64-3.7-2.93-.43-.39-1.23-.54-1.57-.61.01-.01 0-.01-.02-.01s-.05 0-.05-.01c-.62.05-2.47 1.45-2.69 1.57-.19.14-.49.35-.62.69-.04.07-.05.17-.05.25.01.23.11.37.17.52.19.38.56.36.66.41.14.05.37.12.56.19-.03.04-.07.1-.12.16-.05.07-.11.14-.16.18-.03.04-.04.03-.03.05-.31.19-.24.42-.24.54-.05.02-.18.07-.24.08h-.05c-.11 0-.28-.02-.4-.02-.06 0-.08.01-.08.01h.01c-.09 0-.46-.06-.49-.06l.01-.01c-.04-.04-.11-.1-.16-.16-.02-.03-.04-.06-.05-.07-.12-.33-1.1-2.01-1.14-2.36l-.07-.03h.06c-.02-.42.74-2.31 1.11-3.1.42-.93.43-1.89.46-2.37.01-.27.21-.51.31-.63 1.88 1.61 3.53 3.46 5.8 4.55 2.27 1.08 7.18 3.03 7.74 3.22.1.03.31.11.56.21.97.38 2.78 1.2 2.98 1.41.1.09.25.09.34 0 .09-.09.09-.25 0-.33-.26-.24-1.05-.62-1.86-.98h.21c3.97.04 4.37-2 5.12-3.6.06-.11.11-.23.16-.34zm-1.41-4.66c.31.95.56 1.72.62 1.87.13.32.53.8.54 1.63 0 .14-.02.3-.05.47-.02.06-.04.14-.06.21-.05.18-.12.37-.22.58-.86 1.71-.91 3.29-4.69 3.33-.15 0-.32-.01-.49-.01l-1.04-.1c-.01-.01-.01-.01-.02-.01h-.03c-.21-.09-.38-.15-.48-.19-.51-.17-5.46-2.14-7.68-3.2-2.19-1.04-3.83-2.89-5.76-4.54-.04-.03-.07-.06-.1-.1-.98-.91-1.18-2.15-1.18-3.04 0-.31.02-.56.05-.74.89.73 2.55 1.68 4.55 1.8.97.06 1.96.15 2.91.15 1.21 0 2.35-.15 3.24-.76.15 1.42.4 2.62 1.07 3.2 0 0 .75.64.84.71.08.07.25.18.44.31.1.06.18.13.25.19.07.05.07.07.08.06.05.09.17.43.17.55-.06.05-.38.19-.53.39-.04.08-.09.22-.1.41 0 .15.07.4.3.52-.01 0 .06.05.19.06.13 0 .26-.07.36-.19.09-.11.24-.16.34-.18.18-.08.69-.2.93-.6l.8 1.67c.13.11.33.23.57.23.07 0 .15-.02.21-.06.1-.09.29-.2.31-.48 0-.06-.01-.12-.03-.17-.05-.14-.25-.84-.25-.85l-.23-.8.17.23.57.96c.05.04.23.35.62.38.06 0 .11-.02.14-.03.15-.05.47-.2.47-.57 0-.1-.02-.2-.06-.31l-.51-1.2c-.01-.02-.17-.33-.4-.68l.17.06 1.35.88.16.04c.03-.02.26.01.47-.22.07-.1.07-.19.07-.25 0-.22-.11-.36-.2-.48-.09-.1-1.14-1.4-1.15-1.4-.05-.05-.48-.38-.77-.51.01-.01-.16-.17-.15-.18-.14-.29-.67-.73-.79-.86-.18-.16-1-.69-1.42-.8-.33-.04-.87-.24-.88-.36v-.01h-.01c.13-.57 1.05-2.76 1.05-2.76l.71-1.44.21-.42c.19.2.91.88 2.22.89.1.21 1.03 2.15 1.11 2.77.08.51.65 2.34 1.12 3.82zm-.22-2.32c-.22-.75-.39-1.37-.42-1.57-.11-.7-.83-2.23-1.08-2.76 1.72-.34 3-1.3 3.63-2.18h.01c.88-.13 1.5-.57 1.97-1.12-.13.7-.29 1.53-.74 2.73 0 0-.37.99-.8 1.86-.2.8-1.96 2.45-2.57 3.01zm1.76-1.05c.57-.61 1.11-1.28 1.27-1.8.15-.29.28-.59.4-.87.03 1.43.17 3.57.23 4.52-1.01-.96-1.84-1.82-1.89-1.86zm11.79 1.44c-.01.23-.03.52-.03.82 0 .16 0 .33.03.49-.21-.07-.42-.1-.61-.1-1.08.02-1.9.8-2.97 1.14-1.03.34-2.13.47-2.69.51.39-1.02 1.48-4.09 1.76-6.59 0 0 .16-1.54.31-3.67.01-.13-.09-.24-.23-.25-.13-.01-.24.09-.25.22v-.01c-.14 2.12-.3 3.65-.3 3.65-.27 2.55-1.47 5.79-1.78 6.62-.57-.19-1.62-1.06-2.61-1.97v-.03c0-.01-.27-3.82-.27-5.54 0-.35.01-.62.04-.7v-.03c.61-1.74.66-2.8.88-3.63 0-.02-.01-.04-.01-.06.43-.95.56-1.95.59-2.43v-.02c-.01-.26-.23-1.01-.23-1.03 0 .01-.04-.18-.1-.44l.43-.36c0-.01 0-.01.01-.02.12.2.26.41.41.59.4.44 1.32.85 2.18.86.17 0 .35-.02.51-.07.44-.16.61-.45.62-.4.33-.09.57-.35.7-.35.34-.1.52-.4.62-.59.06.01.13.01.21.01.24.02.7-.08.75-.55.02-.41.04-1.28.05-1.6.2-.16.6-.54.77-1.22.4-.02 1.11-.11 1.12-.11.72-.22.94-.82.93-1.3 0-.3-.07-.58-.13-.78-.19-.49-.8-.91-1.12-1.11.08-.17.11-.33.11-.48-.01-.5-.35-.74-.37-.76-.11-.46-.55-.69-.93-.79l-.1-4.4c.82-.22 1.61-.69 2.06-1.63l.09.06c.01 0 .09.01.22.01.18 0 .44-.02.72-.13.49-.2.91-.63.92-.64.25-.18.37-.43.4-.65l2.73 1.3c.03.17.07.32.07.44 0 .06-.01.09-.01.11-.03.07-.04.15-.04.21.02.49.4.74.41.76.03.02.06.04.09.04v.12c0 .39.03.82.11 1.29 0 .01.1.84.62 1.59-.01.01-.01.02-.02.04.01.01-.27.72-.4.78-.32.26-1.34 1.55-1.38 2.74 0 .11.01.22.04.34.24 1.05.77 2.84.77 2.85.03.11.14.18.26.17l.19-.03c-.13.35-.4 1.04-.5 1.11-.14.13-.96.66-1.64 2.55-.14-.07-.35-.14-.61-.14-.36-.01-.81.13-1.25.56-.6.56-.8.73-.84.76l-.04.04c0 .01-.01.01-.01.02-.23-.55-.31-1.03-.31-1.47-.03-2.31 2.62-3.4 2.62-3.41.12-.05.18-.18.13-.31-.05-.13-.19-.19-.31-.14 0 .01-.82.33-1.59 1.03-.04-.56-.1-1.54-.11-2.3.05-.13.46-1.37.99-2.67.54-1.36 1.33-2.82 1.68-2.91.12-.05.19-.19.14-.31-.05-.12-.19-.18-.31-.13-.78.38-1.63 2.32-2.22 3.88.22-1.11.55-2.64.85-4.03.03-.13-.05-.25-.18-.28-.13-.03-.26.06-.28.18-.52 2.34-1.086 4.99-1.127 5.58-.01.14-.01.29-.01.46 0 1.1.14 2.86.15 3.02-.49.59-.877 1.37-.88 2.36 0 .54.12 1.15.41 1.81.02.03.04.06.06.084-.37.5-.38.52-.46.74-.09.28-.4 1.555-.41 1.875v.03c0 .08-.01.22-.03.34l-.03.14v.01c-.03.03-.36.22-.5.3-.15-.22-.47-.7-.84-.83-.09-.02-.19-.04-.31-.04-.13 0-.45.05-.47.37 0 .05.01.09.02.13-.12.04-.35.09-.42.43.01.23.15.36.35.54l.72.62c.02.01.65.58 1.18.71.11.03.25.04.4.04.25 0 .55-.05.81-.2-.036.13-.06.22-.075.23-.17.29-.39.93-.4 1.32 0 .06 0 .15.07.25 0-.07.06.49.61.57.21-.003.37-.133.51-.32l.1-.14c-.21.67-.4 1.22-.52 1.48-.45 1.03-1.12 1.84-1.14 2.71zm2.49-9.46c-.12-.04-.26.04-.29.16-.03.13-.34.49-.38 1.11-.01.31-.3.31-.35.32-.12-.03-.16-.15-.17-.44 0-.24.05-.5.07-.64.01-.13-.08-.25-.21-.26-.13-.02-.25.07-.27.21v-.01c-.01.11-.07.4-.07.69-.01.24.05.58.28.78-.01.09-.04.36-.09.66-.04.02-.07.05-.09.09-.19.3-.54.41-.87.41-.11 0-.21-.01-.29-.03-.29-.05-.96-.6-.97-.6l-.72-.63-.14-.14c.11-.03.33-.07.42-.41 0-.02-.01-.05-.01-.09l.15.03c.04-.03.63.69.64.76.13.11.13.1.23.11.35-.04.72-.37.86-.44.26-.29.22-.62.24-.87v-.02l-.01-.01h.01c-.01-.12.33-1.56.39-1.7.09-.23 0-.09.69-1.03.05-.03.19-.16.87-.78.38-.35.69-.43.94-.44.21 0 .37.07.46.12-.32.97-.6 2.25-.81 3.96-.01.01-.38 1.35-.81 2.77-.02.02-.03.03-.05.06l-.48.78-.45.62c-.1.13-.12.11-.12.13-.01 0-.05-.03-.1-.13-.06-.09-.08-.19-.09-.19l-.07-.04h.06c-.01-.19.23-.93.33-1.06.13-.22.19-.6.26-1.01.05-.31.09-.61.11-.77.21-.03.68-.17.73-.76.03-.5.25-.67.36-1.01.04-.13-.03-.26-.16-.3zm-2.09 24.98l-6.83-2.31v-1.42l6.83 2.24v1.47zm13.66-3.8l-13.18 3.87.01-1.55 13.18-3.75v1.42zm-8.51-.52c.12-.03.2-.15.18-.27l-.31-2.05 1.15-.27 6.73 1.4-12.65 3.6-6.43-2.11 6.53-1.53-.39 2.07c-.02.12.05.24.17.27.12.03.25-.03.29-.15l.91-2.44 2.82-.66.72 1.96c.04.12.17.18.28.15zm-3.62-1.99l1.38-3.48 1.07 2.92-2.45.56zm2.95-.68h-.03l-1.31-3.57c-.03-.09-.12-.16-.22-.16s-.19.06-.23.15l-1.72 4.37-.03.01.44-3.09v-.02c.11-.2.29-.57.38-.97.12-.56.54-2.03.93-2.64.23-.36.62-.52.86-.58l.05.61.89 5.87zm3.9-18.08c-1.69 3.1-4.12 5.94-4.31 6.46-.09.26-.16.53-.15.91 0 .47.1 1.11.36 2.22.06.23.08.47.08.68 0 .52-.14.96-.33 1.31l-.03-.32c-.01-.14-.12-.23-.26-.22-.02.01-.93.06-1.46.85-.46.74-.86 2.18-.99 2.79-.07.3-.21.6-.3.78-.09-.08-.13-.27-.13-.4l.01-.06-.19-3.17-.09-.18c-.15-.11-.25-.23-.33-.36l-.02-.05c0-.05-.02-.1-.06-.14-.08-.23-.11-.5-.11-.77s.02-.55.03-.81c-.01-.6.61-1.45 1.11-2.52.23-.51.63-1.77 1.01-3.02.45-1.49.85-2.94.85-2.94.22-1.83.53-3.14.86-4.09.7-2.05 1.41-2.45 1.6-2.63.37-.36.69-1.5.71-1.52v-.01l4.47-.54c.03-.01.27-.07.6-.18l-1.38 2.95-.02.13c.01.1.02.21.02.32 0 1-.41 2.25-1.02 3.52-.15.32-.32.65-.5.97zm4.71 3.59s-1.85 2.83-2.09 3.17c-.24.35-.24.88-.25 1.31 0 .22.01.4.02.49.01.18-.16.76-.16.76-.03.08-.03.18-.03.26.01.54.33 1.1.6 1.46.32.41.73.67.84.96 0 .01.01.04.01.07.02.2-.32.66-.77.87-.25.13-.87.21-1.53.21-.5 0-1.03-.03-1.48-.09-.64-.09-.68-.57-.7-.88 0-.1.01-.15.01-.15 0 .03.46-1.4.54-1.6.06-.21.08-.49.08-.82 0-.27-.01-.53-.03-.75v-.05c-.01-.36.42-1.39.81-1.92.33-.5.37-1.26.38-1.87 0-.35-.02-.64-.02-.76v-.4c0-1.08.04-3.89.04-4.46 1.93-.43 3.63-.66 4.95-.79-.3 3.74-1.17 4.95-1.15 4.97zm1.67 8.85l-.5-1.86c-.42-1.08-.56-2.02-.56-2.83.01-1.68.6-2.82.78-3.3.25-.65 1.79-3.63 1.79-3.63l.94-2 .14-.61c.03-.13.07-.29.11-.49.25-1.06.58-2.91.63-3.64 0-.05.01-.09.01-.14 0-.81-.32-2.25-.58-2.91-.13-.32-.16-.59-.16-.86 0-.22.03-.44.07-.68.06-.45.65-2.65.77-3.29l2.93-.15c.03-.01.99-.12 1.67-.53.11-.08.15-.22.08-.33-.06-.12-.21-.15-.32-.08-.54.34-1.47.46-1.47.46l-4.34.22c-.13 0-.24.12-.23.25.01.12.12.22.25.22l.94-.05c-.15.71-.68 2.71-.75 3.21-.03.23-.07.47-.07.74 0 .31.05.66.2 1.04.23.56.56 2.04.55 2.73v.12c-.04.64-.37 2.52-.61 3.55l-.08.36c-.33 0-1.2.01-2.46.13h-.04c-1.29.11-2.98.34-4.91.75.53-1.19.9-2.35.9-3.37 0-.1 0-.2-.01-.3l1.48-3.16.01-.03c.02-.05.03-.1.02-.15.36-.17.72-.39.98-.68.61-.69 2.23-3.37 2.24-3.38l.03-.05c.14-.21.29-.45.43-.71l.06-.14c.01-.02.04-.01.04-.03.05-.13.09-.26.13-.39.21-.48.52-1.19.84-1.81.05.03.53-.27.63-.3 1.78-.68 2.36-2.97 2.38-2.99.01-.04.01-.1.01-.18.9 1.05 3.15 3.45 5.68 4.15-2.24 2.72-3.92 5.63-5.2 8.43-.08-.91-.1-1.67-.1-2.18 0-.44.02-.69.02-.69 0-.14-.09-.25-.23-.26s-.24.09-.25.22-.02.26-.02.72c0 .65.03 1.7.18 2.99 0 .01.02.02.02.04-3.14 7.27-3.54 13.59-3.54 13.6 0 .03.02.06.02.08-.02.07-.05.13-.05.21 0 .65.53 1.29 2 1.72.02.01.04.01.06.01.03 0 .03-.03.05-.04-.11.54-.22 1.01-.35 1.3-.55 1.33-.95 2.35-.96 2.97v.01s0 .01.01.02c.01.17-.05.51-.14.87-.03-.02-.06-.04-.1-.04-.89-.18-1.05-.22-1.96-2.94zm1.88-4.03c0-.01.71-1.04.82-1.11.31-.25.82-.65 1.43-1.14-.08.73-.28 2.4-.53 3.75-.02-.02-.03-.04-.06-.05-1.4-.44-1.69-.94-1.69-1.31 0-.05.03-.1.04-.15zm5.25 9.88c0 .02 0 .03.01.04v.01-.01c.02.24-.58.85-.78.98-.17.13-.7.32-1.01.51-.07.05-.21.07-.39.07-.17 0-.35-.02-.54-.03-.28-.01-1.01-.27-1.01-.27l-.13-.01s-.53.11-.98.11c-.09 0-.17-.01-.24-.02-.26.01-.35-.4-.41-1.15-.01-.06-.01-.09-.01-.14 0-.18.04-.36.09-.54.11-.4.31-.78.42-1.02.19-.42.55-1.73.56-2.33v-.02l-.21-.01h.21v-.01c0-.43.38-1.48.94-2.79.58-1.42 1.02-5.88 1.03-5.9 0-.03 0-.06-.01-.09 2.31-1.87 5.63-4.62 6.51-5.84.12-.17.25-.32.4-.45v.15c.01 5.26-5.1 12.43-5.62 13.44-.17.33-.22.74-.22 1.15 0 .63.13 1.28.22 1.71.07.29.13.48.13.49.05.07 1.03 1.54 1.08 1.88zm8.83-2.13c-.17 0-.33 0-.48-.01-.89-.03-.99-.02-1.98-.07-.48-.02-.96-.05-1.44-.07-.02-.01-.03-.02-.05-.02-1.54-.34-3.61-2.65-3.62-2.65-.09-.1-.24-.11-.34-.02-.1.08-.1.23-.01.33.06.05 1.29 1.46 2.67 2.28l-1.99-.11c-.67-.05-1.23-.09-1.64-.13-.2-.02-.37-.05-.48-.07l-.13-.02c-.03-.02-.07-.04-.1-.04-.08-.4-.16-.91-.16-1.38 0-.38.05-.72.17-.94.3-.61 2.61-3.89 4.19-7.62.86.96 1.73 1.91 2.52 2.77-.02.04-.04.07-.04.12.11 4.93 2.35 6.86 3.69 7.59-.26 0-.5.01-.73.01zm1.89-.07c-.02-.01-.04-.02-.06-.02 0-.02-3.95-.71-4.28-7.15 1.36 1.46 2.38 2.52 2.38 2.52.04.05.1.08.17.08.06 0 .12-.02.16-.07.09-.09.1-.24.01-.34 0-.01-2.84-2.96-5.43-5.87-.02-.03-.05-.03-.08-.04.75-1.87 1.3-3.82 1.3-5.59 0-.18-.01-.35-.01-.5.82-.5 1.82-.59 2.42-.59.32 0 .51.02.51.02.13.01.25-.08.27-.21.02-.13-.07-.25-.2-.27-.01 0-.23-.03-.58-.03-.68 0-1.86.1-2.84.77-.3.21-.59.47-.83.81-.8 1.12-4.29 4.03-6.58 5.87-.76.62-1.4 1.12-1.76 1.41-.06.05-.13.13-.21.22l-.18.19c.36-3.15 2.06-13.46 9.07-21.84.26.04.52.07.79.07.11 0 .23-.01.34-.02l-1.75 6.86c-.03.13.05.26.18.29.13.03.26-.05.29-.17l1.8-7.06v-.01c.49-.11.98-.31 1.45-.64.63-.45 2.81-1.53 3.47-2.67l2.03-1.64c.01-.02.41-.39.87-.94.88 2.31 1.46 5.5 1.97 9.84.18 1.51.25 3 .25 4.44 0 5.32-1.02 9.94-1.73 12.82-.12-2.82-.57-7.63-.57-10.98 0-1.05.05-1.96.16-2.59.2-1.15.27-2.26.27-3.24 0-1.95-.26-3.33-.26-3.34-.03-.13-.15-.21-.28-.19-.13.02-.22.15-.19.28 0 .01.26 1.35.26 3.24 0 .95-.07 2.04-.26 3.15-.12.69-.17 1.61-.17 2.68 0 3.88.6 9.66.6 12.08 0 .33-.01.6-.03.78v.03c-.15.63-.22 1.3-.22 1.98.03 2.1.59 4.25 1.5 5.16-.88.09-2.49.24-3.98.33z"/>
  <path d="M152.82 70.506c.073 0 .148-.036.196-.1 0-.01.214-.263.435-.48.01.013.01.024.02.033l.1.13c.08.1.23.13.34.06.11-.08.14-.22.07-.33l-.09-.14c-.01-.02-.03-.04-.04-.05.03-.01.06-.02.08-.01h.03c.1.08.26.06.34-.04.08-.11.07-.26-.03-.34-.09-.08-.22-.12-.32-.12-.69.06-1.23.96-1.27.96-.08.11-.06.26.05.34.04.03.09.04.14.04zm.157 19.114c-.102.086-.114.238-.026.337.05.055.12.083.19.083.06 0 .11-.018.16-.057l.2-.17c.2.072.35.106.35.117.13.034.26-.046.29-.17.04-.127-.04-.26-.16-.294-.01.007-.8-.262-.87-.445-.06-.11-.21-.15-.32-.08-.11.07-.15.21-.08.33.09.13.21.24.34.32l-.04.04zm-6.423-28.183c-.075.106-.045.258.065.33l.38.26-.12.17c-.08.11-.05.263.06.336.11.076.26.044.33-.066l.12-.174.43.29c.04.025.08.04.13.04.08 0 .15-.04.2-.11.07-.106.04-.258-.07-.33l-1.22-.813c-.1-.074-.26-.043-.33.067zm18.112-.067c-.14-.006-.223-.026-.264-.04-.01-.016-.02-.032-.037-.046-.094-.094-.24-.094-.338 0-.006.023-.053.016-.072.173.027.254.248.368.678.395h.014c.123 0 .23-.096.24-.22.01-.134-.086-.248-.22-.26zm-1.152-1.673c-.018.133.072.252.203.274.008.01.02.01.03.01.118 0 .226-.08.243-.2l.016-.11c.18.05.375.08.574.08.133.01.24-.1.244-.23.002-.13-.1-.24-.232-.24-.65 0-1.328-.41-1.332-.4-.117-.07-.262-.03-.332.08-.066.12-.03.26.084.33.01.01.215.13.53.25l-.028.19zm.046 2.593v-.002l-.003-.002m.927-.13c-.357-.016-.607-.244-.617-.237-.102-.09-.25-.08-.338.03-.09.1-.08.25.03.33.02.02.36.31.89.35.12 0 .24-.1.24-.23.01-.14-.09-.25-.23-.26zm20.716 11.18c.063 0 .124-.022.173-.07l1.916-1.917c.09-.1.09-.25 0-.34-.1-.1-.25-.1-.34 0l-1.92 1.91c-.09.09-.09.24 0 .34.04.04.11.07.17.07zm35.913 129.084c.54.637 1.986 2.177 5.02 2.177 3.378 0 5.534-2.005 5.534-4.674 0-2.106-1.81-3.574-2.963-4.065v-.073c1.104-.513 2.523-1.957 2.523-3.843 0-2.742-2.28-4.48-5.117-4.48-2.67 0-4.53 2.154-4.53 2.154-.17.17-.196.465 0 .638l.907.808c.22.195.488.146.635-.048.488-.54 1.37-1.374 2.84-1.374 1.445 0 2.79 1.03 2.79 2.67 0 1.445-1.15 2.62-3.45 2.62h-1.37c-.343 0-.49.146-.49.514v1.054c0 .342.196.515.464.515h1.37c2.622 0 3.87 1.395 3.87 2.862 0 1.64-1.47 2.645-3.06 2.645-1.813 0-3.185-1.32-3.33-1.52-.196-.22-.417-.242-.663-.05l-.953.884c-.17.145-.17.414-.027.587m-7.34-.02c-2.67 0-3.574-2.79-3.38-4.84.145-.44 1.42-1.86 3.353-1.86 1.81 0 3.256 1.5 3.256 3.33 0 1.84-1.418 3.38-3.23 3.38m-5.752-4.65c0 3.77 1.86 6.86 5.777 6.86 2.96 0 5.457-2.52 5.457-5.6 0-3.38-2.52-5.31-5.115-5.31-1.65 0-3.07.78-3.26.91.8-3.01 4.7-5.04 5.82-5.41.46-.15.56-.41.44-.71l-.42-1c-.1-.27-.32-.39-.61-.29-2.26.86-8.11 3.75-8.11 10.58M196.71 200c0-1.295 1.12-2.643 3.11-2.934 1.98.29 3.11 1.64 3.11 2.938 0 1.646-1.4 2.67-3.14 2.67-1.61 0-3.09-1.05-3.09-2.67m3.11-5.282c-1.91-.293-2.75-1.3-2.75-2.62 0-1.495 1.2-2.57 2.67-2.57 1.612 0 2.81 1.075 2.81 2.57 0 1.297-.857 2.35-2.74 2.62m-5.656 5.24c0 2.67 2.18 4.697 5.603 4.697 3.55 0 5.707-2.03 5.707-4.7 0-2.11-1.84-3.58-2.963-4.09v-.1c1.06-.54 2.52-1.89 2.52-3.77 0-2.7-2.22-4.48-5.24-4.48-2.93 0-5.18 1.78-5.18 4.48 0 1.91 1.47 3.26 2.52 3.79v.07c-.9.42-2.96 1.96-2.96 4.09m-11.75 4.46h8.52c.27 0 .47-.19.47-.44v-1.05c0-.27-.2-.47-.47-.47h-2.69V188.2c0-.245-.2-.466-.44-.466h-1.2l-3.65 3.306c-.1.1-.14.29-.07.49l.29.852c.07.22.32.27.54.17l2.13-1.076v10.94h-3.42c-.27 0-.46.197-.46.466v1.05c0 .243.19.44.46.44m-22.31-8.546c0-3.474 2.87-6.39 6.35-6.39 3.5 0 6.36 2.916 6.36 6.39 0 3.5-2.87 6.34-6.37 6.34-3.48 0-6.35-2.84-6.35-6.34m-2.45 0c0 4.9 3.89 8.79 8.79 8.79 4.9 0 8.81-3.89 8.81-8.786s-3.91-8.84-8.81-8.84-8.79 3.94-8.79 8.837m-17.72 8.08c0 .244.22.465.47.465h1.54c.27 0 .47-.22.47-.463v-11.93h.03l10.63 12.63h.64c.24 0 .46-.2.46-.44v-16.48c0-.25-.22-.47-.46-.47h-1.57c-.27 0-.46.22-.46.46v11.58h-.02L141 186.97h-.61c-.25 0-.47.2-.47.44v16.48zm-13.54-5.36l2.98-6.71h.12l3.02 6.71h-6.12zm-4.56 5.825h1.54c.3 0 .49-.192.57-.366.49-1.126 1-2.228 1.49-3.354h8.01l1.52 3.35c.1.22.27.37.56.37h1.54c.37 0 .56-.317.42-.635l-7.47-16.48c-.07-.144-.29-.27-.42-.27h-.25c-.12 0-.34.126-.41.27l-7.51 16.48c-.15.318.05.637.42.637m-11.55-.462c0 .24.19.46.46.46h8.72c.27 0 .47-.22.47-.464v-1.346c0-.246-.19-.467-.46-.467h-6.63V187.7c0-.246-.22-.465-.47-.465h-1.61c-.27 0-.46.22-.46.466v16.21zm-7.3 0c0 .24.22.46.47.46h1.62c.25 0 .47-.22.47-.464v-16.22c0-.245-.22-.464-.47-.464h-1.61c-.24 0-.46.22-.46.464v16.21zm-22.45-.1c-.05.34.12.56.47.56h1.59c.19 0 .41-.17.44-.34l1.76-10.94h.1l4.43 11.26c.05.144.22.265.41.265h.44c.22 0 .36-.12.42-.266l4.4-11.26h.07l1.81 10.94c.04.17.24.35.46.35h1.59c.34 0 .52-.22.44-.56l-3.01-16.45c-.05-.19-.24-.36-.44-.36h-.39c-.17 0-.36.12-.41.27l-5.1 12.5h-.09l-5.12-12.51c-.05-.15-.27-.27-.42-.27h-.39c-.19 0-.39.17-.44.37l-3.04 16.45zm168.13-40.415c0-4.406 3.61-8.078 8.01-8.078s8.05 3.67 8.05 8.07-3.64 8.01-8.04 8.01-8.01-3.6-8.01-8.01m-4.54 0c0 6.99 5.56 12.55 12.56 12.55 6.99 0 12.58-5.56 12.58-12.56 0-7-5.59-12.63-12.59-12.63s-12.56 5.63-12.56 12.62m-24.38 0c0 6.99 5.63 12.55 12.63 12.55 3.12 0 6.12-1.09 8.5-3.39.25-.25.32-.7.04-.95l-2.17-2.24c-.21-.21-.59-.25-.87 0-1.47 1.19-3.25 1.99-5.35 1.99-4.48 0-7.83-3.71-7.83-8.08 0-4.41 3.32-8.15 7.8-8.15 1.96 0 3.92.77 5.39 2.06.28.27.63.27.87 0l2.13-2.21c.28-.28.28-.7-.03-.98-2.37-2.13-4.93-3.25-8.46-3.25-6.99 0-12.62 5.63-12.62 12.62m-9.15 11.55c0 .35.31.66.66.66h3.25c.35 0 .66-.32.66-.67v-23.16c0-.35-.31-.67-.66-.67h-3.25c-.35 0-.67.32-.67.66v23.16zm-26.69 0c0 .35.32.66.67.66h3.18c.39 0 .66-.32.66-.67v-15.04h.04l14.61 16.05h.84c.35 0 .67-.28.67-.63v-23.55c0-.35-.31-.67-.66-.67h-3.22c-.38 0-.66.31-.66.66v14.44H200l-14.55-15.46h-.88c-.35 0-.67.28-.67.63v23.54zm-25.77-11.54c0 6.99 5.63 12.55 12.62 12.55 3.11 0 6.12-1.09 8.5-3.39.25-.25.32-.7.04-.95l-2.17-2.24c-.21-.21-.6-.24-.88 0-1.47 1.19-3.25 1.99-5.35 1.99-4.47 0-7.83-3.71-7.83-8.08 0-4.41 3.32-8.15 7.8-8.15 1.96 0 3.92.77 5.39 2.07.28.27.63.27.88 0l2.13-2.21c.28-.28.28-.7-.03-.98-2.38-2.13-4.94-3.25-8.47-3.25-6.99 0-12.62 5.63-12.62 12.62M139 174.94c0 .35.28.664.668.664H153.9c.388 0 .665-.314.665-.665v-2.87c0-.35-.277-.67-.664-.67h-10.35v-6.12h8.64c.36 0 .67-.28.67-.67v-2.9c0-.36-.31-.67-.66-.67h-8.64v-5.74h10.35c.39 0 .67-.31.67-.66v-2.87c0-.35-.27-.66-.66-.66h-14.23c-.38 0-.66.31-.66.66v23.15zm-14.582 0c0 .35.314.664.665.664h3.253c.35 0 .665-.314.665-.665v-19.62h5.35c.39 0 .67-.32.67-.67v-2.87c0-.35-.28-.66-.66-.66h-15.28c-.38 0-.66.31-.66.66v2.87c0 .35.28.66.67.66h5.35v19.62zm-15.003 0c0 .35.314.664.663.664h3.253c.35 0 .67-.314.67-.665v-23.16c0-.35-.31-.67-.66-.67h-3.25c-.35 0-.66.31-.66.66v23.15zm-18.71 0c0 .35.278.664.662.664h12.8c.385 0 .666-.314.666-.665v-2.87c0-.35-.28-.67-.665-.67H95.26v-19.62c0-.35-.314-.67-.665-.67h-3.22c-.383 0-.662.31-.662.66v23.15zM66.44 163.39c0-4.406 3.604-8.078 8.01-8.078s8.045 3.672 8.045 8.078c0 4.407-3.637 8.01-8.044 8.01s-8.01-3.603-8.01-8.01m-4.54 0c0 6.996 5.57 12.556 12.56 12.556s12.59-5.56 12.59-12.556c0-6.994-5.59-12.624-12.59-12.624s-12.56 5.63-12.56 12.624m-14.83-.944v-7.03h4.06c1.96 0 3.6 1.47 3.6 3.394 0 2.062-1.64 3.637-3.6 3.637h-4.06zm-4.55 12.486c0 .35.28.665.67.665h3.21c.35 0 .67-.314.67-.665v-8.22h4.38c4.27 0 7.8-3.532 7.8-7.868 0-4.233-3.53-7.73-7.83-7.73H43.2c-.385 0-.667.315-.667.664v23.154zm113.26-39.85l.85-.012.05 4.507-.84.01-.05-4.506m-2.33 4.45l.19-4.51.84.04-.18 4.51-.84-.03m4.5-4.5l.84-.05.27 4.51-.84.05-.26-4.5m-6.84 4.35l.36-4.49.84.07-.36 4.49-.84-.06m9.02-4.5l.84-.08.45 4.48-.83.09-.44-4.48m-11.38 4.23l.58-4.47.84.11-.58 4.47-.84-.11m13.53-4.48l.83-.12.66 4.46-.83.13-.66-4.46m-15.88 4.1l.81-4.43.83.15-.81 4.44-.83-.15m18.01-4.46l.83-.16.89 4.42-.83.17-.89-4.42m-20.31 3.98l.97-4.4.83.18-.97 4.4-.82-.18m22.41-4.42l.82-.21 1.11 4.37-.82.21-1.11-4.37m-24.72 3.82l1.19-4.34.81.22-1.19 4.34-.81-.22m26.83-4.39l.81-.24 1.27 4.33-.81.23-1.26-4.33m-29.11 3.69l1.41-4.28.8.27-1.41 4.28-.8-.26m31.16-4.33l.79-.28 1.48 4.26-.79.28-1.48-4.26m-33.4 3.52l1.62-4.21.79.31-1.62 4.21-.79-.31m35.43-4.26l.78-.32 1.69 4.18-.78.31-1.68-4.19m-37.6 3.36l1.77-4.14.77.33-1.77 4.15-.77-.34m39.59-4.2l.77-.35 1.88 4.09-.77.36-1.89-4.09M133 134.27l1.97-4.05.76.366-1.98 4.05-.75-.362m43.69-4.12l.75-.39 2.085 4-.755.39-2.08-4m-45.79 2.997l2.17-3.95.74.41-2.17 3.95-.736-.41m47.69-4.02l.73-.42 2.27 3.89-.73.42-2.27-3.89m-49.74 2.81l2.36-3.84.72.45-2.36 3.84-.72-.44m51.6-3.92l.704-.46 2.46 3.78-.7.46-2.46-3.78m-53.588 2.61l2.55-3.72.7.47-2.54 3.73-.7-.47m55.4-3.82l.69-.49 2.59 3.7-.69.49-2.59-3.69m-57.32 2.42l2.72-3.59.676.51-2.72 3.59-.67-.51m59.07-3.69l.67-.52 2.76 3.56-.67.52-2.76-3.56m-60.91 2.24l2.845-3.49.66.53-2.85 3.49-.65-.53m62.59-3.59l.64-.55 2.92 3.43-.64.55-2.93-3.43m-64.38 2.01l3.01-3.35.63.57-3.01 3.36-.62-.57m65.99-3.44l.62-.58 3.09 3.29-.61.58-3.1-3.28m-67.7 1.8l3.17-3.21.6.6-3.16 3.21-.6-.59m69.26-3.3l.58-.61 3.24 3.13-.58.61-3.24-3.13m-70.9 1.57l3.32-3.05.57.62-3.31 3.05-.58-.62m72.37-3.15l.56-.636 3.39 2.98-.55.64-3.39-2.974m-73.92 1.35l3.46-2.89.54.65-3.46 2.89-.53-.65m75.32-3l.53-.66 3.52 2.805-.52.66-3.52-2.8m-76.79 1.12l3.59-2.72.51.67-3.6 2.72-.51-.67m78.11-2.83l.49-.68 3.67 2.63-.49.69-3.66-2.63m-79.49.89l3.72-2.54.476.7-3.72 2.55-.48-.7m80.75-2.68l.47-.703 3.75 2.5-.466.7-3.75-2.5m-82.034.68l3.84-2.36.45.71-3.84 2.37-.44-.72m83.2-2.5l.436-.72 3.865 2.32-.43.72-3.88-2.32m-84.38.46l3.92-2.22.41.74-3.92 2.223-.41-.73m85.45-2.34l.395-.75 3.98 2.13-.4.75-3.97-2.124m-86.55.23l4.02-2.04.38.75-4.02 2.03-.38-.75m87.53-2.15l.36-.77 4.07 1.93-.35.76-4.08-1.92m-88.53-.01l4.12-1.83.35.77-4.12 1.83-.34-.76m89.42-1.95l.32-.78 4.17 1.72-.32.78-4.17-1.73m-90.32-.25l4.2-1.64.3.786-4.2 1.63-.3-.78m91.12-1.76l.28-.79 4.25 1.51-.28.79-4.25-1.51m-91.91-.49l4.27-1.43.27.8-4.274 1.43-.27-.8m92.62-1.58l.25-.81 4.3 1.36-.25.8-4.3-1.355m-93.3-.71l4.34-1.216.22.81-4.34 1.215-.23-.81m93.91-1.36l.21-.81 4.36 1.14-.21.82-4.36-1.14m-94.5-.936l4.4-1 .19.83-4.4.993-.19-.82m95-1.14l.17-.83 4.41.91-.17.83-4.42-.92m-95.47-1.16l4.43-.83.155.83-4.43.83-.15-.827m95.88-.95l.13-.835 4.46.7-.13.83-4.46-.69m-96.23-1.4l4.47-.61.115.837-4.465.61-.12-.84m96.55-.546l.1-.84 4.48.53-.1.84-4.47-.522m-96.8-1.84l4.49-.38.07.84-4.49.386-.07-.84m96.98-.14l.05-.85 4.5.29-.06.85-4.5-.3m-97.13-2.21l4.5-.22.04.84-4.51.21-.04-.84m97.25.1l.03-.84 4.5.15-.03.84-4.51-.15m-97.3-1.66v-.85l4.51.02-.005.84-4.5-.01m97.3-1.36l4.51-.07.02.84-4.51.07-.01-.844m-97.26-1.02l.04-.84 4.5.24-.04.84-4.5-.24m97.16-1.13l4.5-.3.06.84-4.5.29-.05-.84m-97-1.27l.075-.84 4.49.414-.08.84-4.49-.42m96.8-.96l4.48-.465.09.84-4.49.46-.09-.84m-96.55-1.41l.11-.84 4.46.63-.13.83-4.46-.64m96.24-.74l4.45-.69.13.83-4.46.68-.13-.84m-95.87-1.62l.16-.83 4.43.86-.16.83-4.43-.86m95.47-.5l4.42-.91.16.82-4.42.9-.17-.83m-95-1.79l.19-.82 4.39 1.03-.2.82-4.39-1.03m94.49-.29l4.37-1.12.21.82-4.37 1.12-.2-.82m-93.9-2.02l.23-.8 4.34 1.25-.235.8-4.33-1.25m93.3-.06l4.31-1.33.25.8-4.31 1.33-.25-.8m-92.6-2.21l.27-.8 4.27 1.46-.28.8-4.26-1.46m91.9.15l4.26-1.49.28.8-4.26 1.48-.28-.79m-91.11-2.39l.31-.79 4.19 1.68-.31.784-4.19-1.68m90.32.376l4.19-1.69.31.78-4.18 1.69-.32-.78m-89.41-2.58l.35-.766 4.1 1.88-.35.76-4.1-1.88m88.52.61l4.09-1.89.35.77-4.1 1.89-.36-.77m-87.5-2.7l.38-.75 4.03 2.025-.38.75-4.02-2.02m86.55.81l4-2.09.39.74-4 2.08-.39-.75m-85.44-2.91l.42-.74 3.92 2.22-.415.73-3.92-2.22m84.38 1.03l3.9-2.28.43.73-3.89 2.27-.425-.73m-83.16-3.08l.45-.71 3.81 2.4-.45.71-3.81-2.41m82.012 1.25l3.78-2.46.46.7-3.78 2.45-.46-.71m-80.72-3.23l.49-.69 3.69 2.59-.48.69-3.69-2.58m79.49 1.47l3.67-2.63.49.69-3.66 2.63-.49-.69m-78.1-3.4l.52-.67 3.57 2.76-.51.66-3.56-2.76m76.78 1.67l3.53-2.8.53.66-3.54 2.8-.52-.66m-75.3-3.53l.55-.64 3.42 2.93-.55.64-3.42-2.93m73.91 1.88l3.39-2.97.56.64-3.4 2.96-.56-.63m-72.37-3.65l.58-.62 3.28 3.09-.58.61-3.28-3.09m70.87 2.08l3.26-3.12.59.61-3.26 3.12-.59-.61m-69.24-3.78l.6-.59 3.16 3.2-.6.59-3.17-3.21m67.7 2.26l3.11-3.27.61.58-3.1 3.27-.61-.59m-65.97-3.87l.63-.57 3.02 3.36-.63.57-3.02-3.36m64.37 2.45l2.94-3.41.64.55-2.95 3.41-.64-.55m-62.58-4.01l.65-.53 2.85 3.5-.652.54-2.85-3.5m60.89 2.62l2.82-3.52.658.53-2.82 3.52-.66-.53m-59.02-4.09l.68-.5 2.67 3.63-.68.5-2.68-3.63m57.28 2.8l2.66-3.64.68.5-2.65 3.64-.68-.494m-55.35-4.19l.7-.47 2.5 3.75-.7.46-2.5-3.75m53.56 2.98l2.48-3.77.71.47-2.47 3.74-.71-.465m-51.57-4.27l.726-.44 2.32 3.87-.72.43-2.32-3.86m49.72 3.15l2.29-3.88.73.43-2.296 3.88-.73-.43M131.13 44l.74-.4 2.13 3.97-.74.4-2.14-3.97m45.77 3.31l2.12-3.98.74.39-2.104 3.99-.74-.398m-43.66-4.41l.77-.36 1.94 4.07-.77.36-1.935-4.07m41.72 3.47l1.91-4.09.76.35-1.9 4.08-.76-.355m-39.58-4.46l.78-.33 1.79 4.136-.78.34-1.78-4.14m37.59 3.61l1.71-4.17.78.31-1.71 4.17-.79-.32m-35.4-4.51l.79-.3 1.58 4.22-.78.29-1.58-4.22m33.38 3.75l1.51-4.25.8.28-1.5 4.25-.8-.28m-31.13-4.53l.8-.26 1.38 4.29-.81.26-1.37-4.29m29.08 3.89l1.29-4.32.8.24-1.29 4.32-.81-.24m-26.8-4.58l.81-.22 1.16 4.36-.82.22-1.16-4.36m24.69 4.007l1.13-4.36.82.21-1.13 4.36-.82-.21m-22.38-4.59l.83-.17.95 4.41-.82.17-.94-4.4m20.28 4.13l.91-4.42.83.17-.91 4.41-.83-.17m-18-4.56l.83-.143.78 4.44-.83.14-.78-4.44m15.85 4.23l.69-4.46.837.13-.69 4.45-.84-.13m-13.5-4.586l.84-.11.55 4.47-.84.11-.55-4.47m11.33 4.31l.52-4.48.84.1-.52 4.48-.84-.1m-8.967-4.57l.84-.06.33 4.5-.84.06-.33-4.49m6.82 4.4l.3-4.5.85.05-.29 4.5-.84-.06m-4.43-4.55l.84-.01.1 4.51-.84.02-.1-4.51m2.27 4.49l.07-4.51.85.01-.07 4.51-.843-.01"/>
</svg>
