<?xml version="1.0" encoding="utf-8"?>
<!-- Generator: Adobe Illustrator 15.1.0, SVG Export Plug-In  -->
<!DOCTYPE svg PUBLIC "-//W3C//DTD SVG 1.0//EN" "http://www.w3.org/TR/2001/REC-SVG-20010904/DTD/svg10.dtd" [
	<!ENTITY ns_flows "http://ns.adobe.com/Flows/1.0/">
]>
<svg version="1.0"
	 xmlns="http://www.w3.org/2000/svg" xmlns:xlink="http://www.w3.org/1999/xlink" xmlns:a="http://ns.adobe.com/AdobeSVGViewerExtensions/3.0/"
	 x="0px" y="0px" width="201px" height="99px" viewBox="0 -19.2753906 201 99"
	 overflow="visible" enable-background="new 0 -19.2753906 201 99" xml:space="preserve">
<defs>
</defs>
<polygon points="35.703125,76.1162109 35.703125,67.0947266 36.6870117,67.0947266 36.6870117,75.0566406 40.3271484,75.0566406 
	40.3271484,76.1162109 "/>
<path d="M40.5791016,76.1162109l2.8500977-9.0214844h1.0498047l3.0170898,9.0214844h-1.1201172l-0.8500977-2.734375h-3.1176758
	l-0.7993164,2.734375H40.5791016z M42.6928711,72.4121094h2.5332031l-0.7749023-2.4990234
	c-0.2392578-0.7675781-0.4160156-1.3896484-0.527832-1.8710938c-0.0952148,0.5791016-0.2304688,1.1533203-0.40625,1.7236328
	L42.6928711,72.4121094z"/>
<polygon points="52.8115234,76.1162109 52.8115234,68.1542969 50.3808594,68.1542969 50.3808594,67.0947266 56.2392578,67.0947266 
	56.2392578,68.1542969 53.7958984,68.1542969 53.7958984,76.1162109 "/>
<path d="M57.0839844,76.1162109v-9.0214844h3.2763672c0.6835938,0,1.1904297,0.0839844,1.5166016,0.2529297
	s0.5927734,0.4482422,0.8027344,0.8398438c0.2089844,0.3935547,0.3125,0.8466797,0.3125,1.3642578
	c0,0.6806641-0.1777344,1.2333984-0.5322266,1.6572266c-0.3544922,0.421875-0.8691406,0.6914062-1.546875,0.8046875
	c0.2763672,0.1640625,0.4863281,0.3300781,0.6308594,0.4970703c0.2890625,0.3447266,0.5458984,0.7285156,0.765625,1.1503906
	l1.2880859,2.4550781h-1.2294922l-0.9873047-1.8720703c-0.3837891-0.7333984-0.671875-1.2265625-0.8642578-1.484375
	c-0.1943359-0.2558594-0.3818359-0.4287109-0.5634766-0.5166016c-0.1816406-0.0898438-0.4355469-0.1337891-0.7607422-0.1337891
	h-1.1259766v4.0068359H57.0839844z M58.0664062,71.0761719h2.0996094c0.4589844,0,0.8076172-0.0546875,1.0439453-0.1669922
	c0.2382812-0.1103516,0.4267578-0.2841797,0.5654297-0.5234375c0.1386719-0.2363281,0.2089844-0.5136719,0.2089844-0.8300781
	c0-0.4560547-0.1318359-0.8134766-0.3994141-1.0732422c-0.265625-0.2626953-0.6601562-0.3916016-1.1855469-0.3916016h-2.3330078
	V71.0761719z"/>
<rect x="64.6162109" y="67.0947266" width="0.9824219" height="9.0224609"/>
<polygon points="67.2041016,76.1162109 67.2041016,67.0947266 72.5458984,67.0947266 72.5458984,68.1542969 68.1865234,68.1542969 
	68.1865234,70.9238281 72.28125,70.9238281 72.28125,71.9833984 68.1865234,71.9833984 68.1865234,75.0566406 
	72.7216797,75.0566406 72.7216797,76.1162109 "/>
<polygon points="73.9248047,76.1162109 73.9248047,67.0947266 74.9316406,67.0947266 78.8134766,74.1943359 78.8134766,67.0947266 
	79.7460938,67.0947266 79.7460938,76.1162109 78.7460938,76.1162109 74.8701172,69.0283203 74.8701172,76.1162109 "/>
<polygon points="81.2666016,76.1162109 81.2666016,67.0947266 82.2724609,67.0947266 86.1552734,74.1943359 86.1552734,67.0947266 
	87.0878906,67.0947266 87.0878906,76.1162109 86.0878906,76.1162109 82.2128906,69.0283203 82.2128906,76.1162109 "/>
<path d="M87.8291016,76.1162109l2.8466797-9.0214844h1.0537109l3.0146484,9.0214844h-1.1181641l-0.8486328-2.734375h-3.1181641
	l-0.8017578,2.734375H87.8291016z M89.9423828,72.4121094h2.53125l-0.7744141-2.4990234
	c-0.2382812-0.7675781-0.4140625-1.3896484-0.5263672-1.8710938c-0.0957031,0.5791016-0.2304688,1.1533203-0.4052734,1.7236328
	L89.9423828,72.4121094z"/>
<polygon points="95.3554688,76.1162109 95.3554688,67.0947266 96.3378906,67.0947266 96.3378906,75.0566406 99.9794922,75.0566406 
	99.9794922,76.1162109 "/>
<polygon points="101.0625,76.1162109 101.0625,67.0947266 106.4052734,67.0947266 106.4052734,68.1542969 102.0439453,68.1542969 
	102.0439453,70.9238281 106.1396484,70.9238281 106.1396484,71.9833984 102.0439453,71.9833984 102.0439453,75.0566406 
	106.5810547,75.0566406 106.5810547,76.1162109 "/>
<path d="M110.5517578,76.1162109v-9.0214844h2.5507812c0.6289062,0,1.1103516,0.0556641,1.4365234,0.1669922
	c0.4306641,0.1425781,0.8037109,0.4052734,1.1191406,0.7861328c0.3164062,0.3828125,0.5625,0.8632812,0.7373047,1.4443359
	c0.1777344,0.5800781,0.265625,1.2685547,0.265625,2.0644531c0,1.0205078-0.1503906,1.8876953-0.4482422,2.5996094
	c-0.3017578,0.7119141-0.6845703,1.2158203-1.1533203,1.5136719c-0.4707031,0.2978516-1.0820312,0.4462891-1.8417969,0.4462891
	H110.5517578z M111.5332031,75.0576172h1.5712891c0.6347656,0,1.1162109-0.1035156,1.4443359-0.3115234
	c0.3261719-0.2080078,0.5791016-0.5429688,0.7539062-1.0019531c0.2333984-0.6113281,0.3505859-1.3457031,0.3505859-2.2011719
	c0-0.9160156-0.125-1.6357422-0.3730469-2.1601562c-0.2460938-0.5234375-0.5664062-0.8730469-0.9550781-1.0517578
	c-0.2607422-0.1191406-0.6767578-0.1777344-1.2451172-0.1777344h-1.546875V75.0576172z"/>
<rect x="118.0947266" y="67.0947266" width="0.9824219" height="9.0224609"/>
<path d="M123.3857422,76.1162109v-9.0214844h1.4746094l1.7490234,6.3876953l0.3476562,1.3359375
	c0.0849609-0.3320312,0.2177734-0.8154297,0.3935547-1.4462891l1.7695312-6.2773438h1.3212891v9.0214844h-0.9453125v-7.5839844
	l-2.1503906,7.5839844h-0.8798828l-2.1347656-7.7080078v7.7080078H123.3857422z"/>
<rect x="132.0820312" y="67.0947266" width="0.9833984" height="9.0224609"/>
<polygon points="134.5966797,76.1162109 134.5966797,67.0947266 135.578125,67.0947266 135.578125,75.0566406 
	139.2167969,75.0566406 139.2167969,76.1162109 "/>
<path d="M139.4707031,76.1162109l2.8496094-9.0214844h1.0507812l3.0166016,9.0214844h-1.1201172l-0.8496094-2.734375h-3.1181641
	l-0.7988281,2.734375H139.4707031z M141.5839844,72.4121094h2.5341797l-0.7753906-2.4990234
	c-0.2402344-0.7675781-0.4160156-1.3896484-0.5263672-1.8710938c-0.0976562,0.5791016-0.2324219,1.1533203-0.4072266,1.7236328
	L141.5839844,72.4121094z"/>
<polygon points="147.0244141,76.1162109 147.0244141,67.0947266 148.0292969,67.0947266 151.9121094,74.1943359 
	151.9121094,67.0947266 152.8447266,67.0947266 152.8447266,76.1162109 151.84375,76.1162109 147.9697266,69.0283203 
	147.9697266,76.1162109 "/>
<path d="M154.1279297,71.7246094c0-1.5351562,0.3378906-2.7167969,1.0146484-3.5429688
	c0.6767578-0.8242188,1.5205078-1.2373047,2.53125-1.2373047c0.6513672,0,1.2480469,0.1835938,1.7841797,0.5527344
	c0.5390625,0.3681641,0.9648438,0.9052734,1.2783203,1.6083984c0.3134766,0.7011719,0.4716797,1.5380859,0.4716797,2.5097656
	c0,1.3359375-0.3037109,2.4228516-0.9130859,3.2626953c-0.6689453,0.9257812-1.5439453,1.3896484-2.6289062,1.3896484
	c-1.0927734,0-1.9697266-0.4755859-2.6337891-1.4257812C154.4277344,73.9814453,154.1279297,72.9423828,154.1279297,71.7246094
	 M155.1347656,71.7402344c0,1.1113281,0.2451172,1.9736328,0.7373047,2.5869141
	c0.4912109,0.6142578,1.0878906,0.9189453,1.7890625,0.9189453c0.7197266,0,1.3212891-0.3085938,1.8066406-0.9277344
	c0.4892578-0.6191406,0.7324219-1.5292969,0.7324219-2.7314453c0-0.7744141-0.125-1.4677734-0.3759766-2.078125
	c-0.1933594-0.4677734-0.484375-0.8427734-0.8720703-1.1230469s-0.8125-0.4208984-1.2734375-0.4208984
	c-0.7382812,0-1.3476562,0.3076172-1.8261719,0.921875C155.3730469,69.5019531,155.1347656,70.453125,155.1347656,71.7402344"/>
<path d="M44.1445312,14.8808594l-0.0019531,7.1928711h-3.4716797l0.0068359-7.1928711
	c0-0.9604492,0.7749023-1.7368164,1.7314453-1.7368164C43.3681641,13.144043,44.1445312,13.9204102,44.1445312,14.8808594
	 M40.6708984,34.9658203l0.0068359-8.6772461c0-0.9604492,0.7729492-1.7368164,1.7314453-1.7368164
	c0.9589844,0,1.7353516,0.7763672,1.7353516,1.7368164l-0.0019531,8.6772461H40.6708984z M5.4560547,26.2885742
	l-0.0024414,8.6772461H1.984375l0.0043945-8.6772461c0-0.9604492,0.7753906-1.7368164,1.7314453-1.7368164
	C4.6796875,24.5517578,5.4560547,25.328125,5.4560547,26.2885742 M5.4560547,14.8808594l-0.0024414,7.1928711H1.984375
	l0.0043945-7.1928711c0-0.9604492,0.7753906-1.7368164,1.7314453-1.7368164
	C4.6796875,13.144043,5.4560547,13.9204102,5.4560547,14.8808594 M46.128418,47.1191406V9.1772461h-7.4399414v25.7885742H7.4418945
	V9.1772461H0v37.9418945h16.8637695v29.2646484H29.265625V47.1191406H46.128418z"/>
<path d="M30.2558594,34.9682617V5.7036133H15.8710938v29.2646484h1.4892578V12.4008789
	c0-3.1513672,2.5527344-5.7041016,5.7036133-5.7041016c3.1503906,0,5.7060547,2.5527344,5.7060547,5.7041016l-0.0019531,22.5673828
	H30.2558594z"/>
<path d="M25.7944336,24.5517578l-0.0043945,1.4868164h-1.9848633v-1.4868164H25.7944336z M25.7944336,23.5605469h-5.4604492
	V12.6484375h5.4604492V23.5605469z M20.3339844,24.5517578h1.9824219v1.4892578h-1.9824219V24.5517578z M27.28125,12.3984375
	c0-2.3286133-1.890625-4.2148438-4.2172852-4.2148438c-2.3286133,0-4.2167969,1.8862305-4.2167969,4.2148438v22.5673828h1.4868164
	v-6.4448242c0-0.5483398,0.4438477-0.9931641,0.9921875-0.9931641s0.9921875,0.4448242,0.9921875,0.9931641v6.4448242h1.4868164
	v-6.4448242c0-0.5483398,0.4443359-0.9931641,0.9921875-0.9931641c0.5483398,0,0.9970703,0.4448242,0.9970703,0.9931641
	l-0.0043945,6.4448242h1.4887695L27.28125,12.3984375z"/>
<rect x="31.7460938" y="5.7055664" width="2.4790039" height="16.8637695"/>
<rect x="31.7460938" y="23.5585938" width="2.4790039" height="1.9868164"/>
<rect x="11.9052734" y="23.5585938" width="2.4790039" height="1.9868164"/>
<rect x="11.9033203" y="5.7055664" width="2.4790039" height="16.8637695"/>
<rect x="8.9287109" y="5.7036133" width="1.4868164" height="29.262207"/>
<rect x="35.7128906" y="5.7036133" width="1.4868164" height="29.262207"/>
<rect x="8.9287109" y="2.7280273" width="28.2709961" height="1.2412109"/>
<rect x="8.9287109" width="28.2709961" height="1.2387695"/>
<rect x="38.6884766" y="6.6967773" width="7.4399414" height="0.9912109"/>
<rect x="38.6884766" y="6.6967773" width="7.4399414" height="0.9912109"/>
<rect x="38.6884766" y="6.6967773" width="7.4399414" height="0.9912109"/>
<rect x="38.6884766" y="6.6967773" width="7.4399414" height="0.9912109"/>
<rect y="6.6948242" width="7.4418945" height="0.9931641"/>
<rect y="6.6948242" width="7.4418945" height="0.9931641"/>
<rect y="6.6948242" width="7.4418945" height="0.9931641"/>
<rect y="6.6948242" width="7.4418945" height="0.9931641"/>
<path d="M14.3876953,27.7753906l-0.003418,7.1928711h-2.4790039v-7.1928711c0-0.684082,0.5546875-1.2387695,1.237793-1.2387695
	C13.8305664,26.5366211,14.3876953,27.0913086,14.3876953,27.7753906"/>
<path d="M34.1557617,27.7753906l-0.0019531,7.1928711h-2.4790039v-7.1928711c0-0.684082,0.5546875-1.2387695,1.237793-1.2387695
	C33.5991211,26.5366211,34.1557617,27.0913086,34.1557617,27.7753906"/>
</svg>
