<svg version="1.1"
	 xmlns="http://www.w3.org/2000/svg" xmlns:xlink="http://www.w3.org/1999/xlink" x="0px" y="0px" width="720px" height="720px"
	 viewBox="11.4 20.9 720 720" enable-background="new 11.4 20.9 720 720" xml:space="preserve">
<path id="path19212" d="M365,728.2l-2.6-2.7l-2.2,2.2c-3.3,3.3-10.1,3.1-13.6-0.3c-2.5-2.4-2.6-2.4-4.4-0.8c-1,0.9-3.7,1.9-5.9,2.1
	c-3.6,0.4-4.4,0.1-7-2.5l-3-3l-2.7,1.9c-4.4,3.1-8.6,2.6-12.4-1.7c-3.2-3.6-3.2-3.6-5.4-1.9c-1.2,0.9-3.7,1.7-5.6,1.7
	c-2.8,0-4-0.6-6.7-3.6c-2.8-3.1-3.5-3.4-4.4-2.3c-0.7,0.8-2.8,1.3-5.7,1.3c-3.6,0-5-0.5-6.8-2.3c-1.3-1.3-2.3-2.9-2.3-3.7
	c0-1.8-1-1.8-3.3-0.1c-3.3,2.5-8.1,1.8-11.4-1.6c-1.6-1.7-3-3.6-3-4.2c0-0.8-0.5-0.9-1.8-0.2c-2.3,1.3-9,1.2-11.3,0
	c-1-0.6-2.5-2.5-3.2-4.3c-1-2.5-1.6-3-2.4-2.2c-0.6,0.6-2.8,1.1-5,1.1c-3.1,0-4.5-0.6-6.8-2.9c-1.6-1.6-2.9-3.4-2.9-4.1
	c0-1-1-1.2-4.5-0.7c-5.4,0.6-8.5-1-10.8-5.8c-1.5-3.1-1.6-3.2-5.7-2.6c-3.8,0.5-4.5,0.3-7.3-2.5c-1.7-1.7-3.4-3.9-3.6-5
	c-0.4-1.7-1-2-4.2-1.7c-2.7,0.3-4.5-0.2-6.5-1.6c-2.9-2.1-5.3-7.6-4.2-9.6c0.5-0.9,0.4-0.9-0.6,0c-1.9,1.8-7.2,1.4-10.2-0.7
	c-2.5-1.8-5.2-7.5-4.3-9.1c0.3-0.4-1-0.6-2.7-0.4c-5.1,0.6-8.4-1.3-10.2-5.9c-0.8-2.2-1.3-4.4-1-4.9c0.3-0.5-1-0.7-3.4-0.5
	c-3.5,0.4-4.2,0.1-7.1-2.8c-2.1-2.2-3.2-4.2-3.2-6.1c-0.1-2.5-0.4-2.8-3-2.8c-4.2,0-8.4-4.3-9.2-9.2c-0.6-3.6-0.8-3.8-3.6-3.8
	c-4.4,0-9.3-5.3-9.3-10.2c0-3.2-0.3-3.7-2.1-3.7c-5.5,0-10.4-6.3-9-11.6c0.5-2,0.3-2.3-1.8-2.3c-4.2,0-7-1.9-8.5-6
	c-1.1-2.9-1.2-4.5-0.5-6.4c0.9-2.4,0.8-2.5-1.6-2.5c-1.7,0-3.6-1-5.4-3c-3.5-3.7-4.3-6.2-3.1-9.4c0.8-2.2,0.7-2.4-1.2-2.4
	c-1.2,0-3.5-1.4-5.2-3.2c-3.2-3.3-3.9-6.4-2.5-10.5c0.5-1.6,0.4-2.1-0.7-2.1c-5.3,0-10-7.2-8-12.4c1.2-3.2,1.2-3.4,0-3.4
	c-2.3,0-6.4-4-7.4-7.3c-0.9-2.9-0.8-4,0.5-6.5c1.4-2.8,1.4-2.9-0.2-2.9c-2.3,0-7.3-5.4-8.1-8.6c-0.4-1.7-0.1-3.3,0.9-5
	c0.9-1.3,1.4-2.5,1.3-2.6c-0.2-0.1-1.7-1.1-3.3-2.3c-4.2-2.9-5.7-8-3.5-12.2c1.5-2.9,1.5-3.1-0.1-4c-0.9-0.5-2.6-2-3.8-3.2
	c-2.4-2.6-2.9-8.3-1-11.3c1-1.6,0.8-2.1-1.4-3.9c-3.6-2.9-4.7-6.5-3.5-11c0.5-2,1.6-3.9,2.4-4.2c1-0.4,0.7-1-1.4-2.2
	c-1.8-1.1-3.2-3-3.9-5.4c-1-3.2-0.9-4.2,0.7-7.4l1.9-3.8l-2.2-1.4c-1.2-0.8-2.6-3-3.2-5c-0.9-3-0.8-4.1,0.6-6.7
	c0.9-1.7,2.1-3.5,2.7-3.9c0.7-0.4,0-1.5-2-3.1c-2.5-2-3-3-3-6.2c0-2.6,0.7-4.7,2.2-6.7c2.1-2.8,2.2-3,0.6-4
	c-0.9-0.6-2.2-2.6-2.8-4.4c-0.9-2.9-0.9-3.9,0.5-7c0.9-2,2.5-3.9,3.5-4.2c1.7-0.5,1.6-0.8-1.1-2.9c-2.5-1.9-2.9-2.9-2.9-6.3
	c0-3.2,0.6-4.6,2.8-7c2.4-2.5,2.6-3.1,1.5-4.3c-0.7-0.7-1.8-2.7-2.4-4.5c-1.2-3.8,0.5-9.1,3.5-10.7c1.8-1,1.8-1,0-4.8
	c-1.6-3.3-1.7-4.3-0.8-7.5c0.6-2,2.1-4.3,3.2-5.1l2.2-1.4l-1.8-3.7c-2.3-4.7-1.5-8.7,2.4-12.4c2.4-2.3,2.7-2.9,1.7-4.4
	c-2.7-4.3,0-12.9,4.4-14.3c1.6-0.5,1.7-0.8,0.4-3.8c-1.6-3.8-0.4-10,2.2-11.5c4.6-2.7,4.9-3.3,3.4-6.4c-0.9-1.7-1.2-3.8-0.8-5
	c0.9-2.9,6-8.1,8-8.1c1.5,0,1.5-0.2,0.2-3.3c-2-4.9-0.4-9.1,4.3-11.6c4.1-2.1,4-1.8,2.7-5.1c-1.8-4.8,3-12.5,7.8-12.5
	c1.2,0,1.3-0.4,0.5-2.5c-0.5-1.4-0.7-3.6-0.4-4.9c0.8-3.3,6-8.4,8.5-8.4c1.9,0,2-0.2,1.2-2.4c-1.2-3.2-0.4-5.7,3.1-9.4
	c1.9-2,3.7-3,5.4-3c2.4,0,2.5-0.2,1.6-2.5c-2-5.3,3.1-12.4,8.9-12.4c2.2,0,2.4-0.3,1.9-2.3c-0.3-1.3,0.1-3.9,0.9-5.9
	c1.5-3.7,4.4-5.7,8.2-5.7c1.9,0,2.1-0.4,2.1-3.7c-0.1-3,0.5-4.3,3.1-7c2.5-2.6,3.9-3.3,6.7-3.3c2.7,0,3.4-0.3,3-1.4
	c-0.9-2.3,1.5-7.8,4.3-9.8c1.4-1,3.8-1.9,5.3-1.9c2.3,0,2.7-0.4,2.7-2.8c0.1-1.9,1.2-3.9,3.2-6.1c2.8-2.9,3.6-3.2,7-3
	c2.1,0.2,3.6,0,3.4-0.5c-0.3-0.4,0.2-2.6,1.1-4.8c1.8-4.6,5-6.5,10.2-5.9c1.8,0.2,3,0,2.7-0.4c-0.3-0.4,0.2-2.6,1-4.8
	c1.7-4.6,5-6.5,10.2-5.9c3,0.3,3.2,0.2,4.2-3.1c1.4-4.8,5.5-7.6,10.3-7.1c3.2,0.3,3.8,0.1,4.2-1.7c0.3-1.1,1.9-3.4,3.6-5
	c2.8-2.7,3.5-3,7.4-2.5c4.1,0.5,4.3,0.4,5.8-2.7c2.2-4.7,5-6.2,10.4-5.6c4.2,0.5,4.5,0.4,5.7-2.3c2.3-5.3,7.1-7,13.8-4.9
	c1.6,0.5,2.1,0.3,2.1-0.9c0-0.9,1.3-2.8,2.9-4.3c3.3-3.1,7.9-3.6,11.5-1.2c1.9,1.2,2.3,1.3,2.3,0.2c0-0.7,1.4-2.7,3.1-4.3
	c3.5-3.4,7.6-3.9,11.3-1.5c2.1,1.3,2.2,1.3,2.8-0.4c0.9-2.7,6.5-6.6,9.5-6.6c1.5,0,3.6,0.7,4.8,1.5c2.1,1.4,2.3,1.4,5.6-1.9
	c2.8-2.7,4.1-3.4,7.2-3.4c2.6,0,4.3,0.6,5.5,1.9c1.7,1.9,1.7,1.9,4.6-1.3c4-4.4,7.3-5.1,12-2.5l3.7,2l3-2.9c2.8-2.7,3.4-2.9,7.5-2.4
	c3.1,0.3,4.8,1.1,5.7,2.4c1.3,1.9,1.3,1.9,3.9-0.8c2-2.1,3.4-2.8,6-2.8c3.8,0,8.9,2.2,8.9,3.9c0,0.6,1.4-0.2,3.1-1.9
	c4.1-4,8.6-4.1,12.6-0.2l2.9,2.7l2.3-2.3c3.8-3.8,13.4-2.3,14.8,2.3c0.5,1.6,0.8,1.5,3.4-0.9c4-3.7,8.5-3.7,12.4,0.1l2.9,2.8l3.7-2
	c4.6-2.5,8-1.9,12,2.5c2.9,3.1,3,3.1,4.6,1.3c1.2-1.3,2.9-1.8,5.8-1.8c3.6,0,4.6,0.5,7.3,3.3c3,3.1,3.2,3.2,5.2,1.9
	c3.5-2.4,8-1.9,11,1.4c1.5,1.6,2.7,3.5,2.7,4.2c0,1.7,1.3,1.6,2.8-0.1c1.3-1.5,6.1-1.8,9.5-0.6c1.2,0.5,3,2.3,4,4.2
	c1.7,3.2,1.9,3.3,3.9,2c1.1-0.8,3.5-1.4,5.3-1.4c2.6,0,3.9,0.7,6.9,4.1c3.5,4,3.8,4.1,6.5,3.1c4-1.5,8.9,0.9,11,5.3
	c1.5,3.1,1.6,3.2,6,2.7c5.3-0.6,8.5,1,10.7,5.6c1.3,2.8,1.7,3,5.8,2.7c4.1-0.3,4.6-0.1,7.8,3.5c1.9,2.1,3.4,4.3,3.4,5
	c0,0.8,1.2,1.1,4,0.8c3.4-0.3,4.4,0.1,7,2.5c1.6,1.5,3.2,4,3.5,5.4c0.5,2.5,0.8,2.6,4.6,2.3c3.5-0.3,4.5,0.1,6.9,2.5
	c1.5,1.5,3.1,4.1,3.4,5.7c0.5,2.5,0.9,2.8,3.7,2.8c5.3,0,8.5,2.3,9.8,7c1,3.7,1.4,4.1,3.7,4.1c1.4,0,3.6,0.7,4.9,1.5
	c2.9,1.9,6.3,7.4,5.7,9.2c-0.4,1,0.5,1.4,3.3,1.6c3.3,0.2,4.3,0.8,7,4.4c2.3,3,3,4.7,2.6,6.3c-0.5,2-0.2,2.2,2.6,2.2
	c2.5,0,3.9,0.8,6.6,3.8c3,3.3,3.4,4.3,3,7c-0.5,2.9-0.3,3.1,1.8,3.1c5.9,0,10.7,6,9.2,11.7c-0.5,2-0.3,2.3,2.1,2.3c2,0,3.6,1,6,3.7
	c3.5,3.8,4.1,6.2,2.4,9.3c-0.8,1.6-0.6,1.8,1.7,1.8c2,0,3.6,1,6.2,3.8c3.1,3.4,3.4,4.2,2.9,7.4c-0.5,3.1-0.3,3.6,1.2,3.6
	c2.2,0,8.5,6.8,8.5,9.2c0,1-0.4,2.9-0.9,4.2c-0.8,2-0.6,2.4,0.8,2.4c0.9,0,3.3,1.7,5.2,3.8c3.5,3.8,3.8,5.8,1.9,10.3
	c-0.5,1.2,0.2,2,3,3.4c4.7,2.4,6.5,6.3,5,11.1c-0.7,2.3-0.7,3.5-0.1,3.7c2.2,0.7,6.3,5,7.4,7.6c1,2.4,1,3.3-0.2,5.9
	c-1.4,3-1.4,3,1.7,5.2c4.4,3,6,8.4,3.8,12.4c-0.9,1.5-1.5,2.9-1.3,2.9c6.3,3.7,8.2,8.1,6.3,13.9c-1.1,3.3-1,3.5,2.3,7.2
	c3,3.3,3.4,4.2,2.9,7c-0.3,1.8-1.2,4-2,4.9c-1.4,1.6-1.3,1.9,1.7,4.9c4.5,4.5,4.9,6.4,2.2,11.1l-2.2,4l3.1,3.4
	c1.7,1.9,3.1,4.3,3.1,5.5c0,2.4-3.2,8.1-4.6,8.1c-1.7,0-1,1.5,1.3,2.6c4.8,2.2,5.1,12.6,0.4,15.1c-1.9,1-1.9,1,0.1,2.4
	c2.9,2,5,6.6,4.3,9.5c-0.3,1.3-1.7,3.6-2.9,4.9L716,390l1.9,1.9c4.1,4.1,3,13-1.8,14.5c-1.9,0.6-1.9,0.6-0.1,2.6
	c4.7,5.2,4.8,9.7,0.2,14.1l-2.7,2.6l2.4,3.6l2.4,3.6l-1.7,3.8c-1,2.1-3,4.6-4.5,5.5c-1.5,0.9-2.3,1.7-1.6,1.7c1.4,0,3.9,5.4,3.9,8.3
	c0,1-1.5,3.5-3.3,5.5c-3.2,3.5-3.3,3.8-2.2,7.3c1.6,5.2-0.1,10-4.2,12l-3.1,1.5l1.8,3.1c2.4,4.2,1.6,7.8-2.9,11.8
	c-3.4,3.1-3.5,3.2-2.1,6c1.8,3.9,0.3,7.6-4.6,10.9c-2.7,1.8-3.5,2.9-3.1,4c2.6,6.7-0.2,12.5-7.7,15.6c-0.1,0.1,0.2,1.2,0.8,2.5
	c0.6,1.3,0.8,3.5,0.4,4.9c-0.8,3.1-5.7,7.8-8.2,7.8c-1.4,0-1.7,0.4-1.2,1.6c1.9,4.5,1.6,6.5-1.9,10.3c-2.2,2.5-4.2,3.8-5.7,3.8
	c-1.9,0-2.1,0.3-1.3,1.8c1.7,3.1,1.1,5.5-2.4,9.3c-2.4,2.7-4.1,3.7-6,3.7c-2.5,0-2.6,0.2-1.6,2.3c0.6,1.2,0.7,3.4,0.4,4.8
	c-0.9,3.6-5.7,7.8-9,7.8c-2.4,0-2.6,0.3-2.1,2.3c1.4,5.6-3.3,11.7-9.1,11.7c-1.9,0-2.2,0.4-2.2,3.7c0,4.9-4.9,10.2-9.3,10.2
	c-2.5,0-2.9,0.3-2.5,1.8c1,3.9-5.6,11.2-10.2,11.2c-1.7,0-2.4,0.6-2.8,2.7c-0.8,4.1-6.5,9.3-10.2,9.3c-2.8,0-3.1,0.3-4.1,4.1
	c-1.3,4.7-4.5,7-9.9,7c-2.7,0-3.3,0.3-3.3,1.9c0,1-1.5,3.6-3.4,5.6c-3.1,3.5-3.8,3.8-7.4,3.5c-3.7-0.3-4-0.1-4.5,2.3
	c-0.3,1.5-1.9,3.9-3.5,5.4c-2.5,2.4-3.6,2.7-7,2.5c-2.8-0.2-4,0-4,0.8c0,0.6-1.5,2.9-3.4,5c-3.2,3.6-3.7,3.8-7.9,3.5
	c-4.1-0.3-4.5-0.1-5.5,2.3c-1.8,4.4-5.8,6.6-11,6c-4.3-0.5-4.5-0.4-5.6,2.2c-0.6,1.5-2.3,3.4-3.8,4.1c-3.1,1.6-8.4,1.8-9.9,0.3
	c-0.8-0.8-1.3-0.5-1.9,1.2c-0.5,1.2-1.9,3.2-3.2,4.5c-2.1,2-3,2.2-7.9,1.7c-5-0.5-5.6-0.3-6.4,1.6c-1.9,4.2-11.6,6.8-14.1,3.8
	c-1.5-1.8-2.8-1.8-2.8,0c0,0.8-1,2.5-2.3,3.7c-2.7,2.7-10,3.2-12.6,0.8c-1.5-1.3-1.7-1.3-2.2,0.5c-1.5,4.8-11.5,7.4-14.8,3.8
	c-1.6-1.7-1.7-1.7-4.9,1.9c-2.8,3.1-3.8,3.6-7.1,3.6c-2.5,0-4.4-0.6-5.8-1.9l-2-1.9l-3,2.8c-2.1,2-3.9,2.8-6.1,2.8
	c-4.1,0-7.7-1.7-8.4-4c-0.6-1.8-0.7-1.7-1.9,0.6c-1.7,3.3-4,4.4-8.9,4.4c-3.1,0-4.6-0.5-6.1-2.2l-2.1-2.2l-2.8,2.7
	C373.4,731.9,368.6,731.8,365,728.2z M375.4,725.7c4.2-3,1.2-11.5-4.1-11.5c-3.1,0-5.9,3.2-5.9,6.7c0,1.7,0.3,3.5,0.7,4
	C367.7,727.3,372.5,727.7,375.4,725.7z M359.3,724.7c0.8-2.1,0.7-7.1-0.2-8.6c-0.4-0.7-2.4-1.5-4.5-1.7c-4.6-0.6-6.8,1.3-6.8,5.7
	c0,5.4,0.6,6,6,6C357.4,726.2,358.9,725.8,359.3,724.7z M394.5,724.7c0.8-2.2,0.7-7.2-0.3-8.7c-0.6-0.9-2.4-1.4-5.1-1.4
	c-4.8,0-6,1.2-6,5.7c0,5.2,0.6,5.9,6,5.9C392.7,726.2,394.1,725.8,394.5,724.7z M341.1,723.2c1.9-1.9,1.3-6.7-1.1-9
	c-2-1.9-2.6-2-5.4-1.1c-4.1,1.4-5.9,4.8-4.3,8.6c1,2.4,1.5,2.6,5.4,2.6C338,724.3,340.5,723.8,341.1,723.2z M412.8,722
	c2.1-5.5-1.8-9.5-8-8.3c-3.1,0.6-4,1.9-4,5.6c0,4.4,0.8,5.1,6.2,5.1C411.4,724.3,411.9,724.1,412.8,722z M323.6,720.7
	c1.7-3.1,1.1-7.3-1.1-8.8c-5.9-4.1-12.2,0.6-10,7.4c1,3.1,1.2,3.2,5.6,3.2C321.7,722.5,322.9,722.1,323.6,720.7z M430.3,719.4
	c2-6-2.4-10.4-8.5-8.4c-2.7,0.9-3.5,2.1-3.5,5.7c0,5.2,0.6,5.9,6,5.9C429.1,722.5,429.3,722.4,430.3,719.4z M306.8,713.9
	c0.3-4,0.1-4.5-2.1-5.3c-5.7-2.2-9.7-0.2-9.7,4.6c0,5.1,0.7,5.7,6.4,5.4l5.2-0.3L306.8,713.9z M448,716.4c2.1-5.5-1.8-9.5-8-8.3
	c-3.1,0.6-4,1.9-4,5.6c0,4.4,0.8,5.1,6.2,5.1C446.6,718.8,447.2,718.5,448,716.4z M364.9,713.7c1.6-1.6,3.3-2.3,5.7-2.3
	c3.7,0,8.8,2.3,8.8,3.9c0,0.6,1.4-0.2,3.1-1.9c4.1-4,8.6-4.1,12.7-0.2l2.9,2.7l1-2.2c1.9-4.1,9.5-5.6,13.6-2.7
	c2,1.4,2.3,1.4,5.1-1.4c3.7-3.6,9.4-4,12.2-1c1.7,1.9,1.7,1.9,4.7-1.4c2.4-2.7,3.6-3.3,6.6-3.2c2,0,4.6,0.6,5.8,1.3
	c2.1,1.1,2.4,1,5.4-2.4c2.6-2.9,3.8-3.6,6.6-3.5c1.9,0,4.2,0.6,5.2,1.4c1.6,1.2,2,1.1,4-1.9c2.9-4.3,8-5.3,14.4-2.8
	c1.2,0.5,1.6,0.2,1.6-0.9c0-0.9,1.3-2.8,2.9-4.3c2.1-2,3.8-2.7,6.4-2.7c2,0,3.8,0.4,4.1,0.9c0.8,1.3,2.3,1.2,2.3-0.2
	c0-0.6,1.3-2.5,3-4.2c2.4-2.5,3.7-3.1,6.8-3.1c2.1,0,4.3,0.5,4.9,1.1c0.8,0.8,1.4,0.1,2.6-2.7c1.8-4.5,5.2-6.3,10.7-5.5
	c3.2,0.4,3.7,0.3,3.7-1.4c0-1,1.5-3.3,3.3-5.1c3-3,3.6-3.2,7.5-2.8c4.1,0.5,4.2,0.4,5.6-3c1.7-4.3,7.4-7.4,10.9-5.8
	c2,0.9,2.2,0.7,3.7-3.5c1.8-5,4.9-7,10.3-6.3c1.8,0.2,3,0,2.7-0.4c-1-1.5,1.7-7.2,4.3-9.1c1.4-1,3.9-1.9,5.4-1.9
	c2.4,0,2.9-0.5,3.8-3.6c1.3-4.4,5.8-8.4,9.3-8.4c2.2,0,2.7-0.5,3.7-3.6c1.4-4.7,5.8-8.4,9.9-8.4c2.5,0,3-0.3,2.6-1.4
	c-1-2.6,2.4-8.4,5.8-10c1.8-0.8,3.8-1.5,4.6-1.5c1,0,1.2-0.6,0.8-1.8c-0.7-2.3,1.9-8,4.5-9.8c1.1-0.7,3.1-1.4,4.6-1.4
	c2.4,0,2.6-0.3,2.1-2.3c-1.3-5.2,3.5-11.6,8.7-11.6c1.6,0,1.7-0.3,0.8-2.8c-1.4-4.1,1.4-9.2,6.4-11.6c3.7-1.8,3.8-1.9,3.3-5.8
	c-0.5-3.6-0.2-4.2,2.8-7.2c1.8-1.8,4.1-3.3,5.2-3.3c1.7,0,1.8-0.3,1-2.7c-1.4-3.9,1.6-10.4,5.5-12c2.6-1.1,2.8-1.4,1.9-3.9
	c-1.4-3.9,1.2-9.3,5.3-11.3c3-1.5,3.1-1.6,1.8-4.1c-0.7-1.4-1.4-3.2-1.4-4c0-2.4,4.6-8.3,6.9-8.9c2.2-0.5,2.2-0.6,0.8-4.2
	c-1.3-3.3-1.3-3.9,0.2-7.3c1-2.2,2.6-4.1,4.3-4.7l2.6-1.1l-1.8-3.5c-2.3-4.4-1.7-7.5,2.4-11.5c2.8-2.8,2.9-3.1,1.8-5.7
	c-2.1-5-1.6-7.8,2.1-11.2c3.4-3.1,3.4-3.1,1.6-5.1c-1.1-1.2-1.8-3.3-1.8-5.7c0-3,0.6-4.2,2.9-6.4l2.9-2.6l-1.8-3.5
	c-1-1.9-1.8-4-1.8-4.7c0-1.5,3-7.7,3.7-7.7c0.3,0,1.1-0.4,1.9-0.9c1.1-0.7,0.9-1.2-1.1-2.8c-1.3-1-2.7-3-3-4.3
	c-0.7-2.8,1.7-8.4,4.2-10c1.6-1,1.6-1.1-0.1-2.3c-1-0.7-2.2-2.8-2.8-4.8c-0.9-3-0.8-4,0.6-6.7c0.9-1.7,2.2-3.6,2.9-4.1
	c1.1-0.8,0.8-1.3-1.5-3c-4.3-3.2-4.7-7-1.2-11.9c2.6-3.7,2.7-4.1,1.1-4.6c-1-0.3-2.5-2.4-3.3-4.7c-1.5-3.9-1.5-4.3,0.3-7.8l1.8-3.7
	l-2.8-2.8c-3.4-3.4-3.9-8.9-1.1-12c1.7-1.9,1.7-2-1.1-4.5c-3.5-3.3-4.5-7.4-2.7-11.6c1.3-3.1,1.3-3.2-1.7-6c-4.1-3.9-4.7-7-2.4-11.4
	l1.8-3.5l-2.8-1.2c-4.6-1.9-6.9-9.6-4.1-13.4c1.2-1.6,1-1.9-1.6-3.3c-5.6-3-7.4-10-3.7-14.1c1.3-1.5,1.3-1.6,0-1.6
	c-5.5,0-10.1-7.2-8.1-12.5c0.6-1.5,0.9-2.7,0.7-2.8c-0.1-0.1-1.6-0.7-3.2-1.4c-3.9-1.5-6.5-7.6-5-11.5c1.3-3.4,1.3-3.4-1.1-3.4
	c-5.1,0-9.2-6.7-7.3-12.1c0.9-2.6,0.8-2.8-1.6-2.8c-5.2,0-10.3-7.2-8.5-12.2c0.8-2.3,0.7-2.6-0.8-2.6c-5.2,0-10-6.4-8.7-11.6
	c0.5-2,0.3-2.3-2.1-2.3c-1.9,0-3.7-1-5.9-3.3c-2.6-2.7-3.2-4-3.1-7c0.1-3.3-0.1-3.7-2.1-3.7c-4,0-6.8-2-8.4-6.1
	c-0.8-2.2-1.2-4.4-0.9-5c0.4-0.6-0.6-1-3-1c-4.8,0-9.8-4.9-9.9-9.7c-0.1-3.1-0.2-3.3-3.5-3.3c-4.1,0-8.6-4-9.6-8.4
	c-0.5-2.3-1.1-2.8-3.4-2.8c-1.5,0-4-0.8-5.4-1.9c-2.5-1.8-5.2-7.5-4.3-9.1c0.3-0.4-1-0.6-2.7-0.4c-5.3,0.6-8.5-1.3-10.3-6.2
	c-1.5-4.1-1.7-4.3-4.7-4c-5,0.6-8.4-1.3-10-5.7l-1.5-3.8l-4.5,0.3c-4,0.3-4.8,0-7.4-2.6c-1.8-1.8-2.9-3.9-2.9-5.4
	c0-1.9-0.2-2.2-1.1-1.3c-1.4,1.4-6.4,1.4-9.5,0.1c-1.3-0.6-2.9-2.6-3.7-4.6c-1.4-3.6-2.7-4.4-3.8-2.7c-0.3,0.5-2.1,0.9-4,0.9
	c-2.5,0-4.1-0.7-6.4-3c-1.7-1.6-3.1-3.4-3.1-4c0-0.7-1.7-0.9-5.1-0.6c-5.9,0.5-9.4-1.2-10.3-5c-0.4-1.8-1-2.2-2.1-1.7
	c-0.8,0.4-3.2,0.9-5.4,1.1c-4.4,0.4-7.7-1.2-9.6-4.9c-1.2-2.2-1.4-2.2-3.4-0.9c-1.2,0.8-3.6,1.4-5.3,1.4c-2.5,0-3.9-0.8-6.4-3.6
	c-3-3.3-3.4-3.5-5.4-2.4c-1.2,0.7-3.8,1.2-5.6,1.3c-2.7,0-4.1-0.6-6.6-3.2c-3.1-3.2-3.2-3.2-4.8-1.4c-2.7,3-8.5,2.5-12.2-1.1
	c-2.9-2.8-3.1-2.9-5.3-1.4c-4.4,2.9-11.5,1.4-13.4-2.7l-1-2.2l-2.9,2.7c-4.1,3.8-8.5,3.8-12.7-0.2c-1.7-1.6-3.1-2.5-3.1-1.9
	c0,1.6-5,3.9-8.6,3.9c-2.1,0-4-0.8-5.6-2.3l-2.4-2.3l-2.9,2.7c-3.8,3.5-8.8,3.7-11.9,0.5c-2.1-2.2-2.1-2.2-3.9-0.4
	c-4.1,4.1-10.5,4.7-14.1,1.4c-2.3-2.1-2.4-2.1-3-0.5c-1.5,4.9-10.6,7.3-13.9,3.7c-2.1-2.3-3-2.3-3.7,0c-1.3,4-10.1,6.1-13.8,3.3
	c-1.5-1.2-2-0.9-5,2.4c-3.7,4.1-7.8,4.8-11.9,2.2c-2.2-1.4-2.3-1.4-3.4,1c-0.6,1.4-2.3,3.1-3.7,3.8c-2.9,1.5-8.8,1.8-9.6,0.4
	c-0.9-1.5-3.2-1.1-3.2,0.5c0,0.8-1.1,2.5-2.3,3.8c-2,2-3.1,2.3-7.3,2.1c-4.7-0.2-5.1-0.1-8.5,3.7c-3.5,3.9-3.7,4-8.4,3.6
	c-4.6-0.4-4.9-0.3-6,2.3c-1.4,3.5-5.7,5.6-10.2,5.2c-3.2-0.3-3.7-0.1-4.9,2.7c-2.1,4.3-5.3,6.1-10.2,5.7c-4-0.3-4.1-0.3-5.2,3.1
	c-1.3,4.2-5.2,6.6-10.2,6.1c-3.4-0.3-3.5-0.2-4.5,3.6c-1.2,4.5-4.5,6.8-9.8,6.8c-2.7,0-3.3,0.3-3.3,1.9c0,1-1.5,3.5-3.4,5.6
	c-2.6,2.9-4,3.7-6.4,3.7c-2.6,0-3.1,0.4-3.6,2.8c-0.9,4.6-5.3,8.3-9.8,8.3c-2.8,0-3.6,0.3-3.3,1.3c0.6,1.5-1.8,6.6-4.5,9.6
	c-1.2,1.4-3,2.1-5,2.1c-2.4,0-3.1,0.4-3.1,1.7c0,5.7-4.3,10.3-9.6,10.3c-2.1,0-2.3,0.3-1.8,3.1c0.4,2.7,0,3.7-3,7
	c-2.5,2.8-4.2,3.8-6.2,3.8c-2.4,0-2.6,0.3-2.1,2.3c1.4,5.7-3.3,11.7-9.3,11.7c-2.2,0-2.3,0.2-1.3,2.3c2.3,5.1-2.5,12.5-8,12.5
	c-1.7,0-1.7,0.2-0.4,3.2c2,4.4-3.1,11.7-8.1,11.7c-2.5,0-2.6,0.1-1.1,3.2c2.3,5.1-2.4,12.6-7.9,12.6c-1.2,0-1.2,0.3,0.1,2.6
	c1,1.7,1.3,3.5,0.8,5.2c-0.8,3.1-5.6,7.9-8,7.9c-1.6,0-1.5,0.3,0.3,3.7l2,3.7l-1.9,3.5c-1,1.9-3.1,4.1-4.6,4.9l-2.8,1.4l1.4,3.9
	c1.2,3.5,1.2,4.2-0.1,7c-0.9,1.9-2.7,3.6-4.4,4.3c-2.6,1.1-2.8,1.3-1.5,2.8c3.6,4,2.3,11.1-2.7,14.3c-2.3,1.5-2.3,1.6-0.9,4.4
	c2,3.9,1,8.7-2.5,12l-2.8,2.6l2,2.7c2.6,3.5,1.9,8.1-1.8,11.6l-2.7,2.5l1.9,3.5c1.7,3.2,1.8,3.9,0.8,7.4c-0.8,2.6-1.9,4.2-3.4,4.9
	c-2.3,1-2.3,1.1-0.5,3c4.7,5.2,4.7,10.2-0.1,13.9c-2.8,2.2-2.8,2.3-0.9,3.3c2.9,1.5,4.3,6.8,3,10.8c-0.6,1.8-1.9,3.8-2.9,4.5
	c-1.5,1.1-1.6,1.4-0.4,1.8c2,0.8,5.1,6.2,5.1,8.8c0,1.2-1.3,3.4-2.8,5c-1.6,1.6-2.7,2.9-2.6,3.1c0.2,0.1,1.2,0.7,2.3,1.3
	c1.2,0.6,2.5,2.7,3.1,4.7c0.9,3.2,0.8,4.1-0.8,7.4l-1.9,3.8l3.3,3.3c2.9,2.9,3.2,3.7,2.7,6.6c-0.3,1.8-1.3,4.1-2.1,5.1
	c-1.5,1.7-1.5,1.9,1.3,4.4c3.6,3.2,4.7,8.1,2.8,11.7c-1.3,2.5-1.2,2.7,1.7,5.5c4.2,3.9,4.9,7.4,2.6,11.7l-1.9,3.4l3.1,1.5
	c4.1,2,5.8,7.1,3.9,11.8c-1.3,3.2-1.3,3.2,1.5,4.6c1.6,0.8,3.7,2.9,4.7,4.8c1.7,3.2,1.8,3.6,0.3,6.7l-1.5,3.2l3.1,1.8
	c5,2.9,6.6,6.1,5.4,10.5c-1,3.6-1,3.7,2.5,5.5c3.9,2,6.1,6.5,5.1,10.9c-0.5,2.2-0.1,2.7,2.5,3.9c4.1,1.9,7.5,7.1,6.9,10.7
	c-0.4,2.5,0,3,2.9,4.6c4.3,2.3,6.6,7.6,5.1,11.7c-0.9,2.5-0.9,2.7,1.3,2.7c5.9,0,10.6,6,9.2,11.7c-0.5,2-0.3,2.3,2.1,2.3
	c4.9,0,10.3,6.6,9.2,11.1c-0.3,1.2,0,1.9,0.9,1.9c0.7,0,3,0.8,4.9,1.8c3.7,1.9,6.4,6.9,5.3,9.8c-0.4,1,0.3,1.4,2.8,1.4
	c3.9,0,7.9,3.7,9.8,8.9c1,2.6,1.6,3.2,3.8,3.2c3.4,0,8.8,5.2,9.6,9.2c0.5,2.5,1,2.9,3.6,2.9c2.4,0,3.8,0.8,6.4,3.7
	c1.8,2,3.4,4.5,3.4,5.6c0,1.5,0.6,1.9,3.3,1.9c5.4,0,8.6,2.3,9.9,6.9c1,3.8,1.2,4,3.5,3.1c3.6-1.4,9.8,2,11.1,6.2c1,3,1.2,3.1,5,2.7
	c3.3-0.4,4.4,0,6.8,2c1.6,1.3,3.3,3.6,3.9,5c1,2.3,1.5,2.6,4.6,2.3c4.5-0.4,8.8,1.7,10.2,5.2c1.1,2.5,1.3,2.7,6,2.3
	c4.8-0.4,4.9-0.4,8.7,3.9c2.2,2.5,4.1,3.9,4.4,3.3c0.9-1.5,6.8-1.1,9.4,0.6c1.3,0.8,3,2.7,3.7,4.2c1.1,2.2,1.7,2.5,3.1,1.7
	c4.4-2.4,11.4-0.4,13.6,3.9c1.3,2.6,1.5,2.6,3.6,1.2c4-2.6,8.2-1.9,11.8,2.1c2.9,3.2,3.4,3.4,4.9,2.3c3.7-2.7,12.6-0.5,13.9,3.4
	c0.7,2.4,1.6,2.4,3.7,0c1.2-1.3,2.9-1.9,5.6-1.9c3.3,0,4.4,0.5,6.4,2.9c1.3,1.6,2.4,3.2,2.4,3.7s1.1-0.3,2.4-1.6
	c2.1-2.1,3-2.3,7.1-1.9c3.7,0.4,5.1,1,6.7,3l2,2.5l2.2-2.4c3.2-3.4,8.2-3.3,11.8,0.3c1.5,1.5,2.8,2.7,2.9,2.8
	C362.5,715.9,363.6,714.9,364.9,713.7z M467.8,666c-7.1-2.5-9.2-4.2-12.1-10c-2.2-4.6-2.6-6.4-2.6-13.4c0-7.3,0.2-8.4,2.6-11.8
	c4.6-6.7,12.9-11,18.7-9.8c1.5,0.3,4.7,1.6,7.1,2.8c4.9,2.5,9,8.7,10.9,16.4c2.6,10.9-4.8,23.6-15.7,26.7
	C472.8,667.9,473.5,668,467.8,666z M476.6,662.6c5.4-2.2,7.1-6.6,7.1-18.9c0-12-1.8-16.3-7.8-19c-5-2.2-8.6-0.8-11.7,4.6
	c-6.5,11.2-4.1,29.7,4.5,33.4C472.5,664.3,472.3,664.3,476.6,662.6z M247.6,665.4c0-0.8,1.1-1.6,2.7-2c1.7-0.3,2.9-1.3,3.2-2.5
	c0.9-3.4,0.6-31-0.3-33.5c-0.6-1.7-1.6-2.4-3.2-2.4c-1.7,0-2.3-0.5-2.3-1.9c0-1.7,0.6-1.9,7.3-1.9c6.1,0,7.4,0.3,8,1.6
	c0.4,0.9,3.1,8.3,6.2,16.5c3.1,8.2,5.7,15,5.8,15.1s1.8-4,3.8-9.3c1.9-5.2,4.8-12.8,6.3-16.7l2.7-7.2h6.9c6.2,0,6.9,0.2,6.9,1.8
	c0,1.3-0.7,1.9-2.6,2.1l-2.6,0.3l-0.3,18.2l-0.3,18.2l2.8,1.2c1.5,0.6,2.8,1.7,2.8,2.4c0,1-2,1.3-9.3,1.3c-10.1,0-11.7-1-6.5-3.9
	l2.8-1.6l0-15.6l0-15.6l-2.1,5.6c-1.2,3.1-4.1,11.3-6.6,18.3c-3.5,9.9-4.8,12.8-6.1,12.8c-1.3,0-3.1-4-8.5-18.3l-6.8-18.3l-0.3,13
	c-0.3,15.9,0.1,18.8,3.1,20.1c1.2,0.6,2.3,1.6,2.3,2.3c0,0.9-1.9,1.2-7.9,1.2C249,666.8,247.6,666.5,247.6,665.4z M306.9,665.5
	c0-0.7,1-1.5,2.2-1.8c1.2-0.3,2.5-1.5,2.8-2.7c1-3.6,0.7-32.3-0.4-34.2c-0.5-1-1.8-1.8-2.8-1.8c-1.2,0-1.8-0.6-1.8-1.9
	c0-1.7,0.6-1.9,8.8-1.9c8.1,0,8.8,0.1,8.8,1.8c0,1.2-0.7,1.9-2.1,2.1c-2.1,0.3-2.1,0.4-2.3,18.7l-0.3,18.4l2.8,1.1
	c1.5,0.6,2.8,1.6,2.8,2.2c0,0.9-2.4,1.2-9.3,1.2C308.9,666.8,306.9,666.5,306.9,665.5z M328.3,665.4c0-0.8,0.8-1.4,1.8-1.4
	c3.3,0,3.8-2.9,3.5-21.1l-0.3-17.4l-2.6-0.3c-1.8-0.2-2.6-0.8-2.6-2.1c0-1.7,0.7-1.8,9.3-1.8c8.6,0,9.3,0.1,9.3,1.8
	c0,1.3-0.7,1.9-2.6,2.1l-2.6,0.3l-0.3,18.3c-0.2,17.6-0.2,18.3,1.7,19.3c1.2,0.6,3.6,0.8,6.2,0.4c3.5-0.5,5.2-1.5,8.8-5.2
	c2.5-2.5,4.9-4.5,5.4-4.5c1.1,0,1.2-0.3-1,5.4l-1.9,4.9l2.7-1.4c2.5-1.3,3.3-3.2,9.3-21.3c6.5-19.4,6.7-19.9,9.4-20.5
	c1.5-0.3,3-0.4,3.2-0.2c0.2,0.2,3.5,9.6,7.2,20.7c5.7,17.1,7.1,20.5,9,21.4c3.1,1.5,7.1,0.6,7.7-1.9c1-3.6,0.6-30.9-0.5-33.9
	c-0.8-2.2-1.6-2.9-3.2-2.9c-1.4,0-2.2-0.5-2.2-1.4c0-1.1,1.3-1.4,6.4-1.4h6.4l10.6,15.1l10.6,15.1l0.3-9.7c0.2-5.4,0-11.5-0.3-13.7
	c-0.5-3.4-0.9-3.9-2.8-3.9c-1.4,0-2.3-0.5-2.3-1.4c0-1.1,1.5-1.4,7.9-1.4c6.4,0,7.9,0.3,7.9,1.4c0,0.9-0.9,1.4-2.2,1.4
	c-1.2,0-2.5,0.7-2.8,1.5c-0.3,0.8-0.6,10.4-0.6,21.3c0,18.7-0.1,19.9-1.7,19.9c-1.2,0-5.6-5.5-14.1-17.6
	c-6.8-9.7-12.5-17.6-12.7-17.6c-0.2,0-0.3,6.7-0.3,14.9v14.9l2.8,1.6c5.8,3.3,3.8,3.9-13.9,3.9c-14.2,0-16.7-0.2-16.7-1.4
	c0-0.8,0.8-1.4,1.7-1.4c0.9,0,2.4-0.5,3.2-1.2c1.4-1.1,1.4-1.5-0.2-6.7l-1.7-5.6l-7.5-0.3l-7.5-0.3l-0.9,3.5
	c-2.3,8.7-2.3,8.3,0.8,9.5c1.6,0.6,2.8,1.8,2.8,2.5c0,1.7-15.4,1.9-16.1,0.1c-0.4-0.9-0.5-0.9-0.5,0c-0.1,0.9-3.9,1.2-15.8,1.2
	C330.7,666.8,328.3,666.6,328.3,665.4z M384.6,637.5c-1.6-4.9-3.1-8.3-3.3-7.7c-0.2,0.7-1.6,4.7-3,8.9l-2.6,7.7h5.9h5.9L384.6,637.5
	z M330,601.5l-23.9-11.3l0-3.9c0-2.2,0.3-3.9,0.7-4c0.4,0,12.2-1.5,26.2-3.2c14-1.8,27.3-3.2,29.6-3.2l4.1,0l-0.7-6.3
	c-0.4-3.4-0.8-6.5-1-6.8s-3.1-0.8-6.4-1.1c-6.1-0.6-6.1-0.6-13.3,4l-7.3,4.6h-10.4c-8.5,0-11-0.3-13.7-1.8
	c-4.8-2.6-12.1-3.3-16.1-1.6c-4,1.7-6,3.8-7.8,8.2c-0.8,1.9-1.8,3.6-2.4,4c-0.5,0.3-0.9,1.5-1,2.6c0,2.8-4.1,11.3-7.5,15.6
	c-1.6,2-5,4.7-7.6,6.1c-4.6,2.3-5.1,2.4-17.5,1.9c-8.8-0.4-13.6-1-15.5-2c-1.5-0.8-6.6-1.8-11.2-2.3c-4.6-0.5-10.2-1.7-12.4-2.6
	c-2.2-1-5.6-2.1-7.5-2.4c-1.9-0.4-11.1-3.4-20.4-6.7c-18.8-6.8-25.7-8-31.5-5.6c-2.6,1.1-4,2.5-5.3,5.4c-1,2.2-1.8,4.7-1.8,5.5
	c0,0.9-1.1,2.4-2.5,3.5c-2,1.5-3.8,1.9-9.1,1.9c-5.6,0-7.2-0.4-10.2-2.4c-4-2.7-6.2-7-6.1-12.2c0-5.2,2.2-14.1,4.5-18.6
	c3.7-7.2,8.5-21.8,8.5-25.8c0-4-2.4-10.9-8.7-25c-2.3-5.2-3.3-8.8-3.3-11.9c0-3.9-0.5-4.9-3.2-7.7c-2.4-2.4-3.9-3.2-6.4-3.2
	c-7.3,0-11.2-4.3-13.3-14.5c-1.3-6.1-1.3-8.3-0.5-13.6c1.4-8.1,2.9-10.9,8.7-16.3c4-3.8,4.6-4.8,4.1-6.9c-0.6-2.3-10.4-11-15.2-13.6
	c-2.7-1.4-13-4.7-14.7-4.7c-0.7,0-3.2-0.4-5.7-1c-3.8-0.8-4.8-1.5-6.7-4.9c-2.8-4.8-5.6-12.4-5.6-15.2c0-1.2,2.1-4.6,4.9-7.8
	c9.2-10.7,10.7-13.3,11.4-19.6c0.4-3.2,1.4-9.4,2.3-13.7c0.9-4.3,2-9.9,2.3-12.4c1.1-7.6,6-23,9.4-29.1c3.2-5.8,3.2-5.9,3.2-17.7
	c0-6.5-0.3-12.2-0.8-12.7c-1.6-1.8-3.4-9.4-3.4-14c0-4.1,0.6-5.6,4.4-11.4c6.1-9.2,17.6-18.8,29.7-24.8l9.4-4.7l4.2-7.8
	c6.8-12.4,17.3-22.2,31.1-29c8.7-4.2,15.4-5.8,15.4-3.6c0,0.6,9.3,0.9,26,0.9h26l2.3-2.3c1.3-1.3,2.7-3.5,3.2-4.9
	c1.3-3.7,4.8-5.8,10.4-6.4c2.8-0.3,8.9-2.3,14.3-4.6l9.4-4.1h11.2c10.7,0,11.5,0.1,17.1,2.9c8.5,4.3,20.7,11.8,22.9,14.2
	c1.1,1.2,2.4,4.4,2.9,7.6c1.1,6.1,1.8,6.9,6,6.9c4.9,0,11.2-7.5,12.9-15.3c1-4.8,5.3-8.1,19.7-15.1c13.3-6.5,14.3-6.8,24-8
	c9.3-1.1,11-1.6,19.9-6.1l9.7-4.9l7.4,0.6c5.6,0.5,9,1.4,14,3.7l6.5,3.1l4.3,8.7c4.2,8.4,6.3,16.1,6.3,23.1c0,2.4,0.9,4.4,3,7
	c6.3,7.8,24,28.2,24.8,28.7c1.5,0.9,16,21.6,20.9,29.9c6,9.9,7,10.3,22.8,8.4c6.3-0.8,14.9-1.7,19-2c8.2-0.7,23.4,0.8,30.1,2.9
	c16.5,5.1,16.4,5.1,23.3,11.1c17.6,15.3,33.2,33.3,45.2,52.3c11.1,17.5,10,8.8,11.7,92.4c1.7,84.6,2.7,75.7-9.3,86
	c-3.9,3.3-7.8,7.5-8.8,9.3c-1.1,2.1-2.1,7.2-2.8,13.9l-1.1,10.6l-5.1,6.3c-5.8,7.1-7.7,12.6-7.8,21.8c0,4.6-0.5,6.4-2.4,9.3
	c-5.6,8.3-12.5,13.8-22.4,17.5c-6.2,2.3-7.5,2.5-15.8,2c-5-0.3-17.2-0.9-27.1-1.4c-12.7-0.6-19.3-1.4-22.3-2.4
	c-2.3-0.8-7.9-2.1-12.4-2.9l-8.2-1.3l-8,3.3c-7.6,3.1-8.6,3.3-19,3.3c-17.2,0-18.7-1.4-18.8-17.2c-0.1-10-0.2-10.4-3.7-17.2
	c-4.4-8.5-7.5-16.7-9.8-26c-2.8-11.1-2.2-30.4,1-34.8c0.8-1.2,4-10.7,5.5-16.2c0.6-2.3,2.1-6.8,3.3-10c1.2-3.2,2.3-7.6,2.3-9.7
	c0-2.1,0.9-6.7,2-10.2c1.7-5.2,1.8-6.7,0.9-8.6c-0.9-2-1.7-2.4-5-2.4c-4.2,0-9.3,2.5-10.8,5.3c-0.5,0.9-6,14.7-12.2,30.7l-11.3,29
	l1.4,6.3c0.8,3.4,1.8,7.9,2.4,10c1.2,4.3,0.2,7.8-2.7,9.6c-1,0.6-4.8,1.5-8.4,2c-7.7,1-9.8,2.2-12.9,7.5
	c-4.9,8.4-8.4,10.2-19.7,10.2c-2.9,0-5.3,0.1-5.3,0.2c0,0.1-0.6,3.8-1.4,8.1c-0.8,4.3-1.4,8.2-1.4,8.6c0,0.4,1.4,0.7,3.1,0.7
	s18.6,2.3,37.7,5.1c19,2.8,34.8,5.1,35,5.1s0.4,2.9,0.4,6.5v6.5h-3.2c-1.7,0-25.8,3.1-53.6,7c-27.7,3.8-50.8,6.9-51.4,6.9
	C354.2,612.8,343.1,607.7,330,601.5z M354.3,605.6c0-2-0.5-3.8-1.2-4.1c-0.6-0.2-10.4-4.1-21.8-8.5c-11.3-4.4-21-8-21.6-8
	c-0.5,0-1,0.7-0.9,1.6c0,1.2,5.8,4.3,22,12c12.1,5.7,22.3,10.4,22.7,10.4C354,609.2,354.3,607.6,354.3,605.6z M373.5,607
	c5-0.7,16.4-2.2,25.3-3.3c15.8-2,22.5-2.9,42.7-6c5.4-0.8,11.5-1.7,13.7-2c3.4-0.4,3.9-0.8,3.9-2.8c0-2-0.4-2.3-3.7-2.3
	c-2,0-24.7,2.5-50.3,5.6c-25.6,3.1-46.7,5.6-46.9,5.6c-0.2,0-0.3,1.5-0.3,3.2c0,3.1,0.2,3.2,3.2,3.2
	C363,608.3,368.5,607.7,373.5,607z M269.7,594.4c5.6-4.8,9.6-11.1,6.9-11.1c-1.4,0-1.4-0.1,0.1-1.8c2-2.3,1.2-3.8-2.2-3.8
	c-2.8,0-5,2.1-8.3,7.6c-2.6,4.4-4.1,4.7-24.2,5.1l-16.2,0.4l-8.8-4.1c-4.9-2.3-12.8-5.5-17.6-7.2c-4.8-1.7-10-3.8-11.6-4.7
	c-1.6-0.9-5.7-2.7-9.3-4.1c-6.6-2.5-23-10.6-31.3-15.5c-2.5-1.5-4.9-2.7-5.4-2.7c-1,0-5.3,9-10.6,21.9c-2.9,7.1-3.3,8.9-2.6,11.6
	c0.6,2.4,1.4,3.2,3.2,3.5c2,0.2,2.8-0.5,5.2-4.6c5-8.8,14-15.6,20.6-15.6c1.6,0,11.7,3.6,22.5,8c10.8,4.4,21,8.4,22.5,9
	s3.6,1.3,4.6,1.6c9.1,3.2,17.8,5.7,23.2,6.5c13,2,15.4,2.5,16.5,3.6c0.8,0.8,3.7,1,9.5,0.8l8.4-0.3L269.7,594.4z M579.7,589.4
	c-0.5-1.9-0.8-3.7-0.5-4c0.3-0.3,2.7-0.6,5.4-0.7c9.4-0.4,9.9-0.5,10.9-2.4c0.7-1.3,0.7-2.9,0-5.5c-1.5-5.6-0.6-6.8,4.5-6.3
	c2.4,0.2,7.1,1,10.5,1.7c8.7,1.7,11.3,0.7,11.7-4.4c0.2-3.3-0.1-4.1-2.3-5.9c-3-2.3-5.2-2.2-13.6,0.9c-9.6,3.5-14.7,1.3-11.4-4.9
	c2.1-3.9,6-6.2,10.5-6.2c4.6,0,18.9-4.5,18.9-6c0-1.6-2.8-3.9-5.9-4.6c-3.4-0.8-8.5-4.1-9.9-6.5c-1-1.6-0.8-2.1,1.2-3.9
	c2.8-2.4,6-2,14.8,1.9c2.9,1.3,6.1,2.4,7.1,2.4c2.3,0,4.2-2.4,3.4-4.3c-0.3-0.8,0.1-3.9,0.9-6.9c1.2-4.4,1.3-6,0.4-8.7
	c-0.9-2.8-1.5-3.3-3.7-3.3c-3.1,0-9.1,3.1-15.9,8.2c-5.5,4.2-11.3,5.3-12.4,2.4c-1.8-4.7,0.4-9.9,6.2-14.6c3.9-3.1,4.3-3.3,22.5-5.7
	c10.2-1.4,19.4-2.7,20.5-2.9s2.7-1.5,3.6-2.8c1.5-2.4,1.6-4.2,0.4-33.2c-1.6-37.3-1.6-81.1-0.1-90.2c0.9-5.6,0.9-7.4-0.4-11.6
	c-1.8-6-10.3-23-15.3-30.4c-4.3-6.3-13.8-15-21.9-19.9c-5.1-3.1-7.1-3.7-16.2-4.9c-5.7-0.8-11.9-1.4-13.8-1.4c-6.6,0-8.3-4.1-2.8-7
	c1.8-0.9,4-1.2,7.2-0.8c2.6,0.3,5.9,0.2,7.3-0.2c2.6-0.7,2.6-0.7-1.1-1.4c-2-0.4-9.5-1-16.5-1.4c-14-0.7-15.6-1.4-14.1-5.7
	c0.7-2.1,1.9-2.7,7.8-4.1c3.8-0.9,8.6-1.7,10.7-1.7c6.1-0.1,6.7-1.4,1.7-3.2c-2.5-0.9-5.8-2.2-7.4-2.9c-1.6-0.7-3.6-1.3-4.3-1.3
	c-0.8,0-4-0.7-7.2-1.5c-6.1-1.6-7.3-1.5-16.4,1c-8.1,2.2-17,6.5-21.7,10.6c-5.8,5-11.3,7.2-14.3,5.9c-3-1.4-3.2-1.3-3.2,0.2
	c0,0.7-0.7,1.8-1.5,2.5c-0.8,0.7-2.7,3.7-4.2,6.6l-2.7,5.4l1,15c0.5,8.3,1,15.4,1,15.7c0,0.4,1.6,0.7,3.6,0.7c2.1,0,4.1,0.6,4.8,1.4
	c0.6,0.8,1.9,1.4,2.8,1.4c1.4,0,1.7-1.5,2.2-11.6c0.4-7,1.1-12.9,2-15c2.9-7,16.3-19.9,20.9-20.3c0.8-0.1,2-0.5,2.7-0.9
	c1.5-0.9,2.9,0.9,2.9,3.9c0,1.3-0.9,2.6-2.5,3.5c-5.2,2.8-10.5,7.6-13.4,12.1c-2.9,4.5-3,5.1-3.3,15.4l-0.3,10.8l3.7,7.8
	c3.4,7,4.9,9,16.8,20.6l13.1,12.8v7.4c0,4.1,0.4,8.2,0.9,9.1c0.5,0.9,1.3,11,1.9,22.4c0.6,11.5,1.9,29.8,3,40.7
	c2.1,21,2,21.4-2.2,21.5c-3.5,0-4.2-3.5-6.9-34.3l-2.6-30.2l-0.7,11.1c-0.4,6.1-1,20.3-1.5,31.6c-0.8,19.6-1.3,23-4.4,29.2
	c-0.6,1.3-1.4,4.5-1.8,7.1c-0.8,5.8-3.5,10.6-6.1,10.6c-1.2,0-1.9-0.6-1.9-1.6c0-0.9,0.6-23.9,1.4-51.2c1.1-38.8,1.2-50.2,0.3-52.6
	c-0.9-2.6-2-3.4-6.4-5c-2.9-1.1-5.6-1.9-6-1.9c-0.4,0-2.3-1.3-4.3-2.8l-3.6-2.8l-6.7,4c-10.9,6.5-16.7,12.5-21.6,22.4
	c-2.3,4.7-4.2,8.9-4.2,9.2c0,1,5.4,0.8,6-0.2c0.3-0.5,3-2.4,5.9-4.3c2.9-1.8,7.6-5.5,10.4-8.1c8.1-7.6,9.6-8.8,12.3-9.4
	c2.4-0.6,2.6-0.5,2.5,2.5c0,4.5-8.3,13.8-20.9,23.2c-5.6,4.2-11.6,8.7-13.3,10c-3.9,3-13.2,15.5-13.2,17.7c0,0.9-0.8,3.5-1.8,5.7
	c-1,2.2-1.8,5.3-1.9,6.8c0,3.1-2.3,14.7-3.2,16.1c-0.3,0.5-1.2,4.4-2,8.6c-1.5,7.8-4.3,17.4-6.1,20.6c-1,1.8-0.2,22.7,1,27.4
	c0.8,3.2,4.2,3.6,7.7,1c3.1-2.3,5.4-1.3,5.4,2.4c0,3.1,1.5,2.7,2.7-0.6c0.7-2.1,0.7-4.3-0.4-8.6c-1.9-7.9-1.7-19.3,0.5-33.1
	c2-12.6,4.8-25.9,6.3-29.8c1.2-3,3.4-4,4.9-2.2c1.6,1.9,0.8,26.2-1,28.9c-2.5,3.8,0,3.4,4.4-0.7c8.5-8,27.1-19.1,33.8-20
	c4.9-0.7,4.4-1.5,6.4,11.9c1.2,8,0.9,10.2-4.3,32.6c-1.8,7.7-3.5,15.5-3.8,17.3c-0.3,2-2.3,5.2-5,8.4c-9.4,10.9-13.1,26.2-8.3,33.9
	c1.7,2.7,6.5,5.8,10.1,6.5c4.6,0.9,9.8-1.8,11.2-5.9c1.2-3.4,0.9-5.5-2.4-14.4c-3.1-8.3-0.7-25.1,5.2-36.8c3.8-7.5,4.3-8.1,6.2-6.8
	c2.2,1.5,2.2,4.9-0.1,20.7l-2.4,16.4l3,8.2c4,10.9,6.4,13.4,18.4,18.7c9.1,3.9,14.1,5.8,14.6,5.5C580.5,593,580.2,591.3,579.7,589.4
	z M572.7,554c-0.3-1.3-0.2-12.4,0.3-24.8l0.9-22.5l4.7-11.4c2.6-6.3,6.2-13.4,7.9-15.8c1.8-2.4,5.2-8.1,7.7-12.7
	c4.8-8.8,6.5-16.6,5-21.9c-0.4-1.5-1.7-11.6-2.8-22.4c-1.1-10.8-2.6-20.7-3.2-22c-0.7-1.3-3.4-4.6-6.2-7.4
	c-5.6-5.8-9.1-10.2-9.1-11.4c0-1,1.4-0.6,9.3,2.7c6.7,2.8,9.7,4.9,18,12.8l5.7,5.4l-2.3,1.7c-6.3,4.6-5.8,1.5-4.6,29.4
	c1,25.1,1,25.2-1,29.2c-1.1,2.2-3.6,5.9-5.6,8.2c-8.3,9.8-10.1,19-10.1,50.2c0,18.2-0.3,23.2-1.2,22.9c-0.6-0.2-1.4-2.5-1.6-5.2
	c-0.6-6-1.8-7.4-4.2-4.7c-1.4,1.6-1.8,3.6-2.1,10c-0.1,4.4-0.5,9-0.7,10.1C576.8,557.2,573.5,557,572.7,554z M638.9,430.7
	c-0.9-2.1-9.3-91.6-8.7-92.2c1-1,2.4,6.5,3.4,17.3c0.6,6.4,2.3,21.4,3.8,33.4c2,15.8,2.7,24.8,2.5,32.5
	C639.7,427.9,639.3,431.7,638.9,430.7z M510.7,321c-0.3-1.3-0.3-5,0.1-8.1l0.7-5.7l0.6,5.1c0.9,7.5,0.9,11.1,0,11.1
	C511.7,323.4,511,322.3,510.7,321z M512.5,304.5c0.3-0.9,0.9-1.4,1.2-1.1c0.3,0.3,0,1-0.6,1.7C512.2,306,512,305.9,512.5,304.5z
	 M485.3,585.8c2-0.8,3.1-0.7,5.6,0.7c4.3,2.3,8.9,1.7,11.3-1.5c1.7-2.3,1.9-4,1.9-15.8c0.1-12.9,0.2-13.5,4-25.8
	c2.2-6.9,6.6-18,9.9-24.6c3.3-6.6,6.8-14.6,7.9-17.6c2-5.9,2.5-13,1-14c-1.4-0.9-16.8,8.4-19.4,11.7c-3.4,4.4-6.4,13.7-9.9,30.8
	c-3.4,17-4.9,22.8-6.2,24.5c-0.5,0.6-1.2,4.5-1.7,8.6c-0.8,7.5-3.1,13.5-7.9,21.3c-2.2,3.6-2.3,4-0.7,3.4
	C482,587.1,483.9,586.3,485.3,585.8z M242.7,581.3c8.1-1.4,15.2-4.4,20.2-8.6l4.1-3.5v-7.5c0-14.2-6.9-44.9-10.8-48.2
	c-1.2-1-1.3-0.8-0.7,1.6c1.8,7.5,5.3,18.9,6.7,21.7c3.4,7.1,0.6,17.6-5.5,20.9c-4.6,2.4-5.8,1.3-5.5-5.5c0.3-6.7-1.6-6.7-9.6,0.1
	c-2,1.7-4.2,3.1-4.9,3.1c-2.5,0-24.9-6.8-25.5-7.8c-0.4-0.6-0.7-3.4-0.7-6.2c0-5.2,0-5.2-3.7-6.7c-2.7-1.1-5.2-1.3-9.2-0.9
	c-3.6,0.4-5.7,0.2-6.1-0.5c-0.4-0.6-1.6-1-2.8-1s-3.6-0.6-5.4-1.4c-2.9-1.2-3.8-1.2-8,0c-5.7,1.7-8.1,0.8-13.3-5
	c-8.3-9.2-7.5-10.1,7.9-9.2c12.1,0.7,19-0.2,17.8-2.1c-0.3-0.5-4.5-0.9-9.3-0.9c-4.8,0-10.6-0.5-12.8-1c-3.4-0.9-4.1-1.4-4.4-3.6
	c-0.3-2.2,0.1-2.7,2.5-3.6c1.6-0.6,4.5-1.1,6.5-1.1c6.5-0.1,13.1-2.1,15.6-4.9c1.3-1.4,2.4-2.9,2.4-3.2c0-0.4,0.6-7.7,1.4-16.3
	c0.8-8.6,1.1-15.9,0.8-16.2c-0.3-0.3-1.5,0.6-2.8,2c-2.6,3-5.6,3.3-6.3,0.6c-0.3-1.1-0.1-4.4,0.4-7.5c0.5-3.1,0.6-6.4,0.3-7.4
	c-1.6-5.1-11.4-11-18.3-11c-1.6,0-4-0.6-5.3-1.2c-1.8-1-4-1-9.7-0.3c-5.5,0.7-7.8,0.6-9.1-0.2c-1.5-0.9-2.1-0.8-3.9,0.9
	c-3.8,3.6-4.6,6.9-2.8,11c1.5,3.4,6.7,8.5,11.6,11.3c13.3,7.8,17.5,12.7,18.6,21.7c1,8,0.5,9.8-2.8,9.8c-3.3,0-5.8-3.1-7.9-9.6
	c-1.7-5.3-4-8.2-8.3-10.8c-16-9.4-15.7-9.2-19.4-15.4c-1.9-3.3-4.3-6.3-5.3-6.6c-2.8-0.9-9.7,2.9-11.9,6.6c-2.9,5-2.6,10.6,1.1,16.8
	l3,5.1l6.3-0.6c6.2-0.6,6.4-0.5,10.3,2.7c3.5,2.9,4.6,3.3,9.4,3.3c4.2,0,5.9,0.4,7.4,1.9c2.4,2.2,2.1,6.1-0.6,6.9
	c-2,0.6-6.4,7.9-9.1,15.2c-2.4,6.4-1.6,11.1,3.5,21.3c5.7,11.3,7,12.5,16.4,15.1c4.4,1.2,9.1,3,10.5,4.1c3.5,2.9,6.9,4.1,12.9,4.8
	c4.9,0.6,5.8,1.1,11.4,6.3c4,3.8,8.8,7,14.2,9.6c7,3.4,8.9,3.9,14.2,3.9c3.3,0,6.9-0.4,7.9-1c1.2-0.7,2.4-0.7,3.6,0
	c1.6,0.8,1.7,1.6,1.3,5.1l-0.6,4.2h3.1C235.4,582.3,239.4,581.9,242.7,581.3z M381.2,572.8c0-2.2-3.4-21.2-3.9-21.6
	c-0.4-0.4-6.3,20.3-6.3,22.2c0,0.3,2.3,0.6,5.1,0.6C379.5,574,381.2,573.6,381.2,572.8z M296.8,561.7c1.8-0.6,4.5-2.1,6-3.3
	c1.5-1.2,3.6-2.3,4.8-2.6c2.7-0.7,5.3-4.5,4.6-6.8c-0.3-0.9-1.4-2.4-2.4-3.3c-2.5-2.2-2.3-6.1,0.5-11.6c1.3-2.5,2.3-5.1,2.3-5.8
	c0-1.6-5.3-10-6.3-10c-0.4,0-1.3,1-1.9,2.3c-0.8,1.7-1.8,2.3-3.7,2.3c-4.1,0-5.2-2.1-5.7-11.5l-0.5-8.4l-6.6,10.7
	c-3.7,5.9-6.9,12-7.3,13.7c-0.7,3.2,0.9,21.7,2.4,27.3C284.9,562.2,289.1,564.4,296.8,561.7z M339.4,554.3c0-4.2-1.6-14.9-4.2-28
	c-3.7-18.9-4.5-21.8-7-25.3l-2.9-4l4.2-4c4-3.8,4.2-4.3,4.2-9c0-6.4-2.1-13.4-3.9-13.4c-1.2,0-15.4,16.1-18.9,21.4
	c-1.7,2.6-0.5,6.8,9.2,30.9l8,19.8l-2.8,5.6c-1.6,3.1-3,7-3.1,8.7L322,560l5.8-0.5c3.9-0.4,6-0.2,6.5,0.5c0.4,0.6,1.7,1,2.9,1
	C339.4,561,339.4,560.8,339.4,554.3z M365.7,554.5c2.1-2.5,2.3-3.3,1.8-8.1c-0.3-2.9-1.3-6.8-2.2-8.6c-1.3-2.6-2-8.2-3.1-26
	l-1.5-22.7l-5.1-4.6c-6.9-6.3-6.9-8,0.5-14.5l5.6-5l3.7-20.4c2-11.2,3.7-20.8,3.7-21.3c0-0.5-0.8,0.7-1.7,2.8
	c-3.1,6.6-10.9,13-20.6,17.1c-5.9,2.5-6.5,5.4-2.7,15.3l2.8,7.3l-1,10.4c-0.5,5.7-1.4,13.1-2,16.4c-0.6,3.3-1.2,11.2-1.4,17.5
	c-0.6,16.5,2.6,28.3,10.6,39.4C359.3,557.9,361.9,559,365.7,554.5z M401.3,544.6c3.7-3.9,6.8-7.5,6.8-8.1c0-1.7-2.2-7.1-2.9-7.1
	c-0.4,0-1-1.9-1.3-4.3c-0.6-4.3,1.5-15.2,3.5-17.8c1-1.3,2.2-17,1.3-17c-0.8,0-4,6.5-5.7,11.4c-0.8,2.3-1.8,8.4-2.4,13.7
	c-0.9,8.6-1.5,10.9-6.1,21.4c-2.9,6.5-4.9,12.5-4.6,13.2C391.1,553.4,394.5,551.7,401.3,544.6z M235.3,537.3
	c0.6-1.3,1.7-2.6,2.5-2.9c1-0.4,1.4-1.9,1.4-5.1c0-3.8-0.5-5.3-2.9-8.2c-1.7-2.1-4.3-4.1-6.3-4.7c-1.8-0.6-4.9-2.4-6.8-3.9
	c-3.2-2.6-3.5-3.2-3.5-7.6c0-3.5,1-7,3.6-13.1c5.8-13.4,12-25.4,16.9-32.4c2.7-3.9,4.5-7.6,4.5-9.1c0-3.2-2.1-8.3-4.4-10.8
	c-2.6-2.8-10-3.5-15.4-1.4c-4,1.5-4.3,1.9-6.3,7.8c-1.1,3.4-2.6,7.2-3.3,8.5c-2.2,4.2-6.7,19.8-8.3,28.8c-0.8,4.8-1.5,13.2-1.5,18.6
	c0,9.1,0.2,10.2,2.9,15.6c1.9,3.7,5.7,8.7,11,14c7.1,7.3,8.5,8.3,11.4,8.3C233.6,539.6,234.5,539.2,235.3,537.3z M377.4,529.7
	c1.2-2.4,3-4,5.5-5.1c2-0.9,4.8-2.6,6.1-3.9c2.4-2.2,2.4-2.6,2.4-12.7v-10.4l17.7-31.2l17.7-31.2l-1.9-4.4c-1-2.4-1.9-4.9-1.9-5.6
	c0-0.7,2.7-4.4,5.9-8.3c5.7-6.9,8-11.6,8-16.6c0-3.4,1.8-6.9,3.8-7.4c3-0.8,1.9-2.4-3.6-5.2c-3.8-1.9-7.5-5-12.5-10.6
	c-10.3-11.3-12.7-11.4-16.1-0.8c-1.6,4.9-1.5,5.1,0.6,10.7c1.6,4.1,2.3,8.1,2.5,14.2c0.4,10.1-0.4,12.3-7.5,21.9
	c-4.8,6.4-11.7,21.5-11.7,25.7c0,0.9-0.6,2.5-1.4,3.5c-0.8,1.1-1.6,4.4-1.9,7.4c-1.3,12.6-3,17.7-14,40.9
	c-4.7,9.9-4.9,12.7-2.2,23.6c1,4.1,1.6,7.8,1.3,8.3c-0.3,0.5-0.1,0.9,0.4,0.9C375.1,533.1,376.4,531.6,377.4,529.7z M421.4,528.1
	c0.9-1.4,2.8-2.5,4.8-2.9l3.3-0.6l-0.6-4.5c-0.6-4.1,0.1-6.4,8.4-28.3c4.9-13.1,9.4-26,10-28.8c0.9-4.4,0.8-5.2-0.7-6.9
	c-1.4-1.5-2.8-1.9-7.9-1.9c-5.1,0-6.4,0.3-7.8,2c-3.1,3.6-5.1,11.7-6.6,27.4c-0.8,8.5-2.1,17.2-2.8,19.3s-1.5,6.7-1.8,10.3
	c-0.3,3.6-0.8,8.9-1.1,11.8C418.1,530.8,419,531.8,421.4,528.1z M280,497.6c9.6-17.2,11.3-21.3,9.4-22.5
	c-1.3-0.8-17.1,11.1-21.9,16.4c-3.2,3.5-3.2,3.7-3.2,11.6c0,6.2,0.4,8.4,1.5,9.7C269,516.4,270.2,515.2,280,497.6z M242.2,506.9
	c1.1-1.7,0.8-7.7-0.4-10.6c-1.6-3.8-4.5-6-6-4.5c-1.8,1.8-2.5,5.6-1.8,10.2c0.6,3.8,0.9,4.1,3.6,4.4l3,0.3l-2.3,1.1
	c-2.3,1.1-2.3,1.1,0.5,0.6C240.3,508.2,241.8,507.4,242.2,506.9z M266.2,477.6c1.5-1.1,2.9-2,3.2-2c1.6,0,6.1-6.2,7.4-10.1
	c0.8-2.4,1.8-5.2,2.2-6.2c0.5-1,1.1-2.6,1.3-3.5c0.6-2,3.2-2.1,6.7-0.2c4.1,2.1,5.5,1.7,8.8-2.5c2.9-3.6,3.1-4.5,3.4-12
	c0.6-13.8-0.6-17-10.2-28.5c-7.8-9.4-8.3-10.1-7.8-13.4c0.5-3.3,0.4-3.5-3.5-5.4c-3.2-1.5-4.5-2.9-6.5-6.9c-3.1-6.2-5.6-7.7-16-9
	c-9.8-1.3-15.4,0.1-18.1,4.3c-4.1,6.3-5.2,7.7-8.4,10.5c-4.3,3.8-8.8,3.9-18.6,0.4l-7.2-2.6l-15.3,7.7c-11.2,5.6-16.3,7.7-18.9,7.7
	c-2,0-3.8-0.3-4.2-0.6c-1.4-1.4-5.7-1-9.1,0.7c-4,2-4.5,3.7-1.8,6.2c1,0.9,2.8,4,4.1,6.8c2,4.6,2.8,5.4,7,7.2c7,3,14.2,2.8,21.9-0.8
	c7.2-3.4,10.2-3.3,10.6,0.2c0.2,1.9-0.5,2.9-3,4.6c-6.3,4.3-6.2,7.6,0.5,15.2c2.3,2.6,3.5,3.3,6.4,3.3c3,0,3.8-0.5,6-3.6
	c2.9-4.2,4.5-12.4,3.7-19.1c-0.8-7.4,1-11.6,6.5-14.5c6.9-3.7,12.3-4,24.1-1.2c5.5,1.3,10.7,3.1,11.5,3.9c1.3,1.3,1.3,1.6-0.6,3.1
	c-1.6,1.3-3.8,1.7-10.1,1.7c-4.4,0-8.9,0.4-9.9,0.8c-1.9,0.7-1.9,0.7,0,1.3c1,0.3,3.5,0.8,5.6,1.2c5.9,1,12.4,8.6,15.4,18
	c0.4,1.3,1.6,4.6,2.7,7.4c3.4,8.9,2.4,13.5-4.2,20.6c-4.7,5-5.3,8.2-2,10.5C252.6,481,262.6,480.2,266.2,477.6z M381,457.3
	c0.5-1.9,1.6-6.6,2.5-10.4c1.7-7.1,9.8-25.8,16.2-37.6c3.2-5.8,3.5-6.9,2.9-10.7c-0.4-2.3-1.4-5.5-2.2-7.2c-0.9-1.6-1.8-4.9-2.2-7.2
	c-0.6-4.2,0-6.2,4.4-15.8c3.5-7.5,2.2-24.5-2.3-31.2c-2.3-3.4-13.4-8.7-16.4-7.7c-0.9,0.3-6.2,5.3-11.6,11.2
	c-9.4,10.1-10.1,10.6-13.6,10.6c-2,0-4.6-0.7-5.9-1.5c-1.2-0.8-4.6-1.7-7.6-1.9c-7.1-0.6-10.5-1.9-13.1-4.9l-2.1-2.4l0,3.9
	c0,4.5-1.8,6.8-5.4,6.8c-2.1,0-3.7-1.5-9.7-9.7c-3.9-5.3-7.7-9.9-8.4-10.1c-2.8-1.1-6.4,0.8-10.8,5.4c-2.6,2.7-4.7,5.7-4.7,6.7
	c0,0.9-0.4,2.1-0.9,2.7s-1.7,5.1-2.7,10.2s-2.7,11.7-3.8,14.7c-1.8,5.1-1.9,9.8-0.1,9.8c0.4,0,4.7-4.4,9.5-9.7
	c5.9-6.5,10-10.2,12.5-11.3c4.7-2,12.9-3.9,17.5-4c3.4-0.1,11.5,2,14.8,3.7c0.9,0.5,2.4,0.9,3.3,0.9s3.3,0.9,5.3,2
	c2,1.1,6,3.1,8.8,4.5c6.2,3.1,8.7,5.7,10.7,11.1c0.9,2.3,2.4,6.2,3.4,8.8c1.7,4.1,1.8,6,1.3,17.2l-0.5,12.6l2.3-10.7
	c1.8-8.3,2.3-13,2.1-20.9c-0.2-8.8,0.1-10.7,1.8-13.9c3.2-6.1,8.6-11.7,10.8-11.4c2.9,0.4,2.9,2.7-0.3,9.9
	c-2.5,5.8-2.8,7.4-2.8,15.7c0,7.2-0.4,10.2-1.9,13.4c-2.4,5.3-5.6,24-5.6,32.4c0,3.6,0.5,9.4,1,13c0.7,4.7,0.7,6.8,0,7.6
	c-1.1,1.1-1.3,5.2-0.5,7.5C378.1,461.9,380.2,460.8,381,457.3z M330.1,450.5c0-7.5-1-9.2-5.4-9.2c-3.4,0-3.6,0.2-6.5,6.1
	c-1.6,3.3-3,6.3-3,6.5c0,0.2,2,0.5,4.4,0.5c2.4,0,5,0.4,5.8,0.9c0.8,0.5,2.1,0.9,3,0.9C329.9,456.1,330.1,455.2,330.1,450.5z
	 M449.7,443.6c17.8-2.8,19.8-3.3,24.4-6.3c4.1-2.7,4.7-3.5,6.5-9.3c2.2-7.3,2-16.6-0.5-21.5c-0.8-1.5-1.5-3.5-1.5-4.4
	c0-0.9-0.4-1.6-0.9-1.6c-0.5,0-0.9,1-0.9,2.1c0,4.1-3.6,5.6-6.7,2.8c-1.1-1-1.7-2.8-1.7-5.4c0-2.1-0.5-4.6-1.2-5.5
	c-1.1-1.5-1.5-1.4-6,2.2c-10.4,8.2-19.8,24.5-22,38.1c-0.9,5.4-1,8.2-0.3,9C440.1,445.2,439,445.3,449.7,443.6z M133.3,428.4
	c0.3-1.8-0.1-2.1-1.9-1.9c-1.4,0.2-2.3,1-2.5,2.5c-0.3,1.8,0.1,2.1,1.9,1.9C132.2,430.7,133.1,429.9,133.3,428.4z M353.3,428.7
	c0-0.7,0.7-1.7,1.6-2.2c0.9-0.5,1.2-0.9,0.7-1c-0.5,0-2.4,1.2-4.1,2.7c-3.2,2.6-3.2,2.7-0.7,2.2
	C352.2,430.1,353.3,429.3,353.3,428.7z M113,424.5c1.5-1.1,4.6-5.6,7.1-10.3c4.9-9.4,8.4-12.7,11.4-11c1.5,0.8,1.9,1.9,1.9,5.1
	c0,7.6,3.5,6.7,9.3-2.4c5.7-9,7.6-10.2,17-10.7c4.2-0.2,8.5-0.6,9.6-0.8c2.6-0.5,3.4-2.8,1.8-5.3c-0.7-1.1-1.6-3.4-1.9-5.1
	c-0.3-1.7-1-3-1.5-3c-0.5,0-0.9-0.8-0.9-1.7c0-0.9-0.4-2.1-0.8-2.6c-0.5-0.5-1.1-3.5-1.5-6.7l-0.6-5.8h2.7c2.5,0,3.3,1,9.2,10.4
	c5.8,9.3,6.8,10.5,9.3,10.7c2.5,0.2,2.9-0.1,3.5-2.4c0.6-2.7-1.1-45.7-1.8-46.4c-0.2-0.2-2.3-0.1-4.6,0.3c-3.1,0.5-4.7,1.3-5.8,3
	c-1.5,2.3-1.5,2.7,0.4,8.1c2.7,7.7,3.6,15,2.1,16.8c-1.6,1.9-4.9,1.8-7.3-0.2c-1.4-1.2-2.2-3.6-3-9c-1.7-11.6-3.5-16.9-6.4-18.8
	c-1.4-0.9-4.7-3-7.3-4.7c-2.6-1.7-4.8-3.4-4.8-3.9c0-1.3-6.5-4.7-8.9-4.7c-1.3,0-3.4-0.6-4.8-1.3c-2.7-1.4-32.4-2.8-34.3-1.7
	c-0.6,0.3-3,4.6-5.4,9.4c-4.3,8.5-4.5,9.5-7.9,30.2c-1.9,11.8-4,23.1-4.6,25.1c-0.7,2.5-2.9,5.5-6.5,9.1c-6.3,6.2-6.7,8.1-3.1,14.3
	c2.1,3.5,2.8,4,5.6,4c4.1,0,10.7-5.8,13.9-12.2c2.4-4.7,5.2-6.3,7.5-4.4c2,1.7,1.2,10.2-1.2,13.6c-2.7,3.7-3.3,7.7-1.4,10.1
	c1.2,1.5,9.5,6.5,11.2,6.8C110.3,426.4,111.6,425.6,113,424.5z M134.5,378c-0.1-13.3,0.1-16,1.7-19.6c1-2.3,2.1-6.9,2.4-10.3
	c0.7-6.4,1.7-7.8,2.7-3.9c0.4,1.8-4.8,41.6-6.3,47.9C134.7,392.8,134.5,386.5,134.5,378z M103.8,388.4c-1.6-1-1.1-16.2,0.6-19.1
	c0.9-1.5,1.1,0.3,1.1,9c0,6-0.1,10.9-0.2,10.9C105.2,389.3,104.5,388.9,103.8,388.4z M333,421.7c1.1-1.1,2.8-3.9,3.9-6.3
	c1-2.4,2.9-5.9,4.2-7.8c2.1-3.2,2.6-3.5,6.8-3.5c5.6,0,6-1.5,0.6-2.1c-3.4-0.4-4.7,0-8.8,2.8c-2.7,1.8-4.9,3.6-4.9,4
	c0,0.4-1.5,2.5-3.2,4.6C326.2,419.8,327.5,427.2,333,421.7z M369.8,419.7c-0.3-0.7-0.5-0.5-0.6,0.6c0,1,0.2,1.5,0.5,1.2
	S370,420.4,369.8,419.7z M315.3,399.9c1.4-4.3,3.4-5.3,7.7-4c1.9,0.6,3.7,0.8,4,0.4c0.4-0.3,0.9-2.4,1.2-4.6
	c0.7-4.9,2.8-5.5,7.9-2.1c5.3,3.6,6.6,2.7,3.3-2.3c-3.7-5.4-3.4-8.7,0.7-9.1c2.5-0.2,3.9,0.7,10,6.3c3.9,3.6,7.3,6.5,7.6,6.5
	c0.3,0-1-2.8-2.9-6.3c-4.2-7.6-9.3-13.2-12.2-13.2c-1.1,0-5.3-1.7-9.3-3.7c-11-5.7-15.3-4.7-18.6,4.3c-0.6,1.6-3.4,6.4-6.3,10.6
	c-2.9,4.2-5.2,7.9-5.2,8.3c0,0.4,1.2,1.3,2.7,1.9c1.8,0.7,3.4,2.6,4.8,5.7c1.2,2.5,2.5,4.6,2.8,4.6
	C313.9,403.2,314.7,401.7,315.3,399.9z M496.4,397.3c6.1-5.7,6.6-9.9,1.1-9.9c-4.6,0-7.7,3.4-7.7,8.3c0,3.3,0.3,3.8,2.2,3.8
	C493.1,399.5,495.2,398.5,496.4,397.3z M232.8,372.3c4.2-2.8,4.4-5.4,0.8-10c-7.2-9.1-10.7-23.3-11.6-47.8
	c-0.3-8.2-0.9-17.1-1.4-19.8c-0.7-4.4-0.5-5.9,2-13c5.3-15.2,14.4-30.3,25.4-42.6c5.6-6.3,7.4-6.3,8.9-0.2c0.7,3.1,1.6,4.6,2.6,4.6
	c0.8,0,4.5-1.7,8.2-3.7c3.7-2,7.9-3.7,9.4-3.7c1.6,0,5.1,1.8,9.3,4.8c5.6,4,6.6,5.1,6.1,6.7c-0.8,2.6-0.5,2.5-6.8,3.1
	c-4.6,0.4-6,0.2-7.5-1.1c-1.8-1.6-4.7-1.4-4.7,0.4c0,0.5,1.1,1.6,2.4,2.5c2.3,1.5,2.4,1.8,1.8,8.6c-0.3,3.9-0.2,7.5,0.2,8
	c0.4,0.5,3.6,2.2,7.1,3.7c3.9,1.6,8.2,4.4,11.1,7.1c7.8,7.3,12.5,5.9,18.1-5.4c1.7-3.5,4.3-7.6,5.6-9c3-3.4,13.7-8.7,18.8-9.4
	c6.4-0.9,17.5,1.7,25.6,6.1c10,5.4,12.2,9,15.4,24.4c1.3,6.5,2.8,12.6,3.3,13.5c0.5,1,1,2.9,1,4.3c0,3.3,4.7,9.1,11.4,14
	c8.5,6.3,9,6.1,19-7.8c5.8-8,8.5-12.6,8.5-14.3c0-1.4-2.1-6-4.6-10.2c-4.4-7.3-5.5-11-3.9-13.6c1.3-2,3.8-0.2,6.1,4.3
	c2.7,5.3,7.7,10.5,11.6,12.2c5.9,2.4,14-2.9,18.9-12.6c0.8-1.6,3-3.8,4.8-4.9s3.5-2.6,3.8-3.3c1.7-4.5,18.1-7.8,24.4-5
	c3.8,1.7,3.7,4.2-0.1,5.2l-3,0.8l3.1,1.3c2.4,1,4,1,7.4,0.2c2.4-0.6,6.1-1.3,8.3-1.6c3.6-0.5,3.9-0.8,3.9-3.4c0-1.8-2.5-7.2-7-15
	c-3.8-6.7-7-13-7-14c0-2.6-20.2-22.8-22.8-22.8c-1.1,0-2.4-0.5-2.9-1c-1.6-1.6-4.6,0.5-5.8,3.9c-1.5,4.2-1.3,7.6,0.9,16.5
	c1.9,7.7,3.5,10.2,6.7,10.3c1.7,0,3.5,2.7,3.5,5c0,2-9.7,12.2-13,13.6c-1.5,0.6-3.5,0.8-4.4,0.4c-0.9-0.4-2.2-0.6-2.9-0.5
	c-4.8,0.8-5.3-9.5-1.2-21.1c2-5.6,2.4-7.7,1.6-8.4c-1.7-1.4-5.2,0.4-6.9,3.7c-3.4,6.2-9.7,13.8-11.4,13.8c-1,0-2.7-1.5-4.1-3.7
	c-3.9-6.1-7.4-6.8-16.7-3.3c-3.4,1.3-4.3,2.3-6.6,7.2c-2.7,5.8-5.4,9-7.4,9c-1.6,0-3.4-4.9-2.7-7.5c0.4-1.5-0.1-3.2-1.6-5.3
	c-7.2-10.2-11.5-15.9-11.9-15.9c-0.3,0-1.3,2.4-2.3,5.3l-1.8,5.3l-10.5,5.3c-6.2,3.2-11.7,5.3-13.5,5.3c-6,0-14.2-4-23.6-11.6
	c-5.5-4.4-10.3-4.5-16-0.1c-7.5,5.7-13.9,6.8-16,2.7c-1.2-2.4-1.1-3,1.9-8.9c2.2-4.3,3-7.1,2.7-8.6c-0.5-2.2-0.7-2.2-11.7-2.2
	c-16.6,0-18.4-1.4-17.1-13.6c0.9-8.2,1.1-8.6,4.6-8.6c2.7,0,3.2,0.5,5.5,5.1c1.4,2.8,3.1,5.1,3.9,5.1c0.8,0,2.6-2.5,4.2-5.5
	c3.1-6.2,4.8-7.5,8.7-6.8c2,0.4,3.2-0.1,5.1-1.9c3.4-3.3,6.3-2.5,7.6,2c1.3,4.7,1.7,5.1,7.8,7.5c6.4,2.6,7,2.1,6.4-4.9
	c-0.5-5.8-3.7-11.1-7.9-13.3c-1.7-0.8-5.3-2.9-8.1-4.6c-2.8-1.7-7.7-4-10.9-5c-6.5-2.2-8.1-1.8-11.5,2.9c-2,2.7-2.3,2.9-6.8,2.3
	c-2.6-0.3-6.1-0.8-7.7-1.1c-2.4-0.5-3.4-0.2-5.2,1.8c-1.7,1.8-3.2,2.4-5.9,2.4c-4.1,0-7.8,2.1-7.7,4.5c0,0.9,2.3,5.7,5.2,10.9
	c8.2,14.8,9.2,18.4,6.8,25.4c-1,2.7-1.3,2.9-5.4,2.9h-4.4l-1.6-8.1c-2-10.1-4.6-17.1-7.6-20.7l-2.3-2.8h-17.4
	c-16.9,0-17.6,0.1-22.9,2.5c-13.3,6.1-20.7,12.3-25.1,21.1c-3.6,7.1-4.1,11.4-2.1,16.1c1.5,3.5,0.2,5.9-3.3,5.9
	c-1.8,0-2.3,0.8-3.3,4.9c-0.6,2.7-1.8,6.4-2.5,8.4c-1.2,3-1.8,3.5-4.4,3.5c-3.7,0-5.6-1.7-7-6.5c-0.9-3.2-0.8-4.2,0.9-8.3
	c1.1-2.5,2-5.2,2-5.9c0-2.4,6.4-14.3,14.3-26.7c4.9-7.7,7.7-12.8,7.1-13.3c-1.3-1.3-12.5,4.3-19.2,9.7c-6.2,5-13.6,13.8-15.2,17.9
	c-1.8,4.7-1.1,11.4,1.8,18.1c3,6.9,3.4,8.9,1.6,9.5c-0.9,0.3-0.9,0.7,0,1.8c1.5,1.8,0.6,2.6-2.6,2.6c-2.1,0-3.1-0.9-5.6-5.1
	c-2-3.3-4.6-6.1-7.5-8l-4.5-2.9l-5.9,2.9c-6.3,3.1-16.1,12.6-21.8,21.2c-2.7,4.1-2.9,4.8-2.4,9.8c0.4,4.2,1.2,6.3,3.4,9.1
	c3.9,4.9,5.1,4.3,4.7-2.8c-0.5-9.8,3.4-11.5,8.2-3.6c4.4,7.3,6.4,9,9.9,9c4,0,5-1.9,5-9.9c0-6.8,1.3-9.9,4.6-10.7
	c3.2-0.8,5.2,2.5,5,8.2c-0.3,6.2,0.9,7,9.7,6.7c3.5-0.1,8.3,0.1,10.7,0.6c4.3,0.8,4.4,0.7,4.4-1.4c0-1.4-1.4-3.6-3.7-5.9
	c-5.6-5.4-4.7-9.7,1.9-9.8c1.7,0,6.1,0.4,9.7,0.9c9.7,1.4,13.1-0.3,6.1-3.1c-2-0.8-3.9-2.3-4.2-3.2c-0.8-2.6,1-6.7,4.8-10.6
	c3-3.1,3.9-3.5,8.2-3.5c4.5,0,5-0.3,7.9-3.8c6.4-7.7,9-10.2,10.9-10.2c1.7,0,1.9,0.6,1.9,4.1c0,2.2-0.9,6-1.9,8.4
	c-1,2.4-2.3,7.3-2.7,11c-0.4,3.7-1.4,8.4-2.2,10.4c-0.7,2-1.7,5.6-2,7.9s-1,5.4-1.5,7c-0.5,1.5-1.2,5.8-1.7,9.5
	c-1.4,11.3,0.1,16.7,14.2,50.2c6.9,16.5,12.9,30.4,13.2,30.9C224.9,375.1,229.6,374.5,232.8,372.3z M386.2,275.7
	c-0.5-1.4,1.8-6.5,3.5-7.6c0.8-0.5,0.9,0,0.5,1.6c-0.3,1.2-0.6,3.1-0.6,4.2C389.5,276.2,386.9,277.6,386.2,275.7z M463.4,372.1
	c1.1-0.7,2.6-2.8,3.5-4.6c1.8-3.8,1.5-4.8-4.1-11.2c-4.3-5-4.9-8.9-1.6-10.4c2-0.9,7,0,9.7,1.8c0.6,0.4,2,0.3,3-0.3
	c1.5-0.8,1.9-1.9,1.9-6c0-3-0.5-5.5-1.3-6.3c-2.6-2.6-2.7-6.8-0.2-11.7c1.3-2.6,2.4-5,2.4-5.5s-1.9-2.7-4.1-5.1
	c-4-4.3-4.4-4.4-15.1-6.8c-14.5-3.2-21.7-2.9-26.7,1c-9.6,7.6-13.3,13.1-16.8,24.8c-1.7,5.9-1.5,18.3,0.5,21.9
	c4.2,7.9,11.2,11,18.1,8.1c3.9-1.6,10.8-2,12.2-0.6c0.5,0.5,2.3,1,4.1,1.2c2.7,0.2,3.4,0.8,4.1,3.1c2.2,7.5,2.5,7.9,5.6,7.9
	C460.2,373.5,462.4,372.9,463.4,372.1z M459.1,335.9c0-0.8,0.4-1.4,0.9-1.4c0.5,0,0.9,0.6,0.9,1.4c0,0.8-0.4,1.4-0.9,1.4
	C459.5,337.3,459.1,336.7,459.1,335.9z M274.2,370.4c0.6-0.6,2.8-7.1,4.9-14.3c5.1-17.9,13.1-34.5,18.5-38.4
	c3.2-2.2,3.6-2.3,5.7-0.4c2.3,2.1,4.1,1.1,5.5-3.1c1.5-4.7,3.5-6.8,6.3-6.8h2.3l-0.6,7.7c-0.5,6-0.2,9.1,1.2,14.5
	c2,7.5,2.8,9.1,2.8,5.5c0-1.3,1-3.2,2.1-4.3c1.8-1.7,2.4-1.8,3.6-0.9c0.8,0.6,1.7,1.8,1.9,2.5c0.7,2.3,1.4-3.9,3-25.2
	c0.8-11.1,1.7-20.7,2-21.5c0.9-2.2,3.2-2.7,5.8-1l2.3,1.5l-0.6,14.5c-0.3,8-0.8,18.9-1.1,24.3c-0.5,9.6-0.5,9.8,1.9,12.3
	c2.2,2.3,3.1,2.6,8.3,2.6c5.4,0,6.1-0.2,8.2-2.7c1.6-1.9,2.5-4.4,2.9-8.3l0.6-5.5l5.3-2.4l5.3-2.4l-5.3,0c-3.5,0-5.7-0.5-6.7-1.5
	c-2-2-1.8-7.2,0.4-11.6c1-2,2.1-5.4,2.4-7.6c0.7-5.2-1-21.3-2.6-24.5c-1.4-2.8-7.1-4.9-13.3-5c-2,0-4.9-0.7-6.4-1.4
	c-3.3-1.7-6.9-0.6-10.8,3.2c-1.3,1.3-4.2,4-6.6,6.1c-3.7,3.2-4.8,5.3-9.1,16.1l-4.9,12.4l-3.2-0.6c-1.7-0.3-3.7-0.8-4.4-1.1
	c-1.7-0.7-6.4,3.5-9.8,8.8c-3.6,5.6-9,8.4-15.9,8.4c-6.4,0-11.6-2.8-24.4-12.8c-5.7-4.5-11.5-8.9-12.9-9.8l-2.6-1.7v24
	c0,23.4,0.1,24.1,2.3,30c1.3,3.3,3.3,7.2,4.5,8.6c1.2,1.4,7.1,5,13.2,8.1C267.8,372.7,271.3,373.4,274.2,370.4z M327.4,300.6
	c0-1.1,0.3-1.3,0.6-0.6c0.3,0.7,0.2,1.5-0.1,1.8S327.4,301.5,327.4,300.6z M346.3,281.5c-0.7-2.4,1.5-4.5,4.8-4.5
	c2.8,0,4,3.6,1.7,5.3C350.2,284.2,347.1,283.8,346.3,281.5z M512.3,368c1.2-0.5,2.5-1.5,2.8-2.4c0.7-1.8-1.6-6.5-4.9-10
	c-5.2-5.5-6.4-7.2-7-9.9c-0.9-4.3-1.9-4.2-3.7,0.7c-0.9,2.4-2.4,5.2-3.3,6.2c-3.7,4.2-4.8,11.2-2,13.7c0.9,0.8,3.8,1.6,6.7,1.8
	c2.8,0.2,6,0.4,7.1,0.5C509.1,368.8,511.1,368.5,512.3,368z M498.3,320.1c0.7-11,2-18.8,3.7-22.1c0.6-1.1,3.1-5.5,5.7-9.7
	c4.4-7.4,5.3-11.3,2.5-10.6c-0.7,0.2-4.1,0.7-7.4,1.1c-28.9,3.7-43.7,7.5-47.8,12c-1.4,1.5-1.4,1.9,0.1,4.1c1.4,2.1,2.2,2.4,7.1,2.4
	c3,0,8.2,0.7,11.6,1.5l6.1,1.5l4.1,8.6c2.3,4.7,4.1,8.9,4.1,9.3c0,0.4,1.6,3.4,3.5,6.7C496.4,333.5,497.5,332.8,498.3,320.1z
	 M185.5,320.8c2-1.1,3.2-2.5,3.4-4.1c0.3-2.4-1.8-5.4-3.9-5.4c-2.5,0-13.5,9.3-13.5,11.4C171.5,324.2,182,322.8,185.5,320.8z
	 M131.1,311.7c20.6-2.9,20.7-2.9,22.7-7.5c2.1-4.8,3.9-5.1,7.5-1.3c1.4,1.5,3.3,2.8,4.1,2.8c1.4,0,1.4-0.3,0.2-2.6
	c-0.7-1.4-3.1-4.4-5.3-6.6c-3.8-3.8-4.2-4-7.9-3.4c-2.2,0.3-5.9,1.5-8.4,2.7c-2.4,1.2-6.1,2.6-8.1,3.2c-2,0.6-5.9,1.7-8.7,2.5
	c-2.7,0.8-7.7,1.7-11.1,2c-9,0.7-10.4,1.1-10.4,3.1c0,2.5,2.4,4.1,7.8,5.3C120,313.3,119.8,313.3,131.1,311.7z M278.9,299.3
	c1.5-1.2,3.8-1.9,6.3-1.9c3.2,0,4.1-0.4,5.1-2.3c0.7-1.3,0.9-2.9,0.5-3.9c-0.4-0.9-0.7-2-0.6-2.4c0.1-0.4-0.4-0.7-1.2-0.7
	c-0.7,0-2.2,1.5-3.3,3.2c-1.8,3-2.4,3.2-6.5,3.2c-5.5,0-6-1-4.6-8.5c1-5.4,1-5.5-1.9-9.2c-1.6-2-4.6-4.5-6.6-5.6l-3.7-1.9l-3.1,2.6
	c-1.7,1.4-4.8,3.8-6.9,5.2c-4.8,3.2-6.1,6.3-4.3,9.9c1.5,2.9,6.4,5.6,10.2,5.6c1.3,0,2.7,0.6,3,1.4s1.5,1.4,2.6,1.4
	c1.2,0,2.9,1.2,4.1,2.8C270.3,301.7,275.2,302.1,278.9,299.3z M405.3,213.5c2.5-17,3.3-20,5.8-24.5c3.7-6.6,9.6-9.5,19-9.5
	c5.6,0,6.4-0.3,8.3-2.5c1.4-1.6,2.1-3.7,2.1-6c0-3.1-0.4-3.8-3.7-5.9c-5-3.2-12.5-3.2-17.4-0.1c-5.1,3.2-6.6,5.3-9,12.1
	c-1.2,3.4-2.8,6.9-3.7,7.8c-1.1,1.2-1.5,3.6-1.5,9c0,7.2-0.1,7.5-3.7,12l-3.7,4.6l0,12.3c0,10.7,0.2,12.4,1.6,13.2
	C401.7,237.3,401.9,236.7,405.3,213.5z M368.2,229.5c1-1.1,1.9-2.4,1.9-2.9c0-1.3-6.6-13-8.7-15.3c-1-1.1-3.6-2.9-5.7-3.9
	c-6.3-3-10-1.8-19.5,6.4c-4.4,3.8-7.8,7-7.7,7.1s2.9-0.4,6.3-1.1c8.5-1.8,12.3-1.7,16.9,0.7c5.7,2.9,7.2,4.4,7.2,7.3
	C358.9,231.9,364.9,233,368.2,229.5z M423.6,216.7c15.1-13.3,16-14.2,16.6-18.1c0.4-3,0.2-4.2-1.4-6.3c-1.9-2.4-2.4-2.5-9.8-2.5
	c-7.8,0-7.8,0-7.8,2.4c0,1.3,1,3.3,2.3,4.5c1.6,1.5,2.3,3.1,2.3,5.3c0,2.9-0.3,3.3-3.7,4.3c-5.2,1.6-7.1,3.9-7.9,9.4
	C413,224,415,224.3,423.6,216.7z M388,215c0.7-1.4,3.3-10.6,5.7-20.4c4.2-17,4.3-18,2.9-20.2c-1.4-2.1-2.1-2.3-7.6-2.3h-6.1
	l-6.4,5.5c-6,5.1-7.7,6-15.9,7.8c-3.9,0.9-4.8,3.5-2.7,7.7c2,3.9,10.4,11.6,16.8,15.4c2.3,1.4,5.8,3.9,7.9,5.7
	c2,1.8,3.8,3.2,3.9,3.3C386.6,217.6,387.3,216.4,388,215z M455.1,195.6c0.6-2.2-0.2-8.8-2-17.6c-0.3-1.6-1.4-3.7-2.4-4.5
	c-1.6-1.5-1.8-1.5-2.3,0c-0.9,2.4,0.2,14.4,1.9,19.8C451.9,198.6,454.1,199.6,455.1,195.6z M594.7,242.5
	c-4.8-1.4-11.1-6.3-13.5-10.5c-1.2-2-2.6-6.2-3.2-9.3c-1-5-0.9-6,0.8-10c3.8-8.9,11.4-16.9,20.2-21.5c9.4-4.8,24.1,1.5,29.4,12.8
	c3.5,7.3,3.2,11.8-1.1,20.2c-4.3,8.4-7.8,12-15.3,15.5C605.3,242.9,599.2,243.9,594.7,242.5z M598.3,236.1
	c7.5-1.7,21.1-13.4,25.4-21.9c1.9-3.8,1.9-7.9,0-12c-3.5-7.5-12.8-7.8-23.8-0.9c-7.3,4.5-9.2,6.7-13.5,15.1
	c-4.1,8-4.5,11.4-1.9,14.6c2.1,2.7,7.1,6.1,8.7,6.1C593.7,237,596,236.6,598.3,236.1z M556.8,204.6c-5.6-2.6-6-3.1-8.7-9
	c-4.7-10.4-2.8-18.6,6.5-29.2c5.4-6.1,11.7-9.2,20.1-9.9c8.4-0.7,14.8,2.4,19.2,9.3c2.4,3.8,4,5.3,6.1,5.7c1.6,0.3,2.8,0.9,2.8,1.2
	c0,0.3-1.6,3.7-3.5,7.4c-4.2,8.2-5.3,7.7-5.9-2.7c-0.6-10.6-3.6-14.6-12.2-16.2c-4.1-0.8-12.5,2.8-17.1,7.3
	c-5,4.8-8.6,12.1-9.2,18.2c-0.4,4.6-0.1,6,1.7,9.3c3.4,6,11.4,9.4,18.1,7.5c4.9-1.4,6.1-0.1,1.7,1.9
	C570.6,208.2,563.6,207.8,556.8,204.6z M527.6,177.9c-7.1-5.5-8.8-7.3-8-8.3c0.8-1,1.3-1,2.4,0.1c3.2,3.2,5,1.7,18.5-16.5l12.5-16.7
	l-1.8-3.1c-1.4-2.4-1.6-3.3-0.7-4.1c0.9-0.7,3.4,0.7,9.7,5.2c9,6.6,9.7,8.3,3.1,7.8l-3.6-0.3L548,157.9
	c-10.6,14.3-13.7,18.8-13.7,20.2c0,0.3,0.9,1.3,1.9,2.3c1.3,1.2,1.7,2.3,1.2,3.2C536.7,184.7,534.9,183.7,527.6,177.9z M212,181.7
	c-0.3-0.3,0-1.6,0.8-2.8c2.1-3.2,0.6-5.9-12.5-22.8c-9.7-12.5-11.7-14.6-13.8-14.6c-1.4,0-3.1,0.4-3.9,0.9c-1.3,0.8-2.8-0.2-2.8-1.9
	c0-0.7,21-16.8,24-18.4c3.8-2,11.6-1.7,14.6,0.5c5.9,4.4,8.4,11.4,5.7,16.5c-1.9,3.7-7.5,10.1-11.1,12.7l-3.5,2.6l5.1,6.8
	c2.8,3.8,5.7,7.2,6.4,7.6c0.8,0.4,2.5,0.1,4.3-0.8c2.5-1.3,3.1-1.3,4.2-0.2c1.1,1.1,0.1,2.2-6.8,7.3
	C213.1,182.2,212.7,182.4,212,181.7z M216.6,143.1c3.7-7.1-1.9-16.5-9.8-16.5c-4.1,0-9.4,3.3-10.5,6.5c-0.7,2,0,3.4,5.1,10.3l5.9,8
	l4-2.9C213.4,147,215.8,144.5,216.6,143.1z M512.7,165.4c-1.3-1-1.8-5.3-3.3-26.5c-1-14-2-25.5-2.1-25.7
	c-0.4-0.4-19.3,31.3-19.3,32.3c0,0.3,0.9,1.4,2,2.4c1.1,1,1.7,2.3,1.3,2.8c-0.4,0.7-3-0.3-7.8-2.8c-8.6-4.7-8.6-4.7-7.7-6.2
	c0.6-1,1.2-1,3.2-0.1c2.2,1,2.8,0.9,4.8-1c2-1.9,16.9-26.1,20.6-33.6c1.4-2.7,0.5-5.7-2.4-7.8c-0.8-0.6-1-1.3-0.5-1.6
	c1.1-0.7,13.3,6.6,13.3,8c0.1,4.1,3.6,42.5,3.9,42.8c0.6,0.6,15.6-24.7,15.6-26.4c0-0.8-0.7-2.5-1.5-3.6c-2.9-4.1-0.7-3.8,6.8,0.8
	c7.7,4.7,9.1,6.8,3.9,5.8c-1.6-0.3-3.3-0.1-4.1,0.6c-0.7,0.6-6.6,10.1-13.1,21c-6.5,10.9-11.8,19.9-12,19.9
	C514.3,166.5,513.5,166,512.7,165.4z M250.2,149.5c-7.4-2.7-15.6-12.2-18.1-21c-4.4-14.8-0.2-24.5,13.4-31.4
	c11.8-6,26.2,2.4,33.7,19.8c1.6,3.8,1.9,5.9,1.6,11.3c-0.5,8.6-3.4,13.6-10.4,18.5c-4.4,3.1-6,3.6-10.9,3.9
	C256.1,150.6,252.1,150.2,250.2,149.5z M267.9,143.4c6.3-4.5,6.2-13.2-0.3-26.3c-6.9-14-13.5-19-21.8-16.6c-3,0.9-4,1.9-6,6
	c-1.4,2.7-2.5,5.5-2.5,6.3c0,3.6,4.9,17.2,8,22.2C251.5,145,260.8,148.4,267.9,143.4z M455.6,137.9c-5.2-1.9-11.3-7-13.9-11.7
	c-1.1-2-1.5-5.2-1.5-11.1c0-9.2,1.1-12.4,7.6-21.2c3.7-5.1,10.4-8.7,17.7-9.5c3.6-0.4,5.2,0,10.7,2.9c4.8,2.5,7.1,3.2,9,2.8l2.6-0.6
	v8c0,4.4-0.3,8-0.7,7.9c-1.5,0-2.9-1.6-4.8-5.6c-6.3-12.6-15.4-15.3-23.8-6.9c-6.1,6.1-8.9,12.3-9,20.3c-0.2,8.9,1.9,14.4,6.9,17.8
	c5.3,3.7,10.8,3.6,17.8-0.4c2.9-1.7,5.7-2.7,6.3-2.4c1.5,0.9-3.4,5.8-8.6,8.4C465.8,139.6,461.4,140,455.6,137.9z M290.8,135.2
	c-0.3-0.9-0.2-1.8,0.3-2c0.5-0.2,1.8-1,2.9-1.9l1.9-1.6l-5.2-20.9c-2.9-11.5-5.7-21.2-6.3-21.6c-0.6-0.4-2-0.5-3.1-0.3
	c-1.7,0.4-3.1-0.9-3.1-2.8c0-0.2,4.7-1.4,10.4-2.7c8.2-1.9,10.5-2.2,11.1-1.2c0.5,0.8-0.1,1.6-1.5,2.4c-1.2,0.7-2.5,2.2-2.9,3.5
	c-0.5,2.1,6.7,34.5,9,40.1c1.7,4.2,10.6,2.2,17.3-3.8c1.1-1,2.7-3.9,3.6-6.3c1.1-3.3,2-4.5,3.3-4.5c1.6,0,1.8,0.5,1.2,4.9
	c-0.3,2.7-0.7,5.4-0.9,6c-0.5,1.5,0.6,1.5,2.7,0c1.5-1.1,1.4-2.4-2.2-21.6c-2.1-11.2-4.2-21.1-4.7-22c-0.5-0.9-2.2-1.7-3.8-1.9
	c-6.2-0.6-3.7-2.4,6.8-4.9c8.3-1.9,10.6-2.2,11.2-1.2c1.2,1.8,1,2.2-1.5,3.3c-3,1.4-3,2.2,1.3,25.1c3.8,20.1,4.6,22.1,9.1,21
	c1.5-0.4,2.1-0.1,2.1,0.9c0,0.8-0.1,1.4-0.3,1.4c-0.2,0-4.9,1-10.4,2.2c-5.6,1.2-11,2.2-12,2.2c-1.4,0.1-23.5,6-34,9.1
	C292,136.7,291.1,136.2,290.8,135.2z M416.4,127c-5.4-1.2-13.6-3.1-18.3-4.1c-6.5-1.5-8.4-2.2-8-3.2c0.3-0.7,1.7-1.3,3.2-1.3
	c1.6,0,3-0.7,3.5-1.6c1.6-3,7.8-38.2,7.2-40.6c-0.3-1.3-1.6-2.8-2.9-3.4c-2.5-1.1-2.7-1.5-1.5-3.3c0.6-0.9,4.8-0.3,19.2,2.5
	c10.1,2,18.5,3.8,18.7,4c0.1,0.1,0.9,3.1,1.7,6.7c1.2,5.2,1.3,6.6,0.3,7.2c-1.9,1.2-2.3,1-4.6-3.1c-3.2-5.7-8.5-9.1-15.4-9.8
	l-5.6-0.5l-0.9,3.6c-0.5,2-1.2,5.5-1.5,7.8c-0.3,2.3-0.8,4.9-1,5.7c-0.3,1.2,0.4,1.7,3.7,2.2c5.5,0.8,7.4,0.1,9.5-3.8
	c1.8-3.3,2.7-3.9,3.6-2.4c0.3,0.5-0.3,5.3-1.3,10.9c-1,5.5-1.8,10.1-1.8,10.3s-0.6,0-1.4-0.3c-0.8-0.3-1.4-1.5-1.4-2.7
	c0-5.2-4-8.7-10-8.8c-1.2,0-1.3,0.1-3.9,12.3c-2,9.5-2.4,9,7.4,10.9c6.7,1.3,8.4,0.8,16.5-4.9c5.9-4.2,6.5-2.3,1.5,5.6
	c-2.3,3.7-4.7,6.7-5.3,6.6C426.7,129.2,421.8,128.2,416.4,127z M357.1,119.8c0-0.7,1.2-1.5,2.7-1.8c4.6-0.9,5-3.6,3.9-23.5
	c-0.6-9.7-1.5-19-2-20.7c-0.9-2.9-1.2-3.1-4.2-2.6c-4.6,0.8-7.5,2.9-10.7,8.1c-3,4.8-3.2,5-5.1,3.8c-0.9-0.6-0.6-2.3,1.2-7.8l2.4-7
	l9.9-0.6c5.5-0.3,14.7-0.8,20.6-1.1l10.7-0.6l3.4,7c2.6,5.3,3.1,7.1,2.2,7.4c-0.7,0.3-2.2-0.6-3.4-1.9c-4.7-5.1-9.2-7.7-13.5-7.7
	c-4.8,0-4.5-2.5-3,25.1c1.1,20.4,1.4,21.3,6.1,21.3c1.2,0,2.1,0.2,2.1,0.4c0,0.2,0.3,1,0.6,1.9c0.5,1.3-0.9,1.5-11.6,1.5
	C359.5,121,357.1,120.8,357.1,119.8z M289.2,712c2.6-5.4-1.8-10.1-8-8.5c-3.1,0.8-3.9,2-3.9,5.8c0,4.2,2.2,6,6.8,5.7
	C287.2,714.6,288.1,714.1,289.2,712z M464.5,712c2.5-5.3-1.8-10.1-7.6-8.6c-3.2,0.8-4.7,5.4-2.8,9.1c1.3,2.5,1.8,2.7,5.3,2.5
	C462.6,714.6,463.5,714.1,464.5,712z M270.2,709.5c2.1-0.8,2.4-1.4,2.4-5.1c0-3.8-0.3-4.3-2.5-5.2c-3.2-1.2-8.2-0.3-9,1.6
	c-0.8,2-0.7,6.2,0.2,7.4C262.7,710.3,266.6,710.9,270.2,709.5z M481.9,707.5c1.2-2.4,1.3-3.3,0.4-5.6c-1.6-3.8-3.9-4.9-7.8-3.6
	c-3.4,1.1-4.2,2.4-4.2,6.5c0,3.7,2.2,5.6,6.5,5.6C479.9,710.4,480.6,710,481.9,707.5z M255.4,700.9c1.9-5.4-2.4-10.1-8.1-8.7
	c-3.1,0.8-4.7,5.1-3.3,9c0.9,2.7,1.2,2.8,5.7,2.6C254,703.5,254.6,703.2,255.4,700.9z M499,700.8c1.9-5.9-2.5-10.3-8.5-8.4
	c-2.7,0.9-3.5,2.1-3.5,5.7c0,5.2,0.6,5.9,6,5.9C497.8,703.9,498,703.8,499,700.8z M238.4,695.9c1.6-1.9,1.6-7.4,0.1-9
	c-1.7-1.7-9.3-1.5-10.4,0.2c-1.4,2.2-1.1,7.1,0.6,8.8C230.5,697.9,236.8,697.9,238.4,695.9z M513.9,696.5c1.4-0.7,1.8-2,1.8-5.1
	c0-3.6-0.3-4.3-2.4-5.1c-5.7-2.2-9.7-0.2-9.7,4.8c0,4.5,1.5,6.4,5.2,6.4C510.7,697.4,513,697,513.9,696.5z M221.4,688.6
	c2.9-2,2.8-6.8-0.2-9.6c-3.1-3-6.9-2.3-9.2,1.5C208.2,687,215.1,692.9,221.4,688.6z M530.1,688.7c2.3-1.7,2.3-7.3,0-9.8
	c-2.2-2.4-6.5-2.5-8.9,0c-1.9,1.9-2.5,6.9-1.1,8.9C521.7,690.1,527.5,690.7,530.1,688.7z M207,678.7c1.6-2.2,1.7-2.8,0.7-5.4
	c-2.1-5.1-6.5-6.1-10.5-2.4c-2.7,2.5-3,4.2-1.4,7.3c1.5,2.9,2.7,3.5,6.3,3.2C204.2,681.3,205.7,680.4,207,678.7z M544.8,680.8
	c5.8-2.2,2.7-12.1-3.8-12.1c-5.5,0-8,10.4-3,12.3C540.2,681.8,542.3,681.7,544.8,680.8z M191.9,669c1.3-3.5-0.5-8.5-3.4-9.2
	c-3.9-1-6.7,0.3-7.8,3.7c-0.8,2.4-0.8,3.7,0.1,5.6c1,2.1,1.7,2.4,5.6,2.4C190.5,671.4,191.1,671.2,191.9,669z M562.2,669
	c1.3-3.5-0.5-8.5-3.4-9.2c-3.9-1-6.7,0.3-7.8,3.7c-0.8,2.4-0.8,3.7,0.1,5.6c1,2.1,1.7,2.4,5.6,2.4
	C560.8,671.4,561.4,671.2,562.2,669z M175.9,660.7c2.9-2,2.8-6.8-0.2-9.6c-3.1-3-6.9-2.3-9.2,1.5
	C162.8,659.1,169.6,665.1,175.9,660.7z M576.4,660.3c0.5-0.5,1-2.5,1-4.3c0-6-6-8.8-10.3-4.8c-2.9,2.7-2.9,7.5-0.1,9.6
	C569.2,662.4,574.6,662.1,576.4,660.3z M162.3,649.5c3.8-3.4,0.7-10.5-4.6-10.5c-5.8,0-8.9,6.2-5.2,10.4
	C154.5,651.5,160.1,651.6,162.3,649.5z M590,649.5c1.9-2.2,1.5-7.8-0.5-9.3c-2.3-1.7-6.1-1.6-8.6,0.2c-2.5,1.8-2.8,6.4-0.5,8.9
	C582.3,651.5,588.3,651.6,590,649.5z M148.4,638.3c3.7-3.3,0.6-11.5-4.4-11.5c-2.4,0-6.9,3.9-6.9,6c0,1.8,1.8,5.3,3.2,6.2
	C142.1,640.4,146.7,639.9,148.4,638.3z M602.4,639c2-0.7,2.4-1.5,2.4-4.3c0-3.9-2.9-7.7-5.9-7.7c-3,0-6.2,3.6-6.2,7.1
	C592.8,639.2,596.7,641.2,602.4,639z M136,625.8c2-2,1.4-7.9-0.9-9.5c-5.8-4.1-12.1,2.1-9.4,9.2C126.3,627.2,134.3,627.5,136,625.8z
	 M617.6,622.8c0.2-2.7-0.2-4.1-1.8-5.8c-5.1-5.5-12.4,1-9.5,8.4c0.5,1.2,1.7,1.5,5.8,1.2l5.2-0.3L617.6,622.8z M124.5,610.9
	c1.9-5.4-2.4-10.1-8.1-8.7c-3.1,0.8-4.7,5.1-3.3,9c0.9,2.7,1.2,2.8,5.7,2.6C123.1,613.5,123.7,613.2,124.5,610.9z M629.8,610.8
	c1.9-5.9-2.5-10.3-8.5-8.4c-2.7,0.9-3.5,2.1-3.5,5.7c0,5.2,0.6,5.9,6,5.9C628.6,613.9,628.8,613.8,629.8,610.8z M111.6,599.6
	c2.3-1.7,2.3-7.3,0-9.8c-3.7-4.1-10.7-0.7-10.7,5.2C100.9,600,107.3,602.8,111.6,599.6z M639.6,599.6c2.3-1.7,2.3-7.3,0-9.8
	c-3.7-4.1-10.7-0.7-10.7,5.2C628.9,600,635.3,602.8,639.6,599.6z M100.7,585.5c2.9-2,2.8-6.8-0.2-9.6c-3.2-3-6.9-2.3-9.2,1.5
	C87.6,584,94.5,589.9,100.7,585.5z M651.6,585.2c1.8-1.8,1.1-7.6-1.2-9.4c-4.5-3.6-10.3-0.8-10.3,5c0,3.4,0.7,4.8,2.8,5.6
	C644.7,587.1,650.4,586.3,651.6,585.2z M90.3,570.8c2.3-1.7,2.3-7.3,0-9.8c-2.3-2.6-6.5-2.5-8.3,0.2c-1.9,2.7-1.9,7.6,0,9.5
	C83.8,572.5,87.9,572.6,90.3,570.8z M660.7,571c2.8-2.2,2.9-5.7,0.2-8.9c-2.9-3.4-5.5-3.7-8.5-0.9c-2.1,2-2.9,6.6-1.4,8.7
	C652.5,572.2,658.3,572.8,660.7,571z M81.6,555.7c3.7-3.3,0.5-11.5-4.4-11.5c-2.8,0-6.9,3.4-6.9,5.7c0,2.1,1.7,5.6,3.2,6.6
	C75.3,557.8,79.9,557.3,81.6,555.7z M669.1,556.4c5.9-2.2,2.7-12.1-3.9-12.1c-5.5,0-8,10.4-2.9,12.3
	C664.5,557.4,666.7,557.4,669.1,556.4z M73.8,539.5c1.9-1.9,1.3-6.7-1.1-9c-3.2-3-6.9-2.3-9.2,1.6c-1.5,2.6-1.6,3.4-0.6,5.8
	c1,2.5,1.5,2.8,5.5,2.8C70.8,540.6,73.2,540.1,73.8,539.5z M680,538.2c1.7-4.6-1.4-9.7-6-9.7c-2.9,0-6.1,3.7-6.1,6.9
	c0,4,1.5,5.1,6.7,5.1C678.6,540.6,679.2,540.3,680,538.2z M66.6,521.6c1.7-5-0.8-8.8-5.8-8.8c-4.9,0-7.8,5.6-5.3,10.3
	c0.7,1.4,2,1.8,5.5,1.8C65.4,524.8,65.6,524.7,66.6,521.6z M687.4,521.7c1.9-5.8-1.9-10-7.8-8.6c-3,0.7-4.5,5.1-3.2,8.9
	c0.9,2.6,1.3,2.8,5.4,2.8C686.1,524.8,686.4,524.6,687.4,521.7z M59.9,505.1c1-2.1,1-3-0.2-5.3c-2.5-4.8-8.2-5.1-10.9-0.4
	c-1.4,2.4-1.5,3.4-0.6,5.8c1,2.9,1.2,3,5.8,2.7C58.1,507.7,58.9,507.3,59.9,505.1z M694.6,505.1c1-2.1,1-3-0.2-5.3
	c-2.5-4.8-8.2-5.1-10.9-0.4c-1.4,2.4-1.5,3.4-0.6,5.8c1,2.9,1.2,3,5.8,2.7C692.8,507.7,693.6,507.3,694.6,505.1z M53.6,488.2
	c1.7-5-0.8-8.8-5.8-8.8c-4.9,0-7.8,5.6-5.3,10.3c0.7,1.4,2,1.8,5.5,1.8C52.4,491.4,52.6,491.2,53.6,488.2z M700.4,488.2
	c1.7-5-0.8-8.8-5.8-8.8c-4.9,0-7.8,5.6-5.3,10.3c0.7,1.4,2,1.8,5.5,1.8C699.1,491.4,699.4,491.2,700.4,488.2z M47.6,473.4
	c2.4-1.8,2.4-7.7,0-9.5c-4.4-3.2-10.7-0.4-10.7,4.7C36.9,473.8,43.2,476.6,47.6,473.4z M703.9,473.2c4.6-3.2,1.6-10.6-4.4-10.6
	c-2.9,0-4.1,0.8-5.5,3.5C690.9,471.9,698.2,477.2,703.9,473.2z M44.7,453.1c0.8-3,0.6-3.8-1.3-5.8c-2.4-2.6-4.3-2.9-7.9-1.2
	c-2.9,1.3-3.8,4.6-2.3,8.3c1.1,2.7,1.4,2.8,5.9,2.5C43.8,456.6,43.9,456.5,44.7,453.1z M709.7,454.7c2.6-6.8-4.9-12.6-10.1-7.8
	c-1.2,1.1-2,3-2,4.6c0,5,0.7,5.6,6.2,5.6C708.3,457,708.9,456.8,709.7,454.7z M41.6,436.1c1-2.9,0.9-3.7-0.7-5.8
	c-3.8-5-11.4-2.7-11.4,3.5c0,5,0.7,5.6,6.1,5.6C40.4,439.4,40.5,439.3,41.6,436.1z M712.4,437.6c2.6-4.8-1-10.7-6.1-10.1
	c-3.8,0.4-6.3,5-4.9,9c1,2.7,1.3,2.9,5.5,2.9C710.5,439.4,711.7,439,712.4,437.6z M38.7,418.6c1.9-5.8-1.9-10-7.8-8.6
	c-3,0.7-4.5,5.1-3.2,8.9c0.9,2.6,1.3,2.8,5.4,2.8C37.5,421.8,37.7,421.6,38.7,418.6z M715.2,418.6c2-5.9-1.9-10-8.1-8.5
	c-3.1,0.8-3.9,2-3.9,5.8c0,5.2,0.6,5.9,6,5.9C714,421.8,714.2,421.7,715.2,418.6z M36.9,402.3c2.1-2.1,2.2-2.5,0.9-6.3
	c-0.7-2-1.8-3-3.7-3.5c-3-0.7-6.5,0.2-7.6,1.8c-1.4,2.1-0.8,7.9,0.9,8.8C30.1,404.7,34.9,404.3,36.9,402.3z M715.5,402.8
	c3.8-2.9,0.6-10.8-4.3-10.8c-3.7,0-5,0.9-6.1,4.3c-1.5,4.7,0.6,7.8,5.4,7.7C712.3,404.1,714.6,403.5,715.5,402.8z M36.9,383.1
	c1-2.9,0.9-3.7-0.7-5.8c-4.9-6.6-14.3,0.1-10.4,7.4c0.7,1.4,2,1.8,5.5,1.8C35.7,386.5,35.9,386.4,36.9,383.1z M717.1,383.1
	c1-2.9,0.9-3.7-0.7-5.8c-4.9-6.6-14.3,0.1-10.4,7.4c0.7,1.4,2,1.8,5.5,1.8C715.9,386.5,716.1,386.4,717.1,383.1z M35.9,368
	c4.1-2.2,2.8-9.7-1.9-10.7c-2.9-0.6-6.5,0.2-7.5,1.8c-1.2,1.8-0.8,6.9,0.7,8.4C28.9,369,33.4,369.3,35.9,368z M715.4,367.3
	c3.8-3.4,0.7-10.5-4.6-10.5c-3.3,0-4.5,0.9-5.7,4c-0.8,2-0.7,3.2,0.4,5.3c1.2,2.3,2,2.7,4.8,2.7
	C712.2,368.9,714.5,368.2,715.4,367.3z M38.7,348.1c1.9-5.8-1.9-10-7.8-8.6c-3,0.7-4.5,5.1-3.2,8.9c0.9,2.6,1.3,2.8,5.4,2.8
	C37.5,351.2,37.7,351.1,38.7,348.1z M715.2,348.1c2-5.9-1.9-10-8.1-8.5c-3.1,0.8-3.9,2-3.9,5.8c0,5.2,0.6,5.9,6,5.9
	C714,351.2,714.2,351.1,715.2,348.1z M41.4,330.5c2.6-5.4-1.8-10.1-8-8.5c-3.1,0.8-3.9,2-3.9,5.8c0,4.2,2.2,6,6.8,5.7
	C39.5,333.2,40.4,332.7,41.4,330.5z M711.7,332.1c3.8-3.4,0.7-10.5-4.6-10.5c-3.3,0-4.5,0.9-5.7,4c-0.8,2-0.7,3.2,0.4,5.3
	c1.2,2.3,2,2.7,4.8,2.7C708.5,333.6,710.8,332.9,711.7,332.1z M44.3,312.8c1.3-4.1,0-7.8-3.2-8.6c-6-1.5-9.8,2.7-7.9,8.5
	c1,3,1.2,3.1,5.5,3.1C43,316,43.3,315.8,44.3,312.8z M709.6,312.8c2-6-2.4-10.4-8.5-8.4c-2.7,0.9-3.5,2.1-3.5,5.7
	c0,5.2,0.6,5.9,6,5.9C708.4,316,708.6,315.9,709.6,312.8z M49,295.9c1.7-4.6-1.4-9.7-6-9.7c-2.9,0-6.1,3.7-6.1,6.9
	c0,4,1.5,5.1,6.7,5.1C47.6,298.3,48.2,298,49,295.9z M704.9,297.2c1.9-1.9,1.3-6.7-1.1-9c-3.2-3-6.9-2.3-9.2,1.6
	c-1.5,2.6-1.6,3.4-0.6,5.8c1,2.5,1.5,2.8,5.5,2.8C701.8,298.3,704.2,297.8,704.9,297.2z M53.2,279.4c2-3,1.4-6-1.6-8.2
	c-4.3-3.2-10.1-0.3-10.1,5.1c0,3.6,2.2,5.3,6.7,5.3C50.9,281.6,52.1,281.1,53.2,279.4z M700,279.4c2-3,1.4-6-1.6-8.2
	c-4.3-3.2-10.1-0.3-10.1,5.1c0,3.6,2.2,5.3,6.7,5.3C697.7,281.6,698.8,281.1,700,279.4z M59.5,261.9c1.8-2.4,1.8-2.7,0.4-5.1
	c-4.7-7.8-15.5-2.6-11.3,5.5c1.3,2.5,1.8,2.7,5.2,2.5C56.7,264.5,58.1,263.8,59.5,261.9z M694.2,261.9c1.8-2.4,1.8-2.7,0.4-5.1
	c-4.7-7.8-15.5-2.6-11.3,5.5c1.3,2.5,1.8,2.7,5.2,2.5C691.4,264.5,692.8,263.8,694.2,261.9z M66.6,244.9c1-2.9,0.9-3.7-0.7-5.8
	c-4.9-6.6-14.3,0.1-10.4,7.4c0.7,1.4,2,1.8,5.5,1.8C65.4,248.2,65.6,248.1,66.6,244.9z M687.4,244.9c1-2.9,0.9-3.7-0.7-5.8
	c-2.7-3.6-7.4-3.4-9.7,0.4c-1.4,2.4-1.5,3.4-0.7,5.8c1,2.7,1.3,2.9,5.5,2.9C686.2,248.2,686.4,248.1,687.4,244.9z M74,230.6
	c1.7-3.1,1.1-7.2-1.1-8.8c-5.9-4.1-12.2,0.6-10,7.4c1,3.1,1.2,3.2,5.6,3.2C72,232.4,73.3,232,74,230.6z M679.9,229.3
	c1.5-4.6,0-7.8-4.1-8.5c-4.5-0.8-7.9,1.4-7.9,5.2c0,5,1.4,6.4,6.5,6.4C678.7,232.4,679,232.3,679.9,229.3z M81.5,215.7
	c4.3-2.3,0.6-11.1-4.6-11.1c-3.2,0-4.4,0.9-5.6,4c-1.6,4.2,0.9,8.1,5.1,8.1C78.2,216.6,80.5,216.2,81.5,215.7z M669.7,215.7
	c4.1-2.2,2.8-9.7-1.9-10.7c-2.9-0.6-6.5,0.2-7.5,1.8c-1.2,1.8-0.8,6.9,0.7,8.4C662.7,216.8,667.2,217.1,669.7,215.7z M90.8,200.3
	c1.9-2.2,1.5-7.8-0.5-9.3c-2.3-1.7-6.5-1.6-8.3,0.2c-1.7,1.7-1.9,6.2-0.5,8.8C82.7,202.3,89,202.5,90.8,200.3z M661.5,200.3
	c1.6-1.9,1.6-7.4,0.1-9c-1.7-1.7-9.3-1.5-10.4,0.2c-1.4,2.2-1.1,7.1,0.6,8.8C653.7,202.3,659.9,202.2,661.5,200.3z M101.1,185.4
	c2.4-2.2,2.2-7.3-0.4-9.1c-6.1-4.3-12.9,1.3-9.6,7.8c1.2,2.4,2,2.8,4.8,2.8C97.9,186.9,100.2,186.3,101.1,185.4z M650.8,185.7
	c2-1.5,2.4-7.3,0.6-9.2c-1.7-1.7-9.3-1.5-10.4,0.2c-1.4,2.2-1.1,7.1,0.6,8.8C643.3,187.3,648.4,187.4,650.8,185.7z M112.2,171.5
	c1.9-2.2,1.5-7.8-0.5-9.3c-2.3-1.7-6.1-1.6-8.6,0.2c-2.5,1.8-2.8,6.4-0.5,8.9C104.4,173.5,110.4,173.6,112.2,171.5z M640.2,171.5
	c1.9-2.2,1.5-7.8-0.5-9.3c-2.3-1.7-6.1-1.6-8.6,0.2c-2.5,1.8-2.8,6.4-0.5,8.9C632.4,173.5,638.4,173.6,640.2,171.5z M124.5,156.1
	c1.9-5.4-2.4-10.1-8.1-8.7c-3.1,0.8-4.7,5.1-3.3,9c0.9,2.7,1.2,2.8,5.7,2.6C123.1,158.7,123.7,158.4,124.5,156.1z M629.8,156
	c1.9-5.9-2.5-10.3-8.5-8.4c-2.7,0.9-3.5,2.1-3.5,5.7c0,5.2,0.6,5.9,6,5.9C628.6,159.1,628.8,159,629.8,156z M136.2,144.3
	c3-5.7-0.7-11-6.8-9.9c-3.4,0.6-4.3,1.9-4.3,6.1c0,4.8,0.8,5.6,5.6,5.6C134.2,146.1,135.4,145.7,136.2,144.3z M617.2,144.6
	c0.3-0.8,0.6-3.1,0.6-5.1c0-3.1-0.4-3.8-2.5-4.6c-3.2-1.2-8.2-0.3-9,1.6c-0.7,1.9-0.7,6.3,0,8.2
	C607.1,146.7,616.4,146.7,617.2,144.6z M148.4,132.5c5-4.5-2.5-13.4-8.2-9.8c-2.3,1.5-3.1,5.7-1.7,8.6c1.2,2.3,2,2.7,4.8,2.7
	C145.2,134,147.5,133.4,148.4,132.5z M603,133.1c1.9-1,2.5-6.7,1-9.1c-1.3-2-7.9-2.5-9.7-0.7c-1.8,1.8-2,6.2-0.6,8.9
	C594.8,134.3,600,134.7,603,133.1z M162,121.5c4.3-3,1.1-11.5-4.3-11.5c-5.7,0-9,8.4-4.6,11.5c1.1,0.8,3.1,1.4,4.4,1.4
	S160.8,122.3,162,121.5z M589.5,121.6c2.3-1.7,2.3-7.3,0-9.8c-3.7-4.1-10.7-0.7-10.7,5.2C578.8,122,585.2,124.8,589.5,121.6z
	 M176.3,110.2c2.4-2.2,2.2-7.3-0.4-9.1c-6.1-4.3-12.9,1.3-9.6,7.8c1.2,2.4,2,2.8,4.8,2.8C173,111.8,175.3,111.1,176.3,110.2z
	 M575.1,110.9c2.2-1.2,3.1-4.8,1.9-7.8c-1.2-3.1-6.5-4.2-9.8-2.1c-2.8,1.8-3.2,6.4-0.8,9.1C568.1,111.9,572.4,112.3,575.1,110.9z
	 M191.8,98.4c1.3-4.1,0-7.8-3.2-8.6c-6-1.5-9.8,2.7-7.9,8.5c1,3,1.2,3.1,5.5,3.1C190.6,101.6,190.9,101.4,191.8,98.4z M562.1,98.4
	c1.3-4.1,0-7.8-3.2-8.6c-6-1.5-9.8,2.7-7.9,8.5c1,3,1.2,3.1,5.5,3.1C560.8,101.6,561.1,101.4,562.1,98.4z M206.7,89.8
	c2.5-3.2,2.4-4.4-0.7-7.9c-2.5-2.8-2.7-2.9-6-1.7c-4.5,1.6-6,5.1-4,9.1c1.3,2.5,2,2.9,5.1,2.9C203.9,92.3,205.2,91.7,206.7,89.8z
	 M545.9,91c2-1.5,2.4-7.3,0.6-9.2c-1.7-1.7-9.3-1.5-10.4,0.2c-1.4,2.2-1.1,7.1,0.5,8.8C538.5,92.6,543.5,92.7,545.9,91z M221.7,82.4
	c3.9-3.5,0.7-10.5-4.7-10.5c-5,0-7.6,4.6-5.2,9.2c1.2,2.4,2,2.8,4.8,2.8C218.5,83.9,220.8,83.2,221.7,82.4z M530.7,82.4
	c1.9-2.3,1.5-7.8-0.6-9.4c-2.1-1.6-8.6-1.1-9.8,0.8c-1.3,2-0.9,7,0.6,8.6C522.8,84.4,529.1,84.4,530.7,82.4z M237.6,75.3
	c2.8-2.2,2.9-5.7,0.2-8.9c-2.9-3.4-5.5-3.7-8.5-0.9c-2.1,2-2.9,6.6-1.4,8.7C229.4,76.6,235.2,77.2,237.6,75.3z M513.4,75.6
	c5.3-2,1.7-12.1-4.2-12.1c-3.2,0-5.5,3-5.5,7.1C503.7,75.8,507.6,77.8,513.4,75.6z M254.2,67.5c3.8-3.4,0.7-10.5-4.6-10.5
	c-3.3,0-4.5,0.9-5.7,4c-0.8,2-0.7,3.2,0.4,5.3c1.2,2.3,2,2.7,4.8,2.7C251,69.1,253.3,68.4,254.2,67.5z M497.1,68.2
	c4.1-2.2,2.8-9.7-1.9-10.7c-2.9-0.6-6.5,0.2-7.5,1.8c-1.2,1.8-0.8,6.9,0.7,8.4C490.1,69.3,494.6,69.5,497.1,68.2z M270.8,62.5
	c1.4-0.7,1.8-2,1.8-5.1c0-3.7-0.3-4.3-2.5-5.1c-3.2-1.2-8.2-0.3-9,1.6c-1,2.7-0.6,6.7,0.9,8.2C263.7,63.7,268.2,64,270.8,62.5z
	 M481.7,60.5c1.6-2.2,1.7-2.8,0.7-5.4c-1.6-3.9-3.9-5-7.9-3.7c-4.2,1.4-5.6,5.9-3.2,10.3C472.8,64.6,479.2,63.9,481.7,60.5z
	 M287.9,57.6c2.6-1.9,2.4-7.7-0.4-10c-2.8-2.3-5.7-2.2-8.3,0.2c-2,1.9-2.7,6.7-1.3,8.9C279.5,59,285.3,59.5,287.9,57.6z M463.2,57.7
	c0.9-0.6,1.8-2.7,2.1-4.5c0.4-2.7,0.1-3.7-1.6-5.3c-2.4-2.2-4.3-2.5-7.8-0.9c-5.7,2.6-3.3,11.9,3.1,11.9
	C460.4,58.9,462.3,58.3,463.2,57.7z M305.2,53.3c1.4-0.7,1.8-2,1.8-5.1c0-3.6-0.3-4.3-2.4-5.1c-5.7-2.2-9.7-0.2-9.7,4.8
	c0,4.5,1.5,6.4,5.2,6.4C301.9,54.2,304.2,53.8,305.2,53.3z M446.6,52.9c2-1.5,2.4-7.3,0.6-9.2c-1.7-1.7-9.3-1.5-10.4,0.2
	c-1.4,2.2-1.1,7.1,0.6,8.8C439.2,54.6,444.3,54.7,446.6,52.9z M322.5,50c2.9-2,2.8-6.8-0.2-9.6c-3.1-3-6.9-2.3-9.2,1.5
	C309.4,48.4,316.3,54.4,322.5,50z M429.8,49.6c1.8-1.8,1.1-7.6-1.2-9.4c-4.5-3.6-10.3-0.8-10.3,5c0,3.4,0.7,4.8,2.8,5.6
	C423,51.6,428.6,50.8,429.8,49.6z M340.5,47.1c3.7-3.4,0.8-10.5-4.2-10.5c-3.5,0-4.6,0.7-6.1,3.5C327.1,46,335.5,51.7,340.5,47.1z
	 M412.1,46.8c1.3-1.3,1.2-7.2-0.2-8.6c-1.7-1.7-9.3-1.5-10.4,0.2c-1,1.7-1.2,6.5-0.2,8c0.4,0.6,1.3,1.3,2.1,1.6
	C405.3,48.8,411,48,412.1,46.8z M357.5,46.8c2.1-0.8,2.4-1.5,2.4-5.1c0-3.2-0.5-4.5-2.1-5.6c-4.9-3.4-10-0.5-10,5.7
	C347.8,47,351.7,49,357.5,46.8z M392.7,46.8c2.1-0.8,2.4-1.5,2.4-5.1c0-4.5-2.2-7-6.2-7c-4.3,0-7.6,7-5.1,10.8
	C385.2,47.7,389,48.2,392.7,46.8z M375.8,45.3c2.6-2.3,2.2-7.3-0.6-9.2c-2.7-1.8-8.3-1.1-9.2,1.1c-1,2.7-0.6,6.7,0.9,8.2
	C368.8,47.2,373.6,47.2,375.8,45.3z"/>
</svg>
