<svg version="1" xmlns="http://www.w3.org/2000/svg" viewBox="0 -19.275 201 99" overflow="visible">
  <path d="M35.703 76.116v-9.02h.984v7.96h3.64v1.06m.253 0l2.85-9.02h1.05l3.016 9.02h-1.12l-.85-2.734h-3.118l-.8 2.734h-1.03zm2.113-3.704h2.533l-.775-2.5c-.23-.766-.41-1.39-.52-1.87-.09.58-.23 1.153-.4 1.724l-.82 2.646zm10.12 3.704v-7.962h-2.43v-1.06h5.856v1.06h-2.45v7.962m3.29 0v-9.02h3.27c.68 0 1.19.083 1.51.252s.59.448.8.84c.21.393.31.846.31 1.364 0 .68-.18 1.233-.53 1.657-.36.42-.87.69-1.55.8.27.16.48.33.63.49.29.34.54.73.76 1.15l1.28 2.45h-1.23l-.99-1.87c-.39-.74-.67-1.23-.87-1.49-.198-.26-.38-.43-.567-.52-.18-.09-.435-.14-.76-.14h-1.12v4.01h-.98zm.98-5.04h2.1c.46 0 .81-.055 1.04-.167.23-.11.42-.29.56-.53.14-.24.21-.52.21-.83 0-.46-.13-.82-.4-1.08-.27-.26-.66-.39-1.19-.39h-2.33v2.98zm6.55-3.98h.98v9.02h-.98zm2.59 9.02v-9.02h5.34v1.058h-4.36v2.77h4.09v1.06h-4.09v3.073h4.53v1.06m1.2 0v-9.02h1.01l3.88 7.097v-7.1h.93v9.022h-1l-3.88-7.088v7.088m6.39 0v-9.02h1l3.88 7.098v-7.1h.93v9.022h-1l-3.87-7.088v7.088m5.62 0l2.84-9.02h1.05l3.012 9.02H93.6l-.85-2.734h-3.11l-.804 2.734h-1.02zm2.11-3.704h2.53l-.78-2.5c-.24-.766-.414-1.39-.526-1.87-.098.58-.23 1.153-.407 1.724l-.828 2.646zm5.41 3.704v-9.02h.98v7.96h3.64v1.06m1.083 0v-9.02h5.35v1.058h-4.36v2.77h4.095v1.06h-4.1v3.073h4.54v1.06m3.97 0v-9.02h2.55c.63 0 1.11.053 1.44.165.43.142.8.405 1.116.786.315.383.56.863.736 1.444.18.58.264 1.27.264 2.065 0 1.02-.15 1.887-.45 2.6-.3.71-.68 1.215-1.15 1.513-.47.298-1.084.446-1.844.446h-2.667zm.98-1.06h1.57c.64 0 1.12-.103 1.45-.31.323-.21.576-.544.75-1.003.233-.61.35-1.346.35-2.2 0-.917-.125-1.637-.37-2.16-.247-.525-.567-.874-.956-1.053-.26-.11-.68-.17-1.245-.17h-1.55v6.91zm6.564-7.962h.98v9.022h-.983zm5.29 9.02v-9.02h1.474l1.75 6.387.35 1.336c.082-.332.215-.815.39-1.446l1.77-6.277h1.32v9.02h-.944v-7.583l-2.15 7.584h-.88l-2.134-7.708v7.708h-.944zm8.696-9.02h.98v9.022h-.98zm2.515 9.02v-9.02h.98v7.96h3.64v1.06m.252 0l2.85-9.02h1.05l3.02 9.02h-1.12l-.85-2.733h-3.12l-.8 2.734h-1.03zm2.114-3.703h2.54l-.77-2.5c-.24-.766-.417-1.39-.528-1.87-.1.58-.23 1.153-.41 1.724l-.824 2.646zm5.44 3.704v-9.02H148l3.88 7.098v-7.1h.93v9.022h-1l-3.87-7.088v7.088m6.16-4.39c0-1.537.335-2.718 1.01-3.544.676-.825 1.52-1.238 2.53-1.238.65 0 1.25.184 1.785.553.54.368.97.905 1.28 1.608.32.702.477 1.54.477 2.51 0 1.336-.31 2.423-.92 3.263-.67.926-1.547 1.39-2.63 1.39-1.095 0-1.97-.476-2.636-1.426-.605-.86-.905-1.9-.905-3.117m1.01.015c0 1.112.247 1.974.74 2.587.49.614 1.085.92 1.79.92.72 0 1.32-.31 1.8-.93.49-.618.73-1.528.73-2.73 0-.775-.124-1.468-.375-2.078-.195-.47-.486-.85-.874-1.13s-.81-.42-1.28-.42c-.74 0-1.35.3-1.826.92-.48.61-.717 1.56-.717 2.85M44.14 14.88v7.194h-3.47l.008-7.193c0-.96.775-1.73 1.73-1.73.96 0 1.737.78 1.737 1.74M40.67 34.97l.008-8.677c0-.96.773-1.737 1.73-1.737.96 0 1.737.776 1.737 1.737l-.002 8.67H40.67zM5.457 26.29l-.002 8.676h-3.47l.005-8.677c0-.97.774-1.74 1.73-1.74.96 0 1.736.77 1.736 1.73m0-11.41l-.002 7.19h-3.47l.005-7.2c0-.96.77-1.74 1.73-1.74s1.73.78 1.73 1.74M46.12 47.1V9.173h-7.44v25.79H7.44V9.18H0v37.94h16.864v29.264h12.402V47.12h16.862z"/>
  <path d="M30.256 34.968V5.704H15.87v29.264h1.49V12.4c0-3.15 2.553-5.703 5.704-5.703 3.15 0 5.706 2.553 5.706 5.704l-.002 22.57h1.488z"/>
  <path d="M25.794 24.552l-.004 1.487h-1.985v-1.49h1.99zm0-.99h-5.46V12.647h5.46V23.56zm-5.46.99h1.982v1.49h-1.982v-1.49zm6.947-12.154c0-2.328-1.89-4.214-4.21-4.214-2.33 0-4.21 1.886-4.21 4.214v22.568h1.49V28.52c0-.547.45-.992.99-.992s.99.445.99.993v6.45h1.49v-6.45c0-.54.45-.99.99-.99.55 0 1 .45 1 1v6.45h1.49V12.4zm4.47-6.692h2.48V22.57h-2.48zm0 17.854h2.48v1.986h-2.48zm-19.84 0h2.48v1.986h-2.48zm0-17.854h2.48V22.57h-2.48zm-2.98-.002h1.49v29.262H8.93zm26.79 0h1.48v29.262h-1.48zM8.93 2.728H37.2v1.24H8.93zM8.93 0H37.2v1.24H8.93zm29.758 6.697h7.44v.99h-7.44z"/>
  <path d="M38.688 6.697h7.44v.99h-7.44z"/>
  <path d="M38.688 6.697h7.44v.99h-7.44z"/>
  <path d="M38.688 6.697h7.44v.99h-7.44zM0 6.695h7.442v.993H0z"/>
  <path d="M0 6.695h7.442v.993H0z"/>
  <path d="M0 6.695h7.442v.993H0z"/>
  <path d="M0 6.695h7.442v.993H0zm14.388 21.08l-.004 7.193h-2.48v-7.193c0-.684.556-1.238 1.24-1.238.687 0 1.244.554 1.244 1.238m19.768 0l-.002 7.193h-2.48v-7.193c0-.684.555-1.238 1.24-1.238.685 0 1.242.554 1.242 1.238"/>
</svg>
