<svg xmlns="http://www.w3.org/2000/svg" viewBox="46.138 0 7.725 8" enable-background="new 46.138 0 7.725 8">
  <title>external link - noun_325199_cc</title>
  <path d="M53.862 1.984l-1.973-1.984v1.185c-.529.004-.917.125-1.172.242h-4.579v6.573h6.573v-4.857l1.151-1.159zm-1.944-.526l.103.001.143.004v-.8l1.313 1.32-.766.77-.131.13-.417.42v-.765l-.104-.025-.264-.033c-.441-.022-1.354.073-2.108 1.068.018-.38.138-.975.64-1.497l.201-.188.018-.014.001-.001.015-.012.01-.007.017-.012.019-.014.016-.011.034-.022.01-.007c.198-.118.609-.305 1.25-.305zm.52 1.96v4.31h-6.026v-6.026h3.883l-.027.024-.048.044-.051.048-.043.045-.047.049-.041.045-.042.051-.037.045-.04.051-.034.045-.036.051-.031.045-.033.052-.027.045-.03.052-.024.045-.027.052-.022.044-.024.052-.02.043-.022.052-.016.042-.019.052-.015.041-.017.052-.012.041-.014.051-.011.04-.012.051-.008.037-.009.051-.007.035-.008.049-.005.033-.007.048-.004.031-.005.047-.003.03-.004.047-.001.027-.003.044-.001.026-.001.042v.082l.001.039v.019l.001.036.001.016.003.033.001.014.002.031.001.01.003.027.001.007.004.026v.003l.005.036v.012l.068.352.184-.308c.742-1.248 1.75-1.311 2.143-1.28l.059.005v1.207l.554-.548z"/>
</svg>
