<svg xmlns="http://www.w3.org/2000/svg"  viewBox="46 0 5 8">
  <path d="M53.158 3.673c-.058-.098-.158-.152-.278-.152-.226.001-.497.09-.71.233-.195.131-.478.376-.716.793-.045.079-.118.131-.198.144v-.058l-.001-.146v-2.997c0-.299-.243-.542-.542-.542-.299 0-.542.242-.542.542v2.099l-.068.068-.067-.068v-3.047c0-.3-.243-.542-.542-.542s-.542.242-.542.542v3.047l-.068.068-.068-.068v-2.438c0-.262-.212-.474-.474-.474-.261 0-.474.212-.474.474v2.709l-.068.068-.068-.068v-1.693c0-.261-.212-.474-.475-.474-.262 0-.474.213-.474.474v3.684c.133 1.893 1.293 2.149 2.413 2.149.928 0 1.761-.461 2.171-1.194l.365-.575c.424-.666.779-1.225.83-1.325.117-.221.248-.394.377-.5.118-.096.189-.218.248-.325.03-.059.057-.263-.029-.408zm-1.933 1.029l-.005.13-.013-.135.018.005zm1.717-.739c-.054.099-.106.176-.173.231-.16.13-.311.326-.446.583-.052.098-.513.826-.819 1.304l-.369.584c-.366.654-1.108 1.062-1.937 1.062-1.429.001-2.049-.548-2.143-1.886v-3.674c0-.112.09-.203.205-.203.112 0 .203.091.203.203v1.693c0 .187.151.338.338.338s.339-.151.339-.338v-2.709c0-.113.091-.203.203-.203.113 0 .203.09.203.203v2.438c0 .187.152.339.339.339s.338-.152.338-.339v-3.047c0-.149.122-.271.271-.271s.271.122.271.271v3.047c0 .187.151.339.338.339s.339-.152.339-.339v-2.099c0-.149.122-.271.271-.271s.271.122.271.271v3.002l.001.142c0 .121 0 .208.065.272.054.054.121.061.182.06.184-.004.359-.112.457-.283.213-.372.462-.587.634-.704.167-.112.386-.187.56-.187l.039.014.02.157z"/>
</svg>
