<svg version="1.1" xmlns="http://www.w3.org/2000/svg" viewBox="46.896 0 6.207 8">
  <g>
  	<path d="M53.027,1.681l-0.105-0.106l-1.394-1.393l-0.106-0.106C51.374,0.027,51.308,0,51.24,0h-4.004
  		c-0.163,0-0.339,0.127-0.339,0.404v4.975V7.66v0.064c0,0.115,0.116,0.227,0.254,0.264c0.007,0,0.014,0.004,0.021,0.005
  		C47.192,7.997,47.214,8,47.236,8h5.527c0.022,0,0.044-0.003,0.066-0.007c0.007-0.001,0.014-0.005,0.021-0.005
  		c0.139-0.037,0.254-0.148,0.254-0.264V7.66V5.379V1.928C53.104,1.822,53.091,1.744,53.027,1.681z M52.612,1.655h-1.164V0.491
  		L52.612,1.655z M47.236,7.725c-0.01,0-0.018-0.004-0.027-0.008c-0.021-0.01-0.036-0.031-0.036-0.057V5.655h5.656V7.66
  		c0,0.025-0.016,0.047-0.037,0.057c-0.008,0.004-0.018,0.008-0.027,0.008H47.236z M47.172,5.379V0.404
  		c0-0.03,0.004-0.128,0.063-0.128l3.946-0.005c-0.005,0.019-0.01,0.039-0.01,0.059v1.602h1.602c0.018,0,0.036-0.003,0.055-0.008
  		c0,0.001,0,0.002,0,0.005v3.451H47.172z"/>
  	<path d="M49.04,6.171c-0.045-0.037-0.098-0.065-0.156-0.085c-0.058-0.02-0.116-0.029-0.175-0.029h-0.4v1.392h0.226V6.946h0.168
  		c0.073,0,0.139-0.011,0.2-0.032c0.061-0.021,0.112-0.051,0.155-0.091c0.042-0.038,0.076-0.087,0.099-0.145s0.036-0.122,0.036-0.192
  		c0-0.065-0.014-0.127-0.042-0.18C49.122,6.252,49.085,6.209,49.04,6.171z M48.955,6.631c-0.014,0.038-0.032,0.066-0.055,0.09
  		c-0.023,0.021-0.047,0.037-0.075,0.045c-0.027,0.01-0.054,0.014-0.081,0.014h-0.207V6.229h0.169c0.058,0,0.105,0.01,0.14,0.027
  		c0.034,0.019,0.062,0.042,0.081,0.068c0.02,0.027,0.032,0.055,0.039,0.086c0.007,0.028,0.01,0.055,0.01,0.078
  		C48.975,6.545,48.968,6.592,48.955,6.631z"/>
  	<path d="M50.407,6.262c-0.058-0.062-0.132-0.109-0.221-0.147c-0.088-0.037-0.191-0.056-0.309-0.056h-0.419v1.39h0.525
  		c0.018,0,0.044-0.003,0.082-0.007c0.036-0.004,0.077-0.014,0.121-0.03c0.044-0.015,0.09-0.04,0.137-0.07s0.09-0.075,0.127-0.13
  		s0.069-0.123,0.093-0.204c0.025-0.081,0.037-0.179,0.037-0.294c0-0.082-0.014-0.164-0.042-0.242
  		C50.509,6.395,50.466,6.324,50.407,6.262z M50.243,7.135c-0.067,0.098-0.178,0.148-0.333,0.148h-0.225V6.23h0.132
  		c0.107,0,0.196,0.014,0.264,0.043c0.067,0.029,0.121,0.064,0.161,0.111s0.066,0.097,0.08,0.153s0.021,0.114,0.021,0.171
  		C50.345,6.895,50.311,7.037,50.243,7.135z"/>
  	<polygon points="50.91,7.448 51.141,7.448 51.141,6.822 51.721,6.822 51.721,6.668 51.141,6.668 51.141,6.23 51.779,6.23
  		51.779,6.059 50.91,6.059 	"/>
  	<path d="M51.301,3.167c-0.127,0-0.283,0.017-0.463,0.05c-0.253-0.268-0.517-0.66-0.703-1.043c0.185-0.776,0.092-0.887,0.051-0.938
  		c-0.042-0.055-0.104-0.145-0.174-0.145c-0.029,0-0.109,0.014-0.141,0.023c-0.079,0.026-0.121,0.087-0.156,0.167
  		c-0.098,0.228,0.036,0.617,0.174,0.916c-0.117,0.468-0.314,1.027-0.523,1.483c-0.522,0.24-0.8,0.474-0.825,0.699
  		c-0.01,0.082,0.01,0.201,0.154,0.309c0.039,0.029,0.086,0.045,0.134,0.045l0,0c0.12,0,0.243-0.092,0.383-0.291
  		c0.104-0.145,0.214-0.342,0.328-0.586c0.37-0.161,0.826-0.308,1.218-0.389c0.219,0.209,0.414,0.314,0.581,0.314
  		c0.124,0,0.229-0.057,0.306-0.164c0.08-0.112,0.098-0.213,0.055-0.298C51.646,3.218,51.516,3.167,51.301,3.167z M48.833,4.5
  		c-0.065-0.049-0.061-0.083-0.059-0.095c0.008-0.077,0.128-0.212,0.423-0.378C48.974,4.44,48.853,4.495,48.833,4.5z M49.964,1.339
  		c0.005-0.001,0.145,0.152,0.014,0.444C49.781,1.582,49.95,1.343,49.964,1.339z M49.679,3.55c0.139-0.333,0.271-0.702,0.368-1.042
  		c0.154,0.278,0.341,0.549,0.527,0.764C50.28,3.341,49.967,3.438,49.679,3.55z M51.458,3.484c-0.043,0.059-0.136,0.061-0.167,0.061
  		c-0.073,0-0.101-0.044-0.214-0.13C51.17,3.403,51.258,3.4,51.327,3.4c0.122,0,0.145,0.018,0.161,0.028
  		C51.486,3.438,51.479,3.455,51.458,3.484z"/>
  </g>
</svg>
