<svg xmlns="http://www.w3.org/2000/svg" viewBox="45.714 0 8.571 8" enable-background="new 45.714 0 8.571 8">
  <title>quote_Q_right - noun_319994_cc</title>
  <path d="M53.429 0h-6.857c-.464 0-.857.393-.857.857v4.714c0 .464.393.857.857.857h4.08l1.386 1.524.105.048.052-.01c.056-.021.091-.074.091-.133v-1.428h1.144c.464 0 .856-.394.856-.857v-4.715c-.001-.464-.393-.857-.857-.857zm.571 5.571c0 .31-.262.571-.571.571h-1.286c-.079.001-.143.065-.143.143v1.202l-1.178-1.296-.714-.83c-.051-.06-.141-.067-.201-.016s-.067.142-.016.201l.511.596h-3.832c-.309.001-.57-.261-.57-.571v-4.714c0-.31.261-.571.571-.571h6.857c.31 0 .571.262.571.571v4.714z"/></svg>
