<svg xmlns="http://www.w3.org/2000/svg"  viewBox="45.714 0 8.571 8" enable-background="new 45.714 0 8.571 8">
  <title>quote_Q_left - noun_319998_cc</title>
  <path d="M53.429 0h-6.857c-.464 0-.857.393-.857.857v4.714c0 .464.393.857.857.857h1.143v1.429c0 .059.036.111.091.133l.051.01.106-.047 1.386-1.524h4.08c.464 0 .856-.394.856-.857v-4.715c0-.464-.392-.857-.856-.857zm.571 5.571c0 .31-.262.571-.571.571h-3.832l.511-.594c.052-.06.044-.15-.016-.202s-.15-.044-.201.016l-.714.831-1.177 1.294v-1.202c0-.078-.064-.143-.143-.143h-1.286c-.31.001-.571-.261-.571-.571v-4.714c0-.31.261-.571.571-.571h6.857c.31 0 .571.262.571.571v4.714z"/>
</svg>
