<svg xmlns="http://www.w3.org/2000/svg" xmlns:xlink="http://www.w3.org/1999/xlink" viewBox="0 0 152.6541 72.3331"><defs><style>.cls-1{fill:none;}.cls-2{isolation:isolate;}.cls-3{clip-path:url(#clip-path);}.cls-4{mix-blend-mode:multiply;}.cls-5{clip-path:url(#clip-path-3);}</style><clipPath id="clip-path" transform="translate(0 -4.667)"><rect class="cls-1" width="192" height="88"/></clipPath><clipPath id="clip-path-3" transform="translate(0 -4.667)"><rect class="cls-1" x="-17" y="-8.333" width="186.655" height="86.33312"/></clipPath></defs><title>Triennale</title><g class="cls-2"><g id="Livello_1" data-name="Livello 1"><g class="cls-3"><g class="cls-3"><g class="cls-4"><g class="cls-5"><path d="M41.8045,18.7581l-0.002,6.811h-3.289l0.006-6.811a1.6425,1.6425,0,1,1,3.285,0m-3.291,19.022,0.006-8.219a1.6425,1.6425,0,1,1,3.285,0l-0.002,8.219h-3.289Zm-33.346-8.219-0.002,8.219H1.8785l0.005-8.219a1.642,1.642,0,1,1,3.284,0m0-10.803-0.002,6.811H1.8785l0.005-6.811a1.642,1.642,0,1,1,3.284,0m38.514,30.53V13.3571h-7.045v24.423H7.0465V13.3571H0.0005v35.931h15.969v27.712h11.743V49.2881h15.969Z" transform="translate(0 -4.667)"/><path d="M28.6515,37.7802v-27.711H15.0295v27.711h1.409V16.4092a5.403,5.403,0,0,1,10.806,0l-0.003,21.371h1.41Z" transform="translate(0 -4.667)"/><path d="M24.4274,27.9166l-0.005,1.409h-1.88v-1.409h1.885Zm0-.94h-5.172V16.6436h5.172v10.333Zm-5.172.94h1.879v1.409h-1.879v-1.409Zm6.579-11.508a3.9935,3.9935,0,0,0-7.987,0v21.372h1.408v-6.106a0.9395,0.9395,0,0,1,1.879,0v6.106h1.408v-6.106a0.94251,0.94251,0,0,1,1.885,0l-0.005,6.106h1.41Z" transform="translate(0 -4.667)"/><rect x="30.061" y="5.402" width="2.348" height="15.97"/><rect x="30.061" y="22.31" width="2.348" height="1.879"/><rect x="11.273" y="22.31" width="2.348" height="1.879"/><rect x="11.273" y="5.402" width="2.348" height="15.97"/><rect x="8.455" y="5.402" width="1.409" height="27.711"/><rect x="33.818" y="5.402" width="1.41" height="27.711"/><rect x="8.455" y="2.583" width="26.773" height="1.175"/><rect x="8.455" width="26.773" height="1.174"/><rect x="36.637" y="6.575" width="7.045" height="0.94"/><rect x="36.637" y="6.575" width="7.045" height="0.94"/><rect x="36.637" y="6.575" width="7.045" height="0.94"/><rect x="36.637" y="6.575" width="7.045" height="0.94"/><rect y="6.576" width="7.046" height="0.939"/><path d="M13.6241,30.97l-0.003,6.81h-2.348V30.97a1.1755,1.1755,0,0,1,2.351,0" transform="translate(0 -4.667)"/><path d="M32.3445,30.97l-0.003,6.81h-2.348V30.97a1.1755,1.1755,0,0,1,2.351,0" transform="translate(0 -4.667)"/><polygon points="33.809 72.08 33.809 63.537 34.74 63.537 34.74 71.078 38.188 71.078 38.188 72.08 33.809 72.08"/><path d="M38.4258,76.7475l2.699-8.543h0.994l2.857,8.543h-1.061l-0.804-2.59h-2.952l-0.757,2.59h-0.976Zm2.002-3.508h2.398l-0.733-2.366c-0.227-.727-0.394-1.316-0.5-1.772a12.38709,12.38709,0,0,1-.384,1.633Z" transform="translate(0 -4.667)"/><polygon points="50.01 72.08 50.01 64.54 47.708 64.54 47.708 63.537 53.256 63.537 53.256 64.54 50.942 64.54 50.942 72.08 50.01 72.08"/><path d="M54.0555,76.7467v-8.542h3.103a3.25667,3.25667,0,0,1,1.436.24,1.82524,1.82524,0,0,1,.759.795,2.70711,2.70711,0,0,1,.297,1.292,2.36518,2.36518,0,0,1-.505,1.569,2.3387,2.3387,0,0,1-1.464.763,2.40419,2.40419,0,0,1,.597.47,6.01481,6.01481,0,0,1,.725,1.089l1.22,2.324h-1.164l-0.935-1.772a11.63757,11.63757,0,0,0-.819-1.405,1.61122,1.61122,0,0,0-.533-0.49,1.66245,1.66245,0,0,0-.721-0.126h-1.066v3.793h-0.93Zm0.93-4.772h1.989a2.39855,2.39855,0,0,0,.988-0.158,1.18523,1.18523,0,0,0,.536-0.495,1.53659,1.53659,0,0,0,.197-0.786,1.35425,1.35425,0,0,0-.378-1.018,1.53463,1.53463,0,0,0-1.123-.37h-2.209v2.827Z" transform="translate(0 -4.667)"/><rect x="61.187" y="63.538" width="0.93" height="8.543"/><polygon points="63.639 72.08 63.639 63.537 68.697 63.537 68.697 64.54 64.568 64.54 64.568 67.164 68.445 67.164 68.445 68.166 64.568 68.166 64.568 71.078 68.863 71.078 68.863 72.08 63.639 72.08"/><polygon points="70.003 72.08 70.003 63.537 70.956 63.537 74.632 70.26 74.632 63.537 75.514 63.537 75.514 72.08 74.567 72.08 70.897 65.368 70.897 72.08 70.003 72.08"/><polygon points="76.955 72.08 76.955 63.537 77.908 63.537 81.584 70.26 81.584 63.537 82.467 63.537 82.467 72.08 81.52 72.08 77.851 65.368 77.851 72.08 76.955 72.08"/><path d="M83.16909,76.7475l2.696-8.543h0.997l2.855,8.543h-1.058l-0.805-2.59h-2.952l-0.76,2.59h-0.973Zm2.001-3.508h2.397l-0.733-2.366c-0.226-.727-0.392-1.316-0.499-1.772a12.38647,12.38647,0,0,1-.384,1.633Z" transform="translate(0 -4.667)"/><polygon points="90.296 72.08 90.296 63.537 91.226 63.537 91.226 71.078 94.675 71.078 94.675 72.08 90.296 72.08"/><polygon points="95.7 72.08 95.7 63.537 100.76 63.537 100.76 64.54 96.63 64.54 96.63 67.164 100.508 67.164 100.508 68.166 96.63 68.166 96.63 71.078 100.926 71.078 100.926 72.08 95.7 72.08"/><path d="M104.6859,76.7468v-8.542h2.416a4.44509,4.44509,0,0,1,1.36.158,2.31309,2.31309,0,0,1,1.061.745,3.8774,3.8774,0,0,1,.697,1.367,6.68471,6.68471,0,0,1,.252,1.954,6.37423,6.37423,0,0,1-.425,2.462,3.01567,3.01567,0,0,1-1.092,1.434,3.22359,3.22359,0,0,1-1.744.422h-2.525Zm0.93-1.002h1.488a2.58542,2.58542,0,0,0,1.367-.294,1.86488,1.86488,0,0,0,.714-0.95,5.85016,5.85016,0,0,0,.333-2.084,4.85919,4.85919,0,0,0-.354-2.045,1.93354,1.93354,0,0,0-.904-0.996,3.02984,3.02984,0,0,0-1.18-.169h-1.464v6.538Z" transform="translate(0 -4.667)"/><rect x="111.829" y="63.538" width="0.93" height="8.543"/><path d="M116.8395,76.7472v-8.543h1.395l1.657,6.049,0.33,1.265c0.08-.315.206-0.772,0.372-1.37l1.676-5.944h1.251v8.543h-0.895v-7.182l-2.036,7.182h-0.833l-2.023-7.299v7.299h-0.894Z" transform="translate(0 -4.667)"/><rect x="125.075" y="63.538" width="0.93" height="8.543"/><polygon points="127.455 72.08 127.455 63.537 128.385 63.537 128.385 71.078 131.831 71.078 131.831 72.08 127.455 72.08"/><path d="M132.07079,76.7475l2.699-8.543h0.994l2.857,8.543h-1.061l-0.804-2.59h-2.953l-0.757,2.59h-0.975Zm2.001-3.508h2.399l-0.733-2.366c-0.228-.727-0.394-1.316-0.499-1.772a12.72082,12.72082,0,0,1-.386,1.633Z" transform="translate(0 -4.667)"/><polygon points="139.224 72.08 139.224 63.537 140.176 63.537 143.852 70.26 143.852 63.537 144.735 63.537 144.735 72.08 143.788 72.08 140.119 65.368 140.119 72.08 139.224 72.08"/><path d="M145.95009,72.5894a5.16664,5.16664,0,0,1,.961-3.355,2.97768,2.97768,0,0,1,2.397-1.172,2.92176,2.92176,0,0,1,1.69.523,3.51955,3.51955,0,0,1,1.21,1.523,5.79011,5.79011,0,0,1,.446,2.376,5.14117,5.14117,0,0,1-.863,3.09,2.996,2.996,0,0,1-4.984-.034,5.0061,5.0061,0,0,1-.857-2.951m0.954,0.014a3.81664,3.81664,0,0,0,.698,2.449,2.09379,2.09379,0,0,0,3.405-.008,4.1081,4.1081,0,0,0,.693-2.586,5.12971,5.12971,0,0,0-.356-1.968,2.40636,2.40636,0,0,0-.826-1.063,2.00772,2.00772,0,0,0-1.205-.399,2.10191,2.10191,0,0,0-1.73.873,4.38115,4.38115,0,0,0-.679,2.702" transform="translate(0 -4.667)"/></g></g></g></g></g></g></svg>