<?xml version="1.0" encoding="utf-8"?>
<!-- Generator: Adobe Illustrator 19.2.1, SVG Export Plug-In . SVG Version: 6.00 Build 0)  -->
<svg version="1.1" id="Livello_1" xmlns="http://www.w3.org/2000/svg" xmlns:xlink="http://www.w3.org/1999/xlink" x="0px" y="0px"
	 viewBox="0 0 130 88" enable-background="new 0 0 130 88" xml:space="preserve">
<g>
	<defs>
		<rect id="SVGID_1_" width="130" height="88"/>
	</defs>
	<clipPath id="SVGID_2_">
		<use xlink:href="#SVGID_1_"  overflow="visible"/>
	</clipPath>
	<g clip-path="url(#SVGID_2_)">
		<defs>
			<rect id="SVGID_3_" width="130" height="88"/>
		</defs>
		<clipPath id="SVGID_4_">
			<use xlink:href="#SVGID_3_"  overflow="visible"/>
		</clipPath>
		<g clip-path="url(#SVGID_4_)">
			<g>
				<defs>
					<rect id="SVGID_5_" x="-17" y="21.3442001" width="124.8290024" height="56.6559219"/>
				</defs>
				<clipPath id="SVGID_6_">
					<use xlink:href="#SVGID_5_"  overflow="visible"/>
				</clipPath>
				<polygon clip-path="url(#SVGID_6_)" points="50.358799,42.9402008 48.1577988,42.9402008 48.1577988,41.7272034 
					54.1027985,41.7272034 54.1027985,42.9402008 51.9007988,42.9402008 51.9007988,49.4142036 50.358799,49.4142036 				"/>
				<path clip-path="url(#SVGID_6_)" d="M53.5298996,43.7439003h1.3099976v1.2870026h0.0219994
					c0.0680008-0.5289993,0.6720009-1.4210014,1.5530014-1.4210014c0.144001,0,0.2970009,0,0.4500008,0.045002v1.4850006
					c-0.1310005-0.0760002-0.3959999-0.1200027-0.6599998-0.1200027c-1.1990013,0-1.1990013,1.4980011-1.1990013,2.3110008
					v2.0830002h-1.4759979V43.7439003z"/>
				<path clip-path="url(#SVGID_6_)" d="M57.5929985,43.7439995h1.4760017v5.670002h-1.4760017V43.7439995z M57.5929985,41.2989998
					h1.4760017v1.4090004h-1.4760017V41.2989998z"/>
				<path clip-path="url(#SVGID_6_)" d="M63.7372017,46.0213013c-0.045002-0.7140007-0.375-1.329998-1.2010002-1.329998
					c-0.8250008,0-1.2439995,0.5699997-1.3100014,1.329998H63.7372017z M64.7272034,49.0932999
					c-0.5390015,0.2980003-1.1550026,0.4530029-1.9490013,0.4530029c-1.8710022,0-2.9609985-1.0790024-2.9609985-2.9420013
					c0-1.6389999,0.8689995-2.9939995,2.6309967-2.9939995c2.1030006,0,2.6970024,1.4430008,2.6970024,3.4239998h-3.9190025
					c0.0660019,0.9150009,0.7040024,1.4329987,1.618,1.4329987c0.7170029,0,1.3339996-0.2659988,1.8830032-0.5739975V49.0932999z"/>
				<path clip-path="url(#SVGID_6_)" d="M65.8621979,43.7439003h1.397995v0.7700005h0.0210037
					c0.4629974-0.6499977,1.0919952-0.9039993,1.8619995-0.9039993c1.3429947,0,1.927002,0.9480019,1.927002,2.2250023v3.5789986
					h-1.477005V46.384903c0-0.6920013-0.0100021-1.6280022-0.9570007-1.6280022c-1.0680008,0-1.298996,1.1540031-1.298996,1.882
					v2.7750015h-1.4749985V43.7439003z"/>
				<path clip-path="url(#SVGID_6_)" d="M71.9285965,43.7439003h1.397995v0.7700005h0.0220032
					c0.4629974-0.6499977,1.0899963-0.9039993,1.8610001-0.9039993c1.3429947,0,1.9259949,0.9480019,1.9259949,2.2250023v3.5789986
					h-1.4749985V46.384903c0-0.6920013-0.0110016-1.6280022-0.9580002-1.6280022c-1.0670013,0-1.298996,1.1540031-1.298996,1.882
					v2.7750015h-1.4749985V43.7439003z"/>
				<path clip-path="url(#SVGID_6_)" d="M79.9779968,48.4675026c0.4499969,0,0.8030014-0.1980019,1.0340042-0.5079994
					c0.2419968-0.3190002,0.3089981-0.7260017,0.3089981-1.1690025h-0.6389999
					c-0.6610031,0-1.6409988,0.1130028-1.6409988,0.9820023C79.0410004,48.2575035,79.447998,48.4675026,79.9779968,48.4675026
					 M78.2480011,44.0415001c0.572998-0.2649994,1.3439941-0.4309998,1.9719925-0.4309998
					c1.7290039,0,2.4430008,0.7150002,2.4430008,2.3889999v0.7270012c0,0.5730019,0.0110016,1.0030022,0.0220032,1.4189987
					c0.0110016,0.432003,0.0329971,0.8260002,0.0660019,1.269001h-1.2990036
					c-0.0550003-0.2980003-0.0550003-0.6730003-0.0649948-0.8509979h-0.0220032
					c-0.3420029,0.6289978-1.0800018,0.9829979-1.7509995,0.9829979c-1.0019989,0-1.9830017-0.605999-1.9830017-1.6849976
					c0-0.8490028,0.4079971-1.3430023,0.9700012-1.6190033c0.560997-0.2759972,1.2870026-0.3309975,1.9039993-0.3309975h0.8160019
					c0-0.9140015-0.4090042-1.2200012-1.2770004-1.2200012c-0.6279984,0-1.2560043,0.2420006-1.75,0.6160011L78.2480011,44.0415001z
					"/>
				<rect x="83.4899979" y="41.1559982" clip-path="url(#SVGID_6_)" width="1.4749985" height="8.2589989"/>
				<path clip-path="url(#SVGID_6_)" d="M89.4123993,46.0213013c-0.0429993-0.7140007-0.375-1.329998-1.1999969-1.329998
					c-0.826004,0-1.2440033,0.5699997-1.3100052,1.329998H89.4123993z M90.4044037,49.0932999
					c-0.5400009,0.2980003-1.1550064,0.4530029-1.9490051,0.4530029c-1.8720016,0-2.9629974-1.0790024-2.9629974-2.9420013
					c0-1.6389999,0.8710022-2.9939995,2.6329956-2.9939995c2.102005,0,2.6960068,1.4430008,2.6960068,3.4239998h-3.9190063
					c0.0660019,0.9150009,0.7050018,1.4329987,1.6190033,1.4329987c0.7139969,0,1.3320007-0.2659988,1.8830032-0.5739975V49.0932999
					z"/>
				<path clip-path="url(#SVGID_6_)" d="M50.501297,59.7318039h0.8600006c1.2869987,0,2.5320015-0.9589996,2.5320015-2.6320038
					c0-1.6729965-1.2450027-2.6319962-2.5320015-2.6319962H50.501297V59.7318039z M48.9612999,53.2578011h2.1019974
					c2.3570023,0,4.4370003,0.7900009,4.4370003,3.8419991c0,3.0490036-2.079998,3.840004-4.4370003,3.840004h-2.1019974V53.2578011
					z"/>
				<path clip-path="url(#SVGID_6_)" d="M59.914299,57.5510025c-0.045002-0.715004-0.375-1.3330002-1.2010002-1.3330002
					c-0.8250008,0-1.2439995,0.5719986-1.3089981,1.3330002H59.914299z M60.9043007,60.6220016
					c-0.5400009,0.2959976-1.1550026,0.4519997-1.9480019,0.4519997c-1.8709984,0-2.961998-1.079998-2.961998-2.9399986
					c0-1.6399994,0.8699989-2.9950027,2.6309967-2.9950027c2.1020012,0,2.6980019,1.4420013,2.6980019,3.4239998h-3.9189987
					c0.0649986,0.9150009,0.7039986,1.4310036,1.618,1.4310036c0.7159996,0,1.3319969-0.262001,1.882-0.5730019V60.6220016z"/>
				<path clip-path="url(#SVGID_6_)" d="M65.6083984,56.4589005c-0.4520035-0.151001-0.7820053-0.2399979-1.3220062-0.2399979
					c-0.3959961,0-0.8689957,0.1429977-0.8689957,0.6269989c0,0.9020004,2.5649948,0.3320007,2.5649948,2.3769989
					c0,1.322998-1.1769943,1.8509979-2.3779945,1.8509979c-0.5620003,0-1.1339989-0.0999985-1.6739998-0.2409973
					l0.0880013-1.2139969c0.4629974,0.2329979,0.947998,0.375,1.4539986,0.375c0.3740005,0,0.9700012-0.1420021,0.9700012-0.6930008
					c0-1.1100006-2.5670013-0.3520012-2.5670013-2.3990021c0-1.2229996,1.0690002-1.7609978,2.2249985-1.7609978
					c0.6930008,0,1.1449966,0.1079979,1.6070023,0.2070007L65.6083984,56.4589005z"/>
				<path clip-path="url(#SVGID_6_)" d="M66.7200012,55.2709999h1.4759979v5.6690025h-1.4759979V55.2709999z M66.7200012,52.8269997
					h1.4759979v1.4090004h-1.4759979V52.8269997z"/>
				<path clip-path="url(#SVGID_6_)" d="M73.0393982,58.0450974c0-0.9669952-0.3740005-1.7609978-1.2319946-1.7609978
					c-1.0020065,0-1.3210068,0.9239998-1.3210068,1.795002c0,0.7699966,0.4080048,1.7169991,1.2550049,1.7169991
					C72.6653976,59.7961006,73.0393982,58.9930992,73.0393982,58.0450974 M74.5154037,55.2710991v5.1189995
					c0,1.5410004-0.6160049,2.9960022-2.9950027,2.9960022c-0.5830002,0-1.2549973-0.0890007-1.9589996-0.387001
					l0.1210022-1.2549973c0.4509964,0.2419968,1.1889954,0.4979973,1.6519928,0.4979973
					c1.6300049,0,1.7050018-1.2229996,1.7050018-2.2039986h-0.0199966c-0.2770004,0.4840012-0.9370041,0.9020004-1.762001,0.9020004
					c-1.6740036,0-2.3130035-1.340004-2.3130035-2.8610001c0-1.3640022,0.7060013-2.9389992,2.4000015-2.9389992
					c0.7490005,0,1.3330002,0.2509995,1.7410049,0.9009972h0.0219955v-0.7700005H74.5154037z"/>
				<path clip-path="url(#SVGID_6_)" d="M75.4574966,55.2710991h1.397995v0.7700005h0.0230026
					c0.4609985-0.6499977,1.0889969-0.9020004,1.8590012-0.9020004c1.3439941,0,1.9269943,0.9469986,1.9269943,2.2249985v3.576004
					h-1.4749985v-3.0250015c0-0.6949997-0.0110016-1.632-0.9580002-1.632c-1.0680008,0-1.298996,1.1570015-1.298996,1.8829994
					v2.7740021h-1.4749985V55.2710991z"/>
				<polygon clip-path="url(#SVGID_6_)" points="48.9612999,65.0241013 51.428299,65.0241013 53.2542992,70.8490982 
					53.277298,70.8490982 55.1042976,65.0241013 57.5702972,65.0241013 57.5702972,72.7090988 56.0952988,72.7090988 
					56.0952988,66.3670959 56.0723,66.3670959 54.0032997,72.7090988 52.527298,72.7090988 50.4572983,66.3670959 
					50.4362984,66.3890991 50.4362984,72.7090988 48.9612999,72.7090988 				"/>
				<path clip-path="url(#SVGID_6_)" d="M63.5483017,72.7095032h-1.3970032v-0.7710037h-0.0219994
					c-0.4510002,0.5500031-1.0900002,0.9020004-1.8610001,0.9020004c-1.343998,0-1.9259987-0.9459991-1.9259987-2.2220001
					v-3.5780029h1.4749985v3.0250015c0,0.6940002,0.0110016,1.6310043,0.9570007,1.6310043
					c1.0680008,0,1.2989998-1.1560059,1.2989998-1.8850021v-2.7710037h1.4750023V72.7095032z"/>
				<path clip-path="url(#SVGID_6_)" d="M67.9981003,68.2266998c-0.4520035-0.1520004-0.7820053-0.2419968-1.3220062-0.2419968
					c-0.3959961,0-0.8689957,0.1439972-0.8689957,0.6289978c0,0.9020004,2.5649948,0.3290024,2.5649948,2.3769989
					c0,1.3209991-1.1779938,1.848999-2.3789978,1.848999c-0.5599976,0-1.1319962-0.0979996-1.6729965-0.2419968l0.086998-1.2089996
					c0.4629974,0.2310028,0.9489975,0.3730011,1.4540024,0.3730011c0.3740005,0,0.9699936-0.1419983,0.9699936-0.6930008
					c0-1.112999-2.5669937-0.3530045-2.5669937-2.401001c0-1.2210007,1.0690002-1.7610016,2.2249985-1.7610016
					c0.6940002,0,1.1449966,0.1100006,1.6080017,0.2089996L67.9981003,68.2266998z"/>
				<path clip-path="url(#SVGID_6_)" d="M72.6327972,69.3178024c-0.0429993-0.7170029-0.3740005-1.3330002-1.1999969-1.3330002
					c-0.826004,0-1.2430038,0.572998-1.3110046,1.3330002H72.6327972z M73.6238022,72.389801
					c-0.5400009,0.2959976-1.1560059,0.4499969-1.9480057,0.4499969c-1.8720016,0-2.961998-1.0779953-2.961998-2.9399948
					c0-1.6389999,0.8690033-2.9930038,2.6309967-2.9930038c2.1030045,0,2.6970062,1.4420013,2.6970062,3.4240036h-3.9200058
					c0.0680008,0.9119949,0.7060013,1.4309998,1.6190033,1.4309998c0.7170029,0,1.3320007-0.2649994,1.8830032-0.5730057V72.389801z
					"/>
				<path clip-path="url(#SVGID_6_)" d="M79.7453003,72.7095032h-1.3980026v-0.7710037h-0.0220032
					c-0.4519958,0.5500031-1.0909958,0.9020004-1.8600006,0.9020004c-1.3439941,0-1.9279938-0.9459991-1.9279938-2.2220001
					v-3.5780029h1.4749985v3.0250015c0,0.6940002,0.012001,1.6310043,0.9580002,1.6310043
					c1.0690002,0,1.2999954-1.1560059,1.2999954-1.8850021v-2.7710037h1.4750061V72.7095032z"/>
				<path clip-path="url(#SVGID_6_)" d="M80.5826035,67.0403976h1.3759995v0.7900009h0.0219955
					c0.4640045-0.6930008,1.1340027-0.9229965,1.6839981-0.9229965c0.7940063,0,1.3550034,0.2969971,1.6740036,1.0009995
					c0.3410034-0.6829987,1.0790024-1.0009995,1.7720032-1.0009995c1.3989944,0,1.7959976,0.9560013,1.7959976,2.2229996v3.5789948
					H87.430603v-3.3799973c0-0.5289993,0-1.2770004-0.8479996-1.2770004c-0.9800034,0-1.1000061,1.1669998-1.1000061,1.9029999
					v2.7539978H84.0056v-3.3799973c0-0.5289993,0-1.2770004-0.8470001-1.2770004
					c-0.9800034,0-1.1009979,1.1669998-1.1009979,1.9029999v2.7539978h-1.4749985V67.0403976z"/>
				<polygon clip-path="url(#SVGID_6_)" points="0,37.7799988 0,49.3880005 15.6400003,49.3880005 15.6400003,77 26.9899998,77 
					26.9890003,49.3880005 42.6160011,49.3880005 42.6160011,37.7799988 				"/>
				<rect x="45.3429985" y="34.855999" clip-path="url(#SVGID_6_)" width="0.1790009" height="42.144001"/>
				<rect x="45.3429985" y="34.855999" clip-path="url(#SVGID_6_)" width="0.1790009" height="42.144001"/>
				<rect x="0.034" y="34.343998" clip-path="url(#SVGID_6_)" width="90.7949982" height="0.512001"/>
			</g>
		</g>
	</g>
</g>
</svg>
