<?xml version="1.0" encoding="utf-8"?>
<!-- Generator: Adobe Illustrator 19.2.1, SVG Export Plug-In . SVG Version: 6.00 Build 0)  -->
<svg version="1.1" id="Livello_1" xmlns="http://www.w3.org/2000/svg" xmlns:xlink="http://www.w3.org/1999/xlink" x="0px" y="0px"
	 viewBox="0 0 160 88" enable-background="new 0 0 160 88" xml:space="preserve">
<g>
	<defs>
		<rect id="SVGID_1_" width="160" height="88"/>
	</defs>
	<clipPath id="SVGID_2_">
		<use xlink:href="#SVGID_1_"  overflow="visible"/>
	</clipPath>
	<path clip-path="url(#SVGID_2_)" d="M31.4498997,69.1305008l-2.8099995-2.1610031H10.4839001l-2.8109999,2.1610031H4.8088999
		c-1.7819996-1.9990005-3.1339998-4.3759995-3.9449997-7.0240021H9.7809L12.5909004,59.9445h13.9419994l2.809,2.1619987h8.9169998
		c-0.8110008,2.6480026-2.1619987,5.0250015-3.9440002,7.0240021H31.4498997z M28.6938992,59.9445l-2.809-2.1619987h-12.645999
		L10.4288998,59.9445H0.3239002c-0.2150002-1.1889992-0.3239994-2.3780022-0.3239994-3.6209984
		c0-0.7019997,0-1.3510017,0.1089993-2.0530014h12.0500002l2.809-2.1619987h9.1869993l2.8099995,2.1619987h12.104002
		c0.053997,0.6479988,0.1089973,1.3510017,0.1089973,2.0530014c0,1.2429962-0.1619987,2.4319992-0.3789978,3.6209984H28.6938992z
		 M26.3698997,52.1085014l-2.8630009-2.1609993h-7.9439993L12.8069,52.1085014H0.4319
		c0.3790007-1.7290001,1.0279999-3.3500023,1.7840004-4.8640022h11.9959993l2.8629999-2.1599998h5.0270004l2.8099995,2.1599998
		h11.9959984c0.8100014,1.5139999,1.4050026,3.1350021,1.7830009,4.8640022H26.3698997z M9.8348999,69.1305008H29.287899
		l2.8120003,2.163002C28.7479,74.1575012,24.3178997,75.885498,19.5608997,75.885498
		c-4.7550001,0-9.132-1.7279968-12.5359993-4.5919952L9.8348999,69.1305008z M24.2089005,45.0844994l-2.7560005-2.1619987
		h-3.7280006l-2.8649998,2.1619987H3.5658998c1.0280008-1.5139999,2.3250008-2.8649979,3.7300005-4.0529976h8.8069992
		l2.8110008-2.1620026h1.2959995l2.8099995,2.1620026h8.809c1.4049988,1.1879997,2.7010002,2.5389977,3.7820015,4.0529976
		H24.2089005z M22.3718987,38.8694992l-2.8109989-2.1609993c3.1889992,0,6.269001,0.8100014,8.9169998,2.1609993H22.3718987z
		 M16.7509003,38.8694992h-6.1050005c2.6470003-1.3509979,5.6739988-2.1609993,8.915-2.1609993L16.7509003,38.8694992z"/>
	<path clip-path="url(#SVGID_2_)" d="M58.9713974,36.5676041h2.8549995c2.1130028,0,3.144001,0.829998,3.144001,2.3519974
		c0,1.0440025-0.7290039,1.5340004-1.019001,1.7230034v0.0249977c0.3900032,0.1380005,1.6609993,0.6539993,1.6609993,2.1259995
		c0,1.571003-0.9189987,2.6650009-3.4079971,2.6650009h-3.2330017V36.5676041z M61.6763992,40.3156013
		c1.105999,0,1.5839996-0.2889977,1.5839996-1.1819992c0-0.9189987-0.5909996-1.2459984-1.7360001-1.2459984h-0.8310013v2.4279976
		H61.6763992z M61.9524002,44.1006012c1.1819992,0,1.9369965-0.3009987,1.9369965-1.2579994
		c0-1.0439987-0.7809982-1.3069992-2.1759987-1.3069992h-1.0200005v2.5649986H61.9524002z"/>
	<path clip-path="url(#SVGID_2_)" d="M67.1709976,42.9061012v-4.3139992h1.6729965v4.125
		c0,0.993,0.163002,1.4220009,1.0690002,1.4220009c0.7159958,0,1.4589996-0.3650017,1.7860031-0.5410004v-5.0060005h1.6719971
		v6.8670006h-1.6719971v-0.7420006c-0.4530029,0.3269997-1.3330002,0.8920021-2.3150024,0.8920021
		C67.321991,45.6091042,67.1709976,44.3141022,67.1709976,42.9061012"/>
	<path clip-path="url(#SVGID_2_)" d="M75.3202972,38.5924988h1.6729965v0.9180031
		c0.3259964-0.4659996,0.9940033-1.0559998,1.848999-1.0559998c0.3889999,0,0.6669998,0.0369987,0.8919983,0.1119995
		l-0.2389984,1.3839989c-0.3259964-0.0620003-0.4889984-0.0750008-0.8799973-0.0750008
		c-0.6910019,0-1.3199997,0.4020004-1.6220016,0.7789993v4.8040009h-1.6729965V38.5924988z"/>
	<path clip-path="url(#SVGID_2_)" d="M80.2125015,42.1394997c0-2.8050003,1.4209976-3.7109985,3.3580017-3.7109985
		c1.9869995,0,2.7919998,1.3079987,2.7919998,3.4589996v0.6030006h-4.477005c0,1.5099983,0.9430008,1.7609978,2.163002,1.7609978
		c0.4779968,0,1.2949982-0.1629982,1.8619995-0.276001l0.2630005,1.295002
		c-0.5670013,0.1759987-1.4830017,0.3390007-2.427002,0.3390007C81.5834961,45.6095009,80.2125015,44.8305016,80.2125015,42.1394997
		 M84.6395035,41.3714981c0.0119934-1.0309982-0.4030075-1.7479973-1.2330017-1.7479973
		c-0.8420029,0-1.4080048,0.6170006-1.4830017,1.7479973H84.6395035z"/>
	<path clip-path="url(#SVGID_2_)" d="M87.3930969,43.5477028c0-1.7229996,1.5589981-2.0750008,2.8300018-2.0880013
		l1.3580017-0.012001v-0.6040001c0-0.7929993-0.4520035-0.980999-1.4470062-0.980999
		c-0.6539993,0-1.4069977,0.1759987-1.9109955,0.3009987l-0.340004-1.2449989
		c0.6040039-0.2259979,1.4980011-0.4899979,2.5540009-0.4899979c1.8990021,0,2.7789993,0.5659981,2.7789993,2.0369987v3.3460007
		c0,0.3269997,0.2770004,0.4029999,0.6290054,0.4279976l-0.076004,1.2820015h-0.3649979
		c-0.7280045,0-1.5220032-0.1759987-1.6720047-0.7789993c-0.4399948,0.3260002-1.1439972,0.829998-2.1380005,0.829998
		C88.1980972,45.5727005,87.3930969,44.8677025,87.3930969,43.5477028 M91.5811005,43.8237v-1.3579979l-1.2710037,0.0509987
		c-0.7910004,0.012001-1.2939987,0.3390007-1.2939987,0.9050026c0,0.6040001,0.427002,0.829998,0.9550018,0.829998
		C90.5490952,44.2517014,91.2290955,43.9367027,91.5811005,43.8237"/>
	<path clip-path="url(#SVGID_2_)" d="M95.4542999,42.9061012v-4.3139992h1.6729965v4.125
		c0,0.993,0.163002,1.4220009,1.0690002,1.4220009c0.7170029,0,1.4580002-0.3650017,1.7860031-0.5410004v-5.0060005h1.6719971
		v6.8670006h-1.6719971v-0.7420006c-0.4540024,0.3269997-1.3330002,0.8920021-2.314003,0.8920021
		C95.6052933,45.6091042,95.4542999,44.3141022,95.4542999,42.9061012"/>
</g>
<rect x="58.9710007" y="50.8829994" width="1.7099991" height="8.8909988"/>
<g>
	<defs>
		<rect id="SVGID_3_" width="160" height="88"/>
	</defs>
	<clipPath id="SVGID_4_">
		<use xlink:href="#SVGID_3_"  overflow="visible"/>
	</clipPath>
	<path clip-path="url(#SVGID_4_)" d="M62.8063011,52.9085999h1.6729927v0.7290001
		c0.503006-0.3639984,1.3460007-0.9049988,2.302002-0.9049988c2.1010056,0,2.2389984,1.2700005,2.2389984,2.6910019v4.3519974
		h-1.659996v-4.1639977c0-1.0440025-0.2020035-1.420002-1.1200027-1.420002c-0.6909943,0-1.3450012,0.3139992-1.7610016,0.5400009
		v5.0439987h-1.6729927V52.9085999z"/>
	<path clip-path="url(#SVGID_4_)" d="M71.1949997,57.7252998v-3.5339966h-1.0060043v-1.2830009h1.0060043v-1.4080009h1.659996
		v1.4080009h2.1389999v1.2830009h-2.1389999v3.5209999c0,0.6919975,0.2269974,0.7809982,0.9690018,0.7809982
		c0.427002,0,1.2689972-0.1399994,1.3330002-0.1520004l0.1889954,1.3339996c-0.3909988,0.125-1.0189972,0.237999-1.496994,0.237999
		C72.5399933,59.9132996,71.1949997,59.9383011,71.1949997,57.7252998"/>
	<path clip-path="url(#SVGID_4_)" d="M76.1500015,56.4553032c0-2.8040009,1.4209976-3.7099991,3.3569946-3.7099991
		c1.9880066,0,2.7919998,1.3069992,2.7919998,3.4589958v0.6030045H77.822998c0,1.5089989,0.9430008,1.7599983,2.1620026,1.7599983
		c0.4789963,0,1.2959976-0.1629982,1.8619995-0.276001l0.2639999,1.295002
		c-0.5670013,0.1759987-1.4840012,0.3389969-2.427002,0.3389969C77.5209961,59.9253006,76.1500015,59.1463013,76.1500015,56.4553032
		 M80.5770035,55.6873016c0.0119934-1.0309982-0.4030075-1.7479973-1.2330017-1.7479973
		c-0.8420029,0-1.4080048,0.6170006-1.4840012,1.7479973H80.5770035z"/>
	<path clip-path="url(#SVGID_4_)" d="M83.8082962,52.9085999h1.6729965v0.9180031
		c0.3259964-0.4659996,0.9940033-1.0559998,1.848999-1.0559998c0.3889999,0,0.6669998,0.0379982,0.8919983,0.1119995
		l-0.2389984,1.3839989c-0.3259964-0.0620003-0.4889984-0.0750008-0.8799973-0.0750008
		c-0.6910019,0-1.3199997,0.4020004-1.6220016,0.7789993v4.8050003h-1.6729965V52.9085999z"/>
	<path clip-path="url(#SVGID_4_)" d="M89.1156006,52.9085999h1.6729965v0.7290001
		c0.5029984-0.3639984,1.3460007-0.9049988,2.302002-0.9049988c2.0999985,0,2.2389984,1.2700005,2.2389984,2.6910019v4.3519974
		h-1.6600037v-4.1639977c0-1.0440025-0.2019958-1.420002-1.1209946-1.420002c-0.6910019,0-1.3450012,0.3139992-1.7600021,0.5400009
		v5.0439987h-1.6729965V52.9085999z"/>
	<path clip-path="url(#SVGID_4_)" d="M96.7738953,57.8642006c0-1.7229996,1.5599976-2.0750008,2.8300018-2.0879974
		l1.3580017-0.0130005v-0.6040001c0-0.7919998-0.4520035-0.9799995-1.4460068-0.9799995
		c-0.6539993,0-1.4079971,0.1759987-1.9119949,0.3009987l-0.3390045-1.2449989
		c0.6040039-0.2260017,1.4970016-0.4910011,2.5530014-0.4910011c1.8990021,0,2.7789993,0.5670013,2.7789993,2.0379982v3.3450012
		c0,0.3269997,0.2770004,0.4029999,0.6290054,0.4279976l-0.0750046,1.2830009h-0.3649979
		c-0.7290039,0-1.5220032-0.1769981-1.6730042-0.7799988c-0.4399948,0.3269997-1.1429977,0.8309975-2.1380005,0.8309975
		C97.579895,59.8891983,96.7738953,59.1842003,96.7738953,57.8642006 M100.9618988,58.1401978v-1.3579979l-1.2700043,0.0499992
		c-0.7919998,0.0130005-1.2949982,0.340004-1.2949982,0.906002c0,0.6040001,0.427002,0.8289986,0.9560013,0.8289986
		C99.9308929,58.5671997,100.6098938,58.2532005,100.9618988,58.1401978"/>
	<path clip-path="url(#SVGID_4_)" d="M105.1119995,57.7252998v-3.5339966h-1.0050049v-1.2830009h1.0050049v-1.4080009h1.659996
		v1.4080009h2.1380005v1.2830009h-2.1380005v3.5209999c0,0.6919975,0.2269974,0.7809982,0.9690018,0.7809982
		c0.427002,0,1.2689972-0.1399994,1.3330002-0.1520004l0.1889954,1.3339996c-0.3909988,0.125-1.0189972,0.237999-1.496994,0.237999
		C106.4579926,59.9132996,105.1119995,59.9383011,105.1119995,57.7252998"/>
</g>
<path d="M110.1179962,50.7709999l1.1810074-1.1819992l1.1949997,1.1819992l-1.1949997,1.1949997L110.1179962,50.7709999z
	 M110.4820023,52.9080009h1.6729965v6.8670006h-1.6729965V52.9080009z"/>
<g>
	<defs>
		<rect id="SVGID_5_" width="160" height="88"/>
	</defs>
	<clipPath id="SVGID_6_">
		<use xlink:href="#SVGID_5_"  overflow="visible"/>
	</clipPath>
	<path clip-path="url(#SVGID_6_)" d="M113.700798,56.405304c0-2.3150024,1.3839951-3.6730003,3.4219971-3.6730003
		c2.288002,0,3.3450012,1.3449974,3.3450012,3.6099968c0,2.3639984-1.4580002,3.5839996-3.4459991,3.5839996
		C114.8957977,59.9263,113.700798,58.5932999,113.700798,56.405304 M118.7697983,56.3423004
		c0-1.1699982-0.3270035-2.2769966-1.6850052-2.2769966c-1.3330002,0-1.6969986,1.1069984-1.6969986,2.2889977
		c0,1.2709999,0.4140015,2.2259979,1.7220001,2.2259979C118.4427948,58.5802994,118.7697983,57.5873032,118.7697983,56.3423004"/>
	<path clip-path="url(#SVGID_6_)" d="M122.0141983,52.9085999h1.6729965v0.7290001
		c0.5029984-0.3639984,1.3460007-0.9049988,2.302002-0.9049988c2.0999908,0,2.2379913,1.2700005,2.2379913,2.6910019v4.3519974
		h-1.659996v-4.1639977c0-1.0440025-0.2009964-1.420002-1.1189957-1.420002c-0.6920013,0-1.3460007,0.3139992-1.7610016,0.5400009
		v5.0439987h-1.6729965V52.9085999z"/>
	<path clip-path="url(#SVGID_6_)" d="M129.6732941,57.8642006c0-1.7229996,1.5589905-2.0750008,2.8289948-2.0879974
		l1.3590088-0.0130005v-0.6040001c0-0.7919998-0.4530029-0.9799995-1.4470062-0.9799995
		c-0.654007,0-1.4080048,0.1759987-1.9109955,0.3009987l-0.3400116-1.2449989
		c0.6040039-0.2260017,1.4970093-0.4910011,2.5540009-0.4910011c1.8990021,0,2.779007,0.5670013,2.779007,2.0379982v3.3450012
		c0,0.3269997,0.276001,0.4029999,0.6279907,0.4279976l-0.0749969,1.2830009h-0.3649902
		c-0.7290039,0-1.5220032-0.1769981-1.6730042-0.7799988c-0.4389954,0.3269997-1.1430054,0.8309975-2.1370087,0.8309975
		C130.4782867,59.8891983,129.6732941,59.1842003,129.6732941,57.8642006 M133.8612976,58.1401978v-1.3579979l-1.2710114,0.0499992
		c-0.7910004,0.0130005-1.2949982,0.340004-1.2949982,0.906002c0,0.6040001,0.427002,0.8289986,0.9560089,0.8289986
		C132.8292847,58.5671997,133.5082855,58.2532005,133.8612976,58.1401978"/>
</g>
<rect x="137.7590027" y="50.2929993" width="1.6730042" height="9.4829998"/>
<g>
	<defs>
		<rect id="SVGID_7_" width="160" height="88"/>
	</defs>
	<clipPath id="SVGID_8_">
		<use xlink:href="#SVGID_7_"  overflow="visible"/>
	</clipPath>
	<path clip-path="url(#SVGID_8_)" d="M58.3927994,70.4608002c0-2.3639984,1.5849991-3.5459976,3.5460014-3.5459976
		c0.4790001,0,0.7679977,0.0499954,1.0820007,0.112999v-2.5530014h1.6719933v9.4830017h-1.6719933V73.403801
		c-0.3400002,0.2890015-0.8040009,0.6660004-1.6350021,0.6660004
		C60.0657997,74.0698013,58.3927994,73.4667969,58.3927994,70.4608002 M63.0208015,72.2338028v-3.8479996
		c-0.2520027-0.0620041-0.5650024-0.1380005-1.0560036-0.1380005c-1.3579979,0-1.8989983,0.9669952-1.8989983,2.2509995
		c0,1.6350021,0.7169991,2.1749954,1.6100006,2.1749954C62.1657982,72.6737976,62.719799,72.3977966,63.0208015,72.2338028"/>
	<path clip-path="url(#SVGID_8_)" d="M66.2406006,70.6376038c0-2.8050003,1.4209976-3.7109985,3.3580017-3.7109985
		c1.9869995,0,2.7909927,1.3079987,2.7909927,3.4589996v0.6039963h-4.4759979c0,1.5090027,0.9430008,1.7600021,2.163002,1.7600021
		c0.4779968,0,1.2949982-0.163002,1.8610001-0.276001l0.2639999,1.2939987
		c-0.5670013,0.177002-1.4840012,0.3399963-2.427002,0.3399963C67.6115952,74.1075974,66.2406006,73.328598,66.2406006,70.6376038
		 M70.6676025,69.8695984c0.0119934-1.0309982-0.4030075-1.7480011-1.2330017-1.7480011
		c-0.8420029,0-1.4080048,0.6170044-1.4840012,1.7480011H70.6676025z"/>
	<path clip-path="url(#SVGID_8_)" d="M73.4464035,73.8190002l0.2009964-1.2949982
		C74.3654022,72.637001,75.0683975,72.75,75.5973969,72.75c1.0680008,0,1.3830032-0.3269958,1.3830032-0.7050018
		c0-1.0559998-3.4589996-0.6409988-3.4589996-3.0679932c0-1.3830032,1.2579956-2.0630035,2.6920013-2.0630035
		c0.8050003,0,1.5339966,0.1640015,2.0629959,0.3529968l-0.2770004,1.2450027
		c-0.5410004-0.1259995-1.0569992-0.2519989-1.7859955-0.2519989c-0.7680054,0-1.0190048,0.3389969-1.0190048,0.6289978
		c0,1.0940018,3.4340057,0.7919998,3.4340057,3.0690002c0,1.7229996-1.7240067,2.1500015-2.8670044,2.1500015
		C74.7923965,74.1080017,74.0243988,73.9820023,73.4464035,73.8190002"/>
</g>
<polygon points="83.2306976,65.0653992 88.7386932,65.0653992 88.7386932,66.4234009 84.9406967,66.4234009 84.9406967,68.8514023 
	88.4626923,68.8514023 88.4626923,70.1343994 84.9406967,70.1343994 84.9406967,72.5993958 89.0276947,72.5993958 
	89.0276947,73.9573975 83.2306976,73.9573975 "/>
<polygon points="92.259903,70.4485016 89.9449005,67.0904999 91.881897,67.0904999 93.2148972,69.3925018 94.5618973,67.0904999 
	96.4608994,67.0904999 94.1588974,70.4355011 96.6608963,73.9575043 94.6489029,73.9575043 93.2148972,71.5045013 
	91.756897,73.9575043 89.7818985,73.9575043 "/>
<g>
	<defs>
		<rect id="SVGID_9_" width="160" height="88"/>
	</defs>
	<clipPath id="SVGID_10_">
		<use xlink:href="#SVGID_9_"  overflow="visible"/>
	</clipPath>
	<path clip-path="url(#SVGID_10_)" d="M97.7931976,67.0904007h1.659996v0.5149994
		c0.3519974-0.2630005,1.0940018-0.6790009,1.7610016-0.6790009c1.8479996,0,2.9430008,1.0070038,2.9430008,3.3210068
		c0,2.8669968-1.7480011,3.8359985-3.6470032,3.8359985c-0.4150009,0-0.7669983-0.038002-1.0569992-0.0630035v2.7030029h-1.659996
		V67.0904007z M102.4581985,70.3853989c0-1.3079987-0.439003-2.0499954-1.7230072-2.0499954
		c-0.4639969,0-1.0299988,0.2639999-1.2819977,0.3649979v3.9869995c0.2519989,0.0250015,0.5910034,0.0999985,1.1070023,0.0999985
		C101.7921982,72.7873993,102.4581985,71.7564011,102.4581985,70.3853989"/>
	<path clip-path="url(#SVGID_10_)" d="M105.2751999,70.5870972c0-2.3149948,1.3839951-3.6729965,3.4219971-3.6729965
		c2.288002,0,3.3440018,1.3460007,3.3440018,3.6100006c0,2.3639984-1.4580002,3.5839996-3.4449997,3.5839996
		C106.4692001,74.1081009,105.2751999,72.7751007,105.2751999,70.5870972 M110.3442001,70.5241013
		c0-1.1699982-0.3270035-2.2770004-1.6850052-2.2770004c-1.3339996,0-1.6969986,1.1070023-1.6969986,2.2890015
		c0,1.2709961,0.413002,2.2259979,1.7220001,2.2259979C110.0171967,72.7621002,110.3442001,71.769104,110.3442001,70.5241013"/>
	<path clip-path="url(#SVGID_10_)" d="M113.1356964,73.8190002l0.2009964-1.2949982
		C114.0546951,72.637001,114.7576904,72.75,115.2856903,72.75c1.0690002,0,1.3840027-0.3269958,1.3840027-0.7050018
		c0-1.0559998-3.4580002-0.6409988-3.4580002-3.0679932c0-1.3830032,1.2569962-2.0630035,2.6910019-2.0630035
		c0.8050003,0,1.5339966,0.1640015,2.0619965,0.3529968l-0.276001,1.2450027
		c-0.5410004-0.1259995-1.0569992-0.2519989-1.7859955-0.2519989c-0.7680054,0-1.0190048,0.3389969-1.0190048,0.6289978
		c0,1.0940018,3.4340057,0.7919998,3.4340057,3.0690002c0,1.7229996-1.7240067,2.1500015-2.8680038,2.1500015
		C114.48069,74.1080017,113.7136917,73.9820023,113.1356964,73.8190002"/>
</g>
<path d="M119.4369965,64.9519958l1.1809998-1.1819954l1.1950073,1.1819954l-1.1950073,1.1950073L119.4369965,64.9519958z
	 M119.8010025,67.0899963h1.6729965v6.8670044h-1.6729965V67.0899963z"/>
<g>
	<defs>
		<rect id="SVGID_11_" width="160" height="88"/>
	</defs>
	<clipPath id="SVGID_12_">
		<use xlink:href="#SVGID_11_"  overflow="visible"/>
	</clipPath>
	<path clip-path="url(#SVGID_12_)" d="M123.6865005,71.9075012v-3.5350037h-1.0050049v-1.2819977h1.0050049v-1.4089966h1.659996
		v1.4089966h2.1380005v1.2819977h-2.1380005v3.5220032c0,0.6920013,0.2269974,0.7799988,0.9690018,0.7799988
		c0.427002,0,1.2689972-0.1380005,1.3330002-0.151001l0.1889954,1.3330002
		c-0.3899994,0.1259995-1.0189972,0.2389984-1.496994,0.2389984
		C125.0324936,74.0954971,123.6865005,74.1204987,123.6865005,71.9075012"/>
</g>
<path d="M128.6920013,64.9519958l1.1819916-1.1819954l1.1940002,1.1819954l-1.1940002,1.1950073L128.6920013,64.9519958z
	 M129.0570068,67.0899963h1.6730042v6.8670044h-1.6730042V67.0899963z"/>
<g>
	<defs>
		<rect id="SVGID_13_" width="160" height="88"/>
	</defs>
	<clipPath id="SVGID_14_">
		<use xlink:href="#SVGID_13_"  overflow="visible"/>
	</clipPath>
	<path clip-path="url(#SVGID_14_)" d="M132.2754059,70.5870972c0-2.3149948,1.3839874-3.6729965,3.4219971-3.6729965
		c2.2879944,0,3.3450012,1.3460007,3.3450012,3.6100006c0,2.3639984-1.4589996,3.5839996-3.4459991,3.5839996
		C133.471405,74.1081009,132.2754059,72.7751007,132.2754059,70.5870972 M137.3444061,70.5241013
		c0-1.1699982-0.3270111-2.2770004-1.6850128-2.2770004c-1.3339996,0-1.696991,1.1070023-1.696991,2.2890015
		c0,1.2709961,0.4140015,2.2259979,1.7220001,2.2259979C137.017395,72.7621002,137.3444061,71.769104,137.3444061,70.5241013"/>
	<path clip-path="url(#SVGID_14_)" d="M140.5886993,67.0904999h1.6729889v0.7300034
		c0.503006-0.3649979,1.3450012-0.9059982,2.3010101-0.9059982c2.1009979,0,2.2389984,1.2709961,2.2389984,2.6909943v4.352005
		h-1.6600037v-4.1640015c0-1.0429993-0.2019958-1.4199982-1.1199951-1.4199982
		c-0.6910095,0-1.3450012,0.3139954-1.7600098,0.5399933v5.0440063h-1.6729889V67.0904999z"/>
	<path clip-path="url(#SVGID_14_)" d="M148.2725983,73.8190002l0.2009888-1.2949982
		C149.1915894,72.637001,149.8955841,72.75,150.423584,72.75c1.0680084,0,1.3830109-0.3269958,1.3830109-0.7050018
		c0-1.0559998-3.4580078-0.6409988-3.4580078-3.0679932c0-1.3830032,1.2570038-2.0630035,2.6910095-2.0630035
		c0.8049927,0,1.5339966,0.1640015,2.0619965,0.3529968l-0.276001,1.2450027
		c-0.5410004-0.1259995-1.0570068-0.2519989-1.7859955-0.2519989c-0.7680054,0-1.0190125,0.3389969-1.0190125,0.6289978
		c0,1.0940018,3.4340057,0.7919998,3.4340057,3.0690002c0,1.7229996-1.723999,2.1500015-2.8670044,2.1500015
		C149.6175842,74.1080017,148.8505859,73.9820023,148.2725983,73.8190002"/>
</g>
</svg>
