<?xml version="1.0" encoding="utf-8"?>
<!-- Generator: Adobe Illustrator 15.0.0, SVG Export Plug-In . SVG Version: 6.00 Build 0)  -->
<!DOCTYPE svg PUBLIC "-//W3C//DTD SVG 1.1//EN" "http://www.w3.org/Graphics/SVG/1.1/DTD/svg11.dtd">
<svg version="1.1" id="Layer_1" xmlns="http://www.w3.org/2000/svg" xmlns:xlink="http://www.w3.org/1999/xlink" x="0px" y="0px"
	 width="20px" height="100px" viewBox="0 0 20 100" enable-background="new 0 0 20 100" xml:space="preserve">
<g>
	<path d="M3,95c0,2.2,0.9,4,2,4s2-1.8,2-4V65.777c0-2.2,1.165-5.372,2.589-7.049l4.822-5.68c1.424-1.677,1.424-4.421,0-6.099
		l-4.822-5.679C8.165,39.594,7,36.422,7,34.222V5c0-2.2-0.9-4-2-4S3,2.8,3,5v29.222c0,2.2,1.13,5.401,2.511,7.113l4.478,5.551
		c1.381,1.712,1.381,4.514,0,6.227l-4.478,5.551C4.13,60.376,3,63.577,3,65.777V95z"/>
</g>
</svg>
