<?xml version="1.0" encoding="utf-8"?>
<!-- Generator: Adobe Illustrator 15.0.0, SVG Export Plug-In . SVG Version: 6.00 Build 0)  -->
<!DOCTYPE svg PUBLIC "-//W3C//DTD SVG 1.1//EN" "http://www.w3.org/Graphics/SVG/1.1/DTD/svg11.dtd">
<svg version="1.1" id="Layer_1" xmlns="http://www.w3.org/2000/svg" xmlns:xlink="http://www.w3.org/1999/xlink" x="0px" y="0px"
	 width="20px" height="100px" viewBox="0 0 20 100" enable-background="new 0 0 20 100" xml:space="preserve">
<g>
	<path fill="#ED1F24" d="M17,95c0,2.2-0.9,4-2,4s-2-1.8-2-4V65.777c0-2.2-1.165-5.372-2.589-7.049l-4.822-5.68
		c-1.424-1.677-1.424-4.421,0-6.099l4.822-5.679C11.835,39.594,13,36.422,13,34.222V5c0-2.2,0.9-4,2-4s2,1.8,2,4v29.222
		c0,2.2-1.13,5.401-2.512,7.113l-4.477,5.551c-1.381,1.712-1.381,4.514,0,6.227l4.477,5.551C15.87,60.376,17,63.577,17,65.777V95z"
		/>
</g>
</svg>
